<?xml version="1.0" encoding="UTF-8"?>
<svg viewBox="0 0 46 36" version="1.1" xmlns="http://www.w3.org/2000/svg" xmlns:xlink="http://www.w3.org/1999/xlink">
    <defs>
        <filter x="-9.8%" y="-9.7%" width="119.6%" height="125.0%" filterUnits="objectBoundingBox" id="filter-1">
            <feOffset dx="0" dy="1" in="SourceAlpha" result="shadowOffsetOuter1"></feOffset>
            <feGaussianBlur stdDeviation="1" in="shadowOffsetOuter1" result="shadowBlurOuter1"></feGaussianBlur>
            <feColorMatrix values="0 0 0 0 0   0 0 0 0 0   0 0 0 0 0  0 0 0 0.1 0" type="matrix" in="shadowBlurOuter1" result="shadowMatrixOuter1"></feColorMatrix>
            <feMerge>
                <feMergeNode in="shadowMatrixOuter1"></feMergeNode>
                <feMergeNode in="SourceGraphic"></feMergeNode>
            </feMerge>
        </filter>
    </defs>
    <g id="Playing-View-/-Button---Subtitle-V2" stroke="none" stroke-width="1" fill="none" fill-rule="evenodd">
        <g id="Subtitle" filter="url(#filter-1)">
            <path d="M3,0 L43,0 C44.6568542,-3.04359188e-16 46,1.34314575 46,3 L46,33 C46,34.6568542 44.6568542,36 43,36 L3,36 C1.34314575,36 2.02906125e-16,34.6568542 0,33 L0,3 C-2.02906125e-16,1.34314575 1.34314575,3.04359188e-16 3,0 Z M7,5 C5.8954305,5 5,5.8954305 5,7 L5,29 C5,30.1045695 5.8954305,31 7,31 L39,31 C40.1045695,31 41,30.1045695 41,29 L41,7 C41,5.8954305 40.1045695,5 39,5 L7,5 Z M11.5,20 L13.5,20 C14.3284271,20 15,20.6715729 15,21.5 L15,23.5 C15,24.3284271 14.3284271,25 13.5,25 L11.5,25 C10.6715729,25 10,24.3284271 10,23.5 L10,21.5 C10,20.6715729 10.6715729,20 11.5,20 Z M20.5,20 L34.5,20 C35.3284271,20 36,20.6715729 36,21.5 L36,23.5 C36,24.3284271 35.3284271,25 34.5,25 L20.5,25 C19.6715729,25 19,24.3284271 19,23.5 L19,21.5 C19,20.6715729 19.6715729,20 20.5,20 Z" id="Combined-Shape" fill-opacity="0.9" fill="#FFFFFF"></path>
            <path d="M3,0 L43,0 C44.6568542,-3.04359188e-16 46,1.34314575 46,3 L46,33 C46,34.6568542 44.6568542,36 43,36 L3,36 C1.34314575,36 2.02906125e-16,34.6568542 0,33 L0,3 C-2.02906125e-16,1.34314575 1.34314575,3.04359188e-16 3,0 Z M7,5 C5.8954305,5 5,5.8954305 5,7 L5,29 C5,30.1045695 5.8954305,31 7,31 L39,31 C40.1045695,31 41,30.1045695 41,29 L41,7 C41,5.8954305 40.1045695,5 39,5 L7,5 Z M11.5,20 L13.5,20 C14.3284271,20 15,20.6715729 15,21.5 L15,23.5 C15,24.3284271 14.3284271,25 13.5,25 L11.5,25 C10.6715729,25 10,24.3284271 10,23.5 L10,21.5 C10,20.6715729 10.6715729,20 11.5,20 Z M20.5,20 L34.5,20 C35.3284271,20 36,20.6715729 36,21.5 L36,23.5 C36,24.3284271 35.3284271,25 34.5,25 L20.5,25 C19.6715729,25 19,24.3284271 19,23.5 L19,21.5 C19,20.6715729 19.6715729,20 20.5,20 Z" id="Combined-Shape" stroke-opacity="0.3" stroke="#000000" stroke-width="0.5" opacity="0.28"></path>
        </g>
    </g>
</svg>