
<svg width="101px" height="43px" viewBox="20 2 60 43" version="1.1" xmlns="http://www.w3.org/2000/svg" xmlns:xlink="http://www.w3.org/1999/xlink">
    <!-- Generator: Sketch 49.3 (51167) - http://www.bohemiancoding.com/sketch -->
    <desc>Created with Sketch.</desc>
    <defs>
        <filter x="-80.5%" y="-80.5%" width="261.0%" height="261.0%" filterUnits="objectBoundingBox" id="filter-1">
            <feGaussianBlur stdDeviation="11 0" in="SourceGraphic"></feGaussianBlur>
        </filter>
        <filter x="-7.3%" y="-7.3%" width="114.6%" height="114.6%" filterUnits="objectBoundingBox" id="filter-2">
            <feGaussianBlur stdDeviation="1 0" in="SourceGraphic"></feGaussianBlur>
        </filter>
        <path d="M44.5,86 C33.1965278,86 24,76.8034722 24,65.5 C24,54.1965278 33.1965278,45 44.5,45 C55.8034722,45 65,54.1965278 65,65.5 C65,76.8034722 55.8034722,86 44.5,86 Z M44.5,49.5555556 C35.7077778,49.5555556 28.5555556,56.7077778 28.5555556,65.5 C28.5555556,74.2922222 35.7077778,81.4444444 44.5,81.4444444 C53.2922222,81.4444444 60.4444444,74.2922222 60.4444444,65.5 C60.4444444,56.7077778 53.2922222,49.5555556 44.5,49.5555556 Z M46.7777778,72.3333333 L42.2222222,72.3333333 L42.2222222,67.7777778 L37.6666667,67.7777778 L37.6666667,63.2222222 L42.2222222,63.2222222 L42.2222222,58.6666667 L46.7777778,58.6666667 L46.7777778,63.2222222 L51.3333333,63.2222222 L51.3333333,67.7777778 L46.7777778,67.7777778 L46.7777778,72.3333333 Z" id="path-3"></path>
        <radialGradient cx="50%" cy="54.0688058%" fx="50%" fy="54.0688058%" r="35.4492055%" id="radialGradient-5">
            <stop stop-color="#FFFFFF" offset="0%"></stop>
            <stop stop-color="#FFFFFF" stop-opacity="0" offset="100%"></stop>
        </radialGradient>
        <linearGradient x1="74.8286995%" y1="-9.88210257%" x2="6.95363209%" y2="111.831644%" id="linearGradient-6">
            <stop stop-color="#FFFFFF" offset="0%"></stop>
            <stop stop-color="#C2C2C2" offset="31.4168285%"></stop>
            <stop stop-color="#DBDBDB" stop-opacity="0.74535779" offset="67.7630573%"></stop>
            <stop stop-color="#DBDBDB" stop-opacity="0.74535779" offset="78.8141189%"></stop>
            <stop stop-color="#FFFFFF" stop-opacity="0" offset="100%"></stop>
        </linearGradient>
    </defs>
    <g id="Interactions" stroke="none" stroke-width="1" fill="none" fill-rule="evenodd" opacity="0.8">
        <g id="Func_006-播放器默认界面和功能" transform="translate(-1324.000000, -2015.000000)">
            <g id="2.-样式设计" transform="translate(278.000000, 1268.000000)">
                <g id="default-screen" transform="translate(515.000000, 458.000000)">
                    <g id="icon/add/normal" transform="translate(554.000000, 288.000000)">
                        <g id="icon-add" transform="translate(-17.000000, -43.000000)">
                            <path d="M44.5,86 C33.1965278,86 24,76.8034722 24,65.5 C24,54.1965278 33.1965278,45 44.5,45 C55.8034722,45 65,54.1965278 65,65.5 C65,76.8034722 55.8034722,86 44.5,86 Z M44.5,49.5555556 C35.7077778,49.5555556 28.5555556,56.7077778 28.5555556,65.5 C28.5555556,74.2922222 35.7077778,81.4444444 44.5,81.4444444 C53.2922222,81.4444444 60.4444444,74.2922222 60.4444444,65.5 C60.4444444,56.7077778 53.2922222,49.5555556 44.5,49.5555556 Z M46.7777778,72.3333333 L42.2222222,72.3333333 L42.2222222,67.7777778 L37.6666667,67.7777778 L37.6666667,63.2222222 L42.2222222,63.2222222 L42.2222222,58.6666667 L46.7777778,58.6666667 L46.7777778,63.2222222 L51.3333333,63.2222222 L51.3333333,67.7777778 L46.7777778,67.7777778 L46.7777778,72.3333333 Z" id="Shape" fill="#000000" fill-rule="nonzero" opacity="0.05" style="mix-blend-mode: overlay;" filter="url(#filter-1)"></path>
                            <path d="M44.5,86 C33.1965278,86 24,76.8034722 24,65.5 C24,54.1965278 33.1965278,45 44.5,45 C55.8034722,45 65,54.1965278 65,65.5 C65,76.8034722 55.8034722,86 44.5,86 Z M44.5,49.5555556 C35.7077778,49.5555556 28.5555556,56.7077778 28.5555556,65.5 C28.5555556,74.2922222 35.7077778,81.4444444 44.5,81.4444444 C53.2922222,81.4444444 60.4444444,74.2922222 60.4444444,65.5 C60.4444444,56.7077778 53.2922222,49.5555556 44.5,49.5555556 Z M46.7777778,72.3333333 L42.2222222,72.3333333 L42.2222222,67.7777778 L37.6666667,67.7777778 L37.6666667,63.2222222 L42.2222222,63.2222222 L42.2222222,58.6666667 L46.7777778,58.6666667 L46.7777778,63.2222222 L51.3333333,63.2222222 L51.3333333,67.7777778 L46.7777778,67.7777778 L46.7777778,72.3333333 Z" id="Shape" fill="#FFFFFF" fill-rule="nonzero" style="mix-blend-mode: overlay;" filter="url(#filter-2)"></path>
                            <path d="M44.5,86 C33.1965278,86 24,76.8034722 24,65.5 C24,54.1965278 33.1965278,45 44.5,45 C55.8034722,45 65,54.1965278 65,65.5 C65,76.8034722 55.8034722,86 44.5,86 Z M44.5,49.5555556 C35.7077778,49.5555556 28.5555556,56.7077778 28.5555556,65.5 C28.5555556,74.2922222 35.7077778,81.4444444 44.5,81.4444444 C53.2922222,81.4444444 60.4444444,74.2922222 60.4444444,65.5 C60.4444444,56.7077778 53.2922222,49.5555556 44.5,49.5555556 Z M46.7777778,72.3333333 L42.2222222,72.3333333 L42.2222222,67.7777778 L37.6666667,67.7777778 L37.6666667,63.2222222 L42.2222222,63.2222222 L42.2222222,58.6666667 L46.7777778,58.6666667 L46.7777778,63.2222222 L51.3333333,63.2222222 L51.3333333,67.7777778 L46.7777778,67.7777778 L46.7777778,72.3333333 Z" id="Shape" fill-opacity="0.63" fill="#FFFFFF" fill-rule="nonzero" opacity="0.75"></path>
                            <g id="setting--highlight">
                                <mask id="mask-4" fill="white">
                                    <use xlink:href="#path-3"></use>
                                </mask>
                                <g id="Shape" fill-rule="nonzero"></g>
                                <circle id="light" fill="url(#radialGradient-5)" opacity="0.8" mask="url(#mask-4)" cx="55" cy="55" r="55"></circle>
                            </g>
                            <path d="M44.5,86 C33.1965278,86 24,76.8034722 24,65.5 C24,54.1965278 33.1965278,45 44.5,45 C55.8034722,45 65,54.1965278 65,65.5 C65,76.8034722 55.8034722,86 44.5,86 Z M44.5,49.5555556 C35.7077778,49.5555556 28.5555556,56.7077778 28.5555556,65.5 C28.5555556,74.2922222 35.7077778,81.4444444 44.5,81.4444444 C53.2922222,81.4444444 60.4444444,74.2922222 60.4444444,65.5 C60.4444444,56.7077778 53.2922222,49.5555556 44.5,49.5555556 Z M46.7777778,72.3333333 L42.2222222,72.3333333 L42.2222222,67.7777778 L37.6666667,67.7777778 L37.6666667,63.2222222 L42.2222222,63.2222222 L42.2222222,58.6666667 L46.7777778,58.6666667 L46.7777778,63.2222222 L51.3333333,63.2222222 L51.3333333,67.7777778 L46.7777778,67.7777778 L46.7777778,72.3333333 Z" id="Shape" stroke="url(#linearGradient-6)" stroke-width="0.5" opacity="0.28" fill-rule="nonzero"></path>
                        </g>
                    </g>
                </g>
            </g>
        </g>
    </g>
</svg>
