<?xml version="1.0" encoding="UTF-8"?>
<svg viewBox="0 0 46 36" version="1.1" xmlns="http://www.w3.org/2000/svg" xmlns:xlink="http://www.w3.org/1999/xlink">
    <defs>
        <filter x="-23.7%" y="-17.5%" width="147.4%" height="145.0%" filterUnits="objectBoundingBox" id="filter-1">
            <feOffset dx="0" dy="1" in="SourceAlpha" result="shadowOffsetOuter1"></feOffset>
            <feGaussianBlur stdDeviation="1" in="shadowOffsetOuter1" result="shadowBlurOuter1"></feGaussianBlur>
            <feColorMatrix values="0 0 0 0 0   0 0 0 0 0   0 0 0 0 0  0 0 0 0.1 0" type="matrix" in="shadowBlurOuter1" result="shadowMatrixOuter1"></feColorMatrix>
            <feMerge>
                <feMergeNode in="shadowMatrixOuter1"></feMergeNode>
                <feMergeNode in="SourceGraphic"></feMergeNode>
            </feMerge>
        </filter>
        <filter x="-22.5%" y="-9.7%" width="145.0%" height="125.0%" filterUnits="objectBoundingBox" id="filter-2">
            <feOffset dx="0" dy="1" in="SourceAlpha" result="shadowOffsetOuter1"></feOffset>
            <feGaussianBlur stdDeviation="1" in="shadowOffsetOuter1" result="shadowBlurOuter1"></feGaussianBlur>
            <feColorMatrix values="0 0 0 0 0   0 0 0 0 0   0 0 0 0 0  0 0 0 0.1 0" type="matrix" in="shadowBlurOuter1" result="shadowMatrixOuter1"></feColorMatrix>
            <feMerge>
                <feMergeNode in="shadowMatrixOuter1"></feMergeNode>
                <feMergeNode in="SourceGraphic"></feMergeNode>
            </feMerge>
        </filter>
    </defs>
    <g id="Playing-View-/-Button---Volume-V2---Level-2" stroke="none" stroke-width="1" fill="none" fill-rule="evenodd">
        <g id="Volume" filter="url(#filter-1)" transform="translate(0.000000, 8.000000)">
            <path d="M2,4 L4,4 C5.1045695,4 6,4.8954305 6,6 L6,14 C6,15.1045695 5.1045695,16 4,16 L2,16 C0.8954305,16 1.3527075e-16,15.1045695 0,14 L0,6 C-1.3527075e-16,4.8954305 0.8954305,4 2,4 Z M15,0 L17,0 C18.1045695,-2.02906125e-16 19,0.8954305 19,2 L19,18 C19,19.1045695 18.1045695,20 17,20 L15,20 C13.8954305,20 13,19.1045695 13,18 L13,2 C13,0.8954305 13.8954305,2.02906125e-16 15,0 Z" id="Combined-Shape" fill-opacity="0.9" fill="#FFFFFF"></path>
            <path d="M2,4 L4,4 C5.1045695,4 6,4.8954305 6,6 L6,14 C6,15.1045695 5.1045695,16 4,16 L2,16 C0.8954305,16 1.3527075e-16,15.1045695 0,14 L0,6 C-1.3527075e-16,4.8954305 0.8954305,4 2,4 Z M15,0 L17,0 C18.1045695,-2.02906125e-16 19,0.8954305 19,2 L19,18 C19,19.1045695 18.1045695,20 17,20 L15,20 C13.8954305,20 13,19.1045695 13,18 L13,2 C13,0.8954305 13.8954305,2.02906125e-16 15,0 Z" id="Combined-Shape" stroke-opacity="0.3" stroke="#000000" stroke-width="0.5" opacity="0.28"></path>
        </g>
        <g id="Volume---level-2" filter="url(#filter-2)" transform="translate(26.000000, 0.000000)">
            <rect id="Rectangle-5-Copy-2" fill-opacity="0.5" fill="#FFFFFF" x="0" y="4" width="6" height="28" rx="1"></rect>
            <rect id="Rectangle-5-Copy-2" stroke-opacity="0.3" stroke="#000000" stroke-width="0.5" opacity="0.28" x="0" y="4" width="6" height="28" rx="1"></rect>
            <rect id="Rectangle-5-Copy-4" fill-opacity="0.5" fill="#FFFFFF" x="14" y="0" width="6" height="36" rx="1"></rect>
            <rect id="Rectangle-5-Copy-4" stroke-opacity="0.3" stroke="#000000" stroke-width="0.5" opacity="0.28" x="14" y="0" width="6" height="36" rx="1"></rect>
        </g>
    </g>
</svg>