<?xml version="1.0" encoding="UTF-8"?>
<svg width="56px" height="48px" viewBox="0 0 56 48" version="1.1" xmlns="http://www.w3.org/2000/svg" xmlns:xlink="http://www.w3.org/1999/xlink">
    <!-- Generator: Sketch 50.2 (55047) - http://www.bohemiancoding.com/sketch -->
    <title>player/icon/volume/mid</title>
    <desc>Created with Sketch.</desc>
    <defs>
        <filter x="-10.2%" y="-9.2%" width="120.5%" height="121.1%" filterUnits="objectBoundingBox" id="filter-1">
            <feOffset dx="0" dy="1" in="SourceAlpha" result="shadowOffsetOuter1"></feOffset>
            <feGaussianBlur stdDeviation="1" in="shadowOffsetOuter1" result="shadowBlurOuter1"></feGaussianBlur>
            <feColorMatrix values="0 0 0 0 0.552941176   0 0 0 0 0.552941176   0 0 0 0 0.552941176  0 0 0 0.5 0" type="matrix" in="shadowBlurOuter1" result="shadowMatrixOuter1"></feColorMatrix>
            <feMerge>
                <feMergeNode in="shadowMatrixOuter1"></feMergeNode>
                <feMergeNode in="SourceGraphic"></feMergeNode>
            </feMerge>
        </filter>
    </defs>
    <g id="player/icon/volume/mid" stroke="none" stroke-width="1" fill="none" fill-rule="evenodd">
        <g id="icon-volume--normal" filter="url(#filter-1)" transform="translate(1.000000, 7.000000)">
            <g id="volume--bg-blur" fill="#FFFFFF" opacity="0.9">
                <path d="M30.3860601,25.7618888 L26.9989979,22.5826713 C28.341561,21.4150948 29.1902982,19.6943738 29.1902982,17.7754196 C29.1902982,15.9666894 28.436263,14.3340736 27.2253917,13.1747711 L30.6051823,10.002379 C32.5927755,11.9925805 33.8218771,14.740464 33.8218771,17.7754196 C33.8218771,20.9203942 32.502049,23.7571064 30.3860601,25.7618888 Z" id="4"></path>
                <path d="M37.6648014,32.439558 L34.0170893,29.0156851 C36.9604086,26.114088 38.7849353,22.0806156 38.7849353,17.6210022 C38.7849353,13.3027504 37.0742437,9.38405211 34.293588,6.50563474 L37.9394996,3.08345196 C41.5599266,6.85656316 43.7849353,11.9789434 43.7849353,17.6210022 C43.7849353,23.4043993 41.4470536,28.6417549 37.6648014,32.439558 Z" id="3"></path>
                <path d="M13.2849674,13.7077115 L8.06,13.7077115 C6.37000867,13.7077115 5,15.0777202 5,16.7677115 L5,20.3472928 C5,22.0372841 6.37000867,23.4072928 8.06,23.4072928 L13.410316,23.4072928 L17.2267512,27.1436822 C17.3220654,27.2369972 17.4501452,27.2892562 17.5835337,27.2892562 C17.8651989,27.2892562 18.0935337,27.0609215 18.0935337,26.7792562 L18.0935337,10.2130285 C18.0935337,10.07964 18.0412747,9.95156023 17.9479596,9.85624606 C17.7509141,9.65497917 17.4280181,9.65155707 17.2267512,9.84860259 L13.2849674,13.7077115 Z M11.9131598,9.64434237 L21.2587511,0.298751083 C21.6570859,-0.0995836944 22.3029141,-0.0995836944 22.7012489,0.298751083 C22.892536,0.490038189 23,0.74947918 23,1.02 L23,36.0950043 C23,36.6583348 22.5433304,37.1150043 21.98,37.1150043 C21.7094792,37.1150043 21.4500382,37.0075404 21.2587511,36.8162532 L11.9131598,27.470662 C11.5773019,27.5277639 11.2321238,27.5575022 10.88,27.5575022 L6.12,27.5575022 C2.74001733,27.5575022 -4.74249924e-16,24.8174848 -8.8817842e-16,21.4375022 L0,15.6775022 C-4.13928496e-16,12.2975195 2.74001733,9.55750217 6.12,9.55750217 L10.88,9.55750217 C11.2321238,9.55750217 11.5773019,9.5872404 11.9131598,9.64434237 Z" id="1"></path>
            </g>
            <g id="volume--border" opacity="0.28" stroke="#878787" stroke-width="0.5">
                <path d="M30.3860601,25.7618888 L26.9989979,22.5826713 C28.341561,21.4150948 29.1902982,19.6943738 29.1902982,17.7754196 C29.1902982,15.9666894 28.436263,14.3340736 27.2253917,13.1747711 L30.6051823,10.002379 C32.5927755,11.9925805 33.8218771,14.740464 33.8218771,17.7754196 C33.8218771,20.9203942 32.502049,23.7571064 30.3860601,25.7618888 Z" id="4"></path>
                <path d="M37.6648014,32.439558 L34.0170893,29.0156851 C36.9604086,26.114088 38.7849353,22.0806156 38.7849353,17.6210022 C38.7849353,13.3027504 37.0742437,9.38405211 34.293588,6.50563474 L37.9394996,3.08345196 C41.5599266,6.85656316 43.7849353,11.9789434 43.7849353,17.6210022 C43.7849353,23.4043993 41.4470536,28.6417549 37.6648014,32.439558 Z" id="3"></path>
                <path d="M13.2849674,13.7077115 L8.06,13.7077115 C6.37000867,13.7077115 5,15.0777202 5,16.7677115 L5,20.3472928 C5,22.0372841 6.37000867,23.4072928 8.06,23.4072928 L13.410316,23.4072928 L17.2267512,27.1436822 C17.3220654,27.2369972 17.4501452,27.2892562 17.5835337,27.2892562 C17.8651989,27.2892562 18.0935337,27.0609215 18.0935337,26.7792562 L18.0935337,10.2130285 C18.0935337,10.07964 18.0412747,9.95156023 17.9479596,9.85624606 C17.7509141,9.65497917 17.4280181,9.65155707 17.2267512,9.84860259 L13.2849674,13.7077115 Z M11.9131598,9.64434237 L21.2587511,0.298751083 C21.6570859,-0.0995836944 22.3029141,-0.0995836944 22.7012489,0.298751083 C22.892536,0.490038189 23,0.74947918 23,1.02 L23,36.0950043 C23,36.6583348 22.5433304,37.1150043 21.98,37.1150043 C21.7094792,37.1150043 21.4500382,37.0075404 21.2587511,36.8162532 L11.9131598,27.470662 C11.5773019,27.5277639 11.2321238,27.5575022 10.88,27.5575022 L6.12,27.5575022 C2.74001733,27.5575022 -4.74249924e-16,24.8174848 -8.8817842e-16,21.4375022 L0,15.6775022 C-4.13928496e-16,12.2975195 2.74001733,9.55750217 6.12,9.55750217 L10.88,9.55750217 C11.2321238,9.55750217 11.5773019,9.5872404 11.9131598,9.64434237 Z" id="1"></path>
            </g>
        </g>
    </g>
</svg>