<?xml version="1.0" encoding="UTF-8"?>
<svg width="30px" height="24px" viewBox="43 0 30 45" version="1.1" xmlns="http://www.w3.org/2000/svg" xmlns:xlink="http://www.w3.org/1999/xlink">
    <!-- Generator: Sketch 48.2 (47327) - http://www.bohemiancoding.com/sketch -->
    <title>icon-volume</title>
    <desc>Created with Sketch.</desc>
    <defs>
        <filter x="-60.6%" y="-76.1%" width="221.1%" height="252.2%" filterUnits="objectBoundingBox" id="filter-1">
            <feGaussianBlur stdDeviation="11 0" in="SourceGraphic"></feGaussianBlur>
        </filter>
        <filter x="-5.5%" y="-6.9%" width="111.0%" height="113.8%" filterUnits="objectBoundingBox" id="filter-2">
            <feGaussianBlur stdDeviation="1 0" in="SourceGraphic"></feGaussianBlur>
        </filter>
        <path d="M30.3860601,29.6901606 L26.9989979,26.5109431 C28.341561,25.3433666 29.1902982,23.6226456 29.1902982,21.7036914 C29.1902982,19.8949612 28.436263,18.2623454 27.2253917,17.1030429 L30.6051823,13.9306508 C32.5927755,15.9208523 33.8218771,18.6687358 33.8218771,21.7036914 C33.8218771,24.848666 32.502049,27.6853782 30.3860601,29.6901606 Z M37.6648014,36.3678298 L34.0170893,32.9439569 C36.9604086,30.0423598 38.7849353,26.0088874 38.7849353,21.549274 C38.7849353,17.2310222 37.0742437,13.3123239 34.293588,10.4339065 L37.9394996,7.01172372 C41.5599266,10.784835 43.7849353,15.9072152 43.7849353,21.549274 C43.7849353,27.3326711 41.4470536,32.5700267 37.6648014,36.3678298 Z M46.3147941,43.3708982 L42.601393,40.022211 C46.8776559,35.3885545 49.4900473,29.1962212 49.4900473,22.3937313 C49.4900473,14.8774761 46.3006732,8.10613916 41.2014457,3.3592412 L44.9265503,0 C50.8200823,5.64314541 54.4900473,13.5898552 54.4900473,22.3937313 C54.4900473,30.4841476 51.3908028,37.8506967 46.3147941,43.3708982 Z M11.9131598,13.5726142 L21.2587511,4.22702284 C21.6570859,3.82868807 22.3029141,3.82868807 22.7012489,4.22702284 C22.892536,4.41830995 23,4.67775094 23,4.94827176 L23,40.0232761 C23,40.5866066 22.5433304,41.0432761 21.98,41.0432761 C21.7094792,41.0432761 21.4500382,40.9358122 21.2587511,40.744525 L11.9131598,31.3989338 C11.5773019,31.4560357 11.2321238,31.485774 10.88,31.485774 L6.12,31.485774 C2.74001733,31.485774 4.13928496e-16,28.7457566 0,25.365774 L8.8817842e-16,19.605774 C4.74249924e-16,16.2257913 2.74001733,13.485774 6.12,13.485774 L10.88,13.485774 C11.2321238,13.485774 11.5773019,13.5155122 11.9131598,13.5726142 Z M13.2849674,17.6359833 L8.06,17.6359833 C6.37000867,17.6359833 5,19.005992 5,20.6959833 L5,24.2755646 C5,25.9655559 6.37000867,27.3355646 8.06,27.3355646 L13.410316,27.3355646 L17.2267512,31.071954 C17.3220654,31.165269 17.4501452,31.217528 17.5835337,31.217528 C17.8651989,31.217528 18.0935337,30.9891933 18.0935337,30.707528 L18.0935337,14.1413003 C18.0935337,14.0079118 18.0412747,13.879832 17.9479596,13.7845179 C17.7509141,13.583251 17.4280181,13.5798289 17.2267512,13.7768744 L13.2849674,17.6359833 Z" id="path-3"></path>
        <radialGradient cx="50%" cy="54.0688058%" fx="50%" fy="54.0688058%" r="35.4492055%" id="radialGradient-5">
            <stop stop-color="#FFFFFF" offset="0%"></stop>
            <stop stop-color="#FFFFFF" stop-opacity="0" offset="100%"></stop>
        </radialGradient>
        <linearGradient x1="74.8286995%" y1="-9.88210257%" x2="0%" y2="100%" id="linearGradient-6">
            <stop stop-color="#FFFFFF" offset="0%"></stop>
            <stop stop-color="#C2C2C2" offset="65.0888871%"></stop>
            <stop stop-color="#DBDBDB" stop-opacity="0.74535779" offset="80.8035714%"></stop>
            <stop stop-color="#FFFFFF" stop-opacity="0" offset="100%"></stop>
        </linearGradient>
    </defs>
    <g id="播放/暂停在中间-质感" stroke="none" stroke-width="1" fill="none" fill-rule="evenodd" transform="translate(-1115.000000, -687.000000)" opacity="0.8">
        <g id="player" transform="translate(50.000000, 50.000000)">
            <g id="icon-volume" transform="translate(1096.000000, 638.000000)">
                <path d="M30.3860601,29.6901606 L26.9989979,26.5109431 C28.341561,25.3433666 29.1902982,23.6226456 29.1902982,21.7036914 C29.1902982,19.8949612 28.436263,18.2623454 27.2253917,17.1030429 L30.6051823,13.9306508 C32.5927755,15.9208523 33.8218771,18.6687358 33.8218771,21.7036914 C33.8218771,24.848666 32.502049,27.6853782 30.3860601,29.6901606 Z M37.6648014,36.3678298 L34.0170893,32.9439569 C36.9604086,30.0423598 38.7849353,26.0088874 38.7849353,21.549274 C38.7849353,17.2310222 37.0742437,13.3123239 34.293588,10.4339065 L37.9394996,7.01172372 C41.5599266,10.784835 43.7849353,15.9072152 43.7849353,21.549274 C43.7849353,27.3326711 41.4470536,32.5700267 37.6648014,36.3678298 Z M46.3147941,43.3708982 L42.601393,40.022211 C46.8776559,35.3885545 49.4900473,29.1962212 49.4900473,22.3937313 C49.4900473,14.8774761 46.3006732,8.10613916 41.2014457,3.3592412 L44.9265503,0 C50.8200823,5.64314541 54.4900473,13.5898552 54.4900473,22.3937313 C54.4900473,30.4841476 51.3908028,37.8506967 46.3147941,43.3708982 Z M11.9131598,13.5726142 L21.2587511,4.22702284 C21.6570859,3.82868807 22.3029141,3.82868807 22.7012489,4.22702284 C22.892536,4.41830995 23,4.67775094 23,4.94827176 L23,40.0232761 C23,40.5866066 22.5433304,41.0432761 21.98,41.0432761 C21.7094792,41.0432761 21.4500382,40.9358122 21.2587511,40.744525 L11.9131598,31.3989338 C11.5773019,31.4560357 11.2321238,31.485774 10.88,31.485774 L6.12,31.485774 C2.74001733,31.485774 4.13928496e-16,28.7457566 0,25.365774 L8.8817842e-16,19.605774 C4.74249924e-16,16.2257913 2.74001733,13.485774 6.12,13.485774 L10.88,13.485774 C11.2321238,13.485774 11.5773019,13.5155122 11.9131598,13.5726142 Z M13.2849674,17.6359833 L8.06,17.6359833 C6.37000867,17.6359833 5,19.005992 5,20.6959833 L5,24.2755646 C5,25.9655559 6.37000867,27.3355646 8.06,27.3355646 L13.410316,27.3355646 L17.2267512,31.071954 C17.3220654,31.165269 17.4501452,31.217528 17.5835337,31.217528 C17.8651989,31.217528 18.0935337,30.9891933 18.0935337,30.707528 L18.0935337,14.1413003 C18.0935337,14.0079118 18.0412747,13.879832 17.9479596,13.7845179 C17.7509141,13.583251 17.4280181,13.5798289 17.2267512,13.7768744 L13.2849674,17.6359833 Z" id="volume" fill="#000000" fill-rule="nonzero" style="mix-blend-mode: overlay;" opacity="0.05" filter="url(#filter-1)"></path>
                <path d="M30.3860601,29.6901606 L26.9989979,26.5109431 C28.341561,25.3433666 29.1902982,23.6226456 29.1902982,21.7036914 C29.1902982,19.8949612 28.436263,18.2623454 27.2253917,17.1030429 L30.6051823,13.9306508 C32.5927755,15.9208523 33.8218771,18.6687358 33.8218771,21.7036914 C33.8218771,24.848666 32.502049,27.6853782 30.3860601,29.6901606 Z M37.6648014,36.3678298 L34.0170893,32.9439569 C36.9604086,30.0423598 38.7849353,26.0088874 38.7849353,21.549274 C38.7849353,17.2310222 37.0742437,13.3123239 34.293588,10.4339065 L37.9394996,7.01172372 C41.5599266,10.784835 43.7849353,15.9072152 43.7849353,21.549274 C43.7849353,27.3326711 41.4470536,32.5700267 37.6648014,36.3678298 Z M46.3147941,43.3708982 L42.601393,40.022211 C46.8776559,35.3885545 49.4900473,29.1962212 49.4900473,22.3937313 C49.4900473,14.8774761 46.3006732,8.10613916 41.2014457,3.3592412 L44.9265503,0 C50.8200823,5.64314541 54.4900473,13.5898552 54.4900473,22.3937313 C54.4900473,30.4841476 51.3908028,37.8506967 46.3147941,43.3708982 Z M11.9131598,13.5726142 L21.2587511,4.22702284 C21.6570859,3.82868807 22.3029141,3.82868807 22.7012489,4.22702284 C22.892536,4.41830995 23,4.67775094 23,4.94827176 L23,40.0232761 C23,40.5866066 22.5433304,41.0432761 21.98,41.0432761 C21.7094792,41.0432761 21.4500382,40.9358122 21.2587511,40.744525 L11.9131598,31.3989338 C11.5773019,31.4560357 11.2321238,31.485774 10.88,31.485774 L6.12,31.485774 C2.74001733,31.485774 4.13928496e-16,28.7457566 0,25.365774 L8.8817842e-16,19.605774 C4.74249924e-16,16.2257913 2.74001733,13.485774 6.12,13.485774 L10.88,13.485774 C11.2321238,13.485774 11.5773019,13.5155122 11.9131598,13.5726142 Z M13.2849674,17.6359833 L8.06,17.6359833 C6.37000867,17.6359833 5,19.005992 5,20.6959833 L5,24.2755646 C5,25.9655559 6.37000867,27.3355646 8.06,27.3355646 L13.410316,27.3355646 L17.2267512,31.071954 C17.3220654,31.165269 17.4501452,31.217528 17.5835337,31.217528 C17.8651989,31.217528 18.0935337,30.9891933 18.0935337,30.707528 L18.0935337,14.1413003 C18.0935337,14.0079118 18.0412747,13.879832 17.9479596,13.7845179 C17.7509141,13.583251 17.4280181,13.5798289 17.2267512,13.7768744 L13.2849674,17.6359833 Z" id="volume" fill="#FFFFFF" fill-rule="nonzero" style="mix-blend-mode: overlay;" filter="url(#filter-2)"></path>
                <path d="M30.3860601,29.6901606 L26.9989979,26.5109431 C28.341561,25.3433666 29.1902982,23.6226456 29.1902982,21.7036914 C29.1902982,19.8949612 28.436263,18.2623454 27.2253917,17.1030429 L30.6051823,13.9306508 C32.5927755,15.9208523 33.8218771,18.6687358 33.8218771,21.7036914 C33.8218771,24.848666 32.502049,27.6853782 30.3860601,29.6901606 Z M37.6648014,36.3678298 L34.0170893,32.9439569 C36.9604086,30.0423598 38.7849353,26.0088874 38.7849353,21.549274 C38.7849353,17.2310222 37.0742437,13.3123239 34.293588,10.4339065 L37.9394996,7.01172372 C41.5599266,10.784835 43.7849353,15.9072152 43.7849353,21.549274 C43.7849353,27.3326711 41.4470536,32.5700267 37.6648014,36.3678298 Z M46.3147941,43.3708982 L42.601393,40.022211 C46.8776559,35.3885545 49.4900473,29.1962212 49.4900473,22.3937313 C49.4900473,14.8774761 46.3006732,8.10613916 41.2014457,3.3592412 L44.9265503,0 C50.8200823,5.64314541 54.4900473,13.5898552 54.4900473,22.3937313 C54.4900473,30.4841476 51.3908028,37.8506967 46.3147941,43.3708982 Z M11.9131598,13.5726142 L21.2587511,4.22702284 C21.6570859,3.82868807 22.3029141,3.82868807 22.7012489,4.22702284 C22.892536,4.41830995 23,4.67775094 23,4.94827176 L23,40.0232761 C23,40.5866066 22.5433304,41.0432761 21.98,41.0432761 C21.7094792,41.0432761 21.4500382,40.9358122 21.2587511,40.744525 L11.9131598,31.3989338 C11.5773019,31.4560357 11.2321238,31.485774 10.88,31.485774 L6.12,31.485774 C2.74001733,31.485774 4.13928496e-16,28.7457566 0,25.365774 L8.8817842e-16,19.605774 C4.74249924e-16,16.2257913 2.74001733,13.485774 6.12,13.485774 L10.88,13.485774 C11.2321238,13.485774 11.5773019,13.5155122 11.9131598,13.5726142 Z M13.2849674,17.6359833 L8.06,17.6359833 C6.37000867,17.6359833 5,19.005992 5,20.6959833 L5,24.2755646 C5,25.9655559 6.37000867,27.3355646 8.06,27.3355646 L13.410316,27.3355646 L17.2267512,31.071954 C17.3220654,31.165269 17.4501452,31.217528 17.5835337,31.217528 C17.8651989,31.217528 18.0935337,30.9891933 18.0935337,30.707528 L18.0935337,14.1413003 C18.0935337,14.0079118 18.0412747,13.879832 17.9479596,13.7845179 C17.7509141,13.583251 17.4280181,13.5798289 17.2267512,13.7768744 L13.2849674,17.6359833 Z" id="volume" fill-opacity="0.63" fill="#FFFFFF" fill-rule="nonzero" opacity="0.75"></path>
                <g id="light">
                    <mask id="mask-4" fill="white">
                        <use xlink:href="#path-3"></use>
                    </mask>
                    <g id="volume" opacity="0.28" fill-rule="nonzero"></g>
                    <circle id="Oval-2" fill="url(#radialGradient-5)" opacity="0.8" mask="url(#mask-4)" cx="34" cy="13" r="51"></circle>
                </g>
                <path d="M30.3860601,29.6901606 L26.9989979,26.5109431 C28.341561,25.3433666 29.1902982,23.6226456 29.1902982,21.7036914 C29.1902982,19.8949612 28.436263,18.2623454 27.2253917,17.1030429 L30.6051823,13.9306508 C32.5927755,15.9208523 33.8218771,18.6687358 33.8218771,21.7036914 C33.8218771,24.848666 32.502049,27.6853782 30.3860601,29.6901606 Z M37.6648014,36.3678298 L34.0170893,32.9439569 C36.9604086,30.0423598 38.7849353,26.0088874 38.7849353,21.549274 C38.7849353,17.2310222 37.0742437,13.3123239 34.293588,10.4339065 L37.9394996,7.01172372 C41.5599266,10.784835 43.7849353,15.9072152 43.7849353,21.549274 C43.7849353,27.3326711 41.4470536,32.5700267 37.6648014,36.3678298 Z M46.3147941,43.3708982 L42.601393,40.022211 C46.8776559,35.3885545 49.4900473,29.1962212 49.4900473,22.3937313 C49.4900473,14.8774761 46.3006732,8.10613916 41.2014457,3.3592412 L44.9265503,0 C50.8200823,5.64314541 54.4900473,13.5898552 54.4900473,22.3937313 C54.4900473,30.4841476 51.3908028,37.8506967 46.3147941,43.3708982 Z M11.9131598,13.5726142 L21.2587511,4.22702284 C21.6570859,3.82868807 22.3029141,3.82868807 22.7012489,4.22702284 C22.892536,4.41830995 23,4.67775094 23,4.94827176 L23,40.0232761 C23,40.5866066 22.5433304,41.0432761 21.98,41.0432761 C21.7094792,41.0432761 21.4500382,40.9358122 21.2587511,40.744525 L11.9131598,31.3989338 C11.5773019,31.4560357 11.2321238,31.485774 10.88,31.485774 L6.12,31.485774 C2.74001733,31.485774 4.13928496e-16,28.7457566 0,25.365774 L8.8817842e-16,19.605774 C4.74249924e-16,16.2257913 2.74001733,13.485774 6.12,13.485774 L10.88,13.485774 C11.2321238,13.485774 11.5773019,13.5155122 11.9131598,13.5726142 Z M13.2849674,17.6359833 L8.06,17.6359833 C6.37000867,17.6359833 5,19.005992 5,20.6959833 L5,24.2755646 C5,25.9655559 6.37000867,27.3355646 8.06,27.3355646 L13.410316,27.3355646 L17.2267512,31.071954 C17.3220654,31.165269 17.4501452,31.217528 17.5835337,31.217528 C17.8651989,31.217528 18.0935337,30.9891933 18.0935337,30.707528 L18.0935337,14.1413003 C18.0935337,14.0079118 18.0412747,13.879832 17.9479596,13.7845179 C17.7509141,13.583251 17.4280181,13.5798289 17.2267512,13.7768744 L13.2849674,17.6359833 Z" id="volume" stroke="url(#linearGradient-6)" stroke-width="0.5" opacity="0.28" fill-rule="nonzero"></path>
            </g>
        </g>
    </g>
</svg>