<?xml version="1.0" encoding="UTF-8"?>
<svg viewBox="0 0 46 36" version="1.1" xmlns="http://www.w3.org/2000/svg" xmlns:xlink="http://www.w3.org/1999/xlink">
    <defs>
        <filter x="-14.1%" y="-12.5%" width="128.1%" height="132.1%" filterUnits="objectBoundingBox" id="filter-1">
            <feOffset dx="0" dy="1" in="SourceAlpha" result="shadowOffsetOuter1"></feOffset>
            <feGaussianBlur stdDeviation="1" in="shadowOffsetOuter1" result="shadowBlurOuter1"></feGaussianBlur>
            <feColorMatrix values="0 0 0 0 0   0 0 0 0 0   0 0 0 0 0  0 0 0 0.1 0" type="matrix" in="shadowBlurOuter1" result="shadowMatrixOuter1"></feColorMatrix>
            <feMerge>
                <feMergeNode in="shadowMatrixOuter1"></feMergeNode>
                <feMergeNode in="SourceGraphic"></feMergeNode>
            </feMerge>
        </filter>
        <filter x="-75.0%" y="-9.7%" width="250.0%" height="125.0%" filterUnits="objectBoundingBox" id="filter-2">
            <feOffset dx="0" dy="1" in="SourceAlpha" result="shadowOffsetOuter1"></feOffset>
            <feGaussianBlur stdDeviation="1" in="shadowOffsetOuter1" result="shadowBlurOuter1"></feGaussianBlur>
            <feColorMatrix values="0 0 0 0 0   0 0 0 0 0   0 0 0 0 0  0 0 0 0.1 0" type="matrix" in="shadowBlurOuter1" result="shadowMatrixOuter1"></feColorMatrix>
            <feMerge>
                <feMergeNode in="shadowMatrixOuter1"></feMergeNode>
                <feMergeNode in="SourceGraphic"></feMergeNode>
            </feMerge>
        </filter>
    </defs>
    <g id="Playing-View-/-Button---Volume-V2---Level-3" stroke="none" stroke-width="1" fill="none" fill-rule="evenodd">
        <g id="Volume" filter="url(#filter-1)" transform="translate(0.000000, 4.000000)">
            <path d="M2,8 L4,8 C5.1045695,8 6,8.8954305 6,10 L6,18 C6,19.1045695 5.1045695,20 4,20 L2,20 C0.8954305,20 1.3527075e-16,19.1045695 0,18 L0,10 C-1.3527075e-16,8.8954305 0.8954305,8 2,8 Z M15,4 L17,4 C18.1045695,4 19,4.8954305 19,6 L19,22 C19,23.1045695 18.1045695,24 17,24 L15,24 C13.8954305,24 13,23.1045695 13,22 L13,6 C13,4.8954305 13.8954305,4 15,4 Z M28,0 L30,0 C31.1045695,-2.02906125e-16 32,0.8954305 32,2 L32,26 C32,27.1045695 31.1045695,28 30,28 L28,28 C26.8954305,28 26,27.1045695 26,26 L26,2 C26,0.8954305 26.8954305,2.02906125e-16 28,0 Z" id="Combined-Shape" fill-opacity="0.9" fill="#FFFFFF"></path>
            <path d="M2,8 L4,8 C5.1045695,8 6,8.8954305 6,10 L6,18 C6,19.1045695 5.1045695,20 4,20 L2,20 C0.8954305,20 1.3527075e-16,19.1045695 0,18 L0,10 C-1.3527075e-16,8.8954305 0.8954305,8 2,8 Z M15,4 L17,4 C18.1045695,4 19,4.8954305 19,6 L19,22 C19,23.1045695 18.1045695,24 17,24 L15,24 C13.8954305,24 13,23.1045695 13,22 L13,6 C13,4.8954305 13.8954305,4 15,4 Z M28,0 L30,0 C31.1045695,-2.02906125e-16 32,0.8954305 32,2 L32,26 C32,27.1045695 31.1045695,28 30,28 L28,28 C26.8954305,28 26,27.1045695 26,26 L26,2 C26,0.8954305 26.8954305,2.02906125e-16 28,0 Z" id="Combined-Shape" stroke-opacity="0.3" stroke="#000000" stroke-width="0.5" opacity="0.28"></path>
        </g>
        <g id="Volume---level-3" filter="url(#filter-2)" transform="translate(40.000000, 0.000000)">
            <rect id="Rectangle-5-Copy-4" fill-opacity="0.5" fill="#FFFFFF" x="0" y="0" width="6" height="36" rx="1"></rect>
            <rect id="Rectangle-5-Copy-4" stroke-opacity="0.3" stroke="#000000" stroke-width="0.5" opacity="0.28" x="0" y="0" width="6" height="36" rx="1"></rect>
        </g>
    </g>
</svg>