<?xml version="1.0" encoding="UTF-8"?>
<svg width="56px" height="48px" viewBox="0 0 56 48" version="1.1" xmlns="http://www.w3.org/2000/svg" xmlns:xlink="http://www.w3.org/1999/xlink">
    <!-- Generator: Sketch 50.2 (55047) - http://www.bohemiancoding.com/sketch -->
    <title>player/icon/subtitle</title>
    <desc>Created with Sketch.</desc>
    <defs>
        <filter x="-10.0%" y="-10.3%" width="120.0%" height="126.5%" filterUnits="objectBoundingBox" id="filter-1">
            <feOffset dx="0" dy="1" in="SourceAlpha" result="shadowOffsetOuter1"></feOffset>
            <feGaussianBlur stdDeviation="1" in="shadowOffsetOuter1" result="shadowBlurOuter1"></feGaussianBlur>
            <feColorMatrix values="0 0 0 0 0.552941176   0 0 0 0 0.552941176   0 0 0 0 0.552941176  0 0 0 0.5 0" type="matrix" in="shadowBlurOuter1" result="shadowMatrixOuter1"></feColorMatrix>
            <feMerge>
                <feMergeNode in="shadowMatrixOuter1"></feMergeNode>
                <feMergeNode in="SourceGraphic"></feMergeNode>
            </feMerge>
        </filter>
        <path d="M2,0 L43,0 C44.1045695,-2.02906125e-16 45,0.8954305 45,2 L45,32 C45,33.1045695 44.1045695,34 43,34 L2,34 C0.8954305,34 1.3527075e-16,33.1045695 0,32 L0,2 C-1.3527075e-16,0.8954305 0.8954305,2.02906125e-16 2,0 Z M5,5 L5,29 L40,29 L40,5 L5,5 Z M10,18 L35,18 L35,23 L10,23 L10,18 Z" id="path-2"></path>
    </defs>
    <g id="player/icon/subtitle" stroke="none" stroke-width="1" fill="none" fill-rule="evenodd">
        <g id="icon-subtitle" filter="url(#filter-1)" transform="translate(5.500000, 8.000000)">
            <path d="M2,0 L43,0 C44.1045695,-2.02906125e-16 45,0.8954305 45,2 L45,32 C45,33.1045695 44.1045695,34 43,34 L2,34 C0.8954305,34 1.3527075e-16,33.1045695 0,32 L0,2 C-1.3527075e-16,0.8954305 0.8954305,2.02906125e-16 2,0 Z M5,5 L5,29 L40,29 L40,5 L5,5 Z M10,18 L35,18 L35,23 L10,23 L10,18 Z" id="setting--bg-blur" fill="#FFFFFF" opacity="0.9"></path>
            <g id="setting--highlight">
                <mask id="mask-3" fill="white">
                    <use xlink:href="#path-2"></use>
                </mask>
                <g id="setting--bg-blur"></g>
            </g>
            <path d="M2,0 L43,0 C44.1045695,-2.02906125e-16 45,0.8954305 45,2 L45,32 C45,33.1045695 44.1045695,34 43,34 L2,34 C0.8954305,34 1.3527075e-16,33.1045695 0,32 L0,2 C-1.3527075e-16,0.8954305 0.8954305,2.02906125e-16 2,0 Z M5,5 L5,29 L40,29 L40,5 L5,5 Z M10,18 L35,18 L35,23 L10,23 L10,18 Z" id="setting--bg-blur" stroke="#878787" stroke-width="0.5" opacity="0.28"></path>
        </g>
    </g>
</svg>