<?xml version="1.0" encoding="UTF-8"?>
<svg width="56px" height="48px" viewBox="0 0 56 48" version="1.1" xmlns="http://www.w3.org/2000/svg" xmlns:xlink="http://www.w3.org/1999/xlink">
    <!-- Generator: Sketch 50.2 (55047) - http://www.bohemiancoding.com/sketch -->
    <title>player/icon/volume/high</title>
    <desc>Created with Sketch.</desc>
    <defs>
        <filter x="-4.2%" y="-3.4%" width="108.3%" height="109.6%" filterUnits="objectBoundingBox" id="filter-1">
            <feOffset dx="0" dy="1" in="SourceAlpha" result="shadowOffsetOuter1"></feOffset>
            <feGaussianBlur stdDeviation="1" in="shadowOffsetOuter1" result="shadowBlurOuter1"></feGaussianBlur>
            <feColorMatrix values="0 0 0 0 0.552941176   0 0 0 0 0.552941176   0 0 0 0 0.552941176  0 0 0 0.5 0" type="matrix" in="shadowBlurOuter1" result="shadowMatrixOuter1"></feColorMatrix>
            <feMerge>
                <feMergeNode in="shadowMatrixOuter1"></feMergeNode>
                <feMergeNode in="SourceGraphic"></feMergeNode>
            </feMerge>
        </filter>
    </defs>
    <g id="player/icon/volume/high" stroke="none" stroke-width="1" fill="none" fill-rule="evenodd">
        <g id="icon-volume--normal" filter="url(#filter-1)" transform="translate(-28.000000, -23.000000)">
            <g id="volume--bg-blur" transform="translate(29.000000, 26.000000)" fill="#FFFFFF" opacity="0.9">
                <path d="M30.3860601,29.7618888 L26.9989979,26.5826713 C28.341561,25.4150948 29.1902982,23.6943738 29.1902982,21.7754196 C29.1902982,19.9666894 28.436263,18.3340736 27.2253917,17.1747711 L30.6051823,14.002379 C32.5927755,15.9925805 33.8218771,18.740464 33.8218771,21.7754196 C33.8218771,24.9203942 32.502049,27.7571064 30.3860601,29.7618888 Z" id="4"></path>
                <path d="M37.6648014,36.439558 L34.0170893,33.0156851 C36.9604086,30.114088 38.7849353,26.0806156 38.7849353,21.6210022 C38.7849353,17.3027504 37.0742437,13.3840521 34.293588,10.5056347 L37.9394996,7.08345196 C41.5599266,10.8565632 43.7849353,15.9789434 43.7849353,21.6210022 C43.7849353,27.4043993 41.4470536,32.6417549 37.6648014,36.439558 Z" id="3"></path>
                <path d="M46.3147941,43.4426264 L42.601393,40.0939392 C46.8776559,35.4602827 49.4900473,29.2679494 49.4900473,22.4654595 C49.4900473,14.9492043 46.3006732,8.1778674 41.2014457,3.43096944 L44.9265503,0.0717282388 C50.8200823,5.71487365 54.4900473,13.6615834 54.4900473,22.4654595 C54.4900473,30.5558758 51.3908028,37.9224249 46.3147941,43.4426264 Z" id="2"></path>
                <path d="M13.2849674,17.7077115 L8.06,17.7077115 C6.37000867,17.7077115 5,19.0777202 5,20.7677115 L5,24.3472928 C5,26.0372841 6.37000867,27.4072928 8.06,27.4072928 L13.410316,27.4072928 L17.2267512,31.1436822 C17.3220654,31.2369972 17.4501452,31.2892562 17.5835337,31.2892562 C17.8651989,31.2892562 18.0935337,31.0609215 18.0935337,30.7792562 L18.0935337,14.2130285 C18.0935337,14.07964 18.0412747,13.9515602 17.9479596,13.8562461 C17.7509141,13.6549792 17.4280181,13.6515571 17.2267512,13.8486026 L13.2849674,17.7077115 Z M11.9131598,13.6443424 L21.2587511,4.29875108 C21.6570859,3.90041631 22.3029141,3.90041631 22.7012489,4.29875108 C22.892536,4.49003819 23,4.74947918 23,5.02 L23,40.0950043 C23,40.6583348 22.5433304,41.1150043 21.98,41.1150043 C21.7094792,41.1150043 21.4500382,41.0075404 21.2587511,40.8162532 L11.9131598,31.470662 C11.5773019,31.5277639 11.2321238,31.5575022 10.88,31.5575022 L6.12,31.5575022 C2.74001733,31.5575022 -4.74249924e-16,28.8174848 -8.8817842e-16,25.4375022 L0,19.6775022 C-4.13928496e-16,16.2975195 2.74001733,13.5575022 6.12,13.5575022 L10.88,13.5575022 C11.2321238,13.5575022 11.5773019,13.5872404 11.9131598,13.6443424 Z" id="1"></path>
            </g>
            <g id="volume--border" transform="translate(29.000000, 26.000000)" opacity="0.28" stroke="#878787" stroke-width="0.5">
                <path d="M30.3868612,30.105518 L26.6261655,26.5755948 L26.8349428,26.394029 C28.1633096,25.2387984 28.9402982,23.5703452 28.9402982,21.7754196 C28.9402982,20.0836093 28.2505783,18.5024036 27.0525022,17.3553512 L26.8620127,17.1729744 L30.6108052,13.6542238 L30.7820749,13.8257182 C32.8749002,15.92129 34.0718771,18.7539215 34.0718771,21.7754196 C34.0718771,24.9062418 32.786189,27.8322876 30.5580035,29.9433701 L30.3868612,30.105518 Z" id="4"></path>
                <path d="M37.6706713,36.7879449 L33.6565032,33.0201034 L33.8415789,32.8376511 C36.8250086,29.8965122 38.5349353,25.8947641 38.5349353,21.6210022 C38.5349353,17.4822699 36.9319701,13.5965986 34.1137843,10.6793317 L33.9375734,10.4969255 L37.948692,6.73194643 L38.1198885,6.91036279 C41.8913852,10.8409148 44.0349353,16.0626899 44.0349353,21.6210022 C44.0349353,27.3180531 41.782418,32.6592927 37.8419404,36.6159717 L37.6706713,36.7879449 Z" id="3"></path>
                <path d="M46.331236,43.7940926 L42.2461612,40.1102359 L42.4176732,39.9243896 C46.7772533,35.2004526 49.2400473,29.0257896 49.2400473,22.4654595 C49.2400473,15.2189949 46.2315953,8.45511993 41.0311037,3.61395472 L40.8313903,3.42804043 L44.9316518,-0.269511463 L45.0994496,-0.108842611 C51.2167825,5.74859556 54.7400473,13.8264067 54.7400473,22.4654595 C54.7400473,30.4067539 51.765768,37.883994 46.4988196,43.611844 L46.331236,43.7940926 Z" id="2"></path>
                <path d="M13.2849674,17.9577115 L8.06,17.9577115 C6.50807985,17.9577115 5.25,19.2157914 5.25,20.7677115 L5.25,24.3472928 C5.25,25.8992129 6.50807985,27.1572928 8.06,27.1572928 L13.410316,27.1572928 L13.5852093,27.2286526 L17.4016446,30.965042 C17.4502361,31.0126144 17.5155317,31.0392562 17.5835337,31.0392562 C17.7271277,31.0392562 17.8435337,30.9228503 17.8435337,30.7792562 L17.8435337,14.2130285 C17.8435337,14.1450266 17.8168918,14.079731 17.7693195,14.0311394 C17.6688649,13.9285328 17.5042512,13.9267882 17.4016446,14.0272428 L13.4598607,17.8863517 L13.2849674,17.9577115 Z M11.8265655,13.3773833 L21.0819744,4.12197439 C21.5779402,3.62600854 22.3820598,3.62600854 22.8780256,4.12197439 C23.1161968,4.36014559 23.25,4.68317506 23.25,5.02 L23.25,40.0950043 C23.25,40.796406 22.6814016,41.3650043 21.98,41.3650043 C21.6431751,41.3650043 21.3201456,41.2312011 21.0819744,40.9930299 L11.8265655,31.737621 C11.5151183,31.7840336 11.1990039,31.8075022 10.88,31.8075022 L6.12,31.8075022 C2.60194614,31.8075022 -0.25,28.955556 -0.25,25.4375022 L-0.25,19.6775022 C-0.25,16.1594483 2.60194614,13.3075022 6.12,13.3075022 L10.88,13.3075022 C11.1990039,13.3075022 11.5151183,13.3309707 11.826565,13.3773836 Z" id="1"></path>
            </g>
        </g>
    </g>
</svg>