<?xml version="1.0" encoding="UTF-8"?>
<svg width="115px" height="38px" viewBox="0 0 115 38" version="1.1" xmlns="http://www.w3.org/2000/svg" xmlns:xlink="http://www.w3.org/1999/xlink">
    <!-- Generator: Sketch 49.1 (51147) - http://www.bohemiancoding.com/sketch -->
    <title>-g-icon-volume/mute</title>
    <desc>Created with Sketch.</desc>
    <defs>
        <filter x="-61.7%" y="-88.9%" width="223.5%" height="277.8%" filterUnits="objectBoundingBox" id="filter-1">
            <feGaussianBlur stdDeviation="11 0" in="SourceGraphic"></feGaussianBlur>
        </filter>
        <path d="M30.2849674,55.7077115 L25.06,55.7077115 C23.3700087,55.7077115 22,57.0777202 22,58.7677115 L22,62.3472928 C22,64.0372841 23.3700087,65.4072928 25.06,65.4072928 L30.410316,65.4072928 L34.2267512,69.1436822 C34.3220654,69.2369972 34.4501452,69.2892562 34.5835337,69.2892562 C34.8651989,69.2892562 35.0935337,69.0609215 35.0935337,68.7792562 L35.0935337,52.2130285 C35.0935337,52.07964 35.0412747,51.9515602 34.9479596,51.8562461 C34.7509141,51.6549792 34.4280181,51.6515571 34.2267512,51.8486026 L30.2849674,55.7077115 Z M28.9131598,51.6443424 L38.2587511,42.2987511 C38.6570859,41.9004163 39.3029141,41.9004163 39.7012489,42.2987511 C39.892536,42.4900382 40,42.7494792 40,43.02 L40,78.0950043 C40,78.6583348 39.5433304,79.1150043 38.98,79.1150043 C38.7094792,79.1150043 38.4500382,79.0075404 38.2587511,78.8162532 L28.9131598,69.470662 C28.5773019,69.5277639 28.2321238,69.5575022 27.88,69.5575022 L23.12,69.5575022 C19.7400173,69.5575022 17,66.8174848 17,63.4375022 L17,57.6775022 C17,54.2975195 19.7400173,51.5575022 23.12,51.5575022 L27.88,51.5575022 C28.2321238,51.5575022 28.5773019,51.5872404 28.9131598,51.6443424 Z M63.0355339,61 L70.4601551,68.4246212 L66.9246212,71.9601551 L59.5,64.5355339 L52.0753788,71.9601551 L48.5398449,68.4246212 L55.9644661,61 L48.5398449,53.5753788 L52.0753788,50.0398449 L59.5,57.4644661 L66.9246212,50.0398449 L70.4601551,53.5753788 L63.0355339,61 Z" id="path-2"></path>
        <radialGradient cx="50%" cy="54.0688058%" fx="50%" fy="54.0688058%" r="35.4492055%" id="radialGradient-4">
            <stop stop-color="#FFFFFF" offset="0%"></stop>
            <stop stop-color="#FFFFFF" stop-opacity="0" offset="100%"></stop>
        </radialGradient>
        <linearGradient x1="74.8286995%" y1="-9.88210257%" x2="0%" y2="100%" id="linearGradient-5">
            <stop stop-color="#FFFFFF" offset="0%"></stop>
            <stop stop-color="#C2C2C2" offset="65.0888871%"></stop>
            <stop stop-color="#DBDBDB" stop-opacity="0.74535779" offset="80.8035714%"></stop>
            <stop stop-color="#FFFFFF" stop-opacity="0" offset="100%"></stop>
        </linearGradient>
    </defs>
    <g id="player--zeplin" stroke="none" stroke-width="1" fill="none" fill-rule="evenodd" opacity="0.8">
        <g id="icons--different-status" transform="translate(-623.000000, -90.000000)">
            <g id="icon/volume/mute" transform="translate(654.000000, 86.000000)">
                <g id="icon-volume--mute" transform="translate(-17.000000, -38.000000)">
                    <path d="M30.2849674,55.7077115 L25.06,55.7077115 C23.3700087,55.7077115 22,57.0777202 22,58.7677115 L22,62.3472928 C22,64.0372841 23.3700087,65.4072928 25.06,65.4072928 L30.410316,65.4072928 L34.2267512,69.1436822 C34.3220654,69.2369972 34.4501452,69.2892562 34.5835337,69.2892562 C34.8651989,69.2892562 35.0935337,69.0609215 35.0935337,68.7792562 L35.0935337,52.2130285 C35.0935337,52.07964 35.0412747,51.9515602 34.9479596,51.8562461 C34.7509141,51.6549792 34.4280181,51.6515571 34.2267512,51.8486026 L30.2849674,55.7077115 Z M28.9131598,51.6443424 L38.2587511,42.2987511 C38.6570859,41.9004163 39.3029141,41.9004163 39.7012489,42.2987511 C39.892536,42.4900382 40,42.7494792 40,43.02 L40,78.0950043 C40,78.6583348 39.5433304,79.1150043 38.98,79.1150043 C38.7094792,79.1150043 38.4500382,79.0075404 38.2587511,78.8162532 L28.9131598,69.470662 C28.5773019,69.5277639 28.2321238,69.5575022 27.88,69.5575022 L23.12,69.5575022 C19.7400173,69.5575022 17,66.8174848 17,63.4375022 L17,57.6775022 C17,54.2975195 19.7400173,51.5575022 23.12,51.5575022 L27.88,51.5575022 C28.2321238,51.5575022 28.5773019,51.5872404 28.9131598,51.6443424 Z M63.0355339,61 L70.4601551,68.4246212 L66.9246212,71.9601551 L59.5,64.5355339 L52.0753788,71.9601551 L48.5398449,68.4246212 L55.9644661,61 L48.5398449,53.5753788 L52.0753788,50.0398449 L59.5,57.4644661 L66.9246212,50.0398449 L70.4601551,53.5753788 L63.0355339,61 Z" id="Combined-Shape" fill="#000000" opacity="0.05" style="mix-blend-mode: overlay;" filter="url(#filter-1)"></path>
                    <path d="M30.2849674,55.7077115 L25.06,55.7077115 C23.3700087,55.7077115 22,57.0777202 22,58.7677115 L22,62.3472928 C22,64.0372841 23.3700087,65.4072928 25.06,65.4072928 L30.410316,65.4072928 L34.2267512,69.1436822 C34.3220654,69.2369972 34.4501452,69.2892562 34.5835337,69.2892562 C34.8651989,69.2892562 35.0935337,69.0609215 35.0935337,68.7792562 L35.0935337,52.2130285 C35.0935337,52.07964 35.0412747,51.9515602 34.9479596,51.8562461 C34.7509141,51.6549792 34.4280181,51.6515571 34.2267512,51.8486026 L30.2849674,55.7077115 Z M28.9131598,51.6443424 L38.2587511,42.2987511 C38.6570859,41.9004163 39.3029141,41.9004163 39.7012489,42.2987511 C39.892536,42.4900382 40,42.7494792 40,43.02 L40,78.0950043 C40,78.6583348 39.5433304,79.1150043 38.98,79.1150043 C38.7094792,79.1150043 38.4500382,79.0075404 38.2587511,78.8162532 L28.9131598,69.470662 C28.5773019,69.5277639 28.2321238,69.5575022 27.88,69.5575022 L23.12,69.5575022 C19.7400173,69.5575022 17,66.8174848 17,63.4375022 L17,57.6775022 C17,54.2975195 19.7400173,51.5575022 23.12,51.5575022 L27.88,51.5575022 C28.2321238,51.5575022 28.5773019,51.5872404 28.9131598,51.6443424 Z M63.0355339,61 L70.4601551,68.4246212 L66.9246212,71.9601551 L59.5,64.5355339 L52.0753788,71.9601551 L48.5398449,68.4246212 L55.9644661,61 L48.5398449,53.5753788 L52.0753788,50.0398449 L59.5,57.4644661 L66.9246212,50.0398449 L70.4601551,53.5753788 L63.0355339,61 Z" id="Combined-Shape" fill="#FFFFFF" style="mix-blend-mode: overlay;"></path>
                    <path d="M30.2849674,55.7077115 L25.06,55.7077115 C23.3700087,55.7077115 22,57.0777202 22,58.7677115 L22,62.3472928 C22,64.0372841 23.3700087,65.4072928 25.06,65.4072928 L30.410316,65.4072928 L34.2267512,69.1436822 C34.3220654,69.2369972 34.4501452,69.2892562 34.5835337,69.2892562 C34.8651989,69.2892562 35.0935337,69.0609215 35.0935337,68.7792562 L35.0935337,52.2130285 C35.0935337,52.07964 35.0412747,51.9515602 34.9479596,51.8562461 C34.7509141,51.6549792 34.4280181,51.6515571 34.2267512,51.8486026 L30.2849674,55.7077115 Z M28.9131598,51.6443424 L38.2587511,42.2987511 C38.6570859,41.9004163 39.3029141,41.9004163 39.7012489,42.2987511 C39.892536,42.4900382 40,42.7494792 40,43.02 L40,78.0950043 C40,78.6583348 39.5433304,79.1150043 38.98,79.1150043 C38.7094792,79.1150043 38.4500382,79.0075404 38.2587511,78.8162532 L28.9131598,69.470662 C28.5773019,69.5277639 28.2321238,69.5575022 27.88,69.5575022 L23.12,69.5575022 C19.7400173,69.5575022 17,66.8174848 17,63.4375022 L17,57.6775022 C17,54.2975195 19.7400173,51.5575022 23.12,51.5575022 L27.88,51.5575022 C28.2321238,51.5575022 28.5773019,51.5872404 28.9131598,51.6443424 Z M63.0355339,61 L70.4601551,68.4246212 L66.9246212,71.9601551 L59.5,64.5355339 L52.0753788,71.9601551 L48.5398449,68.4246212 L55.9644661,61 L48.5398449,53.5753788 L52.0753788,50.0398449 L59.5,57.4644661 L66.9246212,50.0398449 L70.4601551,53.5753788 L63.0355339,61 Z" id="Combined-Shape" fill-opacity="0.63" fill="#FFFFFF" opacity="0.75"></path>
                    <g id="light">
                        <g id="Group-4">
                            <mask id="mask-3" fill="white">
                                <use xlink:href="#path-2"></use>
                            </mask>
                            <g id="Combined-Shape"></g>
                            <circle id="Oval-2" fill="url(#radialGradient-4)" mask="url(#mask-3)" cx="51" cy="51" r="51"></circle>
                        </g>
                    </g>
                    <path d="M30.1829626,55.4577115 L34.0518578,51.6699624 C34.351785,51.376326 34.8329633,51.3814256 35.1265998,51.6813527 C35.2656575,51.8233895 35.3435337,52.0142535 35.3435337,52.2130285 L35.3435337,68.7792562 C35.3435337,69.1989927 35.0032701,69.5392562 34.5835337,69.5392562 C34.3847587,69.5392562 34.1938947,69.4613801 34.0518578,69.3223223 L30.3083112,65.6572928 L25.06,65.6572928 C23.2319375,65.6572928 21.75,64.1753553 21.75,62.3472928 L21.75,58.7677115 C21.75,56.939649 23.2319375,55.4577115 25.06,55.4577115 L30.1829626,55.4577115 Z M38.4355278,42.4755278 L28.9985994,51.9124562 L28.8712565,51.8908056 C28.5460478,51.8355142 28.2148545,51.8075022 27.88,51.8075022 L23.12,51.8075022 C19.8780885,51.8075022 17.25,54.4355907 17.25,57.6775022 L17.25,63.4375022 C17.25,66.6794136 19.8780885,69.3075022 23.12,69.3075022 L27.88,69.3075022 C28.2148545,69.3075022 28.5460478,69.2794902 28.8712565,69.2241987 L28.9985994,69.2025481 L38.4355278,78.6394766 C38.5799308,78.7838796 38.7757833,78.8650043 38.98,78.8650043 C39.4052593,78.8650043 39.75,78.5202636 39.75,78.0950043 L39.75,43.02 C39.75,42.8157833 39.6688752,42.6199308 39.5244722,42.4755278 C39.2237685,42.1748241 38.7362315,42.1748241 38.4355278,42.4755278 Z M70.1066017,53.5753788 L66.9246212,50.3933983 L59.5,57.8180195 L52.0753788,50.3933983 L48.8933983,53.5753788 L56.3180195,61 L48.8933983,68.4246212 L52.0753788,71.6066017 L59.5,64.1819805 L66.9246212,71.6066017 L70.1066017,68.4246212 L62.6819805,61 L70.1066017,53.5753788 Z" id="Combined-Shape" stroke="url(#linearGradient-5)" stroke-width="0.5" opacity="0.28"></path>
                </g>
            </g>
        </g>
    </g>
</svg>