<?xml version="1.0" encoding="UTF-8"?>
<svg viewBox="0 0 46 36" version="1.1" xmlns="http://www.w3.org/2000/svg" xmlns:xlink="http://www.w3.org/1999/xlink">
    <defs></defs>
    <g id="Playing-View-/-Button---Settings-V2" stroke="none" stroke-width="1" fill="none" fill-rule="evenodd">
        <g id="Group" transform="translate(1.000000, 1.000000)">
            <path d="M2,0 L6,0 C7.1045695,-2.02906125e-16 8,0.8954305 8,2 L8,6 C8,7.1045695 7.1045695,8 6,8 L2,8 C0.8954305,8 1.3527075e-16,7.1045695 0,6 L0,2 C-1.3527075e-16,0.8954305 0.8954305,2.02906125e-16 2,0 Z M38,0 L42,0 C43.1045695,-2.02906125e-16 44,0.8954305 44,2 L44,6 C44,7.1045695 43.1045695,8 42,8 L38,8 C36.8954305,8 36,7.1045695 36,6 L36,2 C36,0.8954305 36.8954305,2.02906125e-16 38,0 Z M20,0 L24,0 C25.1045695,-2.02906125e-16 26,0.8954305 26,2 L26,6 C26,7.1045695 25.1045695,8 24,8 L20,8 C18.8954305,8 18,7.1045695 18,6 L18,2 C18,0.8954305 18.8954305,2.02906125e-16 20,0 Z M2,13 L6,13 C7.1045695,13 8,13.8954305 8,15 L8,19 C8,20.1045695 7.1045695,21 6,21 L2,21 C0.8954305,21 1.3527075e-16,20.1045695 0,19 L0,15 C-1.3527075e-16,13.8954305 0.8954305,13 2,13 Z M38,13 L42,13 C43.1045695,13 44,13.8954305 44,15 L44,19 C44,20.1045695 43.1045695,21 42,21 L38,21 C36.8954305,21 36,20.1045695 36,19 L36,15 C36,13.8954305 36.8954305,13 38,13 Z M20,13 L24,13 C25.1045695,13 26,13.8954305 26,15 L26,19 C26,20.1045695 25.1045695,21 24,21 L20,21 C18.8954305,21 18,20.1045695 18,19 L18,15 C18,13.8954305 18.8954305,13 20,13 Z M2,26 L6,26 C7.1045695,26 8,26.8954305 8,28 L8,32 C8,33.1045695 7.1045695,34 6,34 L2,34 C0.8954305,34 1.3527075e-16,33.1045695 0,32 L0,28 C-1.3527075e-16,26.8954305 0.8954305,26 2,26 Z M38,26 L42,26 C43.1045695,26 44,26.8954305 44,28 L44,32 C44,33.1045695 43.1045695,34 42,34 L38,34 C36.8954305,34 36,33.1045695 36,32 L36,28 C36,26.8954305 36.8954305,26 38,26 Z M20,26 L24,26 C25.1045695,26 26,26.8954305 26,28 L26,32 C26,33.1045695 25.1045695,34 24,34 L20,34 C18.8954305,34 18,33.1045695 18,32 L18,28 C18,26.8954305 18.8954305,26 20,26 Z" id="Combined-Shape" fill-opacity="0.5" fill="#FFFFFF"></path>
            <path d="M2,0 L6,0 C7.1045695,-2.02906125e-16 8,0.8954305 8,2 L8,6 C8,7.1045695 7.1045695,8 6,8 L2,8 C0.8954305,8 1.3527075e-16,7.1045695 0,6 L0,2 C-1.3527075e-16,0.8954305 0.8954305,2.02906125e-16 2,0 Z M38,0 L42,0 C43.1045695,-2.02906125e-16 44,0.8954305 44,2 L44,6 C44,7.1045695 43.1045695,8 42,8 L38,8 C36.8954305,8 36,7.1045695 36,6 L36,2 C36,0.8954305 36.8954305,2.02906125e-16 38,0 Z M20,0 L24,0 C25.1045695,-2.02906125e-16 26,0.8954305 26,2 L26,6 C26,7.1045695 25.1045695,8 24,8 L20,8 C18.8954305,8 18,7.1045695 18,6 L18,2 C18,0.8954305 18.8954305,2.02906125e-16 20,0 Z M2,13 L6,13 C7.1045695,13 8,13.8954305 8,15 L8,19 C8,20.1045695 7.1045695,21 6,21 L2,21 C0.8954305,21 1.3527075e-16,20.1045695 0,19 L0,15 C-1.3527075e-16,13.8954305 0.8954305,13 2,13 Z M38,13 L42,13 C43.1045695,13 44,13.8954305 44,15 L44,19 C44,20.1045695 43.1045695,21 42,21 L38,21 C36.8954305,21 36,20.1045695 36,19 L36,15 C36,13.8954305 36.8954305,13 38,13 Z M20,13 L24,13 C25.1045695,13 26,13.8954305 26,15 L26,19 C26,20.1045695 25.1045695,21 24,21 L20,21 C18.8954305,21 18,20.1045695 18,19 L18,15 C18,13.8954305 18.8954305,13 20,13 Z M2,26 L6,26 C7.1045695,26 8,26.8954305 8,28 L8,32 C8,33.1045695 7.1045695,34 6,34 L2,34 C0.8954305,34 1.3527075e-16,33.1045695 0,32 L0,28 C-1.3527075e-16,26.8954305 0.8954305,26 2,26 Z M38,26 L42,26 C43.1045695,26 44,26.8954305 44,28 L44,32 C44,33.1045695 43.1045695,34 42,34 L38,34 C36.8954305,34 36,33.1045695 36,32 L36,28 C36,26.8954305 36.8954305,26 38,26 Z M20,26 L24,26 C25.1045695,26 26,26.8954305 26,28 L26,32 C26,33.1045695 25.1045695,34 24,34 L20,34 C18.8954305,34 18,33.1045695 18,32 L18,28 C18,26.8954305 18.8954305,26 20,26 Z" id="Combined-Shape" stroke-opacity="0.3" stroke="#000000" stroke-width="0.5" opacity="0.28"></path>
        </g>
    </g>
</svg>