<svg width="35px" height="30px" viewBox="0 9 57 19" version="1.1" xmlns="http://www.w3.org/2000/svg" xmlns:xlink="http://www.w3.org/1999/xlink">
    <!-- Generator: Sketch 49.3 (51167) - http://www.bohemiancoding.com/sketch -->
    <desc>Created with Sketch.</desc>
    <defs>
        <path d="M30.3860601,26.6901606 L26.9989979,23.5109431 C28.341561,22.3433666 29.1902982,20.6226456 29.1902982,18.7036914 C29.1902982,16.8949612 28.436263,15.2623454 27.2253917,14.1030429 L30.6051823,10.9306508 C32.5927755,12.9208523 33.8218771,15.6687358 33.8218771,18.7036914 C33.8218771,21.848666 32.502049,24.6853782 30.3860601,26.6901606 Z M37.6648014,33.3678298 L34.0170893,29.9439569 C36.9604086,27.0423598 38.7849353,23.0088874 38.7849353,18.549274 C38.7849353,14.2310222 37.0742437,10.3123239 34.293588,7.4339065 L37.9394996,4.01172372 C41.5599266,7.784835 43.7849353,12.9072152 43.7849353,18.549274 C43.7849353,24.3326711 41.4470536,29.5700267 37.6648014,33.3678298 Z M11.9131598,10.5726142 L21.2587511,1.22702284 C21.6570859,0.82868807 22.3029141,0.82868807 22.7012489,1.22702284 C22.892536,1.41830995 23,1.67775094 23,1.94827176 L23,37.0232761 C23,37.5866066 22.5433304,38.0432761 21.98,38.0432761 C21.7094792,38.0432761 21.4500382,37.9358122 21.2587511,37.744525 L11.9131598,28.3989338 C11.5773019,28.4560357 11.2321238,28.485774 10.88,28.485774 L6.12,28.485774 C2.74001733,28.485774 4.13928496e-16,25.7457566 0,22.365774 L8.8817842e-16,16.605774 C4.74249924e-16,13.2257913 2.74001733,10.485774 6.12,10.485774 L10.88,10.485774 C11.2321238,10.485774 11.5773019,10.5155122 11.9131598,10.5726142 Z M13.2849674,14.6359833 L8.06,14.6359833 C6.37000867,14.6359833 5,16.005992 5,17.6959833 L5,21.2755646 C5,22.9655559 6.37000867,24.3355646 8.06,24.3355646 L13.410316,24.3355646 L17.2267512,28.071954 C17.3220654,28.165269 17.4501452,28.217528 17.5835337,28.217528 C17.8651989,28.217528 18.0935337,27.9891933 18.0935337,27.707528 L18.0935337,11.1413003 C18.0935337,11.0079118 18.0412747,10.879832 17.9479596,10.7845179 C17.7509141,10.583251 17.4280181,10.5798289 17.2267512,10.7768744 L13.2849674,14.6359833 Z" id="path-1"></path>
        <radialGradient cx="50%" cy="54.0688058%" fx="50%" fy="54.0688058%" r="35.4492055%" id="radialGradient-3">
            <stop stop-color="#FFFFFF" offset="0%"></stop>
            <stop stop-color="#FFFFFF" stop-opacity="0" offset="100%"></stop>
        </radialGradient>
        <linearGradient x1="65.729555%" y1="-9.88210257%" x2="18.3238444%" y2="100%" id="linearGradient-4">
            <stop stop-color="#FFFFFF" offset="0%"></stop>
            <stop stop-color="#C2C2C2" offset="65.0888871%"></stop>
            <stop stop-color="#DBDBDB" stop-opacity="0.74535779" offset="80.8035714%"></stop>
            <stop stop-color="#FFFFFF" stop-opacity="0" offset="100%"></stop>
        </linearGradient>
    </defs>
    <g id="Page-1" stroke="none" stroke-width="1" fill="none" fill-rule="evenodd" opacity="0.8">
        <g id="icon-volume-2" transform="translate(1.000000, 0.000000)">
            <g id="icon-volume">
                <g id="播放/暂停在中间-质感">
                    <g id="player">
                        <g id="icon-volume">
                            <path d="M30.3860601,26.6901606 L26.9989979,23.5109431 C28.341561,22.3433666 29.1902982,20.6226456 29.1902982,18.7036914 C29.1902982,16.8949612 28.436263,15.2623454 27.2253917,14.1030429 L30.6051823,10.9306508 C32.5927755,12.9208523 33.8218771,15.6687358 33.8218771,18.7036914 C33.8218771,21.848666 32.502049,24.6853782 30.3860601,26.6901606 Z M37.6648014,33.3678298 L34.0170893,29.9439569 C36.9604086,27.0423598 38.7849353,23.0088874 38.7849353,18.549274 C38.7849353,14.2310222 37.0742437,10.3123239 34.293588,7.4339065 L37.9394996,4.01172372 C41.5599266,7.784835 43.7849353,12.9072152 43.7849353,18.549274 C43.7849353,24.3326711 41.4470536,29.5700267 37.6648014,33.3678298 Z M11.9131598,10.5726142 L21.2587511,1.22702284 C21.6570859,0.82868807 22.3029141,0.82868807 22.7012489,1.22702284 C22.892536,1.41830995 23,1.67775094 23,1.94827176 L23,37.0232761 C23,37.5866066 22.5433304,38.0432761 21.98,38.0432761 C21.7094792,38.0432761 21.4500382,37.9358122 21.2587511,37.744525 L11.9131598,28.3989338 C11.5773019,28.4560357 11.2321238,28.485774 10.88,28.485774 L6.12,28.485774 C2.74001733,28.485774 4.13928496e-16,25.7457566 0,22.365774 L8.8817842e-16,16.605774 C4.74249924e-16,13.2257913 2.74001733,10.485774 6.12,10.485774 L10.88,10.485774 C11.2321238,10.485774 11.5773019,10.5155122 11.9131598,10.5726142 Z M13.2849674,14.6359833 L8.06,14.6359833 C6.37000867,14.6359833 5,16.005992 5,17.6959833 L5,21.2755646 C5,22.9655559 6.37000867,24.3355646 8.06,24.3355646 L13.410316,24.3355646 L17.2267512,28.071954 C17.3220654,28.165269 17.4501452,28.217528 17.5835337,28.217528 C17.8651989,28.217528 18.0935337,27.9891933 18.0935337,27.707528 L18.0935337,11.1413003 C18.0935337,11.0079118 18.0412747,10.879832 17.9479596,10.7845179 C17.7509141,10.583251 17.4280181,10.5798289 17.2267512,10.7768744 L13.2849674,14.6359833 Z" id="volume" fill="#000000" fill-rule="nonzero" opacity="0.05" style="mix-blend-mode: overlay;"></path>
                            <path d="M30.3860601,26.6901606 L26.9989979,23.5109431 C28.341561,22.3433666 29.1902982,20.6226456 29.1902982,18.7036914 C29.1902982,16.8949612 28.436263,15.2623454 27.2253917,14.1030429 L30.6051823,10.9306508 C32.5927755,12.9208523 33.8218771,15.6687358 33.8218771,18.7036914 C33.8218771,21.848666 32.502049,24.6853782 30.3860601,26.6901606 Z M37.6648014,33.3678298 L34.0170893,29.9439569 C36.9604086,27.0423598 38.7849353,23.0088874 38.7849353,18.549274 C38.7849353,14.2310222 37.0742437,10.3123239 34.293588,7.4339065 L37.9394996,4.01172372 C41.5599266,7.784835 43.7849353,12.9072152 43.7849353,18.549274 C43.7849353,24.3326711 41.4470536,29.5700267 37.6648014,33.3678298 Z M11.9131598,10.5726142 L21.2587511,1.22702284 C21.6570859,0.82868807 22.3029141,0.82868807 22.7012489,1.22702284 C22.892536,1.41830995 23,1.67775094 23,1.94827176 L23,37.0232761 C23,37.5866066 22.5433304,38.0432761 21.98,38.0432761 C21.7094792,38.0432761 21.4500382,37.9358122 21.2587511,37.744525 L11.9131598,28.3989338 C11.5773019,28.4560357 11.2321238,28.485774 10.88,28.485774 L6.12,28.485774 C2.74001733,28.485774 4.13928496e-16,25.7457566 0,22.365774 L8.8817842e-16,16.605774 C4.74249924e-16,13.2257913 2.74001733,10.485774 6.12,10.485774 L10.88,10.485774 C11.2321238,10.485774 11.5773019,10.5155122 11.9131598,10.5726142 Z M13.2849674,14.6359833 L8.06,14.6359833 C6.37000867,14.6359833 5,16.005992 5,17.6959833 L5,21.2755646 C5,22.9655559 6.37000867,24.3355646 8.06,24.3355646 L13.410316,24.3355646 L17.2267512,28.071954 C17.3220654,28.165269 17.4501452,28.217528 17.5835337,28.217528 C17.8651989,28.217528 18.0935337,27.9891933 18.0935337,27.707528 L18.0935337,11.1413003 C18.0935337,11.0079118 18.0412747,10.879832 17.9479596,10.7845179 C17.7509141,10.583251 17.4280181,10.5798289 17.2267512,10.7768744 L13.2849674,14.6359833 Z" id="volume" fill="#FFFFFF" fill-rule="nonzero" style="mix-blend-mode: overlay;"></path>
                            <path d="M30.3860601,26.6901606 L26.9989979,23.5109431 C28.341561,22.3433666 29.1902982,20.6226456 29.1902982,18.7036914 C29.1902982,16.8949612 28.436263,15.2623454 27.2253917,14.1030429 L30.6051823,10.9306508 C32.5927755,12.9208523 33.8218771,15.6687358 33.8218771,18.7036914 C33.8218771,21.848666 32.502049,24.6853782 30.3860601,26.6901606 Z M37.6648014,33.3678298 L34.0170893,29.9439569 C36.9604086,27.0423598 38.7849353,23.0088874 38.7849353,18.549274 C38.7849353,14.2310222 37.0742437,10.3123239 34.293588,7.4339065 L37.9394996,4.01172372 C41.5599266,7.784835 43.7849353,12.9072152 43.7849353,18.549274 C43.7849353,24.3326711 41.4470536,29.5700267 37.6648014,33.3678298 Z M11.9131598,10.5726142 L21.2587511,1.22702284 C21.6570859,0.82868807 22.3029141,0.82868807 22.7012489,1.22702284 C22.892536,1.41830995 23,1.67775094 23,1.94827176 L23,37.0232761 C23,37.5866066 22.5433304,38.0432761 21.98,38.0432761 C21.7094792,38.0432761 21.4500382,37.9358122 21.2587511,37.744525 L11.9131598,28.3989338 C11.5773019,28.4560357 11.2321238,28.485774 10.88,28.485774 L6.12,28.485774 C2.74001733,28.485774 4.13928496e-16,25.7457566 0,22.365774 L8.8817842e-16,16.605774 C4.74249924e-16,13.2257913 2.74001733,10.485774 6.12,10.485774 L10.88,10.485774 C11.2321238,10.485774 11.5773019,10.5155122 11.9131598,10.5726142 Z M13.2849674,14.6359833 L8.06,14.6359833 C6.37000867,14.6359833 5,16.005992 5,17.6959833 L5,21.2755646 C5,22.9655559 6.37000867,24.3355646 8.06,24.3355646 L13.410316,24.3355646 L17.2267512,28.071954 C17.3220654,28.165269 17.4501452,28.217528 17.5835337,28.217528 C17.8651989,28.217528 18.0935337,27.9891933 18.0935337,27.707528 L18.0935337,11.1413003 C18.0935337,11.0079118 18.0412747,10.879832 17.9479596,10.7845179 C17.7509141,10.583251 17.4280181,10.5798289 17.2267512,10.7768744 L13.2849674,14.6359833 Z" id="volume" fill-opacity="0.63" fill="#FFFFFF" fill-rule="nonzero" opacity="0.75"></path>
                            <g id="light">
                                <g id="Oval-2-Clipped">
                                    <mask id="mask-2" fill="white">
                                        <use xlink:href="#path-1"></use>
                                    </mask>
                                    <g id="path-3"></g>
                                    <circle id="Oval-2" fill="url(#radialGradient-3)" fill-rule="nonzero" opacity="0.8" mask="url(#mask-2)" cx="34" cy="10" r="51"></circle>
                                </g>
                            </g>
                            <path d="M30.3860601,26.6901606 L26.9989979,23.5109431 C28.341561,22.3433666 29.1902982,20.6226456 29.1902982,18.7036914 C29.1902982,16.8949612 28.436263,15.2623454 27.2253917,14.1030429 L30.6051823,10.9306508 C32.5927755,12.9208523 33.8218771,15.6687358 33.8218771,18.7036914 C33.8218771,21.848666 32.502049,24.6853782 30.3860601,26.6901606 Z M37.6648014,33.3678298 L34.0170893,29.9439569 C36.9604086,27.0423598 38.7849353,23.0088874 38.7849353,18.549274 C38.7849353,14.2310222 37.0742437,10.3123239 34.293588,7.4339065 L37.9394996,4.01172372 C41.5599266,7.784835 43.7849353,12.9072152 43.7849353,18.549274 C43.7849353,24.3326711 41.4470536,29.5700267 37.6648014,33.3678298 Z M11.9131598,10.5726142 L21.2587511,1.22702284 C21.6570859,0.82868807 22.3029141,0.82868807 22.7012489,1.22702284 C22.892536,1.41830995 23,1.67775094 23,1.94827176 L23,37.0232761 C23,37.5866066 22.5433304,38.0432761 21.98,38.0432761 C21.7094792,38.0432761 21.4500382,37.9358122 21.2587511,37.744525 L11.9131598,28.3989338 C11.5773019,28.4560357 11.2321238,28.485774 10.88,28.485774 L6.12,28.485774 C2.74001733,28.485774 4.13928496e-16,25.7457566 0,22.365774 L8.8817842e-16,16.605774 C4.74249924e-16,13.2257913 2.74001733,10.485774 6.12,10.485774 L10.88,10.485774 C11.2321238,10.485774 11.5773019,10.5155122 11.9131598,10.5726142 Z M13.2849674,14.6359833 L8.06,14.6359833 C6.37000867,14.6359833 5,16.005992 5,17.6959833 L5,21.2755646 C5,22.9655559 6.37000867,24.3355646 8.06,24.3355646 L13.410316,24.3355646 L17.2267512,28.071954 C17.3220654,28.165269 17.4501452,28.217528 17.5835337,28.217528 C17.8651989,28.217528 18.0935337,27.9891933 18.0935337,27.707528 L18.0935337,11.1413003 C18.0935337,11.0079118 18.0412747,10.879832 17.9479596,10.7845179 C17.7509141,10.583251 17.4280181,10.5798289 17.2267512,10.7768744 L13.2849674,14.6359833 Z" id="volume" stroke="url(#linearGradient-4)" stroke-width="0.5" opacity="0.28"></path>
                        </g>
                    </g>
                </g>
            </g>
        </g>
    </g>
</svg>
