<?xml version="1.0" encoding="UTF-8"?>
<svg width="30px" height="24px" viewBox="38 0 30 43" version="1.1" xmlns="http://www.w3.org/2000/svg" xmlns:xlink="http://www.w3.org/1999/xlink">
    <!-- Generator: Sketch 48.2 (47327) - http://www.bohemiancoding.com/sketch -->
    <title>icon-setting</title>
    <desc>Created with Sketch.</desc>
    <defs>
        <filter x="-80.6%" y="-80.5%" width="261.1%" height="261.0%" filterUnits="objectBoundingBox" id="filter-1">
            <feGaussianBlur stdDeviation="11 0" in="SourceGraphic"></feGaussianBlur>
        </filter>
        <filter x="-7.3%" y="-7.3%" width="114.6%" height="114.6%" filterUnits="objectBoundingBox" id="filter-2">
            <feGaussianBlur stdDeviation="1 0" in="SourceGraphic"></feGaussianBlur>
        </filter>
        <path d="M40.9648069,23.9827957 L40.9648069,16.7174194 L35.8266094,16.7174194 C35.4746781,15.1655914 34.9819742,13.7548387 34.2077253,12.4146237 L34.2781116,12.2735484 L37.6566524,8.25290323 L32.7296137,3.31526882 L28.7175966,6.63053763 C27.3098712,5.71354839 25.6909871,5.00817204 24.0017167,4.58494624 L24.0017167,0 L16.5407725,0 L16.5407725,4.58494624 C14.7107296,5.00817204 13.0214592,5.78408602 11.4729614,6.7716129 L8.0944206,3.66795699 L3.5193133,8.25290323 L6.68669528,11.7092473 C5.77167382,13.1905376 5.06781116,14.8129032 4.71587983,16.5763441 L0,16.5763441 L0,23.9827957 L4.78626609,23.9827957 C5.20858369,25.7462366 5.98283262,27.3686022 6.96824034,28.8498925 L3.5193133,32.4473118 L8.44635193,37.3144086 L12.176824,33.9991398 L12.4583691,33.9286022 C13.8660944,34.7045161 15.4145923,35.3393548 17.0334764,35.692043 L16.8927039,40.9823656 L23.9313305,40.9823656 L24.072103,35.5509677 C25.7613734,35.1277419 27.3802575,34.4223656 28.7879828,33.5053763 L32.7296137,37.3144086 L37.304721,32.5178495 L33.5742489,28.7088172 C34.4892704,27.2980645 35.193133,25.6756989 35.6154506,23.9827957 L40.9648069,23.9827957 Z M20.4824034,31.8124731 C14.2180258,31.8124731 9.15021459,26.7337634 9.15021459,20.455914 C9.15021459,14.1780645 14.2180258,9.09935484 20.4824034,9.09935484 C26.7467811,9.09935484 31.8145923,14.1780645 31.8145923,20.455914 C31.8145923,26.7337634 26.7467811,31.8124731 20.4824034,31.8124731 Z" id="path-3"></path>
        <radialGradient cx="50%" cy="54.0688058%" fx="50%" fy="54.0688058%" r="35.4492055%" id="radialGradient-5">
            <stop stop-color="#FFFFFF" offset="0%"></stop>
            <stop stop-color="#FFFFFF" stop-opacity="0" offset="100%"></stop>
        </radialGradient>
        <linearGradient x1="74.8286995%" y1="-9.88210257%" x2="6.95363209%" y2="111.831644%" id="linearGradient-6">
            <stop stop-color="#FFFFFF" offset="0%"></stop>
            <stop stop-color="#C2C2C2" offset="31.4168285%"></stop>
            <stop stop-color="#DBDBDB" stop-opacity="0.74535779" offset="67.7630573%"></stop>
            <stop stop-color="#DBDBDB" stop-opacity="0.74535779" offset="78.8141189%"></stop>
            <stop stop-color="#FFFFFF" stop-opacity="0" offset="100%"></stop>
        </linearGradient>
    </defs>
    <g id="播放/暂停在中间-质感" stroke="none" stroke-width="1" fill="none" fill-rule="evenodd" transform="translate(-1201.000000, -688.000000)" opacity="0.8">
        <g id="player" transform="translate(50.000000, 50.000000)">
            <g id="icon-setting" transform="translate(1183.000000, 639.000000)">
                <path d="M40.9648069,23.9827957 L40.9648069,16.7174194 L35.8266094,16.7174194 C35.4746781,15.1655914 34.9819742,13.7548387 34.2077253,12.4146237 L34.2781116,12.2735484 L37.6566524,8.25290323 L32.7296137,3.31526882 L28.7175966,6.63053763 C27.3098712,5.71354839 25.6909871,5.00817204 24.0017167,4.58494624 L24.0017167,0 L16.5407725,0 L16.5407725,4.58494624 C14.7107296,5.00817204 13.0214592,5.78408602 11.4729614,6.7716129 L8.0944206,3.66795699 L3.5193133,8.25290323 L6.68669528,11.7092473 C5.77167382,13.1905376 5.06781116,14.8129032 4.71587983,16.5763441 L0,16.5763441 L0,23.9827957 L4.78626609,23.9827957 C5.20858369,25.7462366 5.98283262,27.3686022 6.96824034,28.8498925 L3.5193133,32.4473118 L8.44635193,37.3144086 L12.176824,33.9991398 L12.4583691,33.9286022 C13.8660944,34.7045161 15.4145923,35.3393548 17.0334764,35.692043 L16.8927039,40.9823656 L23.9313305,40.9823656 L24.072103,35.5509677 C25.7613734,35.1277419 27.3802575,34.4223656 28.7879828,33.5053763 L32.7296137,37.3144086 L37.304721,32.5178495 L33.5742489,28.7088172 C34.4892704,27.2980645 35.193133,25.6756989 35.6154506,23.9827957 L40.9648069,23.9827957 Z M20.4824034,31.8124731 C14.2180258,31.8124731 9.15021459,26.7337634 9.15021459,20.455914 C9.15021459,14.1780645 14.2180258,9.09935484 20.4824034,9.09935484 C26.7467811,9.09935484 31.8145923,14.1780645 31.8145923,20.455914 C31.8145923,26.7337634 26.7467811,31.8124731 20.4824034,31.8124731 Z" id="Shape" fill="#000000" fill-rule="nonzero" opacity="0.05" style="mix-blend-mode: overlay;" filter="url(#filter-1)"></path>
                <path d="M40.9648069,23.9827957 L40.9648069,16.7174194 L35.8266094,16.7174194 C35.4746781,15.1655914 34.9819742,13.7548387 34.2077253,12.4146237 L34.2781116,12.2735484 L37.6566524,8.25290323 L32.7296137,3.31526882 L28.7175966,6.63053763 C27.3098712,5.71354839 25.6909871,5.00817204 24.0017167,4.58494624 L24.0017167,0 L16.5407725,0 L16.5407725,4.58494624 C14.7107296,5.00817204 13.0214592,5.78408602 11.4729614,6.7716129 L8.0944206,3.66795699 L3.5193133,8.25290323 L6.68669528,11.7092473 C5.77167382,13.1905376 5.06781116,14.8129032 4.71587983,16.5763441 L0,16.5763441 L0,23.9827957 L4.78626609,23.9827957 C5.20858369,25.7462366 5.98283262,27.3686022 6.96824034,28.8498925 L3.5193133,32.4473118 L8.44635193,37.3144086 L12.176824,33.9991398 L12.4583691,33.9286022 C13.8660944,34.7045161 15.4145923,35.3393548 17.0334764,35.692043 L16.8927039,40.9823656 L23.9313305,40.9823656 L24.072103,35.5509677 C25.7613734,35.1277419 27.3802575,34.4223656 28.7879828,33.5053763 L32.7296137,37.3144086 L37.304721,32.5178495 L33.5742489,28.7088172 C34.4892704,27.2980645 35.193133,25.6756989 35.6154506,23.9827957 L40.9648069,23.9827957 Z M20.4824034,31.8124731 C14.2180258,31.8124731 9.15021459,26.7337634 9.15021459,20.455914 C9.15021459,14.1780645 14.2180258,9.09935484 20.4824034,9.09935484 C26.7467811,9.09935484 31.8145923,14.1780645 31.8145923,20.455914 C31.8145923,26.7337634 26.7467811,31.8124731 20.4824034,31.8124731 Z" id="Shape" fill="#FFFFFF" fill-rule="nonzero" style="mix-blend-mode: overlay;" filter="url(#filter-2)"></path>
                <path d="M40.9648069,23.9827957 L40.9648069,16.7174194 L35.8266094,16.7174194 C35.4746781,15.1655914 34.9819742,13.7548387 34.2077253,12.4146237 L34.2781116,12.2735484 L37.6566524,8.25290323 L32.7296137,3.31526882 L28.7175966,6.63053763 C27.3098712,5.71354839 25.6909871,5.00817204 24.0017167,4.58494624 L24.0017167,0 L16.5407725,0 L16.5407725,4.58494624 C14.7107296,5.00817204 13.0214592,5.78408602 11.4729614,6.7716129 L8.0944206,3.66795699 L3.5193133,8.25290323 L6.68669528,11.7092473 C5.77167382,13.1905376 5.06781116,14.8129032 4.71587983,16.5763441 L0,16.5763441 L0,23.9827957 L4.78626609,23.9827957 C5.20858369,25.7462366 5.98283262,27.3686022 6.96824034,28.8498925 L3.5193133,32.4473118 L8.44635193,37.3144086 L12.176824,33.9991398 L12.4583691,33.9286022 C13.8660944,34.7045161 15.4145923,35.3393548 17.0334764,35.692043 L16.8927039,40.9823656 L23.9313305,40.9823656 L24.072103,35.5509677 C25.7613734,35.1277419 27.3802575,34.4223656 28.7879828,33.5053763 L32.7296137,37.3144086 L37.304721,32.5178495 L33.5742489,28.7088172 C34.4892704,27.2980645 35.193133,25.6756989 35.6154506,23.9827957 L40.9648069,23.9827957 Z M20.4824034,31.8124731 C14.2180258,31.8124731 9.15021459,26.7337634 9.15021459,20.455914 C9.15021459,14.1780645 14.2180258,9.09935484 20.4824034,9.09935484 C26.7467811,9.09935484 31.8145923,14.1780645 31.8145923,20.455914 C31.8145923,26.7337634 26.7467811,31.8124731 20.4824034,31.8124731 Z" id="Shape" fill-opacity="0.627462636" fill="#FFFFFF" fill-rule="nonzero" opacity="0.75"></path>
                <g id="light">
                    <mask id="mask-4" fill="white">
                        <use xlink:href="#path-3"></use>
                    </mask>
                    <g id="Shape" fill-rule="nonzero"></g>
                    <circle id="Oval-2" fill="url(#radialGradient-5)" opacity="0.8" mask="url(#mask-4)" cx="31" cy="10" r="55"></circle>
                </g>
                <path d="M40.9648069,23.9827957 L40.9648069,16.7174194 L35.8266094,16.7174194 C35.4746781,15.1655914 34.9819742,13.7548387 34.2077253,12.4146237 L34.2781116,12.2735484 L37.6566524,8.25290323 L32.7296137,3.31526882 L28.7175966,6.63053763 C27.3098712,5.71354839 25.6909871,5.00817204 24.0017167,4.58494624 L24.0017167,0 L16.5407725,0 L16.5407725,4.58494624 C14.7107296,5.00817204 13.0214592,5.78408602 11.4729614,6.7716129 L8.0944206,3.66795699 L3.5193133,8.25290323 L6.68669528,11.7092473 C5.77167382,13.1905376 5.06781116,14.8129032 4.71587983,16.5763441 L0,16.5763441 L0,23.9827957 L4.78626609,23.9827957 C5.20858369,25.7462366 5.98283262,27.3686022 6.96824034,28.8498925 L3.5193133,32.4473118 L8.44635193,37.3144086 L12.176824,33.9991398 L12.4583691,33.9286022 C13.8660944,34.7045161 15.4145923,35.3393548 17.0334764,35.692043 L16.8927039,40.9823656 L23.9313305,40.9823656 L24.072103,35.5509677 C25.7613734,35.1277419 27.3802575,34.4223656 28.7879828,33.5053763 L32.7296137,37.3144086 L37.304721,32.5178495 L33.5742489,28.7088172 C34.4892704,27.2980645 35.193133,25.6756989 35.6154506,23.9827957 L40.9648069,23.9827957 Z M20.4824034,31.8124731 C14.2180258,31.8124731 9.15021459,26.7337634 9.15021459,20.455914 C9.15021459,14.1780645 14.2180258,9.09935484 20.4824034,9.09935484 C26.7467811,9.09935484 31.8145923,14.1780645 31.8145923,20.455914 C31.8145923,26.7337634 26.7467811,31.8124731 20.4824034,31.8124731 Z" id="Shape" stroke="url(#linearGradient-6)" stroke-width="0.5" opacity="0.28" fill-rule="nonzero"></path>
            </g>
        </g>
    </g>
</svg>