<?xml version="1.0" encoding="UTF-8"?>
<svg width="56px" height="48px" viewBox="0 0 56 48" version="1.1" xmlns="http://www.w3.org/2000/svg" xmlns:xlink="http://www.w3.org/1999/xlink">
    <!-- Generator: Sketch 50.2 (55047) - http://www.bohemiancoding.com/sketch -->
    <title>player/icon/setting</title>
    <desc>Created with Sketch.</desc>
    <defs>
        <filter x="-11.0%" y="-8.5%" width="122.0%" height="122.0%" filterUnits="objectBoundingBox" id="filter-1">
            <feOffset dx="0" dy="1" in="SourceAlpha" result="shadowOffsetOuter1"></feOffset>
            <feGaussianBlur stdDeviation="1" in="shadowOffsetOuter1" result="shadowBlurOuter1"></feGaussianBlur>
            <feColorMatrix values="0 0 0 0 0.552941176   0 0 0 0 0.552941176   0 0 0 0 0.552941176  0 0 0 0.5 0" type="matrix" in="shadowBlurOuter1" result="shadowMatrixOuter1"></feColorMatrix>
            <feMerge>
                <feMergeNode in="shadowMatrixOuter1"></feMergeNode>
                <feMergeNode in="SourceGraphic"></feMergeNode>
            </feMerge>
        </filter>
        <path d="M40.9648069,23.9827957 L40.9648069,16.7174194 L35.8266094,16.7174194 C35.4746781,15.1655914 34.9819742,13.7548387 34.2077253,12.4146237 L34.2781116,12.2735484 L37.6566524,8.25290323 L32.7296137,3.31526882 L28.7175966,6.63053763 C27.3098712,5.71354839 25.6909871,5.00817204 24.0017167,4.58494624 L24.0017167,0 L16.5407725,0 L16.5407725,4.58494624 C14.7107296,5.00817204 13.0214592,5.78408602 11.4729614,6.7716129 L8.0944206,3.66795699 L3.5193133,8.25290323 L6.68669528,11.7092473 C5.77167382,13.1905376 5.06781116,14.8129032 4.71587983,16.5763441 L0,16.5763441 L0,23.9827957 L4.78626609,23.9827957 C5.20858369,25.7462366 5.98283262,27.3686022 6.96824034,28.8498925 L3.5193133,32.4473118 L8.44635193,37.3144086 L12.176824,33.9991398 L12.4583691,33.9286022 C13.8660944,34.7045161 15.4145923,35.3393548 17.0334764,35.692043 L16.8927039,40.9823656 L23.9313305,40.9823656 L24.072103,35.5509677 C25.7613734,35.1277419 27.3802575,34.4223656 28.7879828,33.5053763 L32.7296137,37.3144086 L37.304721,32.5178495 L33.5742489,28.7088172 C34.4892704,27.2980645 35.193133,25.6756989 35.6154506,23.9827957 L40.9648069,23.9827957 Z M20.4824034,31.8124731 C14.2180258,31.8124731 9.15021459,26.7337634 9.15021459,20.455914 C9.15021459,14.1780645 14.2180258,9.09935484 20.4824034,9.09935484 C26.7467811,9.09935484 31.8145923,14.1780645 31.8145923,20.455914 C31.8145923,26.7337634 26.7467811,31.8124731 20.4824034,31.8124731 Z" id="path-2"></path>
        <linearGradient x1="74.8286995%" y1="-9.88210257%" x2="6.95363209%" y2="111.831644%" id="linearGradient-4">
            <stop stop-color="#878787" stop-opacity="0.30298913" offset="0%"></stop>
            <stop stop-color="#616161" offset="31.4168285%"></stop>
            <stop stop-color="#6E6E6E" stop-opacity="0.74535779" offset="67.7630573%"></stop>
            <stop stop-color="#646464" stop-opacity="0.74535779" offset="78.8141189%"></stop>
            <stop stop-color="#5F5F5F" stop-opacity="0.345137002" offset="100%"></stop>
        </linearGradient>
    </defs>
    <g id="player/icon/setting" stroke="none" stroke-width="1" fill="none" fill-rule="evenodd">
        <g id="icon-setting" filter="url(#filter-1)" transform="translate(8.000000, 4.000000)">
            <path d="M40.9648069,23.9827957 L40.9648069,16.7174194 L35.8266094,16.7174194 C35.4746781,15.1655914 34.9819742,13.7548387 34.2077253,12.4146237 L34.2781116,12.2735484 L37.6566524,8.25290323 L32.7296137,3.31526882 L28.7175966,6.63053763 C27.3098712,5.71354839 25.6909871,5.00817204 24.0017167,4.58494624 L24.0017167,0 L16.5407725,0 L16.5407725,4.58494624 C14.7107296,5.00817204 13.0214592,5.78408602 11.4729614,6.7716129 L8.0944206,3.66795699 L3.5193133,8.25290323 L6.68669528,11.7092473 C5.77167382,13.1905376 5.06781116,14.8129032 4.71587983,16.5763441 L0,16.5763441 L0,23.9827957 L4.78626609,23.9827957 C5.20858369,25.7462366 5.98283262,27.3686022 6.96824034,28.8498925 L3.5193133,32.4473118 L8.44635193,37.3144086 L12.176824,33.9991398 L12.4583691,33.9286022 C13.8660944,34.7045161 15.4145923,35.3393548 17.0334764,35.692043 L16.8927039,40.9823656 L23.9313305,40.9823656 L24.072103,35.5509677 C25.7613734,35.1277419 27.3802575,34.4223656 28.7879828,33.5053763 L32.7296137,37.3144086 L37.304721,32.5178495 L33.5742489,28.7088172 C34.4892704,27.2980645 35.193133,25.6756989 35.6154506,23.9827957 L40.9648069,23.9827957 Z M20.4824034,31.8124731 C14.2180258,31.8124731 9.15021459,26.7337634 9.15021459,20.455914 C9.15021459,14.1780645 14.2180258,9.09935484 20.4824034,9.09935484 C26.7467811,9.09935484 31.8145923,14.1780645 31.8145923,20.455914 C31.8145923,26.7337634 26.7467811,31.8124731 20.4824034,31.8124731 Z" id="setting--bg-blur" fill="#FFFFFF" fill-rule="nonzero" opacity="0.9"></path>
            <g id="setting--highlight">
                <mask id="mask-3" fill="white">
                    <use xlink:href="#path-2"></use>
                </mask>
                <g id="setting--shape" fill-rule="nonzero"></g>
            </g>
            <path d="M35.8095142,24.2327957 C35.395138,25.8114897 34.7388655,27.3307142 33.8919532,28.6759165 L37.652399,32.5155537 L32.7368373,37.6690465 L28.756518,33.8226274 C27.4125876,34.6724816 25.8945506,35.3308368 24.3171286,35.7461337 L24.1749349,41.2323656 L16.635963,41.2323656 L16.7781002,35.8907572 C15.3129974,35.5496504 13.8484107,34.9710714 12.4241128,34.1949114 L12.2970609,34.2267427 L8.43731824,37.6568941 L3.16840587,32.4520828 L6.64985987,28.8207361 C5.68969502,27.3435054 4.99438364,25.8161718 4.59055853,24.2327957 L-0.25,24.2327957 L-0.25,16.3263441 L4.51245627,16.3263441 C4.85351489,14.744717 5.48330274,13.2179811 6.37532069,11.7394983 L3.17347747,8.24554903 L8.08689325,3.32156677 L11.5012671,6.45814027 C13.0497195,5.49141875 14.6434909,4.79255178 16.2907725,4.38757512 L16.2907725,-0.25 L24.2517167,-0.25 L24.2517167,4.39109079 C25.8324354,4.80780065 27.35339,5.46857005 28.6991104,6.32150365 L32.7458151,2.9775713 L37.9953705,8.23841599 L37.8480505,8.4137347 L34.5018143,12.3851597 L34.4910708,12.406693 C35.1745626,13.6181134 35.6614624,14.9273251 36.0253452,16.4674194 L41.2148069,16.4674194 L41.2148069,24.2327957 L35.8095141,24.2327957 Z M20.4824034,31.5624731 C26.6085896,31.5624731 31.5645923,26.5958123 31.5645923,20.455914 C31.5645923,14.3160156 26.6085896,9.34935484 20.4824034,9.34935484 C14.3562173,9.34935484 9.40021459,14.3160156 9.40021459,20.455914 C9.40021459,26.5958123 14.3562173,31.5624731 20.4824034,31.5624731 Z" id="setting--border" stroke="url(#linearGradient-4)" stroke-width="0.5" opacity="0.28" fill-rule="nonzero"></path>
        </g>
    </g>
</svg>