<?xml version="1.0" encoding="UTF-8"?>
<svg viewBox="0 0 46 36" version="1.1" xmlns="http://www.w3.org/2000/svg" xmlns:xlink="http://www.w3.org/1999/xlink">
    <defs>
        <filter x="-75.0%" y="-29.2%" width="250.0%" height="175.0%" filterUnits="objectBoundingBox" id="filter-1">
            <feOffset dx="0" dy="1" in="SourceAlpha" result="shadowOffsetOuter1"></feOffset>
            <feGaussianBlur stdDeviation="1" in="shadowOffsetOuter1" result="shadowBlurOuter1"></feGaussianBlur>
            <feColorMatrix values="0 0 0 0 0   0 0 0 0 0   0 0 0 0 0  0 0 0 0.1 0" type="matrix" in="shadowBlurOuter1" result="shadowMatrixOuter1"></feColorMatrix>
            <feMerge>
                <feMergeNode in="shadowMatrixOuter1"></feMergeNode>
                <feMergeNode in="SourceGraphic"></feMergeNode>
            </feMerge>
        </filter>
        <filter x="-13.6%" y="-9.7%" width="127.3%" height="125.0%" filterUnits="objectBoundingBox" id="filter-2">
            <feOffset dx="0" dy="1" in="SourceAlpha" result="shadowOffsetOuter1"></feOffset>
            <feGaussianBlur stdDeviation="1" in="shadowOffsetOuter1" result="shadowBlurOuter1"></feGaussianBlur>
            <feColorMatrix values="0 0 0 0 0   0 0 0 0 0   0 0 0 0 0  0 0 0 0.1 0" type="matrix" in="shadowBlurOuter1" result="shadowMatrixOuter1"></feColorMatrix>
            <feMerge>
                <feMergeNode in="shadowMatrixOuter1"></feMergeNode>
                <feMergeNode in="SourceGraphic"></feMergeNode>
            </feMerge>
        </filter>
    </defs>
    <g id="Playing-View-/-Button---Volume-V2---Level-1" stroke="none" stroke-width="1" fill="none" fill-rule="evenodd">
        <g id="Volume" filter="url(#filter-1)" transform="translate(0.000000, 12.000000)">
            <rect id="Combined-Shape" fill-opacity="0.9" fill="#FFFFFF" x="0" y="0" width="6" height="12" rx="1"></rect>
            <rect id="Combined-Shape" stroke-opacity="0.3" stroke="#000000" stroke-width="0.5" opacity="0.28" x="0" y="0" width="6" height="12" rx="1"></rect>
        </g>
        <g id="Volume---level-1" filter="url(#filter-2)" transform="translate(13.000000, 0.000000)">
            <path d="M2,8 L4,8 C5.1045695,8 6,8.8954305 6,10 L6,26 C6,27.1045695 5.1045695,28 4,28 L2,28 C0.8954305,28 1.3527075e-16,27.1045695 0,26 L0,10 C-1.3527075e-16,8.8954305 0.8954305,8 2,8 Z" id="Rectangle-5-Copy" fill-opacity="0.5" fill="#FFFFFF"></path>
            <path d="M2,8 L4,8 C5.1045695,8 6,8.8954305 6,10 L6,26 C6,27.1045695 5.1045695,28 4,28 L2,28 C0.8954305,28 1.3527075e-16,27.1045695 0,26 L0,10 C-1.3527075e-16,8.8954305 0.8954305,8 2,8 Z" id="Rectangle-5-Copy" stroke-opacity="0.3" stroke="#000000" stroke-width="0.5" opacity="0.28"></path>
            <rect id="Rectangle-5-Copy-2" fill-opacity="0.5" fill="#FFFFFF" x="13" y="4" width="6" height="28" rx="1"></rect>
            <rect id="Rectangle-5-Copy-2" stroke-opacity="0.3" stroke="#000000" stroke-width="0.5" opacity="0.28" x="13" y="4" width="6" height="28" rx="1"></rect>
            <rect id="Rectangle-5-Copy-4" fill-opacity="0.5" fill="#FFFFFF" x="27" y="0" width="6" height="36" rx="1"></rect>
            <rect id="Rectangle-5-Copy-4" stroke-opacity="0.3" stroke="#000000" stroke-width="0.5" opacity="0.28" x="27" y="0" width="6" height="36" rx="1"></rect>
        </g>
    </g>
</svg>