<?xml version="1.0" encoding="UTF-8"?>
<svg viewBox="0 0 46 36" version="1.1" xmlns="http://www.w3.org/2000/svg" xmlns:xlink="http://www.w3.org/1999/xlink">
    <defs>
        <filter x="-9.8%" y="-9.7%" width="119.6%" height="125.0%" filterUnits="objectBoundingBox" id="filter-1">
            <feOffset dx="0" dy="1" in="SourceAlpha" result="shadowOffsetOuter1"></feOffset>
            <feGaussianBlur stdDeviation="1" in="shadowOffsetOuter1" result="shadowBlurOuter1"></feGaussianBlur>
            <feColorMatrix values="0 0 0 0 0   0 0 0 0 0   0 0 0 0 0  0 0 0 0.1 0" type="matrix" in="shadowBlurOuter1" result="shadowMatrixOuter1"></feColorMatrix>
            <feMerge>
                <feMergeNode in="shadowMatrixOuter1"></feMergeNode>
                <feMergeNode in="SourceGraphic"></feMergeNode>
            </feMerge>
        </filter>
    </defs>
    <g id="Playing-View-/-Button---Volume-V2---Level-4" stroke="none" stroke-width="1" fill="none" fill-rule="evenodd">
        <g id="Volume---level-4" filter="url(#filter-1)">
            <path d="M2,12 L4,12 C5.1045695,12 6,12.8954305 6,14 L6,22 C6,23.1045695 5.1045695,24 4,24 L2,24 C0.8954305,24 1.3527075e-16,23.1045695 0,22 L0,14 C-1.3527075e-16,12.8954305 0.8954305,12 2,12 Z M15,8 L17,8 C18.1045695,8 19,8.8954305 19,10 L19,26 C19,27.1045695 18.1045695,28 17,28 L15,28 C13.8954305,28 13,27.1045695 13,26 L13,10 C13,8.8954305 13.8954305,8 15,8 Z M28,4 L30,4 C31.1045695,4 32,4.8954305 32,6 L32,30 C32,31.1045695 31.1045695,32 30,32 L28,32 C26.8954305,32 26,31.1045695 26,30 L26,6 C26,4.8954305 26.8954305,4 28,4 Z M42,0 L44,0 C45.1045695,-2.02906125e-16 46,0.8954305 46,2 L46,34 C46,35.1045695 45.1045695,36 44,36 L42,36 C40.8954305,36 40,35.1045695 40,34 L40,2 C40,0.8954305 40.8954305,2.02906125e-16 42,0 Z" id="Combined-Shape" fill-opacity="0.9" fill="#FFFFFF"></path>
            <path d="M2,12 L4,12 C5.1045695,12 6,12.8954305 6,14 L6,22 C6,23.1045695 5.1045695,24 4,24 L2,24 C0.8954305,24 1.3527075e-16,23.1045695 0,22 L0,14 C-1.3527075e-16,12.8954305 0.8954305,12 2,12 Z M15,8 L17,8 C18.1045695,8 19,8.8954305 19,10 L19,26 C19,27.1045695 18.1045695,28 17,28 L15,28 C13.8954305,28 13,27.1045695 13,26 L13,10 C13,8.8954305 13.8954305,8 15,8 Z M28,4 L30,4 C31.1045695,4 32,4.8954305 32,6 L32,30 C32,31.1045695 31.1045695,32 30,32 L28,32 C26.8954305,32 26,31.1045695 26,30 L26,6 C26,4.8954305 26.8954305,4 28,4 Z M42,0 L44,0 C45.1045695,-2.02906125e-16 46,0.8954305 46,2 L46,34 C46,35.1045695 45.1045695,36 44,36 L42,36 C40.8954305,36 40,35.1045695 40,34 L40,2 C40,0.8954305 40.8954305,2.02906125e-16 42,0 Z" id="Combined-Shape" stroke-opacity="0.3" stroke="#000000" stroke-width="0.5" opacity="0.28"></path>
        </g>
    </g>
</svg>