<?xml version="1.0" encoding="UTF-8"?>
<svg width="17px" height="800px" viewBox="0 0 17 800" version="1.1" xmlns="http://www.w3.org/2000/svg" xmlns:xlink="http://www.w3.org/1999/xlink">
    <!-- Generator: Sketch 53.2 (72643) - https://sketchapp.com -->
    <title>点阵</title>
    <desc>Created with Sketch.</desc>
    <g id="点阵" stroke="none" stroke-width="1" fill="none" fill-rule="evenodd">
        <rect id="Rectangle" fill="#FFFFFF" x="8" y="16" width="1" height="1"></rect>
        <rect id="Rectangle-Copy" fill-opacity="0.96" fill="#FFFFFF" x="8" y="33" width="1" height="1"></rect>
        <rect id="Rectangle-Copy-2" fill="#FFFFFF" opacity="0.919999957" x="8" y="50" width="1" height="1"></rect>
        <rect id="Rectangle-Copy-3" fill="#FFFFFF" opacity="0.879999995" x="8" y="67" width="1" height="1"></rect>
        <rect id="Rectangle-Copy-4" fill="#FFFFFF" opacity="0.839999974" x="8" y="84" width="1" height="1"></rect>
        <rect id="Rectangle-Copy-5" fill="#FFFFFF" opacity="0.800000012" x="8" y="101" width="1" height="1"></rect>
        <rect id="Rectangle-Copy-6" fill="#FFFFFF" opacity="0.75999999" x="8" y="118" width="1" height="1"></rect>
        <rect id="Rectangle-Copy-7" fill="#FFFFFF" opacity="0.719999969" x="8" y="135" width="1" height="1"></rect>
        <rect id="Rectangle-Copy-8" fill="#FFFFFF" opacity="0.680000007" x="8" y="152" width="1" height="1"></rect>
        <rect id="Rectangle-Copy-9" fill="#FFFFFF" opacity="0.639999986" x="8" y="169" width="1" height="1"></rect>
        <rect id="Rectangle-Copy-10" fill="#FFFFFF" opacity="0.600000024" x="8" y="186" width="1" height="1"></rect>
        <rect id="Rectangle-Copy-11" fill="#FFFFFF" opacity="0.560000002" x="8" y="203" width="1" height="1"></rect>
        <rect id="Rectangle-Copy-12" fill="#FFFFFF" opacity="0.519999981" x="8" y="220" width="1" height="1"></rect>
        <rect id="Rectangle-Copy-13" fill="#FFFFFF" opacity="0.479999989" x="8" y="237" width="1" height="1"></rect>
        <rect id="Rectangle-Copy-14" fill="#FFFFFF" opacity="0.439999998" x="8" y="254" width="1" height="1"></rect>
        <rect id="Rectangle-Copy-15" fill="#FFFFFF" opacity="0.400000006" x="8" y="271" width="1" height="1"></rect>
        <rect id="Rectangle-Copy-16" fill="#FFFFFF" opacity="0.359999985" x="8" y="288" width="1" height="1"></rect>
        <rect id="Rectangle-Copy-17" fill="#FFFFFF" opacity="0.319999993" x="8" y="305" width="1" height="1"></rect>
        <rect id="Rectangle-Copy-18" fill="#FFFFFF" opacity="0.280000001" x="8" y="322" width="1" height="1"></rect>
        <rect id="Rectangle-Copy-19" fill="#FFFFFF" opacity="0.239999995" x="8" y="339" width="1" height="1"></rect>
        <rect id="Rectangle-Copy-20" fill="#FFFFFF" opacity="0.200000003" x="8" y="356" width="1" height="1"></rect>
        <rect id="Rectangle-Copy-21" fill="#FFFFFF" opacity="0.159999996" x="8" y="373" width="1" height="1"></rect>
        <rect id="Rectangle-Copy-22" fill="#FFFFFF" opacity="0.119999997" x="8" y="390" width="1" height="1"></rect>
        <rect id="Rectangle-Copy-23" fill="#FFFFFF" opacity="0.0799999982" x="8" y="407" width="1" height="1"></rect>
        <rect id="Rectangle-Copy-24" fill="#FFFFFF" opacity="0.0399999991" x="8" y="424" width="1" height="1"></rect>
    </g>
</svg>