<?xml version="1.0" encoding="UTF-8"?>
<svg width="21px" height="21px" viewBox="0 0 21 21" version="1.1" xmlns="http://www.w3.org/2000/svg" xmlns:xlink="http://www.w3.org/1999/xlink">
    <!-- Generator: Sketch 53.1 (72631) - https://sketchapp.com -->
    <title>条纹水平垂直平铺</title>
    <desc>Created with Sketch.</desc>
    <g id="条纹水平垂直平铺" stroke="none" stroke-width="1" fill="none" fill-rule="evenodd" fill-opacity="0.15">
        <path d="M0.978661017,-9.30366895e-14 L21,20.021339 L21,22 L19.5141949,22 L1.44773082e-13,2.48580508 L1.45661261e-13,-8.94839758e-14 L0.978661017,-8.94839758e-14 Z M4.51419492,-8.94839758e-14 L7.97866102,-8.94839758e-14 L21,13.021339 L21,16.4858051 L4.51419492,-8.94839758e-14 Z M11.5141949,-8.94839758e-14 L14.978661,-8.94839758e-14 L21,6.02133898 L21,9.48580508 L11.5141949,-8.94839758e-14 Z M18.5141949,-8.94839758e-14 L21,-8.94839758e-14 L21,2.48580508 L18.5141949,-8.9928065e-14 Z M15.978661,22 L12.517767,22 L1.43884904e-13,9.48223305 L1.45661261e-13,6.02133898 L15.978661,22 Z M8.98223305,22 L5.51776695,22 L1.45661261e-13,16.482233 L1.45661261e-13,13.017767 L8.98223305,22 Z M1.98223305,22 L1.45661261e-13,22 L1.45661261e-13,20.017767 L1.98223305,22 Z" id="形状结合" fill="#FFFFFF" style="mix-blend-mode: lighten;"></path>
    </g>
</svg>