<?xml version="1.0" encoding="UTF-8"?>
<svg width="162px" height="16px" viewBox="0 0 162 16" version="1.1" xmlns="http://www.w3.org/2000/svg" xmlns:xlink="http://www.w3.org/1999/xlink">
    <!-- Generator: Sketch 53.1 (72631) - https://sketchapp.com -->
    <title>形状结合</title>
    <desc>Created with Sketch.</desc>
    <g id="Page-1" stroke="none" stroke-width="1" fill="none" fill-rule="evenodd" fill-opacity="0.16">
        <g id="暂停/选中参考字幕" transform="translate(-448.000000, -64.000000)" fill="#FFFFFF">
            <g id="编组" transform="translate(447.500000, 63.788582)">
                <path d="M3.01776695,0.711417767 L5.48223305,0.711417767 L20.482233,15.7114178 L18.017767,15.7114178 L3.01776695,0.711417767 Z M9.01776695,0.711417767 L11.482233,0.711417767 L26.482233,15.7114178 L24.017767,15.7114178 L9.01776695,0.711417767 Z M15.017767,0.711417767 L17.482233,0.711417767 L32.482233,15.7114178 L30.017767,15.7114178 L15.017767,0.711417767 Z M21.017767,0.711417767 L23.482233,0.711417767 L38.482233,15.7114178 L36.017767,15.7114178 L21.017767,0.711417767 Z M27.017767,0.711417767 L29.482233,0.711417767 L44.482233,15.7114178 L42.017767,15.7114178 L27.017767,0.711417767 Z M33.017767,0.711417767 L35.482233,0.711417767 L50.482233,15.7114178 L48.017767,15.7114178 L33.017767,0.711417767 Z M39.017767,0.711417767 L41.482233,0.711417767 L56.482233,15.7114178 L54.017767,15.7114178 L39.017767,0.711417767 Z M45.017767,0.711417767 L47.482233,0.711417767 L62.482233,15.7114178 L60.017767,15.7114178 L45.017767,0.711417767 Z M51.017767,0.711417767 L53.482233,0.711417767 L68.482233,15.7114178 L66.017767,15.7114178 L51.017767,0.711417767 Z M57.017767,0.711417767 L59.482233,0.711417767 L74.482233,15.7114178 L72.017767,15.7114178 L57.017767,0.711417767 Z M63.017767,0.711417767 L65.482233,0.711417767 L80.482233,15.7114178 L78.017767,15.7114178 L63.017767,0.711417767 Z M69.017767,0.711417767 L71.482233,0.711417767 L86.482233,15.7114178 L84.017767,15.7114178 L69.017767,0.711417767 Z M75.017767,0.711417767 L77.482233,0.711417767 L92.482233,15.7114178 L90.017767,15.7114178 L75.017767,0.711417767 Z M81.017767,0.711417767 L83.482233,0.711417767 L98.482233,15.7114178 L96.017767,15.7114178 L81.017767,0.711417767 Z M87.017767,0.711417767 L89.482233,0.711417767 L104.482233,15.7114178 L102.017767,15.7114178 L87.017767,0.711417767 Z M93.017767,0.711417767 L95.482233,0.711417767 L110.482233,15.7114178 L108.017767,15.7114178 L93.017767,0.711417767 Z M99.017767,0.711417767 L101.482233,0.711417767 L116.482233,15.7114178 L114.017767,15.7114178 L99.017767,0.711417767 Z M105.017767,0.711417767 L107.482233,0.711417767 L122.482233,15.7114178 L120.017767,15.7114178 L105.017767,0.711417767 Z M111.017767,0.711417767 L113.482233,0.711417767 L128.482233,15.7114178 L126.017767,15.7114178 L111.017767,0.711417767 Z M117.017767,0.711417767 L119.482233,0.711417767 L134.482233,15.7114178 L132.017767,15.7114178 L117.017767,0.711417767 Z M123.017767,0.711417767 L125.482233,0.711417767 L140.482233,15.7114178 L138.017767,15.7114178 L123.017767,0.711417767 Z M129.017767,0.711417767 L131.482233,0.711417767 L146.482233,15.7114178 L144.017767,15.7114178 L129.017767,0.711417767 Z M135.017767,0.711417767 L137.482233,0.711417767 L152.482233,15.7114178 L150.017767,15.7114178 L135.017767,0.711417767 Z M141.017767,0.711417767 L143.482233,0.711417767 L158.482233,15.7114178 L156.017767,15.7114178 L141.017767,0.711417767 Z M147.017767,0.711417767 L149.482233,0.711417767 L162.5,13.7291847 L162.5,14.7114178 C162.5,15.1122107 162.264215,15.4579331 161.92379,15.6174407 L147.017767,0.711417767 Z M153.017767,0.711417767 L155.482233,0.711417767 L162.5,7.72918472 L162.5,10.1936508 L153.017767,0.711417767 Z M159.017767,0.711417767 L161.482233,0.711417767 L162.5,1.72918472 L162.5,4.19365081 L159.017767,0.711417767 Z M14.482233,15.7114178 L12.017767,15.7114178 L0.5,4.19365081 L0.5,1.72918472 L14.482233,15.7114178 Z M8.48223305,15.7114178 L6.01776695,15.7114178 L0.5,10.1936508 L0.5,7.72918472 L8.48223305,15.7114178 Z M2.48223305,15.7114178 L1.5,15.7114178 C0.94771525,15.7114178 0.5,15.2637025 0.5,14.7114178 L0.5,13.7291847 L2.48223305,15.7114178 Z" id="形状结合" style="mix-blend-mode: lighten;"></path>
            </g>
        </g>
    </g>
</svg>