<?xml version="1.0" encoding="UTF-8"?>
<svg width="20px" height="20px" viewBox="0 0 20 20" version="1.1" xmlns="http://www.w3.org/2000/svg" xmlns:xlink="http://www.w3.org/1999/xlink">
    <!-- Generator: Sketch 55.2 (78181) - https://sketchapp.com -->
    <desc>Created with Sketch.</desc>
    <g id="picinpic-danmu" stroke="none" stroke-width="1" fill="none" fill-rule="evenodd">
        <g id="弹幕" transform="translate(4.000000, 7.000000)" fill="#FFFFFF" fill-rule="nonzero">
            <path d="M9.6911391,1.12604366 C9.6911391,1.55406434 10.0381184,1.90104365 10.4661391,1.90104365 C10.8941598,1.90104365 11.2411391,1.55406434 11.2411391,1.12604366 C11.2411391,0.849162825 11.0934249,0.593314383 10.8536391,0.454873965 C10.6138533,0.316433547 10.3184249,0.316433547 10.0786391,0.454873965 C9.83885326,0.593314383 9.6911391,0.849162825 9.6911391,1.12604366 L9.6911391,1.12604366 Z" id="路径"></path>
            <path d="M0.758860896,4.22866834 C0.758860896,4.65668901 1.10584021,5.00366833 1.5338609,5.00366833 C1.96188158,5.00366833 2.3088609,4.65668901 2.3088609,4.22866834 C2.3088609,3.9517875 2.16114674,3.69593906 1.9213609,3.55749864 C1.68157506,3.41905823 1.38614673,3.41905823 1.14636089,3.55749864 C0.906575057,3.69593906 0.758860896,3.9517875 0.758860896,4.22866834 L0.758860896,4.22866834 Z" id="路径"></path>
            <path d="M1.49586202,1.82760615 L7.88394796,1.82760615 C8.291321,1.82760615 8.62091085,1.49669795 8.62091085,1.0893249 C8.62091085,0.681951855 8.291321,0.351043652 7.88394796,0.351043652 L1.49586202,0.351043652 C1.08848897,0.351043652 0.758860896,0.681951855 0.758860896,1.0893249 C0.757580769,1.49669795 1.08848897,1.82760615 1.49586202,1.82760615 Z" id="路径"></path>
            <path d="M4.11609028,4.96694958 L10.5041762,4.96694958 C10.9115493,4.96694958 11.2411391,4.63604138 11.2411391,4.22866833 C11.2411391,3.82129528 10.9115493,3.49038708 10.5041762,3.49038708 L4.11609028,3.49038708 C3.70871723,3.49038708 3.37908915,3.82129528 3.37908915,4.22866833 C3.37780903,4.63604138 3.70871723,4.96694958 4.11609028,4.96694958 Z" id="路径"></path>
        </g>
        <path d="M17.734375,10.7286683 C17.3460498,10.7286683 17.03125,10.4138685 17.03125,10.0255433 L17.03125,5.678125 C17.03125,5.34675415 16.7626208,5.078125 16.43125,5.078125 L3.56875,5.078125 C3.23737915,5.078125 2.96875,5.34675415 2.96875,5.678125 L2.96875,13.821875 C2.96875,14.1532458 3.23737915,14.421875 3.56875,14.421875 L11.549768,14.421875 C11.9380932,14.421875 12.252893,14.7366748 12.252893,15.125 C12.252893,15.5133252 11.9380932,15.828125 11.549768,15.828125 L2.929375,15.828125 C2.17447078,15.828125 1.5625,15.2161542 1.5625,14.46125 L1.5625,5.03875 C1.5625,4.28384578 2.17447078,3.671875 2.929375,3.671875 L17.070625,3.671875 C17.8255292,3.671875 18.4375,4.28384578 18.4375,5.03875 L18.4375,10.0255433 C18.4375,10.4138685 18.1227002,10.7286683 17.734375,10.7286683 Z" id="路径" fill="#FFFFFF" fill-rule="nonzero"></path>
        <g id="编组-2" transform="translate(11.822527, 10.963012)" fill="#FFFFFF">
            <rect id="矩形" transform="translate(2.740000, 4.052242) rotate(-45.000000) translate(-2.740000, -4.052242) " x="2" y="2.05224234" width="1.48" height="4" rx="0.74"></rect>
            <rect id="矩形" transform="translate(5.365192, 3.181705) rotate(40.000000) translate(-5.365192, -3.181705) " x="4.62519177" y="-0.0204712112" width="1.48" height="6.40435146" rx="0.74"></rect>
        </g>
    </g>
</svg>
