<?xml version="1.0" encoding="UTF-8"?>
<svg width="13px" height="7px" viewBox="0 0 13 7" version="1.1" xmlns="http://www.w3.org/2000/svg" xmlns:xlink="http://www.w3.org/1999/xlink">
    <!-- Generator: Sketch 57.1 (83088) - https://sketch.com -->
    <title>textInput__more</title>
    <desc>Created with Sketch.</desc>
    <g id="Page-1" stroke="none" stroke-width="1" fill="none" fill-rule="evenodd" fill-opacity="1">
        <g id="popUp-选中并hover到icon" transform="translate(-312.000000, -142.000000)" fill="#717382" fill-rule="nonzero">
            <g id="popUpTextInput" transform="translate(24.000000, 127.000000)">
                <g id="textInput__more" transform="translate(288.000000, 15.000000)">
                    <path d="M11.4539062,0.3984375 C11.8230469,0.3984375 12.1033203,0.678710938 12.1033203,1.04785156 C12.1033203,1.22558594 12.0417969,1.3828125 11.91875,1.50585938 L11.91875,1.50585938 L6.9421875,6.59863281 C6.81230469,6.73535156 6.63457031,6.81738281 6.45,6.81738281 C6.26542969,6.81738281 6.10136719,6.7421875 5.9578125,6.59863281 L5.9578125,6.59863281 L0.98125,1.50585938 C0.865039062,1.3828125 0.78984375,1.22558594 0.78984375,1.04785156 C0.78984375,0.678710938 1.07695312,0.3984375 1.43925781,0.3984375 C1.62382812,0.3984375 1.78789062,0.466796875 1.90410156,0.58984375 L1.90410156,0.58984375 L6.45,5.23828125 L10.9890625,0.58984375 C11.1189453,0.466796875 11.2830078,0.3984375 11.4539062,0.3984375 Z" id="Combined-Shape"></path>
                </g>
            </g>
        </g>
    </g>
</svg>
