<?xml version="1.0" encoding="UTF-8"?>
<svg width="20px" height="20px" viewBox="0 0 20 20" version="1.1" xmlns="http://www.w3.org/2000/svg" xmlns:xlink="http://www.w3.org/1999/xlink">
    <!-- Generator: Sketch 58 (84663) - https://sketch.com -->
    <desc>Created with Sketch.</desc>
    <defs>
        <rect id="path-1" x="0" y="0" width="7.9" height="19"></rect>
        <rect id="path-3" x="0" y="0" width="7.9" height="19"></rect>
    </defs>
    <g id="pined" stroke="none" stroke-width="1" fill="none" fill-rule="evenodd">
        <g id="编组-9" transform="translate(10.200000, 10.500000) rotate(-360.000000) translate(-10.200000, -10.500000) translate(2.200000, 1.000000)">
            <g id="编组-8">
                <g id="编组-7" transform="translate(4.000000, 9.500000) rotate(-360.000000) translate(-4.000000, -9.500000) ">
                    <g id="编组-6">
                        <g id="编组-5" transform="translate(4.000000, 9.500000) rotate(-360.000000) translate(-4.000000, -9.500000) ">
                            <g id="编组-4" transform="translate(4.000000, 9.500000) rotate(-360.000000) translate(-4.000000, -9.500000) ">
                                <g id="编组-3" transform="translate(4.000000, 9.500000) rotate(-360.000000) translate(-4.000000, -9.500000) ">
                                    <g id="编组-2" transform="translate(4.000000, 9.500000) rotate(-360.000000) translate(-4.000000, -9.500000) ">
                                        <g id="编组">
                                            <mask id="mask-2" fill="white">
                                                <use xlink:href="#path-1"></use>
                                            </mask>
                                            <g id="矩形"></g>
                                            <path d="M3.12048814,8.99764706 L11.0388634,8.99764706 C11.4155173,8.99764706 11.7517806,9.23368905 11.8797738,9.58792898 L12.6789233,11.7996937 C12.8467272,12.2641156 12.6062707,12.7766359 12.1418487,12.9444398 C12.0444173,12.9796434 11.9416092,12.9976471 11.838013,12.9976471 L1.80132101,12.9976471 C1.30751347,12.9976471 0.907203366,12.597337 0.907203366,12.1035294 C0.907203366,11.9422736 0.950813491,11.7840192 1.03341531,11.6455259 L2.35258244,9.43376121 C2.51389113,9.16330505 2.80558017,8.99764706 3.12048814,8.99764706 Z" id="矩形备份" stroke="#FFFFFF" stroke-width="1.12941176" mask="url(#mask-2)"></path>
                                            <path d="M3.0772075,8.68235294 L4.45777744,3.28698607 C4.11925915,3.20595921 3.80230241,3.02781643 3.50690723,2.75255772 C3.06381446,2.33966966 2.41574144,0.95 3.04929511,0.95 C3.47166423,0.95 5.38474011,0.95 8.78852275,0.95" id="路径-4" stroke="#FFFFFF" stroke-width="1.14" stroke-linecap="round" stroke-linejoin="round" mask="url(#mask-2)"></path>
                                        </g>
                                    </g>
                                </g>
                            </g>
                        </g>
                    </g>
                </g>
                <g id="编组-7" transform="translate(11.770000, 9.500000) scale(-1, 1) rotate(-360.000000) translate(-11.770000, -9.500000) translate(7.770000, 0.000000)">
                    <g id="编组-6">
                        <g id="编组-5" transform="translate(4.000000, 9.500000) rotate(-360.000000) translate(-4.000000, -9.500000) ">
                            <g id="编组-4" transform="translate(4.000000, 9.500000) rotate(-360.000000) translate(-4.000000, -9.500000) ">
                                <g id="编组-3" transform="translate(4.000000, 9.500000) rotate(-360.000000) translate(-4.000000, -9.500000) ">
                                    <g id="编组-2" transform="translate(4.000000, 9.500000) rotate(-360.000000) translate(-4.000000, -9.500000) ">
                                        <g id="编组">
                                            <mask id="mask-4" fill="white">
                                                <use xlink:href="#path-3"></use>
                                            </mask>
                                            <g id="矩形"></g>
                                            <path d="M3.12048814,8.99764706 L11.0388634,8.99764706 C11.4155173,8.99764706 11.7517806,9.23368905 11.8797738,9.58792898 L12.6789233,11.7996937 C12.8467272,12.2641156 12.6062707,12.7766359 12.1418487,12.9444398 C12.0444173,12.9796434 11.9416092,12.9976471 11.838013,12.9976471 L1.80132101,12.9976471 C1.30751347,12.9976471 0.907203366,12.597337 0.907203366,12.1035294 C0.907203366,11.9422736 0.950813491,11.7840192 1.03341531,11.6455259 L2.35258244,9.43376121 C2.51389113,9.16330505 2.80558017,8.99764706 3.12048814,8.99764706 Z" id="矩形备份" stroke="#FFFFFF" stroke-width="1.12941176" mask="url(#mask-4)"></path>
                                            <path d="M3.0772075,8.68235294 L4.45777744,3.28698607 C4.11925915,3.20595921 3.80230241,3.02781643 3.50690723,2.75255772 C3.06381446,2.33966966 2.41574144,0.95 3.04929511,0.95 C3.47166423,0.95 5.38474011,0.95 8.78852275,0.95" id="路径-4" stroke="#FFFFFF" stroke-width="1.14" stroke-linecap="round" stroke-linejoin="round" mask="url(#mask-4)"></path>
                                        </g>
                                    </g>
                                </g>
                            </g>
                        </g>
                    </g>
                </g>
            </g>
            <path d="M7.9,13.5734426 L7.9,17.2734426" id="路径-5" stroke="#FFFFFF" stroke-width="1.6" stroke-linecap="round"></path>
        </g>
    </g>
</svg>
