<?xml version="1.0" encoding="UTF-8"?>
<svg width="18px" height="14px" viewBox="0 0 18 14" version="1.1" xmlns="http://www.w3.org/2000/svg" xmlns:xlink="http://www.w3.org/1999/xlink">
    <!-- Generator: Sketch 52.2 (67145) - http://www.bohemiancoding.com/sketch -->
    <desc>Created with Sketch.</desc>
    <g id="页面1" stroke="none" stroke-width="1" fill="none" fill-rule="evenodd" fill-opacity="0.9">
        <g id="画中画" transform="translate(-295.000000, -11.000000)" fill="#FFFFFF" fill-rule="nonzero">
            <g id="picinpic-fullscreen" transform="translate(294.000000, 8.000000)">
                <path d="M2.866875,3.5 L17.008125,3.5 C17.7630292,3.5 18.375,4.11197078 18.375,4.866875 L18.375,14.789375 C18.375,15.5442792 17.7630292,16.15625 17.008125,16.15625 L2.866875,16.15625 C2.11197078,16.15625 1.5,15.5442792 1.5,14.789375 L1.5,4.866875 C1.5,4.11197078 2.11197078,3.5 2.866875,3.5 Z M2.90625,5.50625 L2.90625,14.15 C2.90625,14.4813708 3.17487915,14.75 3.50625,14.75 L16.36875,14.75 C16.7001208,14.75 16.96875,14.4813708 16.96875,14.15 L16.96875,5.50625 C16.96875,5.17487915 16.7001208,4.90625 16.36875,4.90625 L3.50625,4.90625 C3.17487915,4.90625 2.90625,5.17487915 2.90625,5.50625 Z M5.5,6.8 L14.3,6.8 C14.6313708,6.8 14.9,7.06862915 14.9,7.4 L14.9,12.2 C14.9,12.5313708 14.6313708,12.8 14.3,12.8 L5.5,12.8 C5.16862915,12.8 4.9,12.5313708 4.9,12.2 L4.9,7.4 C4.9,7.06862915 5.16862915,6.8 5.5,6.8 Z" id="pictureInPicture"></path>
            </g>
        </g>
    </g>
</svg>
