<?xml version="1.0" encoding="UTF-8"?>
<svg width="30px" height="30px" viewBox="0 0 30 30" version="1.1" xmlns="http://www.w3.org/2000/svg" xmlns:xlink="http://www.w3.org/1999/xlink">
    <!-- Generator: Sketch 57.1 (83088) - https://sketch.com -->
    <title>menuBar/__icon/--sidebarinactive</title>
    <desc>Created with Sketch.</desc>
    <g id="menuBar/__icon/--sidebar" stroke="none" stroke-width="1" fill="none" fill-rule="evenodd">
        <path d="M21.1966203,19.15 C21.6384481,19.15 21.9966203,19.5081722 21.9966203,19.95 C21.9966203,20.3918278 21.6384481,20.75 21.1966203,20.75 L8.80337968,20.75 C8.36155188,20.75 8.00337968,20.3918278 8.00337968,19.95 C8.00337968,19.5081722 8.36155188,19.15 8.80337968,19.15 L21.1966203,19.15 Z M21.1966203,14.2 C21.6384481,14.2 21.9966203,14.5581722 21.9966203,15 C21.9966203,15.4418278 21.6384481,15.8 21.1966203,15.8 L8.80337968,15.8 C8.36155188,15.8 8.00337968,15.4418278 8.00337968,15 C8.00337968,14.5581722 8.36155188,14.2 8.80337968,14.2 L21.1966203,14.2 Z M21.1966203,9.25 C21.6384481,9.25 21.9966203,9.6081722 21.9966203,10.05 C21.9966203,10.4918278 21.6384481,10.85 21.1966203,10.85 L8.80337968,10.85 C8.36155188,10.85 8.00337968,10.4918278 8.00337968,10.05 C8.00337968,9.6081722 8.36155188,9.25 8.80337968,9.25 L21.1966203,9.25 Z" id="icon" fill="#CFD0DA" fill-rule="nonzero"></path>
    </g>
</svg>