<svg width="44px" height="44px" viewBox="0 0 44 44" version="1.1" xmlns="http://www.w3.org/2000/svg" xmlns:xlink="http://www.w3.org/1999/xlink">
    <g id="页面-1" stroke="none" stroke-width="1" fill="none" fill-rule="evenodd" opacity="0.470098586">
        <g id="默认状态备份" transform="translate(-284.000000, -132.000000)" fill="#121C44">
            <g id="browserArea" transform="translate(81.000000, 0.000000)">
                <g id="siteManager" transform="translate(40.000000, 77.000000)">
                    <g id="addSidebarItem/addItem备份-2" transform="translate(130.000000, 42.000000)">
                        <g id="addSidebarItem/addItem">
                            <g id="网站图标" transform="translate(33.000000, 13.000000)">
                                <path d="M22.5,15.3888889 C23.1075132,15.3888889 23.6,15.8813757 23.6,16.4888889 L23.5998889,20.3998889 L27.5111111,20.4 C28.1186243,20.4 28.6111111,20.8924868 28.6111111,21.5 C28.6111111,22.1075132 28.1186243,22.6 27.5111111,22.6 L23.5998889,22.5998889 L23.6,26.5111111 C23.6,27.1186243 23.1075132,27.6111111 22.5,27.6111111 C21.8924868,27.6111111 21.4,27.1186243 21.4,26.5111111 L21.3998889,22.5998889 L17.4888889,22.6 C16.8813757,22.6 16.3888889,22.1075132 16.3888889,21.5 C16.3888889,20.8924868 16.8813757,20.4 17.4888889,20.4 L21.3998889,20.3998889 L21.4,16.4888889 C21.4,15.8813757 21.8924868,15.3888889 22.5,15.3888889 Z" id="icon--add"></path>
                                <path d="M22,0 C34.1502645,0 44,9.8497355 44,22 C44,34.1502645 34.1502645,44 22,44 C9.8497355,44 0,34.1502645 0,22 C0,9.8497355 9.8497355,0 22,0 Z M22,1 C10.4020203,1 1,10.4020203 1,22 C1,33.5979797 10.4020203,43 22,43 C33.5979797,43 43,33.5979797 43,22 C43,10.4020203 33.5979797,1 22,1 Z" id="形状结合"></path>
                            </g>
                        </g>
                    </g>
                </g>
            </g>
        </g>
    </g>
</svg>
