<svg width="44px" height="44px" viewBox="0 0 44 44" version="1.1" xmlns="http://www.w3.org/2000/svg" xmlns:xlink="http://www.w3.org/1999/xlink">
    <g id="Page-1" stroke="none" stroke-width="1" fill="none" fill-rule="evenodd">
        <g id="默认状态-copy" transform="translate(-159.000000, -132.000000)">
            <g id="addSidebarItem/addItem-Copy-4" transform="translate(121.000000, 119.000000)">
                <circle id="colorBg" fill="#606066" cx="60" cy="35" r="22"></circle>
                <g id="sideBarItem/__logoWithColorBg/--douyu-dark" transform="translate(38.000000, 13.000000)" fill="#FFFFFF" fill-opacity="0.25">
                    <path d="M22.0111111,15.9 C22.6186243,15.9 23.1111111,16.3924868 23.1111111,17 L23.111,20.911 L27.0222222,20.9111111 C27.6297354,20.9111111 28.1222222,21.4035979 28.1222222,22.0111111 C28.1222222,22.6186243 27.6297354,23.1111111 27.0222222,23.1111111 L23.111,23.111 L23.1111111,27.0222222 C23.1111111,27.6297354 22.6186243,28.1222222 22.0111111,28.1222222 C21.4035979,28.1222222 20.9111111,27.6297354 20.9111111,27.0222222 L20.911,23.111 L17,23.1111111 C16.3924868,23.1111111 15.9,22.6186243 15.9,22.0111111 C15.9,21.4035979 16.3924868,20.9111111 17,20.9111111 L20.911,20.911 L20.9111111,17 C20.9111111,16.3924868 21.4035979,15.9 22.0111111,15.9 Z" id="icon--add"></path>
                    <path d="M22,0 C34.1502645,0 44,9.8497355 44,22 C44,34.1502645 34.1502645,44 22,44 C9.8497355,44 0,34.1502645 0,22 C0,9.8497355 9.8497355,0 22,0 Z M22,1 C10.4020203,1 1,10.4020203 1,22 C1,33.5979797 10.4020203,43 22,43 C33.5979797,43 43,33.5979797 43,22 C43,10.4020203 33.5979797,1 22,1 Z" id="形状结合"></path>
                </g>
            </g>
        </g>
    </g>
</svg>
