<?xml version="1.0" encoding="UTF-8"?>
<svg viewBox="0 0 46 36" version="1.1" xmlns="http://www.w3.org/2000/svg" xmlns:xlink="http://www.w3.org/1999/xlink">
    <defs></defs>
    <g id="Playing-View-/-Button---Settings-V2" stroke="none" stroke-width="1" fill="none" fill-rule="evenodd">
        <g id="Group" transform="translate(1.000000, 1.000000)">
            <path d="M1,0 L7,0 C7.55228475,-1.01453063e-16 8,0.44771525 8,1 L8,7 C8,7.55228475 7.55228475,8 7,8 L1,8 C0.44771525,8 5.11724585e-16,7.55228475 4.4408921e-16,7 L0,1 C-6.76353751e-17,0.44771525 0.44771525,1.01453063e-16 1,0 Z M37,0 L43,0 C43.5522847,-1.01453063e-16 44,0.44771525 44,1 L44,7 C44,7.55228475 43.5522847,8 43,8 L37,8 C36.4477153,8 36,7.55228475 36,7 L36,1 C36,0.44771525 36.4477153,1.01453063e-16 37,0 Z M19,0 L25,0 C25.5522847,-1.01453063e-16 26,0.44771525 26,1 L26,7 C26,7.55228475 25.5522847,8 25,8 L19,8 C18.4477153,8 18,7.55228475 18,7 L18,1 C18,0.44771525 18.4477153,1.01453063e-16 19,0 Z M1,13 L7,13 C7.55228475,13 8,13.4477153 8,14 L8,20 C8,20.5522847 7.55228475,21 7,21 L1,21 C0.44771525,21 5.11724585e-16,20.5522847 4.4408921e-16,20 L0,14 C-6.76353751e-17,13.4477153 0.44771525,13 1,13 Z M37,13 L43,13 C43.5522847,13 44,13.4477153 44,14 L44,20 C44,20.5522847 43.5522847,21 43,21 L37,21 C36.4477153,21 36,20.5522847 36,20 L36,14 C36,13.4477153 36.4477153,13 37,13 Z M19,13 L25,13 C25.5522847,13 26,13.4477153 26,14 L26,20 C26,20.5522847 25.5522847,21 25,21 L19,21 C18.4477153,21 18,20.5522847 18,20 L18,14 C18,13.4477153 18.4477153,13 19,13 Z M1,26 L7,26 C7.55228475,26 8,26.4477153 8,27 L8,33 C8,33.5522847 7.55228475,34 7,34 L1,34 C0.44771525,34 5.11724585e-16,33.5522847 4.4408921e-16,33 L0,27 C-6.76353751e-17,26.4477153 0.44771525,26 1,26 Z M37,26 L43,26 C43.5522847,26 44,26.4477153 44,27 L44,33 C44,33.5522847 43.5522847,34 43,34 L37,34 C36.4477153,34 36,33.5522847 36,33 L36,27 C36,26.4477153 36.4477153,26 37,26 Z M19,26 L25,26 C25.5522847,26 26,26.4477153 26,27 L26,33 C26,33.5522847 25.5522847,34 25,34 L19,34 C18.4477153,34 18,33.5522847 18,33 L18,27 C18,26.4477153 18.4477153,26 19,26 Z" id="Combined-Shape" fill-opacity="0.5" fill="#FFFFFF"></path>
            <path d="M1,0 L7,0 C7.55228475,-1.01453063e-16 8,0.44771525 8,1 L8,7 C8,7.55228475 7.55228475,8 7,8 L1,8 C0.44771525,8 5.11724585e-16,7.55228475 4.4408921e-16,7 L0,1 C-6.76353751e-17,0.44771525 0.44771525,1.01453063e-16 1,0 Z M37,0 L43,0 C43.5522847,-1.01453063e-16 44,0.44771525 44,1 L44,7 C44,7.55228475 43.5522847,8 43,8 L37,8 C36.4477153,8 36,7.55228475 36,7 L36,1 C36,0.44771525 36.4477153,1.01453063e-16 37,0 Z M19,0 L25,0 C25.5522847,-1.01453063e-16 26,0.44771525 26,1 L26,7 C26,7.55228475 25.5522847,8 25,8 L19,8 C18.4477153,8 18,7.55228475 18,7 L18,1 C18,0.44771525 18.4477153,1.01453063e-16 19,0 Z M1,13 L7,13 C7.55228475,13 8,13.4477153 8,14 L8,20 C8,20.5522847 7.55228475,21 7,21 L1,21 C0.44771525,21 5.11724585e-16,20.5522847 4.4408921e-16,20 L0,14 C-6.76353751e-17,13.4477153 0.44771525,13 1,13 Z M37,13 L43,13 C43.5522847,13 44,13.4477153 44,14 L44,20 C44,20.5522847 43.5522847,21 43,21 L37,21 C36.4477153,21 36,20.5522847 36,20 L36,14 C36,13.4477153 36.4477153,13 37,13 Z M19,13 L25,13 C25.5522847,13 26,13.4477153 26,14 L26,20 C26,20.5522847 25.5522847,21 25,21 L19,21 C18.4477153,21 18,20.5522847 18,20 L18,14 C18,13.4477153 18.4477153,13 19,13 Z M1,26 L7,26 C7.55228475,26 8,26.4477153 8,27 L8,33 C8,33.5522847 7.55228475,34 7,34 L1,34 C0.44771525,34 5.11724585e-16,33.5522847 4.4408921e-16,33 L0,27 C-6.76353751e-17,26.4477153 0.44771525,26 1,26 Z M37,26 L43,26 C43.5522847,26 44,26.4477153 44,27 L44,33 C44,33.5522847 43.5522847,34 43,34 L37,34 C36.4477153,34 36,33.5522847 36,33 L36,27 C36,26.4477153 36.4477153,26 37,26 Z M19,26 L25,26 C25.5522847,26 26,26.4477153 26,27 L26,33 C26,33.5522847 25.5522847,34 25,34 L19,34 C18.4477153,34 18,33.5522847 18,33 L18,27 C18,26.4477153 18.4477153,26 19,26 Z" id="Combined-Shape" stroke-opacity="0.3" stroke="#000000" stroke-width="0.5" opacity="0.28"></path>
        </g>
    </g>
</svg>