<?xml version="1.0" encoding="UTF-8"?>
<svg width="14px" height="13px" viewBox="0 0 14 13" version="1.1" xmlns="http://www.w3.org/2000/svg" xmlns:xlink="http://www.w3.org/1999/xlink">
    <!-- Generator: Sketch 56.2 (81672) - https://sketch.com -->
    <title>icon--backward备份 2</title>
    <desc>Created with Sketch.</desc>
    <g id="2.0" stroke="none" stroke-width="1" fill="none" fill-rule="evenodd">
        <path d="M13.7804038,7.0344359 L8.06578833,12.7774637 C7.77152389,13.0731912 7.29775814,13.0746698 7.00202238,12.7789423 C6.70922927,12.4846935 6.71070059,12.0041363 7.00202238,11.7113661 L11.4277596,7.25623151 L0.750374326,7.25623151 C0.336932792,7.25623151 0,6.92058081 0,6.49916915 C0,6.08071476 0.341346754,5.74210678 0.750374326,5.74210678 C2.06558675,5.74210678 3.05199607,5.74210678 3.70960228,5.74210678 C5.42474834,5.74210678 7.99746744,5.74210678 11.4277596,5.74210678 L6.99466576,1.28697219 C6.70187265,0.992723348 6.70040132,0.516602086 6.99760841,0.219395966 C7.29334417,-0.0748528778 7.77446653,-0.0718956012 8.064317,0.220874611 L13.7804038,5.96538103 C14.0746682,6.25962987 14.0717256,6.74166567 13.7804038,7.0344359 Z" id="icon--backward备份-2" fill="#D4D5DD" fill-rule="nonzero" transform="translate(7.000000, 6.500000) scale(-1, 1) translate(-7.000000, -6.500000) "></path>
    </g>
</svg>