<?xml version="1.0" encoding="UTF-8"?>
<svg width="30px" height="30px" viewBox="0 0 30 30" version="1.1" xmlns="http://www.w3.org/2000/svg" xmlns:xlink="http://www.w3.org/1999/xlink">
    <!-- Generator: Sketch 57.1 (83088) - https://sketch.com -->
    <desc>Created with Sketch.</desc>
    <g id="menuBar/__icon/--backward" stroke="none" stroke-width="1" fill="none" fill-rule="evenodd">
        <path d="M22.7804038,15.5344359 L17.0657883,21.2774637 C16.7715239,21.5731912 16.2977581,21.5746698 16.0020224,21.2789423 C15.7092293,20.9846935 15.7107006,20.5041363 16.0020224,20.2113661 L20.4277596,15.7562315 L9.75037433,15.7562315 C9.33693279,15.7562315 9,15.4205808 9,14.9991691 C9,14.5807148 9.34134675,14.2421068 9.75037433,14.2421068 C11.0655868,14.2421068 12.0519961,14.2421068 12.7096023,14.2421068 C14.4247483,14.2421068 16.9974674,14.2421068 20.4277596,14.2421068 L15.9946658,9.78697219 C15.7018726,9.49272335 15.7004013,9.01660209 15.9976084,8.71939597 C16.2933442,8.42514712 16.7744665,8.4281044 17.064317,8.72087461 L22.7804038,14.465381 C23.0746682,14.7596299 23.0717256,15.2416657 22.7804038,15.5344359 Z" id="icon--backward" fill="#7E808F" fill-rule="nonzero" transform="translate(16.000000, 15.000000) scale(-1, 1) translate(-16.000000, -15.000000) "></path>
    </g>
</svg>
