<?xml version="1.0" encoding="UTF-8"?>
<svg width="18px" height="16px" viewBox="0 0 18 16" version="1.1" xmlns="http://www.w3.org/2000/svg" xmlns:xlink="http://www.w3.org/1999/xlink">
    <!-- Generator: Sketch 52.2 (67145) - http://www.bohemiancoding.com/sketch -->
    <desc>Created with Sketch.</desc>
    <g id="页面1" stroke="none" stroke-width="1" fill="none" fill-rule="evenodd" opacity="0.9">
        <g id="browseing" transform="translate(-529.000000, -14.000000)" fill="#FFFFFF" fill-rule="nonzero">
            <g id="哔哩哔哩" transform="translate(528.000000, 12.000000)">
                <g id="bilibili复制-2" transform="translate(1.100000, 2.000000)">
                    <path d="M3.71864108,0.116271121 C4.0615985,-0.038204932 4.45843609,-0.038204932 4.80139351,0.116271121 C5.04598278,0.237130676 5.26945771,0.393799445 5.46378324,0.580644405 L8.01143605,2.7192056 L9.83300779,2.7192056 L12.3806606,0.580644405 C12.575254,0.39409943 12.7986776,0.237466682 13.0430503,0.116271121 C13.4095104,-0.0092563975 13.8156783,0.0327884525 14.1457904,0.230422308 C14.4759026,0.428056163 14.6937486,0.759600329 14.7372394,1.13056013 C14.7505626,1.42707304 14.6509501,1.71810408 14.4569976,1.94932357 C14.2793421,2.12168591 14.0922496,2.28485471 13.896514,2.43813756 C13.783869,2.53889202 13.6647445,2.63276584 13.5398426,2.7192056 L15.1321256,2.7192056 C15.8426261,2.74113822 16.515458,3.03094367 17.0046504,3.52574868 C17.5239855,3.99380165 17.8305475,4.63906084 17.8581141,5.32214009 L17.8581141,12.3488412 C17.8768039,12.7043975 17.8554499,13.0608505 17.7944228,13.4120116 C17.6267844,14.1233713 17.1676537,14.74002 16.5205964,15.1228606 C16.08056,15.3832469 15.572683,15.5188233 15.055696,15.5139118 L3.36196968,15.5139118 C2.97864424,15.5326822 2.59432513,15.5121992 2.21552592,15.45281 C1.48282926,15.2873075 0.849739163,14.847199 0.457645493,14.230775 C0.176616594,13.8115003 0.0263487958,13.3239064 0.0245445308,12.8254348 L0.0245445308,5.87205583 C-0.00817234725,5.53468792 -0.00817234725,5.19513471 0.0245445308,4.8577668 C0.263173925,3.66335379 1.30788663,2.7713632 2.57219732,2.68254456 L4.2409099,2.68254456 C3.97340637,2.49923931 3.74411761,2.27927302 3.50209059,2.08374742 C3.21204367,1.8281398 3.06155608,1.45819413 3.09446615,1.08167874 C3.12448604,0.681019877 3.35783489,0.320100624 3.71864108,0.116271121 Z M3.42566101,4.8577668 C2.94126567,4.94004007 2.54954497,5.28253591 2.41933815,5.73763198 C2.39651586,5.89164886 2.39651586,6.04798838 2.41933815,6.20200526 L2.41933815,11.9822307 C2.39123496,12.5331987 2.75137566,13.0339205 3.29827837,13.2042657 C3.47466112,13.2616876 3.65976343,13.2905954 3.84602372,13.2898081 L14.2022323,13.2898081 C14.7210822,13.3085354 15.1998556,13.0232814 15.4123674,12.5688075 C15.5219954,12.3137458 15.5656985,12.0370327 15.5397501,11.7622644 L15.5397501,6.38531052 C15.5690162,6.19079281 15.5690162,5.99325143 15.5397501,5.79873372 C15.4252666,5.4067213 15.1148117,5.09514283 14.7117629,4.96774995 C14.4585522,4.88183047 14.1902152,4.84446206 13.9219905,4.8577668 L4.02435942,4.8577668 C3.82504088,4.84427966 3.62497955,4.84427966 3.42566101,4.8577668 Z" id="形状"></path>
                    <path d="M5.51473631,6.76414136 C5.83410498,6.74867258 6.14785619,6.84900414 6.39367651,7.0452094 C6.66997893,7.27181026 6.83220674,7.60086061 6.83951576,7.94951528 L6.83951576,9.17155024 C6.85094668,9.45260955 6.76096364,9.72884796 6.58475047,9.95365264 C6.3223753,10.2658193 5.91705248,10.4346309 5.50016732,10.4053674 C5.08328215,10.3761038 4.70789039,10.1524893 4.49567518,9.80700843 C4.36319478,9.54946568 4.30596616,9.26228694 4.33007775,8.97602465 L4.33007775,7.75398969 C4.4175355,7.21201872 4.87064622,6.79231988 5.43830671,6.72748031 L5.51473631,6.76414136 Z M12.1004188,6.76414136 C12.4405284,6.74070291 12.7762348,6.84905793 13.0324075,7.06495677 C13.2885802,7.28085562 13.4438303,7.58627196 13.463413,7.91285423 L13.463413,9.1348892 C13.4839412,9.4159248 13.4174679,9.69651525 13.2723391,9.94143228 C13.0348535,10.274026 12.641662,10.4728553 12.2214323,10.4728553 C11.8012026,10.4728553 11.4080111,10.274026 11.1705255,9.94143228 C11.0098026,9.67973436 10.9385308,9.37632476 10.9667133,9.07378744 L10.9667133,7.85175248 C11.0328181,7.29073023 11.4909368,6.84618618 12.0749422,6.77636171 L12.1004188,6.76414136 Z" id="形状"></path>
                </g>
            </g>
        </g>
    </g>
</svg>
