<svg width="44" height="44" xmlns="http://www.w3.org/2000/svg" xmlns:xlink="http://www.w3.org/1999/xlink">
    <defs>
        <circle id="a" cx="22" cy="22" r="22"/>
    </defs>
    <g fill="none" fill-rule="evenodd">
        <mask id="b" fill="#fff">
            <use xlink:href="#a"/>
        </mask>
        <use fill="#20B0E3" xlink:href="#a"/>
        <g mask="url(#b)" fill="#FFF" fill-rule="nonzero">
            <path d="M15.58 11.15c.422-.2.91-.2 1.333 0 .301.158.576.361.816.604l3.137 2.779h2.243l3.138-2.78c.24-.241.514-.445.815-.602a1.552 1.552 0 011.358.148c.407.257.675.687.729 1.17a1.6 1.6 0 01-.345 1.063c-.22.224-.45.436-.69.636a4.95 4.95 0 01-.44.365h1.96a3.308 3.308 0 012.307 1.048 3.4 3.4 0 011.05 2.334v9.13c.024.462-.002.925-.077 1.382a3.524 3.524 0 01-1.57 2.223 3.342 3.342 0 01-1.803.508h-14.4a6.572 6.572 0 01-1.413-.08 3.47 3.47 0 01-2.164-1.587 3.428 3.428 0 01-.534-1.826v-9.036a7.2 7.2 0 010-1.317 3.466 3.466 0 013.138-2.827h2.055c-.33-.238-.612-.524-.91-.778a1.598 1.598 0 01-.502-1.302c.037-.52.324-.99.768-1.254zm-.361 6.162a1.576 1.576 0 00-1.24 1.143 2.17 2.17 0 000 .603v7.51a1.587 1.587 0 001.083 1.589c.217.074.445.112.674.111H28.49a1.567 1.567 0 001.49-.937c.135-.331.189-.69.157-1.048v-6.987a2.7 2.7 0 000-.762 1.58 1.58 0 00-1.02-1.08 2.498 2.498 0 00-.972-.142h-12.19a5.176 5.176 0 00-.736 0z"/>
            <path d="M17.986 19.93c.404-.02.801.113 1.113.372.35.299.555.734.565 1.194v1.613c.014.372-.1.736-.323 1.033a1.614 1.614 0 01-2.646-.194 2.1 2.1 0 01-.21-1.097v-1.613c.11-.716.685-1.27 1.404-1.356l.097.049zm8.342 0a1.614 1.614 0 011.726 1.517v1.614c.026.371-.058.742-.242 1.065a1.614 1.614 0 01-2.662 0 1.92 1.92 0 01-.258-1.146v-1.613a1.614 1.614 0 011.403-1.42l.033-.016z"/>
        </g>
    </g>
</svg>
