<svg width="10px" height="7px" viewBox="0 0 10 7" version="1.1" xmlns="http://www.w3.org/2000/svg" xmlns:xlink="http://www.w3.org/1999/xlink">
    <g id="自定义颜色选择" stroke="none" stroke-width="1" fill="none" fill-rule="evenodd">
        <g id="select" transform="translate(-129.000000, -197.000000)" fill="#FFFFFF">
            <g id="hover">
                <g id="标签颜色" transform="translate(25.000000, 190.000000)">
                    <path d="M113.727273,7.2625 C114.090909,7.61250001 114.090909,8.1375 113.727273,8.48750001 L108.272727,13.7375 C108.121212,13.8833333 107.969697,13.9684028 107.765572,13.9927083 L107.636364,14 L107.636364,14 C107.409091,14 107.24495,13.9392361 107.09133,13.8177083 L107,13.7375 L107,13.7375 L106.992,13.729 L104.272727,11.1125 C103.909091,10.7625 103.909091,10.2375 104.272727,9.8875 C104.636364,9.53750001 105.181818,9.5375 105.545455,9.8875 L107.636,11.899 L112.454545,7.2625 C112.818182,6.9125 113.363636,6.9125 113.727273,7.2625 Z" id="icon-selected"></path>
                </g>
            </g>
        </g>
    </g>
</svg>
