<?xml version="1.0" encoding="UTF-8"?>
<svg width="30px" height="30px" viewBox="0 0 30 30" version="1.1" xmlns="http://www.w3.org/2000/svg" xmlns:xlink="http://www.w3.org/1999/xlink">
    <!-- Generator: Sketch 56.2 (81672) - https://sketch.com -->
    <title>menuBar/__icon/--fullscreen备份</title>
    <desc>Created with Sketch.</desc>
    <g id="menuBar/__icon/--fullscreen备份" stroke="none" stroke-width="1" fill="none" fill-rule="evenodd">
        <path d="M15.0966959,19.3384498 L12.2105076,22.2530505 C11.9162432,22.5487779 11.4424774,22.5502566 11.1467416,22.2545291 C10.8539485,21.9602802 10.8554198,21.4797231 11.1467416,21.1869529 L12.7440517,19.5602454 L7.84210999,19.5602454 C7.42866846,19.5602454 7.09173567,19.2245947 7.09173567,18.803183 C7.09173567,18.3847287 7.43308242,18.0461207 7.84210999,18.0461207 C9.0782629,18.0461207 10.0251425,18.0461207 10.6827487,18.0461207 C12.3978947,18.0461207 13.0849957,18.0461207 12.7440517,18.0461207 L11.139385,16.4194132 C10.8465919,16.1251644 10.8451206,15.6490431 11.1423277,15.351837 C11.4380634,15.0575882 11.9191858,15.0605454 12.2090363,15.3533156 L15.0966959,18.2693949 C15.3909604,18.5636438 15.3880177,19.0456796 15.0966959,19.3384498 Z" id="icon" fill="#7E808F" fill-rule="nonzero" transform="translate(11.204014, 18.804014) rotate(-45.000000) translate(-11.204014, -18.804014) "></path>
        <path d="M22.7223681,11.6917194 L19.8361797,14.60632 C19.5419153,14.9020475 19.0681496,14.9035262 18.7724138,14.6077987 C18.4796207,14.3135498 18.481092,13.8329927 18.7724138,13.5402224 L20.3697239,11.913515 L15.4677821,11.913515 C15.0543406,11.913515 14.7174078,11.5778643 14.7174078,11.1564526 C14.7174078,10.7379982 15.0587546,10.3993903 15.4677821,10.3993903 C16.703935,10.3993903 17.6508146,10.3993903 18.3084208,10.3993903 C20.0235669,10.3993903 20.7106679,10.3993903 20.3697239,10.3993903 L18.7650572,8.7726828 C18.4722641,8.47843396 18.4707927,8.0023127 18.7679998,7.70510658 C19.0637356,7.41085773 19.5448579,7.41381501 19.8347084,7.70658522 L22.7223681,10.6226645 C23.0166325,10.9169134 23.0136899,11.3989492 22.7223681,11.6917194 Z" id="icon" fill="#7E808F" fill-rule="nonzero" transform="translate(18.829686, 11.157283) scale(-1, -1) rotate(-45.000000) translate(-18.829686, -11.157283) "></path>
    </g>
</svg>