<?xml version="1.0" encoding="UTF-8"?>
<svg width="30px" height="30px" viewBox="0 0 30 30" version="1.1" xmlns="http://www.w3.org/2000/svg" xmlns:xlink="http://www.w3.org/1999/xlink">
    <!-- Generator: Sketch 57.1 (83088) - https://sketch.com -->
    <title>menuBar/__icon/--restore</title>
    <desc>Created with Sketch.</desc>
    <g id="menuBar/__icon/--restore" stroke="none" stroke-width="1" fill="none" fill-rule="evenodd">
        <path d="M19.3,19.5 C18.8581722,19.5 18.5,19.1418278 18.5,18.7 C18.5,18.2581722 18.8581722,17.9 19.3,17.9 L20.899,17.899 L20.899,9.1 L12.1,9.1 L12.1,10.7 C12.1,11.1418278 11.7418278,11.5 11.3,11.5 C10.8581722,11.5 10.5,11.1418278 10.5,10.7 L10.5,8.3 C10.5,7.8581722 10.8581722,7.5 11.3,7.5 L21.699,7.5 L21.7,7.5 C22.1418278,7.5 22.5,7.8581722 22.5,8.3 L22.5,18.7 L22.5,18.7 C22.5,19.107841 22.1948119,19.4444016 21.8003503,19.4937669 L21.7,19.5 L21.7,19.5 L19.3,19.5 Z" id="形状结合" fill="#7E808F" fill-rule="nonzero"></path>
        <path d="M8.3,22.5 C7.8581722,22.5 7.5,22.1418278 7.5,21.7 L7.5,11.3 C7.5,10.8581722 7.8581722,10.5 8.3,10.5 L18.699,10.5 L18.7,10.5 C19.1418278,10.5 19.5,10.8581722 19.5,11.3 L19.5,21.7 L19.5,21.7 C19.5,22.107841 19.1948119,22.4444016 18.8003503,22.4937669 L18.7,22.5 L18.7,22.5 L8.3,22.5 Z M17.899,20.899 L17.899,12.1 L9.1,12.1 L9.1,20.899 L17.899,20.899 Z" id="形状结合" fill="#7E808F" fill-rule="nonzero"></path>
    </g>
</svg>