<?xml version="1.0" encoding="UTF-8"?>
<svg width="30px" height="30px" viewBox="0 0 30 30" version="1.1" xmlns="http://www.w3.org/2000/svg" xmlns:xlink="http://www.w3.org/1999/xlink">
    <!-- Generator: Sketch 57.1 (83088) - https://sketch.com -->
    <desc>Created with Sketch.</desc>
    <g id="delete-playlist" stroke="none" stroke-width="1" fill="none" fill-rule="evenodd">
        <g id="编组-12" transform="translate(7.000000, 7.000000)" fill="#878893" stroke="#878893" stroke-width="0.3">
            <g id="Icon---Delete-hover">
                <path d="M0,3.6519604 L0,4.07029542 C2.31312983e-17,4.2591768 0.153118616,4.41229542 0.342,4.41229542 L2.2848392,4.41229542 L2.2848392,4.41229542 L2.2848392,13.79533 C2.2848392,15.0129225 3.30781011,16 4.56967841,16 L11.4272588,16 C12.6891271,16 13.712098,15.0129225 13.712098,13.79533 L13.712098,4.41229542 L15.658,4.41229542 C15.8468814,4.41229542 16,4.2591768 16,4.07029542 L16,3.6519604 C16,3.46307901 15.8468814,3.3099604 15.658,3.3099604 L0.342,3.3099604 C0.153118616,3.3099604 4.20957912e-16,3.46307901 0,3.6519604 Z M4.66012281,14.897665 C3.98092964,14.897665 3.43032159,14.4041262 3.43032159,13.79533 L3.43032159,4.41229542 L5.88992402,4.41229542 L5.88992402,14.897665 L4.66012281,14.897665 Z M9.1424196,14.897665 L6.8575804,14.897665 L6.8575804,4.41229542 L9.1424196,4.41229542 L9.1424196,14.897665 Z M11.3414086,14.897665 L10.110076,14.897665 L10.110076,4.41229542 L12.5727412,4.41229542 L12.5727412,13.79533 C12.5727412,14.4041262 12.0214475,14.897665 11.3414086,14.897665 Z M5.7151608,0.342 L5.7151608,0.760335025 C5.7151608,0.949216409 5.86827941,1.10233502 6.0571608,1.10233502 L9.94590199,1.10233502 C10.1347834,1.10233502 10.287902,0.949216409 10.287902,0.760335025 L10.287902,0.342 C10.287902,0.153118616 10.1347834,2.08142038e-17 9.94590199,0 L6.0571608,0 C5.86827941,9.02080987e-17 5.7151608,0.153118616 5.7151608,0.342 Z" id="Icon---Delete"></path>
            </g>
        </g>
    </g>
</svg>
