<?xml version="1.0" encoding="UTF-8"?>
<svg width="30px" height="30px" viewBox="0 0 30 30" version="1.1" xmlns="http://www.w3.org/2000/svg" xmlns:xlink="http://www.w3.org/1999/xlink">
    <!-- Generator: Sketch 57.1 (83088) - https://sketch.com -->
    <title>menuBar/__icon/--restore</title>
    <desc>Created with Sketch.</desc>
    <g id="menuBar/__icon/--restore" stroke="none" stroke-width="1" fill="none" fill-rule="evenodd">
        <path d="M8.8,22 C8.3581722,22 8,21.6418278 8,21.2 L8,11.8 C8,11.3581722 8.3581722,11 8.8,11 L18.199,11 L18.2,11 C18.6418278,11 19,11.3581722 19,11.8 L19,21.2 L19,21.2 C19,21.607841 18.6948119,21.9444016 18.3003503,21.9937669 L18.2,22 L18.2,22 L8.8,22 Z M17.399,20.399 L17.399,12.6 L9.6,12.6 L9.6,20.399 L17.399,20.399 Z" id="形状结合" fill="#7E808F" fill-rule="nonzero"></path>
        <path d="M21.2,8 C21.6418278,8 22,8.3581722 22,8.8 L22,18.2 C22,18.6418278 21.6418278,19 21.2,19 L21.186,18.999 L18.8,19 C18.3581722,19 18,18.6418278 18,18.2 C18,17.7581722 18.3581722,17.4 18.8,17.4 L20.399,17.399 L20.399,9.6 L12.6,9.6 L12.6,11.2 C12.6,11.6418278 12.2418278,12 11.8,12 C11.3581722,12 11,11.6418278 11,11.2 L11,8.8 C11,8.3581722 11.3581722,8 11.8,8 L21.199,8 L21.2,8 Z" id="形状结合" fill="#7E808F" fill-rule="nonzero"></path>
    </g>
</svg>