<svg width="30" height="30" xmlns="http://www.w3.org/2000/svg">
    <path d="M14.334 16.43l.02 4.101a.749.749 0 01-.75.753.76.76 0 01-.755-.754l-.021-2.28-3.466 3.466a.757.757 0 01-1.07-1.07l2.008-2.01 1.457-1.457-2.285-.015a.755.755 0 01.003-1.51l4.104.02a.76.76 0 01.755.755zm1.366-2.898l-.02-4.102a.749.749 0 01.75-.753.76.76 0 01.755.755l.021 2.28 3.466-3.467a.757.757 0 011.07 1.07l-2.008 2.01-1.457 1.457 2.285.016a.755.755 0 01-.003 1.51l-4.104-.02a.76.76 0 01-.756-.756z" fill="#7E808F"/>
</svg>
