<svg width="30" height="30" xmlns="http://www.w3.org/2000/svg">
    <path d="M7 10.652v.418c0 .19.153.342.342.342h1.943v9.383c0 1.218 1.023 2.205 2.285 2.205h6.857c1.262 0 2.285-.987 2.285-2.205v-9.383h1.946A.342.342 0 0023 11.07v-.418a.342.342 0 00-.342-.342H7.342a.342.342 0 00-.342.342zm4.66 11.246c-.68 0-1.23-.494-1.23-1.103v-9.383h2.46v10.486h-1.23zm4.482 0h-2.284V11.412h2.284v10.486zm2.2 0H17.11V11.412h2.463v9.383c0 .61-.552 1.103-1.232 1.103zM12.714 7.342v.418c0 .19.153.342.342.342h3.889a.342.342 0 00.342-.342v-.418A.342.342 0 0016.946 7h-3.889a.342.342 0 00-.342.342z" fill="#FFFFFF" stroke="#878893" stroke-width=".3" fill-rule="evenodd"/>
</svg>
