<?xml version="1.0" encoding="UTF-8"?>
<svg width="30px" height="30px" viewBox="0 0 30 30" version="1.1" xmlns="http://www.w3.org/2000/svg" xmlns:xlink="http://www.w3.org/1999/xlink">
    <!-- Generator: Sketch 56.2 (81672) - https://sketch.com -->
    <title>menuBar/__icon/--fullscreen备份</title>
    <desc>Created with Sketch.</desc>
    <g id="menuBar/__icon/--fullscreen备份" stroke="none" stroke-width="1" fill="none" fill-rule="evenodd">
        <path d="M15.7546431,19.1035027 L12.8684548,22.0181034 C12.5741904,22.3138309 12.1004246,22.3153095 11.8046889,22.019582 C11.5118958,21.7253332 11.5133671,21.244776 11.8046889,20.9520058 L13.4019989,19.3252984 L7.75037433,19.3252984 C7.33693279,19.3252984 7,18.9896476 7,18.568236 C7,18.1497816 7.34134675,17.8111736 7.75037433,17.8111736 C9.48631583,17.8111736 10.6830897,17.8111736 11.3406959,17.8111736 C13.055842,17.8111736 13.742943,17.8111736 13.4019989,17.8111736 L11.7973323,16.1844662 C11.5045391,15.8902173 11.5030678,15.414096 11.8002749,15.1168899 C12.0960107,14.8226411 12.577133,14.8255984 12.8669835,15.1183686 L15.7546431,18.0344479 C16.0489076,18.3286967 16.0459649,18.8107325 15.7546431,19.1035027 Z" id="icon" fill="#7E808F" fill-rule="nonzero" transform="translate(11.487120, 18.569067) rotate(-45.000000) translate(-11.487120, -18.569067) "></path>
        <path d="M22.8365903,12.0035027 L19.950402,14.9181034 C19.6561375,15.2138309 19.1823718,15.2153095 18.886636,14.919582 C18.5938429,14.6253332 18.5953142,14.144776 18.886636,13.8520058 L20.4839461,12.2252984 L14.8323215,12.2252984 C14.4188799,12.2252984 14.0819471,11.8896476 14.0819471,11.468236 C14.0819471,11.0497816 14.4232939,10.7111736 14.8323215,10.7111736 C16.568263,10.7111736 17.7650368,10.7111736 18.4226431,10.7111736 C20.1377891,10.7111736 20.8248901,10.7111736 20.4839461,10.7111736 L18.8792794,9.08446615 C18.5864863,8.79021731 18.585015,8.31409605 18.8822221,8.01688993 C19.1779578,7.72264108 19.6590802,7.72559836 19.9489306,8.01836857 L22.8365903,10.9344479 C23.1308547,11.2286967 23.1279121,11.7107325 22.8365903,12.0035027 Z" id="icon" fill="#7E808F" fill-rule="nonzero" transform="translate(18.569067, 11.469067) scale(-1, -1) rotate(-45.000000) translate(-18.569067, -11.469067) "></path>
    </g>
</svg>