<svg width="44px" height="45px" viewBox="0 0 44 45" version="1.1" xmlns="http://www.w3.org/2000/svg" xmlns:xlink="http://www.w3.org/1999/xlink">
    <defs>
        <circle id="path-1" cx="22" cy="22" r="22"></circle>
    </defs>
    <g id="添加站点" stroke="none" stroke-width="1" fill="none" fill-rule="evenodd">
        <g id="默认状态" transform="translate(-16.000000, -154.000000)">
            <rect fill="#39383F" x="0" y="0" width="950" height="566"></rect>
            <g id="sidebar" transform="translate(-34.000000, -36.000000)">
                <g id="sidebarItems" transform="translate(50.000000, 78.000000)">
                    <g id="sideBarItem/--addButton" transform="translate(0.000000, 112.500000)">
                        <mask id="mask-2" fill="white">
                            <use xlink:href="#path-1"></use>
                        </mask>
                        <use id="colorBg" fill-opacity="0.3" fill="#FFFFFF" fill-rule="evenodd" xlink:href="#path-1"></use>
                        <g id="generallcon/--add" mask="url(#mask-2)" fill="#FFFFFF" fill-rule="evenodd">
                            <g transform="translate(14.500000, 14.498245)" id="icon--add">
                                <path d="M7.5,1.38888889 C8.10751322,1.38888889 8.6,1.88137566 8.6,2.48888889 L8.59988889,6.39988889 L12.5111111,6.4 C13.1186243,6.4 13.6111111,6.89248678 13.6111111,7.5 C13.6111111,8.10751322 13.1186243,8.6 12.5111111,8.6 L8.59988889,8.59988889 L8.6,12.5111111 C8.6,13.1186243 8.10751322,13.6111111 7.5,13.6111111 C6.89248678,13.6111111 6.4,13.1186243 6.4,12.5111111 L6.39988889,8.59988889 L2.48888889,8.6 C1.88137566,8.6 1.38888889,8.10751322 1.38888889,7.5 C1.38888889,6.89248678 1.88137566,6.4 2.48888889,6.4 L6.39988889,6.39988889 L6.4,2.48888889 C6.4,1.88137566 6.89248678,1.38888889 7.5,1.38888889 Z"></path>
                            </g>
                        </g>
                    </g>
                </g>
            </g>
        </g>
    </g>
</svg>
