<?xml version="1.0" encoding="UTF-8"?>
<svg width="8px" height="8px" viewBox="0 0 8 8" version="1.1" xmlns="http://www.w3.org/2000/svg" xmlns:xlink="http://www.w3.org/1999/xlink">
    <!-- Generator: Sketch 52.2 (67145) - http://www.bohemiancoding.com/sketch -->
    <desc>Created with Sketch.</desc>
    <g id="页面1" stroke="none" stroke-width="1" fill="none" fill-rule="evenodd" opacity="0.899674479">
        <g id="browsing-open-url" transform="translate(-701.000000, -2.000000)">
            <g id="Xhover" transform="translate(700.000000, 1.000000)">
                <rect id="矩形" x="0" y="0" width="10" height="10"></rect>
                <path d="M5.94992604,5.10606602 L8.67228714,7.82842712 C8.86754929,8.02368927 8.86754929,8.34027176 8.67228714,8.53553391 L8.46015511,8.74766594 C8.26489296,8.94292809 7.94831047,8.94292809 7.75304833,8.74766594 L5.03068722,6.02530483 L2.30832611,8.74766594 C2.11306397,8.94292809 1.79648148,8.94292809 1.60121933,8.74766594 L1.3890873,8.53553391 C1.19382515,8.34027176 1.19382515,8.02368927 1.3890873,7.82842712 L4.1114484,5.10606602 L1.3890873,2.38370491 C1.19382515,2.18844276 1.19382515,1.87186027 1.3890873,1.67659813 L1.60121933,1.46446609 C1.79648148,1.26920395 2.11306397,1.26920395 2.30832611,1.46446609 L5.03068722,4.1868272 L7.75304833,1.46446609 C7.94831047,1.26920395 8.26489296,1.26920395 8.46015511,1.46446609 L8.67228714,1.67659813 C8.86754929,1.87186027 8.86754929,2.18844276 8.67228714,2.38370491 L5.94992604,5.10606602 Z" id="形状结合" fill="#FFFFFF"></path>
            </g>
        </g>
    </g>
</svg>
