<svg width="22" height="22" xmlns="http://www.w3.org/2000/svg">
    <defs>
        <radialGradient cx="60.436%" cy="40.511%" fx="60.436%" fy="40.511%" r="95.152%" id="a">
            <stop stop-opacity=".165" offset="0%"/>
            <stop stop-opacity=".424" offset="100%"/>
        </radialGradient>
        <radialGradient cx="81.846%" cy="79.235%" fx="81.846%" fy="79.235%" r="146.343%" gradientTransform="matrix(-.55928 -.51344 .82898 -.3464 .62 1.487)" id="b">
            <stop stop-color="#FFF" stop-opacity=".776" offset="0%"/>
            <stop stop-color="#FFF" stop-opacity=".508" offset="100%"/>
        </radialGradient>
    </defs>
    <g fill="none" fill-rule="evenodd" fill-opacity=".7">
        <circle fill="url(#a)" cx="11" cy="11" r="11"/>
        <path d="M12.987 14.81a.502.502 0 01-.1.01h-3.9a.5.5 0 01-.5-.5v-.637a.5.5 0 01.5-.5h3.6V6.118a.5.5 0 01.5-.5h.6a.5.5 0 01.5.5v8.202a.5.5 0 01-.5.5h-.6a.502.502 0 01-.1-.01z" stroke-opacity=".168" stroke="#FFF" stroke-width=".5" fill="url(#b)" transform="rotate(45 11.337 10.219)"/>
    </g>
</svg>
