<?xml version="1.0" encoding="UTF-8"?>
<svg width="20px" height="40px" viewBox="0 0 20 40" version="1.1" xmlns="http://www.w3.org/2000/svg" xmlns:xlink="http://www.w3.org/1999/xlink">
    <!-- Generator: Sketch 59.1 (86144) - https://sketch.com -->
    <desc>Created with Sketch.</desc>
    <g id="URLbar/__button/--copy-hover" stroke="none" stroke-width="1" fill="none" fill-rule="evenodd">
        <path d="M10.5482077,18.2043358 C12.1054214,18.1667318 13.0776751,19.3119282 13.2511225,20.4088913 C13.5225647,22.1256206 12.7170541,23.9811294 10.5313028,24.7152908 C8.34555147,25.4494523 5.98068056,24.4304156 5.8367828,22.5204166 C5.78825931,21.8763495 5.81943031,21.2682724 6.14561431,20.6385017 C6.26902077,20.4002381 6.55997089,20.3081088 6.79546958,20.4327251 C7.03096827,20.5573414 7.12183697,20.8515137 6.99843051,21.0897773 C6.76567321,21.539167 6.75173636,22.0305912 6.79233135,22.4513428 C6.90873033,23.6577741 8.54063989,24.4263778 10.285745,23.8047322 C12.0308502,23.1830866 12.5048968,21.7573095 12.3017485,20.5717719 C12.1990982,19.9727228 11.5679712,19.2139508 10.4896185,19.1762939 C10.2238881,19.1670144 10.0222195,18.92947 10.0383984,18.6610712 C10.0545774,18.3926724 10.2825006,18.2107522 10.5482077,18.2043358 Z M9.96258483,15.2008182 C12.099821,14.2344124 14.4921863,15.1345132 14.8020038,17.0247026 C14.9064768,17.6620897 14.9284219,18.2705696 14.6583672,18.9263727 C14.5561964,19.1744852 14.274383,19.2916219 14.0289195,19.1880049 C13.7834559,19.0843878 13.6672942,18.7992547 13.769465,18.5511421 C13.9621697,18.0831764 13.9332231,17.5924075 13.8561116,17.176795 C13.6350082,15.9850995 11.9242463,15.2209735 10.2689984,16.061514 C8.61375059,16.9020545 8.32421579,18.3665588 8.62991742,19.5298795 C8.78438767,20.1177025 9.47924439,20.8185808 10.5567757,20.7621098 C10.8223036,20.748194 11.0439082,20.9672579 11.0511833,21.2360455 C11.0584584,21.504833 10.8472579,21.7059258 10.5831212,21.7354756 C9.03511046,21.9086566 7.96674605,20.8525556 7.69835208,19.7748837 C7.27831993,18.0883448 7.82534868,16.167224 9.96258483,15.2008182 Z" id="形状结合" fill="#FFFFFF" fill-opacity="0.7" fill-rule="nonzero"></path>
    </g>
</svg>
