
<svg width="44px" height="44px" viewBox="0 0 44 44" version="1.1" xmlns="http://www.w3.org/2000/svg" xmlns:xlink="http://www.w3.org/1999/xlink">
    <defs>
        <circle id="path-1" cx="22" cy="22" r="22"></circle>
    </defs>
    <g id="组件" stroke="none" stroke-width="1" fill="none" fill-rule="evenodd">
        <g id="sideBarItem/__logoWithColorBg/--bilibili" transform="translate(0.000000, 0.000000)">
            <mask id="mask-2" fill="white">
                <use xlink:href="#path-1"></use>
            </mask>
            <use id="colorBg" fill="#20B0E3" xlink:href="#path-1"></use>
            <g id="logo" mask="url(#mask-2)" fill="#FFFFFF" fill-rule="nonzero">
                <g transform="translate(11.000000, 11.000000)" id="形状">
                    <path d="M4.57943104,0.150542206 C5.00177693,-0.0501807354 5.49047526,-0.0501807354 5.91282115,0.150542206 C6.21402843,0.307584575 6.48923378,0.511156686 6.72854218,0.753939106 L9.86593071,3.53274064 L12.1091635,3.53274064 L15.246552,0.753939106 C15.4861904,0.51154648 15.7613324,0.308021174 16.062273,0.150542206 C16.5135621,-0.0125656172 17.0137504,0.0420665785 17.4202776,0.298867862 C17.8268048,0.555669146 18.0950783,0.986470677 18.1486364,1.46848806 C18.1650436,1.85377071 18.0423726,2.23193034 17.8035237,2.53237209 C17.5847441,2.7563361 17.3543431,2.96835421 17.1132982,3.16752672 C16.9745779,3.29844496 16.8278782,3.42042263 16.6740638,3.53274064 L18.6349316,3.53274064 C19.5099002,3.56123943 20.3384805,3.93780655 20.9409122,4.58074579 C21.580464,5.188924 21.9579896,6.02736025 21.9919374,6.91493909 L21.9919374,16.045287 C22.0149535,16.5072894 21.9886564,16.970457 21.9135026,17.4267484 C21.707059,18.3510742 21.1416478,19.1523345 20.3448084,19.6497896 C19.8029116,19.9881301 19.1774702,20.1642952 18.54081,20.1579133 L4.14019664,20.1579133 C3.66813826,20.1823032 3.1948562,20.1556881 2.7283718,20.078519 C1.82606906,19.8634685 1.04643001,19.2916007 0.563573718,18.4906324 C0.217491691,17.9458356 0.0324396043,17.3122663 0.0302176845,16.6645628 L0.0302176845,7.62948807 C-0.0100725615,7.19111929 -0.0100725615,6.74991097 0.0302176845,6.31154219 C0.324085485,4.75954698 1.61063036,3.60051313 3.1676062,3.48510405 L5.22259569,3.48510405 C4.8931699,3.24692107 4.61080493,2.96110147 4.31275301,2.70703962 C3.95556545,2.37490844 3.7702427,1.8942088 3.81077085,1.40497261 C3.84773981,0.884364887 4.13510471,0.415393984 4.57943104,0.150542206 L4.57943104,0.150542206 Z M4.21863136,6.31154219 C3.62210722,6.41844634 3.13971024,6.86347825 2.97936288,7.45482053 C2.95125764,7.65494684 2.95125764,7.85809113 2.97936288,8.05821743 L2.97936288,15.568921 C2.94475432,16.2848373 3.3882611,16.9354647 4.06176193,17.1568076 C4.27897412,17.2314206 4.50692428,17.2690892 4.73630047,17.2679597 L17.4897848,17.2679597 C18.1287391,17.2922936 18.7183398,16.9216405 18.9800444,16.3311066 C19.1150493,15.9996848 19.1688689,15.6401297 19.1369138,15.2831014 L19.1369138,8.29640044 C19.1729545,8.04364821 19.1729545,7.78696709 19.1369138,7.53421486 C18.9959294,7.02484214 18.6136098,6.61998362 18.1172625,6.45445198 C17.8054381,6.34281001 17.474986,6.29425428 17.1446721,6.31154219 L4.95591766,6.31154219 C4.71046047,6.29401727 4.46408855,6.29401727 4.21863136,6.31154219 Z"></path>
                    <path d="M6.98551172,8.93072496 C7.39005625,8.91030021 7.78748514,9.04277651 8.09886591,9.30184302 C8.44885839,9.60104343 8.65435246,10.0355166 8.6636108,10.4958751 L8.6636108,12.1094319 C8.67809036,12.4805384 8.56410877,12.8452795 8.34089943,13.1421082 C8.00854861,13.5542884 7.49512591,13.7771848 6.96705717,13.7385457 C6.43898844,13.6999065 5.96347942,13.4046492 5.69466626,12.9484814 C5.52685325,12.6084258 5.45436171,12.2292392 5.48490388,11.8512628 L5.48490388,10.237706 C5.59568667,9.52209556 6.16964234,8.96793146 6.8886983,8.88231825 L6.98551172,8.93072496 Z M15.3276004,8.93072496 C15.7584175,8.89977718 16.183657,9.04284753 16.5081512,9.32791716 C16.8326453,9.61298678 17.0293007,10.016254 17.0541062,10.4474684 L17.0541062,12.0610252 C17.0801092,12.4321004 16.9959075,12.8025879 16.8120727,13.1259727 C16.5112496,13.5651245 16.0131936,13.8276557 15.4808883,13.8276557 C14.9485831,13.8276557 14.4505271,13.5651245 14.149704,13.1259727 C13.9461161,12.7804306 13.8558361,12.3798131 13.8915349,11.9803473 L13.8915349,10.3667905 C13.9752699,9.62602508 14.5555692,9.03905572 15.2953293,8.94686053 L15.3276004,8.93072496 Z"></path>
                </g>
            </g>
        </g>
    </g>
</svg>