<?xml version="1.0" encoding="UTF-8"?>
<svg width="44px" height="44px" viewBox="0 0 44 44" version="1.1" xmlns="http://www.w3.org/2000/svg" xmlns:xlink="http://www.w3.org/1999/xlink">
    <!-- Generator: Sketch 58 (84663) - https://sketch.com -->
    <desc>Created with Sketch.</desc>
    <defs>
        <circle id="path-1" cx="22" cy="22" r="22"></circle>
    </defs>
    <g id="sideBarItem/__logoWithColorBg/--coursera" stroke="none" stroke-width="1" fill="none" fill-rule="evenodd">
        <mask id="mask-2" fill="white">
            <use xlink:href="#path-1"></use>
        </mask>
        <use id="colorBg" fill="#4A89DC" xlink:href="#path-1"></use>
        <g id="iconfinder_coursera_4691252" mask="url(#mask-2)" fill="#FFFFFF" fill-rule="nonzero">
            <g transform="translate(8.000000, 15.000000)" id="路径">
                <path d="M27.4876266,6.77908074 C27.4837517,6.6727058 27.4770001,6.56645897 27.4673792,6.46046039 L27.4673792,6.45817638 L27.4673792,6.45589236 C27.3695297,5.30638129 26.9864079,4.20077873 26.3537741,3.24228066 C26.0721844,2.81191714 25.745165,2.41404524 25.378526,2.05573391 C24.8350233,1.52882877 24.2122966,1.0932112 23.533766,0.765264387 C22.4607788,0.252411684 21.2877403,-0.00833561345 20.1018376,0.00240276101 C19.1252063,-0.00163759136 18.1555945,0.170032949 17.2379602,0.509454501 C16.4977275,0.771347263 15.8052307,1.15567531 15.1884769,1.64689489 C15.0599315,1.75291623 14.9349996,1.86337509 14.8139006,1.97807733 L14.718288,2.07514805 L14.5866802,2.2178991 L14.587805,2.2178991 L14.5248132,2.28070956 L14.495567,2.3126858 L14.3369626,2.48056104 C14.2199779,2.61417602 14.1097422,2.74779101 14.004006,2.87912198 L14.004006,2.87683796 L13.9995065,2.87341194 C13.7835346,3.1394999 13.5833107,3.41700795 13.4370797,3.66482377 C13.3369678,3.82470495 13.2391055,3.98801216 13.1457426,4.15246137 L11.8555355,6.8007789 L11.8577852,6.80192091 L11.790294,6.9366779 L11.6485624,7.22903206 C11.3662242,7.81031435 11.0625137,8.39045463 10.7250576,8.86781415 C9.96915594,9.70947436 9.11539202,10.1217394 8.01865972,10.1217394 C7.94216967,10.1217394 7.86230506,10.1183134 7.7835653,10.1126033 C7.12215136,10.0863371 6.55522512,9.92759796 6.05241554,9.62496573 C5.57774342,9.3479899 5.19007345,8.94015321 4.93431102,8.44869706 C4.67599551,7.97045364 4.54932483,7.43040208 4.56760873,6.88528753 L4.56985844,6.84645924 C4.6047289,5.97853284 4.93093646,5.30246385 5.58672613,4.72118156 C5.74645535,4.57957252 5.91405855,4.46080364 6.08841086,4.35573887 C6.11203279,4.34089276 6.13790442,4.32833067 6.16152635,4.31462657 C6.64971283,4.04397057 7.20426568,3.90921358 7.83980799,3.90921358 L8.03778223,3.91492362 C9.04902565,3.9537519 9.82854923,4.27351426 10.4505933,4.90047689 L12.4010895,1.34540467 C11.9088751,1.0147907 11.3808511,0.742728883 10.8274193,0.534578686 C10.806047,0.526584627 10.7824251,0.516306551 10.759928,0.509454501 C10.6901871,0.484330315 10.6215711,0.458064122 10.5507053,0.435223953 C9.92497972,0.225924267 9.2770596,0.0925239964 8.62045642,0.0378050221 C8.60319932,0.0355942635 8.58595142,0.0333102267 8.56871315,0.0309529716 C8.46635147,0.0252429295 8.36174008,0.0126808368 8.2593784,0.00811280312 C8.14806319,0.00376305186 8.03669031,0.00109806953 7.92529686,0 L7.86342991,0 C6.68602956,-0.00639384436 5.52215816,0.255061313 4.45737307,0.765264387 C3.31507366,1.31451726 2.34201099,2.16975182 1.64298925,3.23885463 C0.88964464,4.38059894 0.491489774,5.72576771 0.5,7.09998511 C0.497888243,8.88608628 1.13905482,10.4552059 2.413514,11.7742256 C3.74534072,13.1571978 5.47424077,13.9029293 7.5507206,13.9908639 C7.68345333,13.996574 7.81506121,14 7.94779394,14 C9.123266,14 10.2098746,13.7875864 11.1851227,13.3627593 C11.429216,13.2565525 11.6654352,13.1332156 11.9072788,12.9950326 C12.0388866,12.918518 12.1637454,12.8362934 12.2874793,12.7495008 L12.3774676,12.6866903 L12.5315725,12.5804835 C12.7160485,12.4457265 12.8881511,12.2995495 13.0568792,12.1453783 L13.1153716,12.0882779 C13.2143587,11.9934912 13.3133458,11.8964205 13.4067087,11.7970658 L13.7565382,11.3950788 L13.8892709,11.2260615 L13.9522627,11.1335589 L14.0141296,11.0433402 C14.533812,10.1571417 16.2244671,6.93096786 16.2244671,6.93096786 L16.2244671,6.92411581 L16.3257039,6.72769036 L16.4089431,6.57351923 C16.6586606,6.11328983 16.8386371,5.78667542 17.0771061,5.44293089 L17.0838552,5.4315108 C17.6384081,4.61269076 18.5956585,4.03026647 19.7227619,3.93205374 C21.612516,3.76646252 23.2683006,5.02723982 23.4201558,6.74710451 C23.5720111,8.4681112 22.1636943,9.99726048 20.2728153,10.1628517 C19.8922683,10.1959895 19.5089815,10.171356 19.1355883,10.0897632 L19.1254646,10.0931892 C17.7396449,9.79969302 16.8566348,8.77416946 16.4213164,8.31394006 L14.6024281,11.7102731 C14.6024281,11.7102731 15.1682295,12.2881294 15.5551791,12.5770575 C15.9443785,12.8659856 16.4449384,13.1492037 16.8442614,13.326215 C17.8519899,13.7693183 18.9384147,13.9982341 20.0365961,13.998858 C20.1727034,13.998858 20.1457069,13.998858 20.2863136,13.9931479 C22.3605437,13.9052133 24.2109279,13.0978133 25.5450044,11.7148411 C26.808215,10.4015315 27.4943757,8.9020744 27.5,7.1262513 L27.5,7.07257691 L27.4876266,6.77908074 L27.4876266,6.77908074 Z"></path>
            </g>
        </g>
    </g>
</svg>
