<svg width="44" height="44" xmlns="http://www.w3.org/2000/svg" xmlns:xlink="http://www.w3.org/1999/xlink">
    <defs>
        <circle id="a" cx="22" cy="22" r="22"/>
    </defs>
    <g fill="none" fill-rule="evenodd">
        <mask id="b" fill="#fff">
            <use xlink:href="#a"/>
        </mask>
        <use fill="#4A89DC" xlink:href="#a"/>
        <g mask="url(#b)" fill="#FFF" fill-rule="nonzero">
            <path d="M35.488 21.78a5.901 5.901 0 00-.02-.32v-.004a6.897 6.897 0 00-1.114-3.214 7.076 7.076 0 00-.975-1.186 7.072 7.072 0 00-1.845-1.29 7.793 7.793 0 00-3.432-.764 8.156 8.156 0 00-2.864.507 7.08 7.08 0 00-2.05 1.138 7.289 7.289 0 00-.374.331l-.096.097-.131.143-.062.063-.03.032-.158.168c-.117.133-.227.267-.333.398v-.002L22 17.873a6.788 6.788 0 00-.563.792c-.1.16-.198.323-.291.487l-1.29 2.649h.002l-.068.136-.141.292c-.283.581-.586 1.161-.924 1.639-.756.841-1.61 1.254-2.706 1.254a3.1 3.1 0 01-.235-.01c-.662-.026-1.229-.184-1.732-.487a2.922 2.922 0 01-1.118-1.176 3.074 3.074 0 01-.366-1.564l.002-.039c.035-.867.36-1.544 1.017-2.125.16-.141.327-.26.501-.365.024-.015.05-.028.074-.041.488-.271 1.042-.406 1.678-.406l.198.006c1.011.039 1.79.359 2.413.985l1.95-3.555a7.656 7.656 0 00-1.574-.81c-.021-.008-.045-.019-.067-.026-.07-.025-.138-.05-.21-.074a8.242 8.242 0 00-1.93-.397 6.148 6.148 0 01-.051-.007c-.103-.006-.207-.018-.31-.023a11.445 11.445 0 00-.334-.008h-.062a7.782 7.782 0 00-3.406.765 6.979 6.979 0 00-2.814 2.474A6.935 6.935 0 008.5 22.1c-.002 1.786.64 3.355 1.914 4.674 1.331 1.383 3.06 2.129 5.137 2.217.132.006.264.009.397.009 1.175 0 2.262-.212 3.237-.637.244-.106.48-.23.722-.368.132-.076.257-.159.38-.245l.09-.063.155-.107c.184-.134.356-.28.525-.435l.058-.057a7.85 7.85 0 00.292-.29l.35-.403.132-.169.063-.092.062-.09c.52-.887 2.21-4.113 2.21-4.113v-.007l.102-.196.083-.154c.25-.46.43-.787.668-1.131l.007-.011c.554-.82 1.512-1.402 2.639-1.5 1.89-.166 3.545 1.095 3.697 2.815.152 1.721-1.256 3.25-3.147 3.416a3.81 3.81 0 01-1.137-.073l-.01.003c-1.386-.293-2.27-1.319-2.705-1.78l-1.819 3.397s.566.578.953.867c.39.289.89.572 1.29.75a7.94 7.94 0 003.192.672c.136 0 .109 0 .25-.006 2.074-.088 3.924-.895 5.258-2.278 1.263-1.313 1.95-2.813 1.955-4.589v-.053l-.012-.294z"/>
        </g>
    </g>
</svg>
