
<svg width="11px" height="7px" viewBox="0 0 11 7" version="1.1" xmlns="http://www.w3.org/2000/svg" xmlns:xlink="http://www.w3.org/1999/xlink">
    <g id="Playing-View" stroke="none" stroke-width="1" fill="none" fill-rule="evenodd" opacity="0.4">
        <g id="Playing-View-/-@p0---512" transform="translate(-81.000000, -257.000000)" fill="#FFFFFF" fill-rule="nonzero">
            <g id="循环标签" transform="translate(75.000000, 253.000000)">
                <path d="M17,8.55692071 L14.8321003,11 L12.4680574,8.55692071 L13.5342795,8.55692071 L13.5351895,6.49462775 C13.5351895,5.83591533 13.201097,5.22216122 12.6478875,4.86458427 C12.6478875,4.86458427 12.6478875,4.86458427 12.6478875,4.86458427 C12.0299103,4.49146122 12.0299103,4.49146122 10.8356806,4 L12.9023549,4 C14.3906325,4 15.6390572,5.12295484 15.7961074,6.60292284 L16.0034604,8.55692071 L17,8.55692071 Z M6,6.44307929 L8.16789965,4 L10.5319426,6.44307929 L9.4657205,6.44307929 L9.46481052,8.50537225 C9.46481052,9.16408467 9.79890298,9.77783878 10.3521125,10.1354157 C10.3521125,10.1354157 10.3521125,10.1354157 10.3521125,10.1354157 C10.9700897,10.5085388 10.9700897,10.5085388 12.1643194,11 L10.0976451,11 C8.60936754,11 7.36094276,9.87704516 7.20389257,8.39707716 L6.99653962,6.44307929 L6,6.44307929 Z" id="循环"></path>
            </g>
        </g>
    </g>
</svg>