<?xml version="1.0" encoding="UTF-8"?>
<svg width="24px" height="13px" viewBox="0 0 24 13" version="1.1" xmlns="http://www.w3.org/2000/svg" xmlns:xlink="http://www.w3.org/1999/xlink">
    <!-- Generator: Sketch 59 (86127) - https://sketch.com -->
    <desc>Created with Sketch.</desc>
    <g id="Playing-View" stroke="none" stroke-width="1" fill="none" fill-rule="evenodd" opacity="0.4">
        <g id="Playing-View-/-@p3---1921" transform="translate(-260.000000, -1017.000000)" fill="#FFFFFF" fill-rule="nonzero">
            <path d="M270.45,1022.35 L269.1,1020.85 L271.5,1018.9 L273.6,1018.9 L273.6,1028.35 L271.5,1028.35 L271.5,1021.45 L270.45,1022.35 Z M284,1025.23637 L280.452528,1029.25 L276.584094,1025.23637 L278.328821,1025.23637 L278.328821,1021.87065 C278.331232,1020.78367 277.785459,1019.76931 276.878361,1019.17039 C276.878361,1019.17039 276.878361,1019.17039 276.878361,1019.17039 C275.867126,1018.5574 275.867126,1018.5574 273.912932,1017.75 L277.213623,1017.75 C279.694855,1017.75 281.775948,1019.62272 282.036756,1022.09021 L282.369299,1025.23637 L282.369299,1025.23637 L284,1025.23637 Z M260,1021.76363 L263.547472,1017.75 L267.415906,1021.76363 L265.671179,1021.76363 L265.671179,1025.12935 C265.668768,1026.21633 266.214541,1027.23069 267.121639,1027.82961 C267.121639,1027.82961 267.121639,1027.82961 267.121639,1027.82961 C268.132874,1028.4426 268.132874,1028.4426 270.087068,1029.25 L266.786377,1029.25 C264.305145,1029.25 262.224052,1027.37728 261.963244,1024.90979 L261.630701,1021.76363 L261.630701,1021.76363 L260,1021.76363 Z" id="循环"></path>
        </g>
    </g>
</svg>