<svg width="24" height="27" xmlns="http://www.w3.org/2000/svg">
    <path d="M.429 5.609v.606a.5.5 0 00.5.5h2.804v16.072c0 1.775 1.48 3.213 3.305 3.213h9.92c1.824 0 3.304-1.438 3.304-3.213V6.715h2.81a.5.5 0 00.5-.5V5.61a.5.5 0 00-.5-.5H.928a.5.5 0 00-.5.5zm8.266 18.785H7.043c-.913 0-1.653-.72-1.653-1.607V6.715h3.305v17.679zm4.957 0h-3.304V6.715h3.304v17.679zm4.962-1.607c0 .887-.74 1.607-1.652 1.607h-1.653V6.715h3.305v16.072zM8.695.786v.606a.5.5 0 00.5.5h5.614a.5.5 0 00.5-.5V.786a.5.5 0 00-.5-.5H9.195a.5.5 0 00-.5.5z" fill="#FFF" opacity=".613"/>
</svg>
