<?xml version="1.0" encoding="UTF-8"?>
<svg width="24px" height="27px" viewBox="0 0 24 27" version="1.1" xmlns="http://www.w3.org/2000/svg" xmlns:xlink="http://www.w3.org/1999/xlink">
    <!-- Generator: Sketch 51.2 (57519) - http://www.bohemiancoding.com/sketch -->
    <desc>Created with Sketch.</desc>
    <defs></defs>
    <g id="Playing-View-/-Icon---Delete" stroke="none" stroke-width="1" fill="none" fill-rule="evenodd" opacity="0.613002232">
        <g id="icon-delete" transform="translate(0.428571, 0.285714)" fill="#FFFFFF" fill-rule="nonzero">
            <path d="M0,5.32331268 L0,5.92964806 C1.56449537e-16,6.20579044 0.223857625,6.42964806 0.5,6.42964806 L3.30485671,6.42964806 L3.30485671,22.5016149 C3.30485671,24.275905 4.78451105,25.7142857 6.60971341,25.7142857 L16.5287136,25.7142857 C18.353916,25.7142857 19.8335703,24.275905 19.8335703,22.5016149 L19.8335703,6.42964806 L22.6428571,6.42964806 C22.9189995,6.42964806 23.1428571,6.20579044 23.1428571,5.92964806 L23.1428571,5.32331268 C23.1428571,5.0471703 22.9189995,4.82331268 22.6428571,4.82331268 L0.5,4.82331268 C0.223857625,4.82331268 -3.38176876e-17,5.0471703 0,5.32331268 Z M8.26657187,24.1079503 L6.61414351,24.1079503 C5.70154233,24.1079503 4.96171516,23.38876 4.96171516,22.5016149 L4.96171516,6.42964806 L8.26657187,6.42964806 L8.26657187,24.1079503 Z M13.2238569,24.1079503 L9.91900022,24.1079503 L9.91900022,6.42964806 L13.2238569,6.42964806 L13.2238569,24.1079503 Z M18.1855721,22.5016149 C18.1855721,23.38876 17.4457449,24.1079503 16.5331437,24.1079503 L14.8807154,24.1079503 L14.8807154,6.42964806 L18.1855721,6.42964806 L18.1855721,22.5016149 Z M8.26657187,0.5 L8.26657187,1.10633538 C8.26657187,1.38247776 8.49042949,1.60633538 8.76657187,1.60633538 L14.3807154,1.60633538 C14.6568578,1.60633538 14.8807154,1.38247776 14.8807154,1.10633538 L14.8807154,0.5 C14.8807154,0.223857625 14.6568578,-1.61748834e-16 14.3807154,-1.11022302e-16 L8.76657187,-1.11022302e-16 C8.49042949,-6.02957711e-17 8.26657187,0.223857625 8.26657187,0.5 Z" id="Shape"></path>
        </g>
    </g>
</svg>
