<svg width="10px" height="10px" viewBox="0 0 10 10" version="1.1" xmlns="http://www.w3.org/2000/svg" xmlns:xlink="http://www.w3.org/1999/xlink">
    <defs>
        <radialGradient cx="84.2036702%" cy="81.3988863%" fx="84.2036702%" fy="81.3988863%" r="114.30679%" id="radialGradient-1">
            <stop stop-color="#FFFFFF" stop-opacity="0.775928442" offset="0%"></stop>
            <stop stop-color="#FFFFFF" stop-opacity="0.508378623" offset="100%"></stop>
        </radialGradient>
    </defs>
    <g id="Playing-View" stroke="none" stroke-width="1" fill="none" fill-rule="evenodd" stroke-opacity="0.3">
        <g id="Artboard" fill="url(#radialGradient-1)" stroke="#FFFFFF" stroke-width="0.5">
            <path d="M0,2.17874318 L2.77555756e-17,2.416738 C9.31514819e-17,2.53216552 0.0935724873,2.625738 0.209,2.625738 L1.4280245,2.625738 L1.4280245,8.68801035 C1.4280245,9.41259445 2.06738132,10 2.856049,10 L7.14203675,10 C7.93070444,10 8.57006126,9.41259445 8.57006126,8.68801035 L8.57006126,2.625738 L9.791,2.625738 C9.90642751,2.625738 10,2.53216552 10,2.416738 L10,2.17874318 C10,2.06331567 9.90642751,1.96974318 9.791,1.96974318 L0.209,1.96974318 C0.0935724873,1.96974318 5.13220143e-16,2.06331567 5.27355937e-16,2.17874318 Z M2.85796325,9.34400517 C2.4636294,9.34400517 2.143951,9.0503024 2.143951,8.68801035 L2.143951,2.625738 L3.5719755,2.625738 L3.5719755,9.34400517 L2.85796325,9.34400517 Z M5.71401225,9.34400517 L4.28598775,9.34400517 L4.28598775,2.625738 L5.71401225,2.625738 L5.71401225,9.34400517 Z M7.143951,9.34400517 L6.42993874,9.34400517 L6.42993874,2.625738 L7.85796325,2.625738 L7.85796325,8.68801035 C7.85796325,9.0503024 7.53828484,9.34400517 7.143951,9.34400517 Z M3.5719755,0.209 L3.5719755,0.446994826 C3.5719755,0.562422339 3.66554798,0.655994826 3.7809755,0.655994826 L6.22093874,0.655994826 C6.33636626,0.655994826 6.42993874,0.562422339 6.42993874,0.446994826 L6.42993874,0.209 C6.42993874,0.0935724873 6.33636626,-4.89592657e-17 6.22093874,-2.77555756e-17 L3.7809755,-2.77555756e-17 C3.66554798,-6.55188552e-18 3.5719755,0.0935724873 3.5719755,0.209 Z" id="Icon---Delete"></path>
        </g>
    </g>
</svg>
