<?xml version="1.0" encoding="UTF-8"?>
<svg width="44px" height="44px" viewBox="0 0 44 44" version="1.1" xmlns="http://www.w3.org/2000/svg" xmlns:xlink="http://www.w3.org/1999/xlink">
    <!-- Generator: Sketch 58 (84663) - https://sketch.com -->
    <desc>Created with Sketch.</desc>
    <defs>
        <circle id="path-1" cx="22" cy="22" r="22"></circle>
    </defs>
    <g id="sideBarItem/__logoWithColorBg/--wwdc" stroke="none" stroke-width="1" fill="none" fill-rule="evenodd">
        <mask id="mask-2" fill="white">
            <use xlink:href="#path-1"></use>
        </mask>
        <use id="colorBg" fill="#FFFFFF" xlink:href="#path-1"></use>
        <path d="M9.02695313,26.840625 L10.4455078,21.5513672 L10.4824219,21.5513672 L11.9009766,26.840625 L12.9873047,26.840625 L14.9279297,19.6423828 L13.6359375,19.6423828 L12.4019531,25.0054688 L12.3544922,25.0054688 L11.0150391,19.6423828 L9.91289063,19.6423828 L8.5734375,25.0054688 L8.53125,25.0054688 L7.28671875,19.6423828 L6,19.6423828 L7.93535156,26.840625 L9.02695313,26.840625 Z M18.5201953,26.840625 L19.93875,21.5513672 L19.9756641,21.5513672 L21.3942188,26.840625 L22.4805469,26.840625 L24.4211719,19.6423828 L23.1291797,19.6423828 L21.8951953,25.0054688 L21.8477344,25.0054688 L20.5082813,19.6423828 L19.4061328,19.6423828 L18.0666797,25.0054688 L18.0244922,25.0054688 L16.7799609,19.6423828 L15.4932422,19.6423828 L17.4285938,26.840625 L18.5201953,26.840625 Z M25.5507422,19.6423828 L25.5507422,26.840625 L28.0345313,26.840625 C30.1702735,26.840625 31.2302344,25.5486328 31.2302344,23.2283203 C31.2302344,20.9132813 30.1808203,19.6423828 28.0345313,19.6423828 L25.5507422,19.6423828 Z M26.7478125,20.6496094 L27.9079688,20.6496094 C29.3792578,20.6496094 29.99625,21.5988281 29.99625,23.2441406 C29.99625,25.0951172 29.2421485,25.8333984 27.9079688,25.8333984 L26.7478125,25.8333984 L26.7478125,20.6496094 Z M33.6570703,22.8169922 L33.6570703,23.7029297 C33.6570703,25.1478516 34.279336,25.9546875 35.3814844,25.9546875 C36.3201563,25.9546875 36.9424219,25.3640625 36.9582422,24.5203125 L38.1236719,24.5203125 L38.1236719,24.5994141 C38.1236719,25.9916016 36.9635157,26.9830078 35.376211,26.9830078 C33.519961,26.9830078 32.4494532,25.7490234 32.4494532,23.6976563 L32.4494532,22.8169922 C32.4494532,20.7498047 33.519961,19.5 35.376211,19.5 C36.9687891,19.5 38.1236719,20.5230469 38.1236719,21.9837891 L38.1236719,22.0628906 L36.9582422,22.0628906 C36.9424219,21.1611328 36.3201563,20.5335938 35.3814844,20.5335938 C34.279336,20.5335938 33.6570703,21.3509766 33.6570703,22.8169922 Z" id="WWDC" fill="#4C4C4C" fill-rule="nonzero" mask="url(#mask-2)"></path>
    </g>
</svg>
