<?xml version="1.0" encoding="UTF-8"?>
<svg width="44px" height="44px" viewBox="0 0 44 44" version="1.1" xmlns="http://www.w3.org/2000/svg" xmlns:xlink="http://www.w3.org/1999/xlink">
    <!-- Generator: Sketch 57.1 (83088) - https://sketch.com -->
    <desc>Created with Sketch.</desc>
    <defs>
        <circle id="path-1" cx="22" cy="22" r="22"></circle>
    </defs>
    <g id="sideBarItem/__logoWithColorBg/--douyu" stroke="none" stroke-width="1" fill="none" fill-rule="evenodd">
        <mask id="mask-2" fill="white">
            <use xlink:href="#path-1"></use>
        </mask>
        <use id="colorBg" fill="#FFFFFF" xlink:href="#path-1"></use>
        <g id="logo" mask="url(#mask-2)" fill-rule="nonzero">
            <g transform="translate(7.700000, 9.900000)" id="路径">
                <path d="M27.5141328,4.43793504 C27.7260861,4.39912704 27.8284653,4.1525792 27.7078032,3.971968 L27.3911546,3.49846112 C26.5560803,2.24374304 25.5010448,1.31129152 24.2557392,0.7271264 C23.2620573,0.26103616 22.1712938,0.0246152773 21.013879,0.0246152773 C19.9729376,0.0246152773 19.0667523,0.2224992 18.4869731,0.43393504 C17.9861405,0.30420544 16.8210134,0.05381376 15.2919782,0.05381376 C13.870472,0.05381376 12.4898682,0.26855136 11.1884819,0.69240864 C9.57195008,1.21884224 8.09520096,2.0070512 6.79962976,3.03522912 C5.76314816,3.85744128 4.84072512,4.8335056 4.05791232,5.9360224 C2.72131552,7.81837056 2.25298304,9.41891104 2.23376384,9.48622752 L2.18689856,9.64941824 C2.13352832,9.83564736 2.20572352,10.0353053 2.36526752,10.1425386 L2.5050256,10.2366141 C4.01782304,11.2543693 5.96236256,11.8381155 7.84000448,11.8381155 C9.05362304,11.8381155 10.2394723,11.6054154 11.364929,11.1465939 C13.9966534,10.0735712 15.4722198,8.26514304 16.2466058,6.93707168 C16.319343,6.81229472 16.387448,6.68941504 16.451241,6.56887616 C16.4710022,7.19897024 16.4192829,7.93698752 16.2234442,8.74384896 C15.8241776,10.3882733 14.9831405,11.7639245 13.7237654,12.8324381 C12.7700496,13.6416157 11.9196493,13.9631923 11.9111238,13.9663462 L11.670465,14.0539661 L11.5515523,14.2813194 C11.415983,14.5369347 10.7656349,15.875823 11.2716173,17.139584 C11.4291162,17.5327152 11.7966957,17.7674851 12.2552707,17.7674851 C12.6904131,17.7674851 13.1748602,17.5630224 13.5697901,17.3430858 C13.7775546,17.5825126 13.9395133,17.7395187 14.078064,17.8564848 C14.0336381,18.4044538 13.7045216,18.683896 13.3276035,19.0072467 C13.0231517,19.268209 12.6404432,19.3428928 12.2552707,19.3428928 C11.5622707,18.2510944 10.5465114,17.9707158 9.28861472,17.9707158 C8.7750432,17.9707158 8.27692096,18.0815219 7.8079232,18.3001034 C7.27173216,18.5498051 7.29706208,19.3296611 7.84813568,19.5434378 C7.86289504,19.5492035 9.45505792,20.1851866 10.3982032,21.4872134 C11.3091194,22.7448144 10.7820205,24.0326979 10.7453069,24.1182726 L10.3938666,24.861489 C10.2978445,25.0644486 10.4755235,25.2902742 10.6923555,25.2407725 L11.4942643,25.057993 C11.8190442,24.9861427 12.663457,24.7414922 13.4866301,24.0272032 C14.2022496,23.406152 14.7064826,22.5869706 14.9621718,21.6372218 C16.5773485,21.3754464 18.0661712,20.7885462 19.3936758,19.8892602 C20.7507238,18.9699664 21.9113664,17.7223693 22.749841,16.2813235 C23.6055142,14.8106358 24.1314058,13.1342534 24.2706218,11.4333296 C24.4036285,9.80728672 24.1814989,8.14982784 23.6271728,6.61428768 C25.0834954,4.91513792 26.9397251,4.5431232 26.9593632,4.5394272 L27.5141082,4.43795968 L27.5141328,4.43793504 Z" stroke="none" fill="#231815"></path>
                <path d="M14.4127245,21.0420179 C21.5317626,20.1773018 25.3940579,12.7876672 22.86592,6.49944064 C24.5369062,4.30512544 26.8384547,3.88402784 26.8384547,3.88402784 C24.1261328,-0.19125568 19.7404099,0.6195728 18.5244752,1.15246208 C17.9587654,0.98200256 14.874281,0.20944 11.3926982,1.34334816 C4.63498112,3.5440944 2.87396032,9.68285472 2.87396032,9.68285472 C4.80605664,10.9826886 7.96177536,11.8149046 11.1160157,10.5287952 C15.8744678,8.58871552 16.6603853,4.13099456 16.6603853,4.13099456 C16.6603853,4.13099456 17.5438278,6.14031264 16.8707123,8.9131504 C15.8132621,13.270217 12.1389453,14.6089821 12.1389453,14.6089821 C11.9600342,14.9463037 11.5252861,15.9850522 11.8894653,16.8943421 C12.0694605,17.3439728 12.9592602,16.9945776 13.7140326,16.468144 C14.3302544,17.2641638 14.5854016,17.4132112 14.7505142,17.5315571 C14.7842464,18.4215046 14.4428838,19.0317635 13.8353354,19.5527024 C13.2245344,20.076672 12.5844611,20.2937011 12.1389699,20.3860518 C11.4087142,18.8026362 9.5712848,18.2296576 8.08667552,18.9214749 C8.08667552,18.9214749 9.85799584,19.6084874 10.9357741,21.0962998 C12.1162026,22.7260634 11.3516973,24.4071027 11.3516973,24.4071027 C12.2079126,24.2171776 14.011881,23.3609622 14.4127491,21.0420179 L14.4127245,21.0420179 Z" stroke="none" fill="#F0F1F2"></path>
                <path d="M12.0736739,1.1436656 C15.2689891,0.30839424 17.9959472,0.99318912 18.5244752,1.15243744 C18.9995344,0.94422944 19.9584986,0.693616 21.1124637,0.70854784 C20.0539293,0.80323936 19.4391859,1.09753952 18.9839866,1.27925952 C18.9628208,1.28771104 18.942,1.29591616 18.9214749,1.30385024 L18.9188384,1.31868352 C19.8897283,1.94478592 20.495897,2.84279072 20.495897,2.84279072 C18.539752,0.35434784 13.3818362,1.2915056 12.5566179,1.52617696 C12.4260998,1.39551104 12.2251606,1.24806528 12.0736739,1.14364096 L12.0736739,1.1436656 Z" stroke="none" fill="#BCBCBC"></path>
                <path d="M26.3668451,4.01099776 C25.6062083,4.25574688 24.0718509,4.9158032 22.86592,6.499416 C23.6283802,8.39588288 23.8095827,10.3925114 23.4955213,12.2801325 C23.4478182,12.436769 23.3948422,12.5925923 23.3365686,12.7476765 C23.7605984,8.96905856 22.4862176,6.64400352 21.300319,4.48741216 C22.1870141,5.53000448 22.3526195,5.86264448 22.3526195,5.86264448 C23.8805459,4.30187296 26.5036218,3.91386688 26.5036218,3.91386688 C26.4572246,3.94681056 26.4116406,3.97918752 26.3668698,4.01097312 L26.3668451,4.01099776 Z" stroke="none" fill="#BCBCBC"></path>
                <path d="M16.7454426,9.00182976 C17.3381085,7.00581728 16.5798125,5.63206336 16.5798125,5.63206336 C16.0053062,7.81169312 14.9334909,9.42019232 12.6355891,10.6380243 C10.9728819,11.5190768 8.08652768,11.676896 8.08652768,11.676896 L12.0059632,13.8359514 C14.406121,13.2832022 16.010456,11.4768192 16.7454426,9.00180512 L16.7454426,9.00182976 Z" stroke="none" fill="#231815"></path>
                <path d="M16.3510547,5.94853952 C16.6624304,7.246624 16.468489,8.1757984 16.3549478,8.39314784 C16.1996419,8.68986272 15.6069267,8.27613248 15.6069267,8.27613248 C15.6069267,8.27613248 15.8496061,10.2561536 15.6131114,10.4948906 C15.3764688,10.7336522 14.1871453,9.84148704 14.1871453,9.84148704 C14.1871453,9.84148704 14.7394755,11.9418992 14.3449891,12.2071734 C13.9506506,12.4724723 12.0807949,11.0040762 12.0807949,11.0040762 C12.0807949,11.0040762 12.7014272,13.4015974 12.3151459,13.5100627 C11.9692742,13.6072922 11.4284262,13.444816 10.8460352,13.1737267 L9.93913536,12.6920886 C9.29337024,12.3136675 8.6927456,11.8972022 8.34394176,11.6463917 C9.09119904,11.6026557 10.8941078,11.389224 12.4819587,10.3607011 C14.5907978,8.99468416 15.9465891,7.33251904 16.3510794,5.94853952 L16.3510547,5.94853952 Z" stroke="none" fill="#FFFFFF"></path>
                <path d="M12.2099331,12.5077322 C14.6155856,14.0096634 15.3007994,16.6338973 13.933304,18.538865 C12.5656854,20.4439805 9.887416,20.5960093 7.732032,18.7455699 C5.79330752,17.0809901 4.91094912,14.3086698 6.03923936,12.7369334 C7.16780064,11.1649261 10.0460483,11.1568934 12.2099331,12.5077322 Z" stroke="#231815" stroke-width="0.870045792" fill="#2D0A03"></path>
                <path d="M15.0186467,15.4217818 C14.5810896,13.9470038 13.4057616,12.6127971 11.8744102,11.8524806 C9.39035328,10.6195936 6.56481056,11.1674394 5.44203968,13.1002502 C4.3423072,14.992824 5.26147776,17.7261392 7.53424672,19.3228112 C8.8668272,20.2588602 10.4662342,20.6718758 11.874016,20.4554874 C11.9741283,20.4400874 12.0731811,20.4215334 12.1711498,20.3998502 C13.2830051,20.1526371 14.1555568,19.5316845 14.6944336,18.604087 C15.235873,17.6722515 15.3509664,16.5420394 15.0186467,15.4217571 L15.0186467,15.4217818 Z" stroke="none" fill="#231815"></path>
                <path d="M11.5855802,12.2207008 C14.1234262,13.4804701 15.3716394,16.2604042 14.1922704,18.2904198 C13.0129014,20.3202877 10.0461469,20.4982378 7.72417184,18.8670451 C5.63561152,17.3999056 4.80822496,14.9619254 5.7812832,13.2870954 C6.75434144,11.6122653 9.3029552,11.0876058 11.5855802,12.2206762 L11.5855802,12.2207008 Z" stroke="none" fill="#F8C100"></path>
                <path d="M10.9353552,11.8399389 C10.9353552,11.8399389 6.8290992,12.7676842 6.60731456,17.8900198 L6.7727968,18.1151309 C6.7727968,18.1151309 6.5845472,16.532479 8.38270048,14.2042701 C9.81231328,12.3532886 11.0148685,11.9102861 11.0148685,11.9102861 L10.9353552,11.8399389 L10.9353552,11.8399389 Z" stroke="none" fill="#231815"></path>
                <path d="M4.82532512,17.4028131 C2.16082944,16.0492394 0.44632896,14.2594883 0.89790624,13.1983914 C1.39866496,12.0216835 4.37268832,12.1866483 7.54038208,13.5669565 C7.7970816,13.6787728 8.04624128,13.7954925 8.28867424,13.9154646 C8.36912384,13.8003712 8.45240704,13.6847603 8.54214592,13.573215 C8.25215776,13.4286768 7.95339776,13.2883766 7.64549632,13.1542118 C4.0469968,11.5862947 0.66858176,11.398809 0.09976736,12.7356029 C-0.30127328,13.6777872 0.8011696,15.1254365 2.74716288,16.4471014 C3.5139104,16.9678186 4.3558592,17.190367 4.82534976,17.4028131 L4.82532512,17.4028131 Z" stroke="none" fill="#231815"></path>
                <path d="M15.4020451,13.0217718 C14.3381638,14.4426867 12.652369,15.3604774 10.7548918,15.3604774 C10.6105754,15.3604774 10.4677373,15.355303 10.3262298,15.3449296 L10.323544,15.3416525 C11.2594205,16.5043402 12.6852634,17.2468912 14.2825021,17.2468912 C16.7278989,17.2468912 18.7714419,15.5067651 19.2697859,13.1835827 L15.4020451,13.0217718 Z" stroke="none" fill="#F0F1F2"></path>
                <path d="M11.166848,15.6792944 L11.166848,15.6837542 C11.3013824,15.7992173 11.4410912,15.9081507 11.5861962,16.0091254 C11.7695917,16.1336067 11.9589254,16.2495133 12.1575485,16.3465949 C12.354841,16.4465347 12.5595254,16.5304093 12.768793,16.6000666 C12.9764589,16.6739619 13.1897674,16.7319152 13.4060573,16.7752816 C13.6223472,16.8193133 13.8419882,16.8464666 14.0628611,16.8585894 L14.2803584,16.867041 C14.2738781,16.867312 14.2985427,16.8667699 14.2666093,16.8674598 L14.269295,16.8674598 L14.2749622,16.867312 L14.2973354,16.866351 L14.38668,16.8632218 L14.7416192,16.851641 C14.9520941,16.8294157 15.1644909,16.8100486 15.3846739,16.7587728 C15.4947654,16.7414509 15.6013581,16.7095421 15.7080739,16.6777811 C15.8150608,16.6469565 15.9234029,16.6191379 16.0261024,16.5748352 C16.1290483,16.5316166 16.2378093,16.5016051 16.339129,16.4537542 L16.6448867,16.3118032 C16.841095,16.2019088 17.0393238,16.0922854 17.2219062,15.9570118 C17.3174355,15.8951162 17.4058438,15.8239312 17.4949174,15.752623 C17.5848042,15.6822758 17.6756272,15.612175 17.756471,15.5309123 C17.929641,15.3794256 18.081103,15.2061325 18.2364582,15.0335046 C18.3814646,14.8529674 18.5268653,14.6698429 18.6498928,14.4695443 C18.7180717,14.3732758 18.7715651,14.2688269 18.8308736,14.1662998 C18.8906995,14.0640438 18.948505,13.9599891 18.9946064,13.8503658 C19.1005338,13.6361456 19.1856896,13.4121187 19.2697859,13.1836074 C19.2340826,13.422369 19.2061901,13.6677834 19.1355718,13.9032678 C19.1084925,14.0238067 19.0689946,14.1401075 19.0266877,14.2561373 C18.9862534,14.372857 18.9474454,14.4914739 18.8909952,14.6015162 C18.7931744,14.8304464 18.6698512,15.0461696 18.5430538,15.2625581 C18.4025072,15.468721 18.2575008,15.6741939 18.089727,15.8616797 C18.0112979,15.9606832 17.9218301,16.0488944 17.8323376,16.1379187 C17.7442003,16.228175 17.6548557,16.3180371 17.5546202,16.3946675 C17.364079,16.5617021 17.1545405,16.7036531 16.9436467,16.8455795 C16.7247942,16.9732147 16.5048822,17.1025994 16.2686586,17.1991389 C16.153713,17.2548992 16.0325581,17.2939043 15.9119699,17.3354966 C15.791776,17.3781731 15.6711632,17.4203075 15.5462384,17.4474362 C15.4211904,17.4762157 15.3016618,17.5146541 15.1710698,17.5348342 L14.7791952,17.5955226 C14.6552314,17.6090253 14.5397437,17.6132387 14.4195251,17.6199408 L14.3078074,17.6258051 L14.268063,17.6263472 L14.220089,17.6255341 L14.0281926,17.6214438 C13.7724294,17.6117603 13.5169373,17.5844838 13.2645498,17.537865 C13.0120144,17.4919114 12.7624605,17.4283648 12.5186723,17.3464368 C12.0315395,17.1799443 11.5741718,16.932608 11.1544048,16.636312 C10.947281,16.4842832 10.7442227,16.3250102 10.562823,16.1421814 C10.4649037,16.0486234 10.3726515,15.9493981 10.2839229,15.8471421 C10.1814698,15.7645488 10.0507546,15.6017523 10.0306237,15.5388957 L10.0305744,15.5387232 C9.92735744,15.3900208 9.95152928,15.1835622 10.0912134,15.064009 C10.183712,14.9848653 10.3049901,14.9625414 10.4134554,14.9935878 C10.41964,14.9940806 10.426687,14.9948691 10.4346458,14.9959533 L10.7013984,15.0126099 C10.7980118,15.0202483 10.9246861,15.0138419 11.0350486,15.0154682 C11.2634614,15.0089139 11.4919974,14.9957069 11.720016,14.9666563 L12.0602698,14.9110192 L12.3971478,14.8328858 C12.6188093,14.769216 12.842368,14.7059405 13.0590522,14.6198976 C13.1661869,14.5747571 13.2772147,14.5363187 13.3813926,14.4832688 C13.4871722,14.433225 13.5939126,14.3841421 13.6961686,14.3263366 C13.9057072,14.2194483 14.1090611,14.0971354 14.3039142,13.9609008 C14.4037555,13.895728 14.4968947,13.8216848 14.5935082,13.7507709 C14.6920189,13.681631 14.7797373,13.5999741 14.873665,13.5238858 C15.0539558,13.3669536 15.2331872,13.1997712 15.4020451,13.0216979 C15.2730794,13.2297827 15.1406147,13.4378429 14.982007,13.6306509 C14.9015574,13.7244554 14.826233,13.824543 14.7391798,13.9130253 C14.6545661,14.0043904 14.5696566,14.0964208 14.476,14.1786445 C14.294896,14.3505824 14.1011024,14.5106685 13.896689,14.657104 C13.7963056,14.7335866 13.6882346,14.797552 13.5816419,14.865041 C13.4762566,14.9349939 13.3630605,14.99036 13.2528458,15.0526499 C13.0291638,15.1703306 12.7980406,15.2762579 12.5589834,15.3627197 L12.1960854,15.4801293 L11.8256477,15.5735395 C11.6081997,15.6184582 11.3885834,15.657759 11.1668234,15.6792205 L11.166848,15.6792944 Z" stroke="none" fill="#231815"></path>
                <path d="M13.7829261,3.64829696 C13.7829261,5.3883984 12.4216646,6.79908768 10.7423747,6.79908768 C9.063208,6.79908768 7.70194656,5.38842304 7.70194656,3.64829696 C7.70194656,1.90804768 9.063208,0.4973584 10.7423747,0.4973584 C12.4216646,0.4973584 13.7829261,1.90802304 13.7829261,3.64829696 Z" stroke="none" fill="#231815"></path>
                <path d="M13.7829261,4.0373872 C13.7829261,5.56267712 12.5897587,6.7991616 11.1178883,6.7991616 C9.64601792,6.7991616 8.45285056,5.56267712 8.45285056,4.0373872 C8.45285056,2.51209728 9.64601792,1.2756128 11.1178883,1.2756128 C12.5897587,1.2756128 13.7829261,2.51209728 13.7829261,4.0373872 Z" stroke="none" fill="#E9E9E9"></path>
                <path d="M13.6871997,4.00160992 C13.6871997,5.35454304 12.5877136,6.45119552 11.231528,6.45119552 C9.8753424,6.45119552 8.77585632,5.35456768 8.77585632,4.00160992 C8.77585632,2.6486768 9.8753424,1.55187648 11.231528,1.55187648 C12.5877136,1.55187648 13.6871997,2.64865216 13.6871997,4.00160992 Z" stroke="none" fill="#FFFFFF"></path>
                <path d="M13.2746029,4.00160992 C13.2746029,5.12718976 12.3598429,6.03965824 11.2314787,6.03965824 C10.1032378,6.03965824 9.18847776,5.12718976 9.18847776,4.00160992 C9.18847776,2.87603008 10.1032378,1.9635616 11.2314787,1.9635616 C12.3598675,1.9635616 13.2746029,2.87603008 13.2746029,4.00160992 Z" stroke="none" fill="#231815"></path>
                <path d="M13.5803606,4.16100608 C13.5803606,4.75229216 13.0997328,5.23183584 12.5068698,5.23183584 C11.9141299,5.23183584 11.4335021,4.75229216 11.4335021,4.16100608 C11.4335021,3.56957216 11.9141299,3.09017632 12.5068698,3.09017632 C13.0997328,3.09017632 13.5803606,3.56957216 13.5803606,4.16100608 Z" stroke="none" fill="#FFFFFF"></path>
                <path d="M10.2322282,3.3753104 C10.2322282,3.70588064 9.96357824,3.97401312 9.63207168,3.97401312 C9.30068832,3.97401312 9.0319152,3.70588064 9.0319152,3.3753104 C9.0319152,3.04474016 9.30071296,2.77660768 9.63207168,2.77660768 C9.96357824,2.77660768 10.2322282,3.04474016 10.2322282,3.3753104 Z" stroke="none" fill="#FFFFFF"></path>
            </g>
        </g>
    </g>
</svg>
