<svg width="44" height="44" xmlns="http://www.w3.org/2000/svg" xmlns:xlink="http://www.w3.org/1999/xlink">
    <defs>
        <circle id="a" cx="22" cy="22" r="22"/>
    </defs>
    <g fill="none" fill-rule="evenodd">
        <mask id="b" fill="#fff">
            <use xlink:href="#a"/>
        </mask>
        <use fill="#FFF" xlink:href="#a"/>
        <g mask="url(#b)" fill-rule="nonzero">
            <path d="M35.214 14.338a.303.303 0 00.194-.466l-.317-.474c-.835-1.254-1.89-2.187-3.135-2.77a7.573 7.573 0 00-3.242-.703c-1.041 0-1.947.197-2.527.409-.5-.13-1.666-.38-3.195-.38-1.422 0-2.802.215-4.104.638a14.005 14.005 0 00-4.388 2.343 14.16 14.16 0 00-2.742 2.901c-1.337 1.882-1.805 3.483-1.824 3.55l-.047.163a.446.446 0 00.178.494l.14.094c1.513 1.017 3.457 1.601 5.335 1.601 1.214 0 2.4-.233 3.525-.691a9.92 9.92 0 005.086-4.578c.02.63-.032 1.368-.228 2.175-.399 1.644-1.24 3.02-2.5 4.088-.953.81-1.803 1.131-1.812 1.134l-.24.088-.12.227c-.135.256-.785 1.595-.28 2.859.158.393.526.627.984.627.435 0 .92-.204 1.315-.424.208.24.37.397.508.513-.044.548-.373.828-.75 1.151-.305.261-.688.336-1.073.336-.693-1.092-1.708-1.372-2.966-1.372a3.48 3.48 0 00-1.481.33c-.536.249-.51 1.029.04 1.242.015.006 1.607.642 2.55 1.944.911 1.258.384 2.546.347 2.631l-.351.743c-.096.203.082.43.298.38l.802-.183a4.684 4.684 0 001.993-1.03 4.768 4.768 0 001.475-2.39 10.959 10.959 0 004.432-1.749 11.149 11.149 0 003.356-3.608 11.576 11.576 0 001.52-4.848 11.495 11.495 0 00-.643-4.819c1.456-1.699 3.313-2.07 3.332-2.075l.555-.101z" fill="#231815"/>
            <path d="M22.113 30.942c7.119-.865 10.981-8.254 8.453-14.543 1.67-2.194 3.972-2.615 3.972-2.615-2.712-4.075-7.098-3.264-8.314-2.732-.565-.17-3.65-.943-7.131.191-6.758 2.201-8.519 8.34-8.519 8.34 1.932 1.3 5.088 2.132 8.242.846 4.758-1.94 5.544-6.398 5.544-6.398s.884 2.01.21 4.782c-1.057 4.357-4.731 5.696-4.731 5.696-.179.337-.614 1.376-.25 2.285.18.45 1.07.1 1.825-.426.616.796.871.945 1.037 1.064.033.89-.308 1.5-.916 2.02a3.76 3.76 0 01-1.696.834c-.73-1.583-2.568-2.156-4.052-1.465 0 0 1.771.687 2.849 2.175 1.18 1.63.416 3.311.416 3.311a4.087 4.087 0 003.06-3.365z" fill="#F0F1F2"/>
            <path d="M19.774 11.044c3.195-.836 5.922-.15 6.45.008.476-.208 1.434-.458 2.588-.443-1.058.094-1.673.389-2.128.57a6.09 6.09 0 01-.063.025l-.002.015c.97.626 1.577 1.524 1.577 1.524-1.956-2.489-7.114-1.551-7.94-1.317a3.773 3.773 0 00-.482-.382zm14.293 2.867a7.257 7.257 0 00-3.501 2.488c.762 1.897.944 3.894.63 5.781a7.378 7.378 0 01-.16.468c.425-3.779-.85-6.104-2.036-8.26.887 1.042 1.053 1.375 1.053 1.375 1.528-1.561 4.15-1.95 4.15-1.95l-.136.098z" fill="#BCBCBC"/>
            <path d="M24.445 18.902c.593-1.996-.165-3.37-.165-3.37-.575 2.18-1.647 3.788-3.944 5.006-1.663.881-4.55 1.039-4.55 1.039l3.92 2.159c2.4-.553 4.004-2.36 4.74-4.834z" fill="#231815"/>
            <path d="M24.051 15.849c.311 1.298.117 2.227.004 2.444-.155.297-.748-.117-.748-.117s.243 1.98.006 2.219c-.237.239-1.426-.654-1.426-.654s.552 2.1.158 2.366c-.394.265-2.264-1.203-2.264-1.203s.62 2.398.234 2.506c-.346.097-.887-.065-1.469-.336l-.907-.482a21.296 21.296 0 01-1.595-1.046c.747-.043 2.55-.257 4.138-1.285 2.109-1.366 3.465-3.028 3.87-4.412z" fill="#FFF"/>
            <path d="M19.91 22.408c2.406 1.502 3.09 4.126 1.723 6.03-1.367 1.906-4.046 2.058-6.201.208-1.939-1.665-2.821-4.437-1.693-6.01 1.129-1.571 4.007-1.58 6.17-.228z" stroke="#231815" stroke-width=".87" fill="#2D0A03"/>
            <path d="M22.719 25.322c-.438-1.475-1.613-2.81-3.145-3.57-2.484-1.232-5.31-.685-6.432 1.248-1.1 1.893-.18 4.626 2.092 6.223 1.333.936 2.932 1.349 4.34 1.132.1-.015.2-.033.297-.055 1.112-.247 1.985-.868 2.523-1.796.542-.932.657-2.062.325-3.182z" fill="#231815"/>
            <path d="M19.286 22.12c2.537 1.26 3.786 4.04 2.606 6.07-1.18 2.03-4.146 2.208-6.468.577-2.088-1.467-2.916-3.905-1.943-5.58.973-1.675 3.522-2.2 5.805-1.066z" fill="#F8C100"/>
            <path d="M18.635 21.74s-4.106.928-4.328 6.05l.166.225s-.188-1.583 1.61-3.91c1.43-1.852 2.632-2.295 2.632-2.295l-.08-.07z" fill="#231815"/>
            <path d="M12.525 27.303c-2.664-1.354-4.379-3.144-3.927-4.205.5-1.176 3.475-1.011 6.642.369.257.112.506.228.749.348.08-.115.163-.23.253-.342a19.23 19.23 0 00-.897-.419C11.747 21.486 8.37 21.3 7.8 22.636c-.401.942.701 2.39 2.647 3.711.767.52 1.609.743 2.078.956z" fill="#231815"/>
            <path d="M23.102 22.922a5.795 5.795 0 01-5.076 2.323l-.002-.003a5.07 5.07 0 003.959 1.905c2.445 0 4.488-1.74 4.987-4.063l-3.868-.162z" fill="#F0F1F2"/>
            <path d="M18.867 25.58v.004a4.69 4.69 0 001.602.916 4.596 4.596 0 001.294.259l.217.008h-.013.03l.09-.004.355-.011c.21-.023.422-.042.643-.093.11-.018.216-.05.323-.081.107-.031.215-.059.318-.103.103-.043.212-.073.313-.121l.306-.142c.196-.11.394-.22.577-.355.095-.062.184-.133.273-.204.09-.07.18-.14.261-.222.174-.152.325-.325.48-.497.145-.181.29-.364.414-.564.068-.097.122-.201.18-.304.06-.102.119-.206.165-.316a6.77 6.77 0 00.275-.666c-.036.238-.064.484-.134.72-.028.12-.067.236-.11.352-.04.117-.079.235-.135.346a5.914 5.914 0 01-.348.66 5.71 5.71 0 01-.453.6c-.079.099-.168.187-.258.276a2.62 2.62 0 01-.277.257c-.19.167-.4.309-.611.45-.22.128-.44.258-.675.354-.115.056-.236.095-.357.136-.12.043-.24.085-.366.112-.125.03-.244.068-.375.088l-.392.06c-.124.014-.24.018-.36.025l-.111.006h-.088l-.192-.005a5.312 5.312 0 01-1.51-.275 5.42 5.42 0 01-1.955-1.204 4.344 4.344 0 01-.28-.295c-.102-.082-.232-.245-.252-.308a.358.358 0 01.06-.475.347.347 0 01.322-.07c.007 0 .014 0 .022.002l.266.017c.097.007.224 0 .334.002a7 7 0 00.685-.048l.34-.056.337-.078c.222-.064.445-.127.662-.213.107-.045.218-.084.322-.137.106-.05.213-.099.315-.157a5.15 5.15 0 00.608-.365c.1-.065.193-.14.29-.21.098-.07.186-.151.28-.227.18-.157.36-.324.528-.502a5.521 5.521 0 01-.42.609c-.08.093-.156.194-.243.282a5.46 5.46 0 01-.842.744c-.1.077-.209.14-.315.208-.106.07-.219.125-.33.188a5.543 5.543 0 01-.693.31l-.363.117-.37.094a6.228 6.228 0 01-.66.105zm2.616-12.032c0 1.74-1.361 3.151-3.04 3.151-1.68 0-3.041-1.41-3.041-3.15 0-1.741 1.361-3.152 3.04-3.152 1.68 0 3.04 1.411 3.04 3.151z" fill="#231815"/>
            <path d="M21.483 13.937c0 1.526-1.193 2.762-2.665 2.762s-2.665-1.236-2.665-2.762c0-1.525 1.193-2.761 2.665-2.761s2.665 1.236 2.665 2.761z" fill="#E9E9E9"/>
            <path d="M21.387 13.902c0 1.353-1.1 2.45-2.455 2.45a2.453 2.453 0 01-2.456-2.45c0-1.353 1.1-2.45 2.456-2.45a2.453 2.453 0 012.455 2.45z" fill="#FFF"/>
            <path d="M20.975 13.902a2.04 2.04 0 01-2.044 2.038 2.04 2.04 0 01-2.043-2.038 2.04 2.04 0 012.043-2.038 2.04 2.04 0 012.044 2.038z" fill="#231815"/>
            <path d="M21.28 14.061c0 .591-.48 1.07-1.073 1.07a1.071 1.071 0 110-2.14c.593 0 1.073.479 1.073 1.07zm-3.348-.786a.6.6 0 11-1.199-.001.6.6 0 011.2.001z" fill="#FFF"/>
        </g>
    </g>
</svg>
