<?xml version="1.0" encoding="UTF-8"?>
<svg width="17px" height="17px" viewBox="0 0 17 17" version="1.1" xmlns="http://www.w3.org/2000/svg" xmlns:xlink="http://www.w3.org/1999/xlink">
    <!-- Generator: Sketch 57.1 (83088) - https://sketch.com -->
    <desc>Created with Sketch.</desc>
    <g id="Page-1" stroke="none" stroke-width="1" fill="none" fill-rule="evenodd">
        <g id="download-/-retry-copy">
            <g id="编组-2-copy">
                <circle id="Background" fill="#ACADB7" cx="8.5" cy="8.5" r="8.5"></circle>
                <path d="M8.5274482,3.3318232 C8.8461982,3.3318232 9.09854195,3.58859403 9.09854195,3.9161982 C9.09854195,4.0755732 9.03656278,4.19510445 8.93916695,4.29692737 L8.93916695,4.29692737 L8.09359403,5.12479195 C8.23083362,5.10708362 8.36364612,5.10265653 8.5008857,5.10265653 C10.7321357,5.10265653 12.502969,6.87791695 12.502969,9.11802112 C12.502969,11.3536982 10.696719,13.1643753 8.46104195,13.1643753 C6.22536487,13.1643753 4.41911487,11.3536982 4.41911487,9.11802112 C4.41911487,8.75942737 4.66703153,8.5115107 5.01677112,8.5115107 C5.36208362,8.5115107 5.59671903,8.75942737 5.59671903,9.11802112 C5.59671903,10.702917 6.87614612,11.977917 8.46104195,11.977917 C10.0459378,11.977917 11.3165107,10.702917 11.3165107,9.11802112 C11.3165107,7.49770862 10.0769274,6.23598987 8.5008857,6.23598987 C8.30166695,6.23598987 8.11572945,6.24484403 7.94750028,6.26255237 L7.94750028,6.26255237 L8.93473987,7.2365107 C9.03656278,7.33833362 9.09854195,7.45343778 9.09854195,7.61281278 C9.09854195,7.93598987 8.8461982,8.18833362 8.5274482,8.18833362 C8.36364612,8.18833362 8.23083362,8.13520862 8.1290107,8.02895862 L8.1290107,8.02895862 L6.3227607,6.19614612 C6.19437528,6.07218778 6.1368232,5.93052112 6.1368232,5.76671903 C6.1368232,5.61177112 6.19880237,5.4568232 6.3227607,5.33729195 L6.3227607,5.33729195 L8.1290107,3.50005237 C8.2352607,3.3849482 8.3680732,3.3318232 8.5274482,3.3318232 Z" id="Combined-Shape" fill="#E8E8ED"></path>
            </g>
        </g>
    </g>
</svg>
