<?xml version="1.0" encoding="UTF-8"?>
<svg width="23px" height="23px" viewBox="0 0 23 23" version="1.1" xmlns="http://www.w3.org/2000/svg" xmlns:xlink="http://www.w3.org/1999/xlink">
    <!-- Generator: Sketch 57.1 (83088) - https://sketch.com -->
    <desc>Created with Sketch.</desc>
    <g id="download_hover" stroke="none" stroke-width="1" fill="none" fill-rule="evenodd">
        <rect id="Rectangle" stroke-opacity="0.2" stroke="#7E808F" stroke-width="0.6" fill="#F1F2F5" x="0" y="0" width="23" height="23" rx="3.6"></rect>
        <path d="M11.504507,15.51398 C11.6847887,15.51398 11.8380282,15.4576921 12.0183099,15.2700656 L15.0650704,12.2023729 C15.2002817,12.0616531 15.2814085,11.9115519 15.2814085,11.7145441 C15.2814085,11.3299099 14.9929577,11.0578515 14.6233803,11.0578515 C14.4521127,11.0578515 14.2628169,11.1329021 14.1366197,11.2830032 L12.7664789,12.7933963 L12.1625352,13.4594702 L12.2166197,12.0522718 L12.2166197,3.23174321 C12.2166197,2.83772764 11.8921127,2.5 11.504507,2.5 C11.1169014,2.5 10.7833803,2.83772764 10.7833803,3.23174321 L10.7833803,12.0522718 L10.8374648,13.4594702 L10.2335211,12.7933963 L8.86338028,11.2830032 C8.7371831,11.1329021 8.53887324,11.0578515 8.36760563,11.0578515 C7.98901408,11.0578515 7.71859155,11.3299099 7.71859155,11.7145441 C7.71859155,11.9115519 7.79971831,12.0616531 7.93492958,12.2023729 L10.9816901,15.2700656 C11.1619718,15.4576921 11.3152113,15.51398 11.504507,15.51398 Z" id="Path" fill="#717382" fill-rule="nonzero"></path>
        <path d="M16.6695775,19.5 C18.5535211,19.5 19.5,18.5243424 19.5,16.5917898 L19.5,8.9071226 C19.5,6.97457002 18.5535211,5.99891241 16.6695775,5.99891241 L14.1546479,5.99891241 L14.1546479,7.50930544 L16.6425352,7.50930544 C17.5349296,7.50930544 18.0487324,8.0158969 18.0487324,8.99155451 L18.0487324,16.5073579 C18.0487324,17.4830155 17.5349296,17.989607 16.6425352,17.989607 L6.3484507,17.989607 C5.44704225,17.989607 4.95126761,17.4830155 4.95126761,16.5073579 L4.95126761,8.99155451 C4.95126761,8.0158969 5.44704225,7.50930544 6.3484507,7.50930544 L8.84535211,7.50930544 L8.84535211,5.99891241 L6.33042254,5.99891241 C4.44647887,5.99891241 3.5,6.97457002 3.5,8.9071226 L3.5,16.5917898 C3.5,18.5243424 4.44647887,19.5 6.33042254,19.5 L16.6695775,19.5 Z" id="Path" fill="#717382" fill-rule="nonzero"></path>
    </g>
</svg>
