<svg width="15px" height="13px" viewBox="0 0 15 13" version="1.1" xmlns="http://www.w3.org/2000/svg" xmlns:xlink="http://www.w3.org/1999/xlink">
    <g id="Page-1" stroke="none" stroke-width="1" fill="none" fill-rule="evenodd">
        <g id="textInput__more-select" transform="translate(-11.000000, -12.000000)" fill="#717382" fill-rule="nonzero">
            <path d="M12.8376953,12.2470703 L14.7585937,12.2470703 C15.3430664,12.2470703 15.672832,12.3467383 16.0518779,12.630792 L16.1804687,12.7324219 L16.5632812,13.046875 C16.8563721,13.2921143 17.0971252,13.4065094 17.4549839,13.4312763 L17.6160156,13.4365234 L23.8367187,13.4365234 C25.1417614,13.4365234 25.8364,14.0656133 25.8968525,15.2940655 L25.9011719,15.4736328 L25.9011719,22.2822266 C25.9011719,23.5742188 25.2658534,24.2620355 24.1795268,24.3218949 L24.0212891,24.3261719 L13.0632812,24.3261719 C11.7647638,24.3261719 11.0641932,23.697082 11.0031879,22.4626843 L10.9988281,22.2822266 L10.9988281,14.2363281 C10.9988281,12.9733073 11.6126674,12.311725 12.6750021,12.2515811 L12.8376953,12.2470703 L14.7585937,12.2470703 Z M24.7732422,16.9638672 L12.1267578,16.9638672 L12.1267578,22.2070312 C12.1267578,22.8164062 12.4273647,23.1487514 12.9738461,23.1931202 L13.1042969,23.1982422 L23.7957031,23.1982422 C24.3733398,23.1982422 24.7211007,22.9094238 24.7678337,22.3482068 L24.7732422,22.2138672 L24.7732422,16.9638672 Z M14.4646484,13.3681641 L13.0632812,13.3681641 C12.4617187,13.3681641 12.1267578,13.6894531 12.1267578,14.3115234 L12.1267578,14.3115234 L12.1267578,15.9384766 L24.7732422,15.9384766 L24.7732422,15.5488281 C24.7732422,14.8925781 24.4177734,14.5576172 23.7957031,14.5576172 L23.7957031,14.5576172 L17.3220703,14.5576172 C16.6726562,14.5576172 16.3240234,14.4345703 15.8933594,14.0791016 L15.8933594,14.0791016 L15.5105469,13.7578125 C15.16875,13.4707031 14.9089844,13.3681641 14.4646484,13.3681641 L14.4646484,13.3681641 Z" id="Combined-Shape"></path>
        </g>
    </g>
</svg>
