<?xml version="1.0" encoding="UTF-8"?>
<svg width="30px" height="30px" viewBox="0 0 30 30" version="1.1" xmlns="http://www.w3.org/2000/svg" xmlns:xlink="http://www.w3.org/1999/xlink">
    <!-- Generator: Sketch 57.1 (83088) - https://sketch.com -->
    <title>menuBar/__icon/--forward</title>
    <desc>Created with Sketch.</desc>
    <g id="menuBar/__icon/--forward" stroke="none" stroke-width="1" fill="none" fill-rule="evenodd">
        <path d="M20.7804038,15.5344359 L15.0657883,21.2774637 C14.7715239,21.5731912 14.2977581,21.5746698 14.0020224,21.2789423 C13.7092293,20.9846935 13.7107006,20.5041363 14.0020224,20.2113661 L18.4277596,15.7562315 L7.75037433,15.7562315 C7.33693279,15.7562315 7,15.4205808 7,14.9991691 C7,14.5807148 7.34134675,14.2421068 7.75037433,14.2421068 C9.06558675,14.2421068 10.0519961,14.2421068 10.7096023,14.2421068 C12.4247483,14.2421068 14.9974674,14.2421068 18.4277596,14.2421068 L13.9946658,9.78697219 C13.7018726,9.49272335 13.7004013,9.01660209 13.9976084,8.71939597 C14.2933442,8.42514712 14.7744665,8.4281044 15.064317,8.72087461 L20.7804038,14.465381 C21.0746682,14.7596299 21.0717256,15.2416657 20.7804038,15.5344359 Z" id="icon" fill="#7E808F" fill-rule="nonzero"></path>
    </g>
</svg>