<svg width="15px" height="14px" viewBox="0 0 15 14" version="1.1" xmlns="http://www.w3.org/2000/svg" xmlns:xlink="http://www.w3.org/1999/xlink">
    <g id="页面1" stroke="none" stroke-width="1" fill="none" fill-rule="evenodd" opacity="0.45">
        <g id="browseing" transform="translate(-116.000000, -11.000000)" fill="#FFFFFF">
            <g id="back" transform="translate(123.500000, 18.000000) scale(-1, 1) translate(-123.500000, -18.000000) translate(116.000000, 11.000000)">
                <path d="M2.5034271,7.75214251 L6.53829467,12.6741045 C6.77841425,12.9670161 6.76245981,13.3929889 6.50110221,13.6671181 L6.39621564,13.7771301 C6.12143551,14.0653377 5.66504376,14.0762228 5.37683614,13.8014427 C5.35550942,13.7811096 5.33544922,13.7594883 5.31676839,13.7367003 L0.362980511,7.69378681 C0.345414441,7.67860066 0.32841789,7.6624305 0.312064596,7.64527808 L0.207178032,7.53526609 C0.0653333835,7.38649001 -0.00422832962,7.19298876 0.000198711274,7.00030653 C-0.00422832963,6.80762431 0.0653333835,6.61412306 0.207178032,6.46534698 L0.312064596,6.35533499 C0.32841789,6.33818257 0.345414441,6.32201241 0.362980511,6.30682626 L5.31676839,0.263912758 C5.33544922,0.241124813 5.35550942,0.219503464 5.37683614,0.199170357 C5.66504376,-0.0756097699 6.12143551,-0.064724629 6.39621564,0.223482999 L6.50110221,0.333494986 C6.76245981,0.607624187 6.77841425,1.03359697 6.53829467,1.32650856 L2.52743897,6.21917951 L14.2381711,6.21917951 C14.6614871,6.21917951 15.0046526,6.56234497 15.0046526,6.98566101 C15.0046526,7.40897705 14.6614871,7.75214251 14.2381711,7.75214251 L2.5034271,7.75214251 Z" id="形状结合"></path>
            </g>
        </g>
    </g>
</svg>
