<svg width="14px" height="13px" viewBox="0 0 14 13" version="1.1" xmlns="http://www.w3.org/2000/svg" xmlns:xlink="http://www.w3.org/1999/xlink">
    <g id="2.0" stroke="none" stroke-width="1" fill="none" fill-rule="evenodd">
        <g id="收起侧边栏" transform="translate(-206.000000, -359.000000)" fill="#000" fill-rule="nonzero">
            <g id="可点状态颜色" transform="translate(213.000000, 365.500000) scale(-1, -1) translate(-213.000000, -365.500000) translate(206.000000, 359.000000)">
                <path d="M13.7804038,7.0344359 L8.06578832,12.7774637 C7.77152388,13.0731912 7.29775813,13.0746698 7.00202237,12.7789423 C6.70922926,12.4846935 6.71070058,12.0041363 7.00202237,11.7113661 L11.4277596,7.25623151 L0.750374315,7.25623151 C0.336932781,7.25623151 -1.12367911e-08,6.92058081 -1.12367911e-08,6.49916915 C-1.12367911e-08,6.08071476 0.341346743,5.74210678 0.750374315,5.74210678 C2.06558674,5.74210678 3.05199606,5.74210678 3.70960227,5.74210678 C5.42474833,5.74210678 7.99746743,5.74210678 11.4277596,5.74210678 L6.99466575,1.28697219 C6.70187264,0.992723348 6.70040131,0.516602086 6.9976084,0.219395966 C7.29334416,-0.0748528778 7.77446652,-0.0718956012 8.06431699,0.220874611 L13.7804038,5.96538103 C14.0746682,6.25962987 14.0717256,6.74166567 13.7804038,7.0344359 Z" id="icon--backward" transform="translate(7.000000, 6.500000) scale(-1, 1) translate(-7.000000, -6.500000) "></path>
            </g>
        </g>
    </g>
</svg>
