<svg width="14px" height="14px" viewBox="0 0 14 14" version="1.1" xmlns="http://www.w3.org/2000/svg" xmlns:xlink="http://www.w3.org/1999/xlink">
    <g id="Page-1" stroke="none" stroke-width="1" fill="none" fill-rule="evenodd">
        <g id="报错1" transform="translate(-180.000000, -13.000000)" fill="#FA6400" fill-rule="nonzero">
            <g id="menuBar">
                <g id="urlBar" transform="translate(113.000000, 0.000000)">
                    <g id="Group" transform="translate(67.000000, 13.000000)">
                        <g id="exclamation-button">
                            <path d="M6.99314583,8.82313542 C7.49648958,8.82313542 7.90460417,8.41502083 7.90460417,7.91167708 L7.90460417,3.75601042 C7.90460417,3.25259375 7.49648958,2.84455208 6.99314583,2.84455208 C6.48980208,2.84455208 6.0816875,3.25259375 6.0816875,3.75601042 L6.0816875,7.91175 C6.0816875,8.41509375 6.48980208,8.82313542 6.99314583,8.82313542 Z" id="Path"></path>
                            <path d="M6.99336458,9.31926042 C6.75346875,9.31926042 6.517875,9.41623958 6.34870833,9.58613542 C6.17888542,9.75530208 6.08190625,9.99009375 6.08190625,10.2299896 C6.08190625,10.4698854 6.17888542,10.7054063 6.34870833,10.8745729 C6.517875,11.0444688 6.75346875,11.1414479 6.99336458,11.1414479 C7.23326042,11.1414479 7.46805208,11.0444688 7.63794792,10.8745729 C7.80704167,10.7054063 7.90482292,10.4698854 7.90482292,10.2299896 C7.90482292,9.99009375 7.80704167,9.75530208 7.63794792,9.58613542 C7.46805208,9.41623958 7.23326042,9.31926042 6.99336458,9.31926042 Z" id="Path"></path>
                            <path d="M6.99314583,0 C3.13716667,0 0,3.13709375 0,6.99314583 C0,10.8491979 3.13709375,13.9862917 6.99314583,13.9862917 C10.8491979,13.9862917 13.9862188,10.8491979 13.9862188,6.99314583 C13.9862188,3.13709375 10.8491979,0 6.99314583,0 Z M6.99314583,12.8925417 C3.7401875,12.8925417 1.09375,10.2461042 1.09375,6.99314583 C1.09375,3.7401875 3.7401875,1.09375 6.99314583,1.09375 C10.2460312,1.09375 12.8924688,3.7401875 12.8924688,6.99314583 C12.8924688,10.2461042 10.2461042,12.8925417 6.99314583,12.8925417 Z" id="Shape"></path>
                        </g>
                    </g>
                </g>
            </g>
        </g>
    </g>
</svg>
