<?xml version="1.0" encoding="UTF-8"?>
<svg width="18px" height="16px" viewBox="0 0 18 16" version="1.1" xmlns="http://www.w3.org/2000/svg" xmlns:xlink="http://www.w3.org/1999/xlink">
    <!-- Generator: Sketch 52.4 (67378) - http://www.bohemiancoding.com/sketch -->
    <desc>Created with Sketch.</desc>
    <g id="Playing-View" stroke="none" stroke-width="1" fill="none" fill-rule="evenodd" opacity="1">
        <g id="Playing-View-/-@p3---1921" transform="translate(-1800.000000, -963.000000)" fill="#FFFFFF">
            <path d="M1809.60228,969.574557 C1810.05946,969.949204 1810.3138,970.455573 1810.3138,970.999521 C1810.3138,971.544427 1810.06302,972.050604 1809.60487,972.42506 L1802.73598,978.027514 C1802.44373,978.265839 1802.14126,978.392 1801.878,978.392 C1801.29867,978.392 1800.9058,977.802036 1800.9058,976.889576 L1800.9058,965.110232 C1800.9058,964.197389 1801.29867,963.608 1801.878,963.608 C1802.14126,963.608 1802.44405,963.733585 1802.73582,963.972294 L1809.60228,969.574557 Z M1814.39931,963.608 L1816.95515,963.608 C1817.25294,963.608 1817.49435,963.849412 1817.49435,964.147208 L1817.49435,977.834025 C1817.49435,978.142186 1817.24454,978.392 1816.93638,978.392 L1814.43616,978.392 C1814.11801,978.392 1813.8601,978.13409 1813.8601,977.815942 L1813.8601,964.147208 C1813.8601,963.849412 1814.10151,963.608 1814.39931,963.608 Z" id="Combined-Shape"></path>
        </g>
    </g>
</svg>
