<svg width="44" height="44" xmlns="http://www.w3.org/2000/svg" xmlns:xlink="http://www.w3.org/1999/xlink">
    <defs>
        <linearGradient x1="50%" y1="0%" x2="50%" y2="100%" id="b">
            <stop stop-color="#F21D33" offset="0%"/>
            <stop stop-color="#D71027" offset="100%"/>
        </linearGradient>
        <circle id="a" cx="22" cy="22" r="22"/>
        <path id="d" d="M0 0h19.975v35.828H0z"/>
    </defs>
    <g fill="none" fill-rule="evenodd">
        <mask id="c" fill="#fff">
            <use xlink:href="#a"/>
        </mask>
        <use fill="url(#b)" xlink:href="#a"/>
        <g mask="url(#c)">
            <g transform="translate(12 4)">
                <mask id="e" fill="#fff">
                    <use xlink:href="#d"/>
                </mask>
                <path d="M8.422 0c.019.147.025.248.046.347a9.558 9.558 0 01-.366 5.232c-.494 1.389-1.337 2.577-2.195 3.75-1.773 2.424-3.404 4.927-4.642 7.678C.045 19.72-.406 22.498.42 25.404c.845 2.974 2.657 5.301 4.95 7.298.025.022.075.018.223.05-1.915-2.077-2.907-4.435-2.866-7.179.04-2.738 1.06-5.065 3.067-7.102-.644 2.422-.164 4.433 1.753 5.89 2.106 1.604 4.299 1.419 6.503-.108 1.54 4.478.628 8.304-2.736 11.575.413-.23.794-.472 1.163-.731 2.376-1.673 4.501-3.594 5.926-6.173 1.411-2.556 1.957-5.291 1.291-8.154-.648-2.787-2.024-5.235-3.903-7.396-.046-.054-.104-.096-.194-.177.331.988.354 1.359.133 1.883a1.92 1.92 0 01-2.188 1.136c-.949-.205-1.582-1.035-1.507-2.089.092-1.297.232-2.592.375-3.885.147-1.326.303-2.646-.042-3.97-.636-2.434-2.024-4.406-3.75-6.176C8.58.06 8.518.046 8.422 0" fill="#FFF" mask="url(#e)"/>
            </g>
        </g>
    </g>
</svg>
