<?xml version="1.0" encoding="UTF-8"?>
<svg width="18px" height="14px" viewBox="0 0 18 14" version="1.1" xmlns="http://www.w3.org/2000/svg" xmlns:xlink="http://www.w3.org/1999/xlink">
    <!-- Generator: Sketch 55.2 (78181) - https://sketchapp.com -->
    <desc>Created with Sketch.</desc>
    <g id="画板" stroke="none" stroke-width="1" fill="none" fill-rule="evenodd" opacity="0.9">
        <path d="M15.9569324,11.507117 C16.0926913,11.3111647 16.1463718,11.0172768 16.1517924,10.9106438 L17.8086085,10.9084998 C17.8086085,11.2175373 17.7329622,11.7592377 17.534158,12.1489578 C17.4001588,12.4075711 17.1707321,12.6676002 16.9139189,12.8253652 C15.9666612,13.4096015 10.9878597,13.619247 10.105407,13.632212 C9.76071061,13.6365405 9.39837691,13.6393721 9.00289233,13.6379765 L8.98452687,13.6379765 C8.97805445,13.6379765 8.20797904,13.6365405 7.86401082,13.632212 C6.98046593,13.619247 2.00202845,13.4096015 1.05513484,12.8253652 C0.798321673,12.6676204 0.568530825,12.4075711 0.434875531,12.1489578 C0.235707289,11.7592579 0.160445284,11.2175373 0.160445284,10.9084998 L1.81760517,10.9106438 C1.82268197,11.0172768 1.8763423,11.3111647 2.01141345,11.507117 C2.22751108,11.8197547 2.63776086,11.9191467 3.01091562,11.9695708 C4.51971569,12.1684154 5.86102189,12.2721156 7.27475842,12.3124873 C7.83735258,12.3268884 8.97805447,12.3319045 8.98452689,12.3319045 C8.99067568,12.3319045 8.99641994,12.3326327 9.00289235,12.3326327 C9.56694281,12.3333608 10.1309933,12.3268884 10.6942954,12.3124873 C12.1080116,12.2721156 13.4493381,12.1684154 14.9577741,11.9695708 C15.3309288,11.9191467 15.7407943,11.8197547 15.9569324,11.507117 Z M0.285767373,10.3711076 C0.210121064,10.3711076 0.148167946,10.314919 0.148188166,10.2457653 L0.148188166,5.77587735 C0.148188166,5.70672367 0.210141285,5.65055528 0.285767373,5.65055528 L1.65844453,5.65055528 C1.7344347,5.65055528 1.79567989,5.70672367 1.79567989,5.77587735 L1.79567989,10.2450574 C1.79567989,10.314919 1.73443468,10.3711076 1.65844453,10.3711076 L0.285767373,10.3711076 Z M17.7138686,3.61049156 C17.790243,3.61049156 17.8518321,3.66665997 17.8518118,3.73581365 L17.8518118,10.2450574 C17.8518118,10.314919 17.7902228,10.3711076 17.7138686,10.3711076 L16.3415757,10.3711076 C16.2666778,10.3711076 16.2043606,10.314919 16.2043606,10.2450574 L16.2043606,3.73581363 C16.2043606,3.66665995 16.2666778,3.61049156 16.3415757,3.61049156 L17.7138686,3.61049156 Z M0.285767372,5.11459913 C0.210121064,5.11459913 0.148167946,5.05843074 0.148188161,4.98925682 L0.148188161,3.73581363 C0.148188161,3.66665995 0.210141284,3.61049156 0.285767372,3.61049156 L1.65844453,3.61049156 C1.7344347,3.61049156 1.79567989,3.66665995 1.79567989,3.73581363 L1.79567989,4.98925682 C1.79567989,5.05843074 1.73443468,5.11459913 1.65844453,5.11459913 L0.285767372,5.11459913 Z M2.01141347,2.4931915 C1.8763221,2.68843584 1.82266177,2.98232379 1.81760519,3.08893654 L0.160445304,3.09182891 C0.160445304,2.78279146 0.235687089,2.24036292 0.43487555,1.85064283 C0.568530845,1.59204975 0.798321692,1.33268809 1.05513486,1.17421513 C2.00204869,0.59074744 6.98046595,0.380394069 7.86401084,0.367408785 C8.20797906,0.36308035 8.97805447,0.361664519 8.98452689,0.361664519 L9.00289235,0.361664519 C9.39837695,0.361664519 9.76071065,0.36308035 10.105407,0.367408785 C10.9878597,0.380373829 15.9666613,0.59072722 16.9139189,1.17421513 C17.1707321,1.33270831 17.4001589,1.59204975 17.534158,1.85064283 C17.7329622,2.2403427 17.8086085,2.78279148 17.8086085,3.09182891 L16.1517925,3.08893654 C16.1463718,2.98234401 16.0926913,2.68843584 15.9569324,2.4931915 C15.7408145,2.18055378 15.3309288,2.08043366 14.9577741,2.03073768 C13.4493381,1.83120535 12.1080319,1.72744452 10.6942954,1.68856959 C10.1309933,1.67344032 9.56694283,1.66696791 9.00289237,1.66696791 C8.99641996,1.66696791 8.99067569,1.66840398 8.98452691,1.66840398 C8.97805449,1.66840398 7.8373526,1.67344032 7.27475844,1.68856959 C5.86102191,1.72744452 4.51971571,1.83118513 3.01091564,2.03073768 C2.63776088,2.08043366 2.2275111,2.18055378 2.01141347,2.4931915 Z M15.3356011,3.61190741 C15.4047548,3.61769212 15.4598512,3.66955231 15.4598512,3.73579341 C15.4598512,3.75021474 15.4562711,3.76461586 15.4508505,3.77760114 L15.4512146,3.77903721 L13.8285809,7.88655104 L13.8285809,10.240729 C13.8285809,10.2421246 13.8289652,10.2436011 13.8289652,10.2457653 C13.8289652,10.314919 13.7677605,10.3703795 13.6917501,10.3703795 L12.3255656,10.3703795 C12.2499597,10.3703795 12.1883505,10.314919 12.1883505,10.2457653 L12.1883504,7.88655104 L10.5650089,3.77903721 L10.5660607,3.77760114 C10.5613884,3.76461586 10.55706,3.75021474 10.55706,3.73579341 C10.55706,3.66955233 10.6121564,3.61769214 10.6806021,3.61190741 L10.6802583,3.61049158 L12.0892821,3.61049158 C12.1458146,3.61049158 12.1923148,3.64072988 12.2135524,3.68538952 L12.2139165,3.68538952 C12.2168088,3.68828186 12.2168088,3.69117423 12.2182449,3.69333844 C12.2182449,3.69333844 12.939312,5.75142377 13.0084859,6.10295664 C13.0772755,5.75142379 13.7994349,3.69333844 13.7994349,3.69333844 C13.8005068,3.69117425 13.8015788,3.68828188 13.8026711,3.68538952 C13.8246368,3.6407501 13.8718247,3.61049158 13.9280134,3.61049158 L15.3363293,3.61049158 L15.3356011,3.61190741 Z M8.37581681,3.61049156 L9.74699722,3.61049156 C9.82335145,3.61049156 9.88530459,3.66665997 9.88530459,3.73581365 L9.88530459,10.2450574 C9.88530459,10.3142111 9.82335147,10.3703795 9.74699724,10.3703795 L8.37581681,10.3703795 C8.29982666,10.3703795 8.23787354,10.314919 8.23787354,10.2450574 L8.23787354,3.73581363 C8.23787354,3.66665995 8.29982666,3.61049156 8.37581681,3.61049156 Z M7.21711352,10.4157673 C7.29346775,10.4157673 7.35542085,10.4719559 7.35542085,10.5418377 L7.35542085,11.044643 C7.35542085,11.1152732 7.29346773,11.1714618 7.2171135,11.1714618 L6.51042728,11.1714618 C6.13007196,11.164241 5.88047959,11.0979999 5.76415822,10.969745 C5.64168805,10.8458388 5.57686281,10.6916943 5.56642605,10.503691 C5.39316767,10.5317853 5.20983662,10.5461662 5.01643286,10.5461662 C4.75889155,10.5461662 4.50317062,10.5224205 4.24635745,10.4755966 C3.9837798,10.4381173 3.74893239,10.3776205 3.53823516,10.2926094 C3.05124686,10.128372 2.80345463,9.82867911 2.79192564,9.39573545 L2.79192564,4.58013977 C2.79192564,4.34889263 2.86686402,4.15943301 3.01777236,4.01246881 C3.14671493,3.85830405 3.31671686,3.73945439 3.52959853,3.65517146 C3.73707978,3.57303252 3.96867074,3.51253569 4.22619183,3.4714561 C4.48120484,3.44048965 4.73403343,3.42465246 4.98690247,3.42465246 C5.5361675,3.41815981 6.03648494,3.49524219 6.49283041,3.65515122 C6.70461986,3.74014208 6.87571401,3.85976034 7.00429253,4.01244857 C7.13392281,4.15939253 7.19840421,4.34958032 7.19840421,4.58153536 L7.19840421,9.39502748 C7.19840421,9.63274703 7.12455803,9.82865885 6.97724999,9.98211568 C6.82092101,10.1420247 6.61888065,10.2644949 6.36961188,10.3487778 C6.38043295,10.3934374 6.46505973,10.4150391 6.62209661,10.4150391 L7.21711352,10.4150391 L7.21711352,10.4157673 Z M5.54911235,9.30135955 C5.54911235,9.2905385 5.54911235,4.66509016 5.54911235,4.66509014 C5.54767629,4.54261997 5.5361473,4.38774729 5.41116908,4.31499334 C5.29769961,4.24871181 5.13453415,4.24151125 5.00379144,4.24151125 C4.82191668,4.24151125 4.68682529,4.26889763 4.59821394,4.3221939 C4.49378562,4.38414702 4.44117706,4.49866826 4.44117706,4.66509014 L4.44117706,9.30135955 C4.44117706,9.47063333 4.49378562,9.58373874 4.59821394,9.63990713 C4.68684553,9.70546052 4.82191668,9.73501112 5.00379144,9.72924663 C5.14859143,9.73428297 5.33228656,9.72779034 5.43889932,9.62406994 C5.52389016,9.54197146 5.54911235,9.41157258 5.54911235,9.30135955 Z" id="形状结合" fill="#FFFFFF" fill-rule="nonzero"></path>
    </g>
</svg>
