
<svg width="42px" height="42px" viewBox="0 0 42 42" version="1.1" xmlns="http://www.w3.org/2000/svg" xmlns:xlink="http://www.w3.org/1999/xlink">
    <defs>
        <circle id="path-1" cx="20" cy="20" r="20"></circle>
    </defs>
    <g id="页面-1" stroke="none" stroke-width="1" fill="none" fill-rule="evenodd" opacity="0.4">
        <g id="2" transform="translate(-17.000000, -101.000000)">
            <g id="sideBarItems" transform="translate(18.000000, 46.000000)">
                <g id="sideBarItem--iqiyi" transform="translate(0.000000, 56.000000)">
                    <mask id="mask-2" fill="white">
                        <use xlink:href="#path-1"></use>
                    </mask>
                    <circle stroke="#EBECF0" fill="#42BD56" stroke-width="1" cx="20" cy="20" r="20.5"></circle>
                    <g id="logo--iqiyi" stroke-width="1" fill-rule="evenodd" mask="url(#mask-2)" fill="#FFFFFF">
                        <g transform="translate(8.177778, 9.777778)" fill-rule="nonzero" id="形状">
                            <path d="M12.1007843,19.7177177 C8.93136388,19.7923624 5.76235941,19.5522521 2.64036834,19.0009177 C1.11716833,18.7177817 0.221168343,17.6891737 0.265968352,16.2582617 C0.265968352,15.8550617 0.415152352,15.6471897 0.833136352,15.6471897 L1.80305634,15.6471897 C2.16161589,15.5913355 2.50391702,15.8170797 2.59377635,16.1686617 C2.75245575,16.7008355 3.23273895,17.072627 3.78769633,17.0928857 C5.22129633,17.3168857 6.66744033,17.4960857 8.11492835,17.5856857 C10.4055188,17.7347583 12.7033779,17.7347583 14.9939683,17.5856857 C16.6515683,17.4665177 18.3064803,17.3168857 19.9479523,17.0637657 C20.3634144,17.0488524 20.720525,16.7646179 20.8282723,16.3630937 C20.9774563,15.7072217 21.4106723,15.6328537 21.9773923,15.6328537 C23.4396643,15.6476377 23.4844643,15.6924377 23.1112804,17.0785497 C22.9416594,17.9232722 22.313905,18.6022154 21.4850404,18.8373977 C20.0583739,19.2071252 18.5990513,19.4368417 17.1277924,19.5232857 C15.4588274,19.7148172 13.7777412,19.7795146 12.0989923,19.7168217 L12.1007843,19.7177177 Z M12.1308004,0.742677703 C14.9202733,0.64295077 17.7123012,0.847853716 20.4573283,1.35374972 C22.1436003,1.62254972 22.9491043,2.03918972 23.3075044,4.0368217 C23.3971043,4.5582937 23.1883364,4.78184571 22.6803043,4.76706171 C22.3667043,4.75227771 22.0235363,4.7074777 21.6947044,4.7074777 C21.3345326,4.74815209 20.9986168,4.51976743 20.9039843,4.1698777 C20.7119745,3.67750091 20.2526078,3.34052718 19.7252963,3.30523772 C16.3623322,2.80883541 12.960695,2.62422138 9.56376035,2.75374971 C7.60913634,2.8581337 5.63928035,3.12648572 3.68465634,3.32002172 C3.22216643,3.33764128 2.81567453,3.63172932 2.65425635,4.06549371 C2.59993404,4.29580613 2.45566494,4.4947833 2.25365131,4.61801162 C2.05163768,4.74123993 1.80869714,4.77846064 1.57905635,4.72136571 C1.34607399,4.69648633 1.11174433,4.68646073 0.877488352,4.6913497 C0.429488343,4.7061337 0.265520343,4.49736569 0.265520343,4.0502617 C0.233489855,2.85528609 1.05312288,1.80533674 2.22014435,1.5463897 C5.47712416,0.871528334 8.80486846,0.600686422 12.1281124,0.739989703 L12.1308004,0.742677703 Z M9.56420833,10.2676057 L9.56420833,13.0698457 C9.54982558,13.3963473 9.50482823,13.7207782 9.42980833,14.0388697 C9.34020834,14.4420697 8.71300833,14.8734937 9.59422434,15.1714137 C9.80299235,15.2462297 9.74340834,15.6781017 9.66859235,15.9612377 C9.58849772,16.1962252 9.34302803,16.3319509 9.10142435,16.2748377 C8.44510434,16.2300377 7.71262434,16.3196377 7.29598434,15.5893977 C7.17356617,15.4096621 6.95835011,15.3168033 6.74360034,15.3510617 C6.50918141,15.3509711 6.27500437,15.3360077 6.04248035,15.3062617 C3.87864035,14.9926617 3.62328035,14.6951897 3.62328035,12.5335897 L3.62328035,7.06261371 C3.62328035,6.09358971 3.99646434,5.61646971 4.92248034,5.31854972 C6.04659197,4.95781128 7.25842017,4.97875917 8.36939233,5.3781337 C9.16011234,5.6469337 9.50328033,6.15317369 9.53419235,7.09218171 C9.57899236,8.16738171 9.56420836,9.22376571 9.56420833,10.2671577 L9.56420833,10.2676057 Z M7.18980834,10.2528217 L7.18980834,7.24181372 C7.18980834,6.82427773 7.11499235,6.4963417 6.59307234,6.4963417 C6.10027235,6.4963417 5.93630435,6.73512569 5.93630435,7.19701371 L5.93630435,13.2190297 C5.93630435,13.6670297 6.07070435,14.0388697 6.57784033,14.0388697 C7.08497632,14.0388697 7.17457633,13.6213337 7.17457633,13.2042457 C7.18980834,12.2186457 7.17457633,11.2366297 7.18980834,10.2528217 Z M16.9933924,8.55355772 C17.2917604,7.61275772 17.5453283,6.88430972 17.7393124,6.1536217 C17.7699398,5.91166461 17.8960975,5.69201818 18.089662,5.5436468 C18.2832264,5.39527542 18.5281064,5.33051339 18.7697123,5.36379771 C20.5751524,5.36379771 20.3377123,5.4681817 19.8449123,6.82472571 C19.4121443,8.01730172 19.0541923,9.2246617 18.5457124,10.3724377 C18.0372324,11.5202137 18.2025443,12.7571417 18.1425124,13.9497177 C18.1277284,14.3529177 18.3069284,14.8739417 17.7993443,15.0526937 C17.2333643,15.1963618 16.638155,15.1756926 16.0835044,14.9931097 C15.9491044,14.9630937 15.9043043,14.7843417 15.8895203,14.6503897 L15.8895203,14.5159897 C16.3222883,11.5497817 14.8300003,9.03067769 13.9944803,6.36238971 C13.7108963,5.4829657 13.7556964,5.39336571 14.6664803,5.3767897 C14.8752484,5.3767897 15.0844643,5.3915737 15.2936803,5.3767897 C15.5027718,5.33146844 15.721274,5.37700021 15.8948603,5.50206435 C16.0684466,5.6271285 16.1808111,5.81997706 16.2040163,6.0326617 C16.4127844,6.80770169 16.6815844,7.56795771 16.9947364,8.55176571 L16.9933924,8.55355772 Z M23.3800804,10.2976217 L23.3800804,14.2924377 C23.3800804,14.8300377 23.2308964,15.0988377 22.6184803,15.1122777 C21.0813923,15.1422937 21.0813923,15.1570777 21.0813923,13.6069977 C21.0813923,11.1627097 21.0961763,8.70318973 21.0813923,6.2436697 C21.0813923,5.5716697 21.3201763,5.34766971 21.9773923,5.36424572 C23.3661923,5.39426173 23.3661923,5.36424572 23.3661923,6.7207897 L23.3800804,10.2976217 Z M12.9945443,10.3124057 C12.9945443,11.6837337 12.9797603,13.0698457 12.9945443,14.4411737 C12.9945443,14.9030617 12.8453603,15.0683737 12.3978083,15.0970457 C10.6819684,15.2162137 10.6819684,15.2314457 10.6819684,13.5169497 L10.6819684,6.3780697 C10.6819684,5.4372697 10.7415524,5.3794777 11.6675683,5.3646937 C11.8063525,5.37951282 11.9463201,5.37951282 12.0851044,5.3646937 C12.7571044,5.29032569 12.9954404,5.57346171 12.9811043,6.24411771 C12.9363043,7.60066172 12.9663203,8.95675772 12.9663203,10.2985177 L12.9945443,10.3124057 Z M2.44504033,11.6537177 L2.44504033,14.3815897 C2.44504033,14.8882777 2.23627233,15.0822617 1.74347233,15.0983897 C0.281200334,15.1579737 0.281200334,15.1727577 0.281200334,13.6822617 C0.281200334,12.1469657 0.295984334,10.6116697 0.281200334,9.06158972 C0.281200334,8.49531771 0.475184343,8.27176573 1.05713634,8.2717657 C2.72817635,8.2717657 2.45982433,8.16738171 2.45982433,9.6130777 L2.44504033,11.6537177 Z M2.44504033,6.4963417 C2.44504033,7.6441177 2.44504033,7.6441177 1.41464034,7.6441177 C0.265520343,7.6441177 0.265520343,7.6441177 0.280752352,6.47931771 C0.280752352,5.37634172 0.280752352,5.37634172 1.41464034,5.37634172 C2.42936034,5.37634172 2.42936034,5.37634172 2.44504033,6.4963417 L2.44504033,6.4963417 Z"></path>
                        </g>
                    </g>
                </g>
            </g>
        </g>
    </g>
</svg>