<svg width="44" height="44" xmlns="http://www.w3.org/2000/svg" xmlns:xlink="http://www.w3.org/1999/xlink">
    <defs>
        <circle id="a" cx="22" cy="22" r="22"/>
    </defs>
    <g fill="none" fill-rule="evenodd">
        <mask id="b" fill="#fff">
            <use xlink:href="#a"/>
        </mask>
        <use fill="#42BD56" xlink:href="#a"/>
        <path d="M22.306 32.445a52.704 52.704 0 01-10.406-.788c-1.676-.312-2.661-1.443-2.612-3.017 0-.444.164-.673.624-.673h1.067a.775.775 0 01.87.574c.174.585.703.994 1.313 1.017 1.577.246 3.168.443 4.76.542 2.52.164 5.047.164 7.567 0 1.823-.131 3.644-.296 5.45-.574.456-.017.85-.33.968-.771.164-.722.64-.803 1.264-.803 1.608.016 1.657.065 1.247 1.59a2.529 2.529 0 01-1.789 1.935c-1.57.406-3.174.66-4.793.754a36.64 36.64 0 01-5.532.213l.002.001zm.033-20.872a42.17 42.17 0 019.16.672c1.855.295 2.74.754 3.135 2.951.098.574-.131.82-.69.803-.345-.016-.723-.065-1.084-.065a.807.807 0 01-.87-.592 1.5 1.5 0 00-1.297-.95 60.566 60.566 0 00-11.177-.607c-2.15.115-4.317.41-6.467.623a1.26 1.26 0 00-1.134.82.974.974 0 01-1.182.721 6.074 6.074 0 00-.772-.033c-.493.016-.673-.213-.673-.705a2.746 2.746 0 012.15-2.754 44.525 44.525 0 0110.898-.887l.003.003zM19.516 22.05v3.082c-.016.36-.065.716-.148 1.066-.098.444-.788.918.181 1.246.23.082.164.557.082.869a.53.53 0 01-.624.345c-.722-.05-1.528.05-1.986-.754a.617.617 0 00-.607-.262 6.04 6.04 0 01-.772-.05c-2.38-.345-2.66-.672-2.66-3.05v-6.018c0-1.065.41-1.59 1.428-1.918a5.889 5.889 0 013.792.066c.87.295 1.247.852 1.281 1.885.05 1.183.033 2.345.033 3.492zm-2.612-.016v-3.312c0-.46-.082-.82-.656-.82-.542 0-.723.262-.723.77v6.624c0 .493.148.902.706.902.558 0 .657-.459.657-.918.016-1.084 0-2.164.016-3.246zm10.784-1.87c.328-1.034.607-1.836.82-2.64a1.004 1.004 0 011.134-.868c1.986 0 1.725.115 1.183 1.607-.476 1.312-.87 2.64-1.43 3.902-.558 1.263-.377 2.623-.443 3.935-.016.444.181 1.017-.377 1.214a3.378 3.378 0 01-1.888-.066c-.147-.033-.197-.23-.213-.377v-.148c.476-3.263-1.165-6.034-2.085-8.969-.311-.967-.262-1.066.74-1.084.23 0 .46.016.69 0a.83.83 0 011.001.721c.23.853.525 1.69.87 2.771l-.002.002zm7.026 1.919v4.394c0 .592-.164.887-.838.902-1.69.033-1.69.05-1.69-1.656 0-2.688.015-5.394 0-8.1 0-.739.262-.985.985-.967 1.527.033 1.527 0 1.527 1.492l.016 3.935zm-11.424.016c0 1.509-.017 3.033 0 4.542 0 .508-.165.69-.657.721-1.887.131-1.887.148-1.887-1.738v-7.853c0-1.034.065-1.098 1.084-1.114.153.016.307.016.46 0 .738-.082 1 .23.985.967-.05 1.492-.016 2.984-.016 4.46l.03.015zm-11.605 1.476v3c0 .558-.23.771-.772.789-1.608.065-1.608.082-1.608-1.558 0-1.689.016-3.378 0-5.083 0-.623.213-.869.853-.869 1.839 0 1.543-.114 1.543 1.476l-.016 2.245zm0-5.673c0 1.262 0 1.262-1.133 1.262-1.264 0-1.264 0-1.248-1.281 0-1.213 0-1.213 1.248-1.213 1.116 0 1.116 0 1.133 1.232z" fill="#FFF" fill-rule="nonzero" mask="url(#b)"/>
    </g>
</svg>
