<svg viewBox="0 0 60 50" xmlns="http://www.w3.org/2000/svg">
    <defs>
        <filter x="-15.3%" y="-18.1%" width="128.6%" height="138.9%" filterUnits="objectBoundingBox" id="a">
            <feOffset dy="1" in="SourceAlpha" result="shadowOffsetOuter1"/>
            <feGaussianBlur stdDeviation="1" in="shadowOffsetOuter1" result="shadowBlurOuter1"/>
            <feColorMatrix values="0 0 0 0 0 0 0 0 0 0 0 0 0 0 0 0 0 0 0.1 0" in="shadowBlurOuter1" result="shadowMatrixOuter1"/>
            <feMerge>
                <feMergeNode in="shadowMatrixOuter1"/>
                <feMergeNode in="SourceGraphic"/>
            </feMerge>
        </filter>
    </defs>
    <g filter="url(#a)" transform="translate(7 8)" fill="none" fill-rule="evenodd">
        <path d="M1 .5h44a1 1 0 011 1V5a1 1 0 01-1 1H1a1 1 0 01-1-1V1.5a1 1 0 011-1zm0 13h44a1 1 0 011 1V18a1 1 0 01-1 1H1a1 1 0 01-1-1v-3.5a1 1 0 011-1zm0 13h30a1 1 0 011 1V31a1 1 0 01-1 1H1a1 1 0 01-1-1v-3.5a1 1 0 011-1zm36.696-.6a1.3 1.3 0 011.9-1.153l8.04 4.181a1.5 1.5 0 010 2.662l-8.04 4.181a1.3 1.3 0 01-1.9-1.153V25.9z" fill-opacity=".9" fill="#FFF"/>
        <path d="M1 .5h44a1 1 0 011 1V5a1 1 0 01-1 1H1a1 1 0 01-1-1V1.5a1 1 0 011-1zm0 13h44a1 1 0 011 1V18a1 1 0 01-1 1H1a1 1 0 01-1-1v-3.5a1 1 0 011-1zm0 13h30a1 1 0 011 1V31a1 1 0 01-1 1H1a1 1 0 01-1-1v-3.5a1 1 0 011-1zm36.696-.6a1.3 1.3 0 011.9-1.153l8.04 4.181a1.5 1.5 0 010 2.662l-8.04 4.181a1.3 1.3 0 01-1.9-1.153V25.9z" stroke-opacity=".3" stroke="#000" stroke-width=".5" opacity=".28"/>
    </g>
</svg>
