<?xml version="1.0" encoding="UTF-8"?>
<svg width="44px" height="44px" viewBox="0 0 44 44" version="1.1" xmlns="http://www.w3.org/2000/svg" xmlns:xlink="http://www.w3.org/1999/xlink">
    <!-- Generator: Sketch 58 (84663) - https://sketch.com -->
    <desc>Created with Sketch.</desc>
    <defs>
        <circle id="path-1" cx="22" cy="22" r="22"></circle>
    </defs>
    <g id="sideBarItem/__logoWithColorBg/--lynda" stroke="none" stroke-width="1" fill="none" fill-rule="evenodd">
        <g id="编组-3">
            <mask id="mask-2" fill="white">
                <use xlink:href="#path-1"></use>
            </mask>
            <use id="椭圆形" fill="#FFFFFF" xlink:href="#path-1"></use>
            <g id="编组-2" mask="url(#mask-2)">
                <g transform="translate(-1.100000, -1.100000)">
                    <path d="M22.95975,17.5318917 L19.9579417,16.7816917 C20.2927083,17.23645 20.5710083,17.5318917 20.827125,17.6498667 C21.1024,17.7880083 21.795125,17.7285167 22.95975,17.5318917 Z M34.1139333,16.20795 C33.8961333,15.696725 33.77715,15.3417917 33.7569833,15.0836583 C33.61985,15.5172417 33.5996833,15.7925167 33.6985,15.8913333 C33.8174833,16.011325 33.9566333,16.1101417 34.1139333,16.20795 Z M22.031075,19.9599583 C22.20955,19.901475 22.406175,19.901475 22.642125,19.901475 L23.827925,19.901475 C24.2413417,19.901475 24.4006583,19.8218167 24.342175,19.74115 C24.1647083,19.5243583 23.55265,19.308575 22.484825,19.0131333 L22.0905667,19.2097583 L21.77395,19.0131333 C21.5793417,19.0524583 21.3998583,19.2289167 21.2597,19.58385 L21.6953,19.7219917 L22.031075,19.9599583 Z M24.1253833,20.2574167 C23.6897833,20.3935417 23.374175,20.49135 23.1785583,20.5115167 C22.9395833,20.5528583 22.642125,20.5528583 22.2882,20.49135 C21.9725917,20.452025 21.77395,20.3935417 21.6751333,20.3562333 C21.5571583,20.2967417 21.4785083,20.1959083 21.4391833,20.0386083 C21.3786833,20.3148917 21.5178333,20.5326917 21.8747833,20.691 C22.1107333,20.808975 22.406175,20.887625 22.7601,20.92695 C23.11705,20.9471167 23.5718083,20.8281333 24.1042083,20.5326917 C24.6376167,20.23725 24.856425,20.0779333 24.7364333,20.0386083 C24.7364333,20.0386083 24.5196417,20.0981 24.1253833,20.2574167 Z M44.3001167,29.92935 C43.2938,29.4745917 42.5022583,29.1589833 41.8912083,29.0410083 C41.7530667,28.6275917 41.475775,28.2121583 41.1016833,27.778575 C40.6660833,27.30365 40.235525,26.9688833 39.7979083,26.71075 C39.364325,26.4949667 39.0083833,26.4153083 38.7341167,26.5121083 L38.614125,26.3548083 L40.3706417,26.3548083 C41.239825,26.3548083 41.971875,26.0986917 42.5627583,25.5471333 C43.2938,24.856425 43.647725,23.809775 43.6305833,22.388025 C43.5892417,20.9864417 43.2534667,19.26925 42.62225,17.2546 C41.8912083,14.9455167 40.9242167,12.8149083 39.7404333,10.85975 C38.299525,8.52949167 36.6609833,6.694325 34.844975,5.37038333 C32.6921833,3.81250833 30.3427667,3.02096667 27.796725,3.02096667 C24.9128917,3.00180833 22.6048167,3.989975 20.887625,5.96328333 C19.8198,7.16925 19.0101083,8.74628333 18.437375,10.7004333 C18.1621,10.7790833 17.9059833,10.899075 17.6680167,11.0765417 C17.4310583,11.2731667 17.2546,11.4899583 17.1557833,11.727925 L16.1676167,11.727925 L16.1676167,12.242175 L17.0368,12.242175 C17.0368,12.242175 17.0368,12.242175 17.0368,12.2613333 C17.0368,12.7150833 17.2546,13.11035 17.6680167,13.4451167 C17.7265,13.4652833 17.7678417,13.5046083 17.8071667,13.5419167 C17.5318917,15.3599417 17.4310583,17.3352667 17.5107167,19.447725 C17.5692,21.2032333 17.687175,22.42735 17.8454833,23.11705 C18.1026083,24.1052167 18.4595583,24.8150833 18.951625,25.2698417 C19.6816583,25.96055 20.8472917,26.3154833 22.4253333,26.3154833 L29.0783167,26.3346417 L29.4524083,26.8297333 C29.2557833,27.2844917 28.9210167,27.7170667 28.4460917,28.1335083 C28.3281167,28.2514833 28.250475,28.4087833 28.2101417,28.64675 C25.110525,29.9485083 23.392325,30.9175167 23.077725,31.5285667 L21.359525,34.606 L19.701825,27.264325 L18.9324667,27.4024667 L17.8646417,26.5716 L14.607725,26.9104 C12.51745,27.125175 11.2126667,27.2844917 10.699425,27.3802833 C10.1660167,27.4811167 9.55395833,27.7372333 8.902575,28.1335083 C8.70494167,28.2706417 8.52848333,28.3694583 8.38933333,28.468275 L8.370175,28.014525 C8.291525,27.342975 8.13321667,26.8690583 7.8771,26.5514333 C7.63913333,26.2559917 7.12790833,25.96055 6.39485,25.7024167 L5.23123333,25.3505083 L5.17174167,25.3696667 L4.104925,25.7619083 L3.572525,25.2516917 L6.12058333,37.3930333 C4.71698333,35.6939917 3.572525,33.8386583 2.70435,31.8038417 C1.539725,29.0410083 0.947833333,26.1602 0.947833333,23.156375 C0.947833333,20.137425 1.539725,17.2737583 2.70435,14.510925 C3.82965,11.8660667 5.4087,9.51866667 7.462675,7.46469167 C9.51665,5.40970833 11.8650583,3.832675 14.5099167,2.70435 C17.2737583,1.54174167 20.137425,0.94985 23.156375,0.94985 C26.1561667,0.94985 29.0389917,1.54174167 31.7846833,2.70435 C34.4466833,3.832675 36.7981167,5.40970833 38.8520917,7.46469167 C40.9050583,9.51866667 42.4841083,11.8660667 43.6063833,14.510925 C44.773025,17.2737583 45.3669333,20.137425 45.3669333,23.156375 C45.3669333,25.48865 45.0109917,27.7574 44.3001167,29.92935 Z M39.3844917,31.469075 C38.1018917,32.45825 36.6014917,33.4817083 34.8843,34.5293667 L34.8641333,34.5293667 L33.5603583,31.3309333 L39.6204417,27.2451667 L39.6416167,27.225 C39.6416167,27.225 39.6416167,27.225 39.6416167,27.203825 C40.0167167,27.4206167 40.3706417,27.7170667 40.707425,28.0941833 C40.9837083,28.3886167 41.1803333,28.686075 41.3204917,28.9623583 C41.3991417,29.0803333 41.43645,29.1983083 41.475775,29.3384667 C41.5352667,29.6339083 40.8455667,30.3447833 39.3844917,31.469075 Z M34.9437917,18.0239583 C35.0789083,18.1641167 35.1404167,18.3214167 35.1404167,18.4787167 C35.1404167,18.6561833 35.0789083,18.8155 34.9437917,18.9324667 C34.8238,19.0716167 34.6654917,19.1311083 34.488025,19.1311083 C34.3105583,19.1311083 34.1724167,19.0716167 34.0352833,18.9324667 C33.9152917,18.8155 33.8558,18.6561833 33.8558,18.4787167 C33.8558,18.3214167 33.9152917,18.1641167 34.0352833,18.0239583 C34.1724167,17.9059833 34.3105583,17.8273333 34.488025,17.8273333 C34.6654917,17.8273333 34.8238,17.9059833 34.9437917,18.0239583 Z M25.2305167,12.4388 C25.2688333,12.556775 25.3878167,12.6162667 25.5844417,12.6162667 C25.8012333,12.6162667 25.9192083,12.556775 25.9787,12.4388 L27.203825,12.4388 C27.1665167,12.6949167 27.0061917,12.8915417 26.7510833,13.0911917 C26.4153083,13.3049583 26.0200417,13.4259583 25.5844417,13.4259583 C25.110525,13.4259583 24.7364333,13.3049583 24.4006583,13.0911917 C24.0840417,12.8542333 23.9267417,12.5769417 23.9267417,12.2613333 C23.9267417,12.1806667 23.9267417,12.1040333 23.9459,12.0445417 C23.9459,12.0233667 23.9660667,11.963875 23.985225,11.8459 C24.02455,11.7480917 24.1647083,11.5877667 24.4006583,11.4324833 C24.7364333,11.1945167 25.110525,11.0765417 25.5844417,11.0765417 C26.0200417,11.0765417 26.4153083,11.1945167 26.7510833,11.4324833 C26.9477083,11.5686083 27.104,11.7480917 27.1665167,11.9467333 L24.8150833,11.9467333 L24.8150833,12.4388 L25.2305167,12.4388 Z M18.7741583,12.4388 C18.812475,12.556775 18.9324667,12.6162667 19.14825,12.6162667 C19.2470667,12.6162667 19.3468917,12.5769417 19.4255417,12.5154333 C19.4648667,12.4982917 19.484025,12.478125 19.5052,12.4388 L20.827125,12.4388 C20.7686417,12.6949167 20.6103333,12.8915417 20.3562333,13.0911917 C20.0365917,13.3049583 19.6433417,13.4259583 19.1885833,13.4259583 C18.7348333,13.4259583 18.358725,13.3049583 18.02295,13.0911917 C17.7093583,12.8542333 17.5500417,12.5769417 17.5500417,12.2613333 C17.5500417,11.92455 17.7093583,11.6472583 18.02295,11.4324833 C18.358725,11.1945167 18.7348333,11.0765417 19.1885833,11.0765417 C19.6433417,11.0765417 20.0365917,11.1945167 20.3562333,11.4324833 C20.5710083,11.5686083 20.7081417,11.7480917 20.7867917,11.9467333 L18.340575,11.9467333 L18.340575,12.4388 L18.7741583,12.4388 Z M28.250475,24.3815 C29.4151,23.3751833 30.1461417,22.7429583 30.4032667,22.4868417 C30.9951583,21.8939417 31.9026583,20.887625 33.1257667,19.42655 C29.9475,21.8334417 27.9923417,23.1785583 27.2844917,23.4145083 L26.5716,23.6918 C26.3154833,23.77045 26.078525,23.827925 25.860725,23.8692667 C25.3091667,23.9479167 24.5377917,23.8894333 23.55265,23.670625 C22.6229667,23.4538333 22.031075,23.0010917 21.77395,22.309375 C21.7144583,22.1298917 21.6368167,21.8152917 21.5571583,21.3605333 C21.4785083,20.9471167 21.3998583,20.61235 21.3212083,20.3935417 C21.24155,20.216075 21.063075,19.8611417 20.7686417,19.3479 C20.4721917,18.8155 20.2140583,18.3415833 20.0567583,17.9453083 C19.52335,16.7423667 19.2279083,15.418425 19.108925,13.9371833 L19.1885833,13.9371833 C19.7814833,13.9371833 20.2927083,13.760725 20.7081417,13.4451167 C20.8069583,13.3664667 20.887625,13.3049583 20.9471167,13.228325 L21.3212083,12.0828583 L21.3212083,12.0647083 C21.3998583,11.5504583 21.7558,11.2731667 22.3860083,11.2731667 C23.0182333,11.2731667 23.353,11.5292833 23.4518167,12.0032 C23.43165,12.0828583 23.43165,12.163525 23.43165,12.2613333 C23.43165,12.7150833 23.6313,13.11035 24.063875,13.4451167 C24.4783,13.760725 24.9915417,13.9371833 25.5844417,13.9371833 C26.1773417,13.9371833 26.671425,13.760725 27.104,13.4451167 C27.4992667,13.11035 27.7160583,12.7150833 27.7160583,12.2613333 C27.7160583,12.242175 27.7160583,12.242175 27.7160583,12.242175 L28.5267583,12.242175 L28.5267583,11.727925 L27.6172417,11.727925 C27.5204417,11.4899583 27.3409583,11.2731667 27.104,11.0765417 C26.671425,10.7589167 26.1773417,10.5834667 25.5844417,10.5834667 C24.9915417,10.5834667 24.4783,10.7589167 24.063875,11.0765417 C23.9267417,11.1763667 23.827925,11.292325 23.7291083,11.413325 C23.6897833,11.3538333 23.64945,11.292325 23.610125,11.253 C23.313675,10.9363833 22.9184083,10.7790833 22.3860083,10.7790833 C21.8747833,10.7790833 21.4583417,10.9363833 21.1830667,11.253 C21.1225667,11.292325 21.0822333,11.3538333 21.044925,11.413325 C20.9642583,11.292325 20.8472917,11.1945167 20.7081417,11.0765417 C20.3723667,10.820425 19.9972667,10.6601 19.544525,10.6016167 C20.3562333,8.51033333 22.1893833,6.30006667 25.05305,3.9688 C26.453625,7.64115 28.6638917,10.0107333 31.6657,11.0362083 C31.74435,11.213675 31.8421583,11.4324833 31.9813083,11.6472583 C31.9813083,11.6865833 32.001475,11.70675 32.019625,11.727925 L29.8305333,11.727925 L29.8305333,12.242175 L32.2969167,12.242175 C32.3150667,12.3006583 32.3554,12.36015 32.376575,12.4196417 C32.5742083,12.913725 32.473375,13.4844417 32.098275,14.0954917 L31.5457083,14.8477083 C31.3702583,15.14315 31.3490833,15.3992667 31.4680667,15.6372333 C31.5285667,15.775375 31.7070417,15.972 32.001475,16.20795 C32.1779333,16.368275 32.2565833,16.604225 32.2182667,16.918825 C32.8494833,16.7595083 33.1076167,16.446925 32.9483,15.932675 C32.86965,15.6372333 32.8888083,15.3599417 33.0279583,15.0836583 L33.2064333,14.7277167 C33.2245833,14.6883917 33.2437417,14.668225 33.2437417,14.6490667 L33.2437417,14.6309167 C33.2649167,14.6309167 33.2649167,14.6309167 33.2649167,14.6087333 C33.5996833,14.0561667 33.7973167,13.6417417 33.8961333,13.3664667 C33.9152917,13.26765 33.9334417,13.1869833 33.9334417,13.11035 C33.9334417,12.8723833 33.8174833,12.635425 33.5603583,12.4388 L34.2722417,12.4388 C34.923625,13.04985 35.0617667,14.1741417 34.7249833,15.7925167 C34.7834667,16.7423667 34.64835,17.2737583 34.3105583,17.3745917 C33.9747833,17.4532417 33.638,17.354425 33.2830667,17.07915 L33.3042417,26.3346417 L38.0020667,26.3548083 L38.6756333,27.264325 L33.2830667,30.8963417 L28.250475,24.3815 Z M29.9273333,33.5603583 C29.4745917,32.45825 29.1569667,31.42975 28.90085,30.482925 C28.625575,29.357625 28.58625,28.686075 28.7838833,28.5076 C29.1569667,28.1728333 29.4524083,27.7987417 29.7105417,27.3802833 C29.7297,27.342975 29.769025,27.2844917 29.8093583,27.2451667 C29.8093583,27.225 29.8093583,27.225 29.8305333,27.225 L32.8888083,31.1938 L29.9273333,33.5603583 Z M7.934575,29.4957667 L4.461875,26.0986917 L5.2514,25.8234167 C5.6265,25.9020667 6.00059167,26.0200417 6.39485,26.1793583 C6.98875833,26.3941333 7.36285,26.6321 7.54031667,26.8509083 C7.85693333,27.225 7.99406667,27.9167167 7.934575,28.9230333 L7.89625833,29.4564417 L8.31068333,29.1196583 C9.17986667,28.3886167 10.0087167,27.9560417 10.778075,27.8158833 C11.2721583,27.7170667 12.5940833,27.5597667 14.70755,27.342975 L17.7265,27.0475333 L18.340575,27.5204417 L7.934575,29.4957667 Z M44.4775833,14.1559917 C43.3109417,11.3729917 41.6532417,8.92576667 39.5226333,6.79314167 C37.3718583,4.65950833 34.923625,3.00180833 32.1597833,1.83718333 C29.2769583,0.613066667 26.2953167,5.32907052e-14 23.156375,5.32907052e-14 C20.0174333,5.32907052e-14 17.0176417,0.613066667 14.153975,1.83718333 C11.3911417,3.00180833 8.9419,4.65950833 6.791125,6.79314167 C4.65749167,8.944925 3.00180833,11.3911417 1.83516667,14.1559917 C0.612058333,17.0378083 7.10542736e-15,20.01945 7.10542736e-15,23.156375 C7.10542736e-15,26.2973333 0.612058333,29.297125 1.83516667,32.1607917 C3.00180833,34.923625 4.65749167,37.3718583 6.791125,39.521625 C8.92274167,41.657275 11.3719833,43.3129583 14.153975,44.4796 C17.0176417,45.7037167 20.0174333,46.3147667 23.156375,46.3147667 C26.2953167,46.3147667 29.2769583,45.7037167 32.1597833,44.4796 C34.923625,43.3129583 37.3718583,41.657275 39.5226333,39.521625 C41.6532417,37.3718583 43.3109417,34.923625 44.4775833,32.1607917 C45.7037167,29.297125 46.31275,26.2973333 46.31275,23.156375 C46.31275,20.01945 45.7037167,17.0378083 44.4775833,14.1559917 L44.4775833,14.1559917 Z" id="Fill-4" fill="#060403"></path>
                    <path d="M44.3001167,29.92935 C43.2938,29.4745917 42.5022583,29.1589833 41.8912083,29.0410083 C41.7530667,28.6275917 41.475775,28.2121583 41.1016833,27.778575 C40.6660833,27.30365 40.235525,26.9688833 39.7979083,26.71075 C39.364325,26.4949667 39.0083833,26.4153083 38.7341167,26.5121083 L38.614125,26.3548083 L40.3706417,26.3548083 C41.239825,26.3548083 41.971875,26.0986917 42.5627583,25.5471333 C43.2938,24.856425 43.647725,23.809775 43.6305833,22.388025 C43.5892417,20.9864417 43.2534667,19.26925 42.62225,17.2546 C41.8912083,14.9455167 40.9242167,12.8149083 39.7404333,10.85975 C38.299525,8.52949167 36.6609833,6.694325 34.844975,5.37038333 C32.6921833,3.81250833 30.3427667,3.02096667 27.796725,3.02096667 C24.9128917,3.00180833 22.6048167,3.989975 20.887625,5.96328333 C19.8198,7.16925 19.0101083,8.74628333 18.437375,10.7004333 C18.1621,10.7790833 17.9059833,10.899075 17.6680167,11.0765417 C17.4310583,11.2731667 17.2546,11.4899583 17.1557833,11.727925 L16.1676167,11.727925 L16.1676167,12.242175 L17.0368,12.242175 C17.0368,12.242175 17.0368,12.242175 17.0368,12.2613333 C17.0368,12.7150833 17.2546,13.11035 17.6680167,13.4451167 C17.7265,13.4652833 17.7678417,13.5046083 17.8071667,13.5419167 C17.5318917,15.3599417 17.4310583,17.3352667 17.5107167,19.447725 C17.5692,21.2032333 17.687175,22.42735 17.8454833,23.11705 C18.1026083,24.1052167 18.4595583,24.8150833 18.951625,25.2698417 C19.6816583,25.96055 20.8472917,26.3154833 22.4253333,26.3154833 L29.0783167,26.3346417 L29.4524083,26.8297333 C29.2557833,27.2844917 28.9210167,27.7170667 28.4460917,28.1335083 C28.3281167,28.2514833 28.250475,28.4087833 28.2101417,28.64675 C25.110525,29.9485083 23.392325,30.9175167 23.077725,31.5285667 L21.359525,34.606 L19.701825,27.264325 L18.9324667,27.4024667 L17.8646417,26.5716 L14.607725,26.9104 C12.51745,27.125175 11.2126667,27.2844917 10.699425,27.3802833 C10.1660167,27.4811167 9.55395833,27.7372333 8.902575,28.1335083 C8.70494167,28.2706417 8.52848333,28.3694583 8.38933333,28.468275 L8.370175,28.014525 C8.291525,27.342975 8.13321667,26.8690583 7.8771,26.5514333 C7.63913333,26.2559917 7.12790833,25.96055 6.39485,25.7024167 L5.23123333,25.3505083 L5.17174167,25.3696667 L4.104925,25.7619083 L3.572525,25.2516917 L6.12058333,37.3930333 C4.71698333,35.6939917 3.572525,33.8386583 2.70435,31.8038417 C1.539725,29.0410083 0.947833333,26.1602 0.947833333,23.156375 C0.947833333,20.137425 1.539725,17.2737583 2.70435,14.510925 C3.82965,11.8660667 5.4087,9.51866667 7.462675,7.46469167 C9.51665,5.40970833 11.8650583,3.832675 14.5099167,2.70435 C17.2737583,1.54174167 20.137425,0.94985 23.156375,0.94985 C26.1561667,0.94985 29.0389917,1.54174167 31.7846833,2.70435 C34.4466833,3.832675 36.7981167,5.40970833 38.8520917,7.46469167 C40.9050583,9.51866667 42.4841083,11.8660667 43.6063833,14.510925 C44.773025,17.2737583 45.3669333,20.137425 45.3669333,23.156375 C45.3669333,25.48865 45.0109917,27.7574 44.3001167,29.92935 Z" id="路径" fill="#F8C504"></path>
                </g>
            </g>
        </g>
    </g>
</svg>