<svg width="44" height="44" xmlns="http://www.w3.org/2000/svg" xmlns:xlink="http://www.w3.org/1999/xlink">
    <defs>
        <circle id="a" cx="22" cy="22" r="22"/>
    </defs>
    <g fill="none" fill-rule="evenodd">
        <mask id="b" fill="#fff">
            <use xlink:href="#a"/>
        </mask>
        <use fill="#FFF" xlink:href="#a"/>
        <g mask="url(#b)">
            <path d="M21.86 16.432l-3.002-.75c.335.454.613.75.87.868.274.138.967.079 2.132-.118zm11.154-1.324c-.218-.511-.337-.866-.357-1.124-.137.433-.157.709-.058.807.118.12.258.22.415.317zM20.93 18.86c.179-.059.375-.059.611-.059h1.186c.413 0 .573-.08.514-.16-.177-.217-.79-.432-1.857-.728l-.394.197-.317-.197c-.195.04-.374.216-.514.57l.435.139.336.238zm2.094.297c-.435.137-.75.234-.946.255a2.631 2.631 0 01-.89-.02 2.76 2.76 0 01-.614-.136.451.451 0 01-.236-.317c-.06.276.079.494.436.652.236.118.531.197.885.236.357.02.812-.099 1.344-.394.534-.296.752-.455.632-.494 0 0-.216.06-.61.218zM43.2 28.83c-1.006-.454-1.798-.77-2.409-.888-.138-.413-.415-.829-.79-1.262a5.613 5.613 0 00-1.303-1.068c-.434-.216-.79-.296-1.064-.199l-.12-.157h1.757c.869 0 1.6-.256 2.192-.808.73-.69 1.085-1.737 1.068-3.159-.042-1.402-.378-3.119-1.009-5.133A29.48 29.48 0 0038.64 9.76c-1.44-2.33-3.079-4.166-4.895-5.49-2.153-1.557-4.502-2.349-7.048-2.349-2.884-.02-5.192.969-6.91 2.942C18.72 6.07 17.91 7.646 17.338 9.6a2.344 2.344 0 00-.769.377 1.727 1.727 0 00-.512.65h-.988v.515h.869v.02c0 .453.218.848.631 1.183.058.02.1.06.14.097-.276 1.818-.377 3.793-.297 5.906.058 1.755.176 2.98.334 3.669.258.988.615 1.698 1.107 2.153.73.69 1.895 1.045 3.473 1.045l6.653.02.374.495c-.196.454-.531.887-1.006 1.304-.118.117-.196.275-.236.513-3.1 1.302-4.818 2.27-5.132 2.882l-1.718 3.077-1.658-7.342-.77.138-1.067-.83-3.257.338c-2.09.215-3.395.374-3.909.47-.533.101-1.145.357-1.796.754-.198.137-.375.235-.514.334l-.019-.453c-.078-.672-.237-1.146-.493-1.464-.238-.295-.75-.59-1.482-.849l-1.164-.351-.06.019-1.066.392-.532-.51L5.02 36.293a22.752 22.752 0 01-3.417-5.59 22.047 22.047 0 01-1.756-8.647c0-3.019.592-5.882 1.756-8.645a22.106 22.106 0 014.759-7.046A22.15 22.15 0 0122.056-.15c3 0 5.883.592 8.629 1.754a22.047 22.047 0 017.067 4.76 22.062 22.062 0 014.754 7.047 21.95 21.95 0 011.76 8.645c0 2.333-.355 4.601-1.066 6.773zm-4.916 1.54c-1.282.99-2.783 2.013-4.5 3.06h-.02l-1.304-3.198 6.06-4.086.022-.02v-.021c.375.217.729.513 1.065.89.277.295.473.592.613.868.08.118.116.236.156.376.06.296-.63 1.007-2.092 2.131zm-4.44-13.445c.135.14.196.297.196.455a.578.578 0 01-.196.453.576.576 0 01-.456.2.594.594 0 01-.453-.2.618.618 0 01-.18-.453c0-.158.06-.315.18-.455.137-.118.276-.197.453-.197s.336.079.456.197zm-9.713-5.585c.038.118.157.177.353.177.217 0 .335-.06.395-.177h1.225c-.037.256-.198.453-.453.652a2.15 2.15 0 01-1.167.335c-.473 0-.848-.121-1.183-.335-.317-.237-.474-.514-.474-.83 0-.08 0-.157.019-.216 0-.022.02-.081.04-.2.039-.097.179-.257.415-.413.335-.237.71-.355 1.183-.355.436 0 .831.118 1.167.355.197.137.353.316.416.515h-2.352v.492h.416zm-6.457 0c.038.118.158.177.374.177a.46.46 0 00.278-.1.148.148 0 00.08-.077h1.321c-.058.256-.217.453-.47.652a2.07 2.07 0 01-1.168.335c-.454 0-.83-.121-1.166-.335-.314-.237-.473-.514-.473-.83 0-.336.16-.614.473-.829a1.937 1.937 0 011.166-.355c.454 0 .848.118 1.167.355.215.137.352.316.43.515h-2.445v.492h.433zm9.476 11.94c1.165-1.006 1.896-1.638 2.153-1.894.592-.593 1.5-1.6 2.723-3.06-3.179 2.406-5.134 3.752-5.842 3.988l-.712.277a6.638 6.638 0 01-.711.177c-.552.079-1.323.02-2.308-.198-.93-.217-1.522-.67-1.78-1.362a7.254 7.254 0 01-.216-.948 7.023 7.023 0 00-.236-.967 13.28 13.28 0 00-.552-1.046c-.297-.533-.555-1.006-.712-1.403-.534-1.203-.83-2.527-.948-4.008h.08a2.46 2.46 0 001.52-.492c.098-.079.179-.14.238-.217l.374-1.145v-.018c.079-.515.435-.792 1.065-.792.632 0 .967.256 1.066.73-.02.08-.02.16-.02.258 0 .454.2.85.632 1.184a2.46 2.46 0 001.52.492c.593 0 1.087-.176 1.52-.492.395-.335.612-.73.612-1.184v-.019h.81v-.514h-.909c-.097-.238-.276-.455-.513-.651a2.484 2.484 0 00-1.52-.494c-.592 0-1.106.176-1.52.494-.137.1-.236.215-.335.336-.04-.06-.08-.12-.119-.16-.296-.317-.692-.474-1.224-.474-.511 0-.928.157-1.203.474-.06.04-.1.1-.138.16-.08-.12-.198-.218-.337-.336a2.36 2.36 0 00-1.163-.475c.811-2.092 2.644-4.302 5.508-6.633 1.4 3.672 3.61 6.042 6.613 7.067.078.178.176.396.315.611 0 .04.02.06.039.08h-2.19v.515h2.467c.018.059.058.118.08.178.197.494.096 1.064-.279 1.675l-.552.753c-.176.295-.197.551-.078.79.06.137.239.334.533.57.177.16.256.396.217.71.631-.158.89-.471.73-.985a1.15 1.15 0 01.08-.85l.178-.355c.019-.04.038-.06.038-.079v-.018c.02 0 .02 0 .02-.022.336-.553.533-.967.632-1.243.02-.098.037-.179.037-.256 0-.238-.116-.475-.373-.671h.712c.652.61.79 1.735.453 3.354.058.95-.077 1.48-.414 1.582-.336.078-.673-.02-1.028-.296l.021 9.256 4.698.02.674.91-5.393 3.631-5.033-6.515zm1.677 9.18a25.5 25.5 0 01-1.026-3.078c-.275-1.125-.315-1.797-.117-1.975.373-.335.668-.71.927-1.128a.588.588 0 01.098-.135c0-.02 0-.02.022-.02l3.058 3.969-2.962 2.366zM6.835 28.395l-3.473-3.397.79-.276c.374.08.749.197 1.143.356.594.215.968.453 1.145.672.317.374.454 1.066.395 2.072l-.039.533.415-.336c.869-.731 1.698-1.164 2.467-1.304.494-.099 1.816-.256 3.93-.473l3.018-.295.615.472-10.406 1.976zm36.543-15.34a22.796 22.796 0 00-4.955-7.363c-2.151-2.133-4.6-3.791-7.363-4.956A22.74 22.74 0 0022.056-1.1c-3.139 0-6.138.613-9.002 1.837-2.763 1.165-5.212 2.823-7.363 4.956-2.134 2.152-3.79 4.598-4.956 7.363a22.745 22.745 0 00-1.835 9c0 3.141.612 6.141 1.835 9.005a23.148 23.148 0 004.956 7.36 22.724 22.724 0 007.363 4.959 22.665 22.665 0 009.002 1.835c3.14 0 6.121-.611 9.004-1.835 2.764-1.167 5.212-2.823 7.363-4.958 2.13-2.15 3.788-4.598 4.955-7.361a22.633 22.633 0 001.835-9.005c0-3.137-.61-6.118-1.835-9z" fill="#060403"/>
            <path d="M43.2 28.83c-1.006-.455-1.798-.771-2.409-.889-.138-.413-.415-.829-.79-1.262a5.613 5.613 0 00-1.303-1.068c-.434-.216-.79-.296-1.064-.199l-.12-.157h1.757c.869 0 1.6-.256 2.192-.808.73-.69 1.085-1.737 1.068-3.159-.042-1.402-.378-3.119-1.009-5.133A29.48 29.48 0 0038.64 9.76c-1.44-2.33-3.079-4.166-4.895-5.49-2.153-1.557-4.502-2.349-7.048-2.349-2.884-.02-5.192.969-6.91 2.942C18.72 6.07 17.91 7.646 17.338 9.6a2.344 2.344 0 00-.769.377 1.727 1.727 0 00-.512.65h-.988v.515h.869v.02c0 .453.218.848.631 1.183.058.02.1.06.14.097-.276 1.818-.377 3.793-.297 5.906.058 1.755.176 2.98.334 3.669.258.988.615 1.698 1.107 2.153.73.69 1.895 1.045 3.473 1.045l6.653.02.374.495c-.196.454-.531.887-1.006 1.304-.118.117-.196.275-.236.513-3.1 1.302-4.818 2.27-5.132 2.882l-1.718 3.077-1.658-7.342-.77.138-1.067-.83-3.257.338c-2.09.215-3.395.374-3.909.47-.533.101-1.145.357-1.796.754-.198.137-.375.235-.514.334l-.019-.453c-.078-.672-.237-1.146-.493-1.464-.238-.295-.75-.59-1.482-.849l-1.164-.351-.06.019-1.066.392-.532-.51L5.02 36.293a22.752 22.752 0 01-3.417-5.59 22.047 22.047 0 01-1.756-8.647c0-3.019.592-5.882 1.756-8.645a22.106 22.106 0 014.759-7.046A22.15 22.15 0 0122.056-.15c3 0 5.883.592 8.629 1.754a22.047 22.047 0 017.067 4.76 22.062 22.062 0 014.754 7.047 21.95 21.95 0 011.76 8.645c0 2.333-.355 4.601-1.066 6.773z" fill="#F8C504"/>
        </g>
    </g>
</svg>
