<?xml version="1.0" encoding="UTF-8"?>
<svg width="44px" height="44px" viewBox="0 0 44 44" version="1.1" xmlns="http://www.w3.org/2000/svg" xmlns:xlink="http://www.w3.org/1999/xlink">
    <!-- Generator: Sketch 58 (84663) - https://sketch.com -->
    <title>sideBarItem/__logoWithColorBg/--masterclass</title>
    <desc>Created with Sketch.</desc>
    <defs>
        <circle id="path-1" cx="22" cy="22" r="22"></circle>
    </defs>
    <g id="sideBarItem/__logoWithColorBg/--masterclass" stroke="none" stroke-width="1" fill="none" fill-rule="evenodd">
        <mask id="mask-2" fill="white">
            <use xlink:href="#path-1"></use>
        </mask>
        <use id="colorBg" fill="#F7F3ED" xlink:href="#path-1"></use>
        <g id="Masterclass_logo" mask="url(#mask-2)" fill="#251617" fill-rule="nonzero">
            <g transform="translate(11.000000, 11.000000)" id="路径">
                <path d="M21.6364619,19.9690801 C21.6180069,19.9276081 21.5866955,19.9075979 21.540869,19.9027249 C21.0549726,19.8511959 20.5692318,19.7982154 20.0833873,19.7463236 C19.5645207,19.6908548 19.0455504,19.6367857 18.5267875,19.5802282 C18.4619875,19.573178 18.3984317,19.5548785 18.3332688,19.5415556 C18.2821546,19.4263153 18.2789405,19.312993 18.2858352,19.1815786 C18.3275664,19.1784682 18.3661872,19.1696554 18.403512,19.1735953 C19.441297,19.2838071 20.4789784,19.3947447 21.5165042,19.5071338 C21.688613,19.5257962 21.8598924,19.5517681 22.0326751,19.5741111 C22.1119385,19.5738001 22.1900613,19.5738001 22.2682361,19.5738001 C22.2676658,19.5658686 22.2671474,19.5578852 22.2665772,19.5499537 C22.1878322,19.5581444 22.1090873,19.5663351 22.0303941,19.574474 C22.0228255,19.5270922 21.9944172,19.5072894 21.9471909,19.4997726 C21.5382251,19.4347652 21.1297259,19.3667511 20.7207601,19.3016919 C19.9517655,19.1792977 19.1825636,19.0585104 18.413569,18.9361162 C18.3571671,18.9271479 18.3019574,18.9105072 18.2443632,18.896977 C18.184177,18.7752048 18.1897238,18.6542621 18.1837622,18.5154346 C18.4172496,18.5178711 18.6237802,18.5756727 18.8334212,18.6036663 C19.0386039,18.6310378 19.2424906,18.6682071 19.4469994,18.7008663 C19.659699,18.7348215 19.8724503,18.7683101 20.085098,18.8022135 C20.2896068,18.8348208 20.494012,18.8679466 20.6985208,18.900554 C20.9112203,18.9345092 21.1239198,18.9680496 21.3366194,19.0020048 C21.5411282,19.034664 21.7451704,19.07033 21.9501458,19.0996714 C22.1591647,19.1295831 22.3658508,19.1815268 22.5823865,19.1595466 C21.1025618,18.8419229 19.622737,18.5243511 18.1468003,18.2075568 C18.0888432,18.0751574 18.0853181,17.9544221 18.0873398,17.8365379 C18.1517251,17.7885341 18.2067274,17.8169942 18.260641,17.8284509 C19.6377706,18.1217098 21.0148485,18.4151242 22.3917189,18.709368 C22.4716044,18.7264234 22.5499346,18.7508919 22.6342783,18.7733386 C22.6459423,18.8183357 22.6587986,18.8570602 22.6659007,18.8968733 C22.6963826,19.0671677 22.7282124,19.2373066 22.753303,19.4083786 C22.7664703,19.4981137 22.7726393,19.5897668 22.7716543,19.6804868 C22.769166,19.9073387 22.6469791,20.0778404 22.4305471,20.1455435 C22.3452703,20.1721892 22.2519065,20.1836459 22.1621714,20.1838532 C21.0928677,20.1863415 20.0235121,20.1854603 18.9542084,20.1852011 C18.91284,20.1852011 18.8708496,20.1862379 18.8301552,20.1800171 C18.6485597,20.1521271 18.5022154,20.0675243 18.4096291,19.9042801 C18.3949066,19.8783083 18.3934551,19.8447678 18.3813245,19.7967121 C18.4607434,19.7937054 18.5241955,19.7864996 18.5870775,19.7897655 C19.017505,19.8119012 19.447777,19.8360068 19.8781009,19.8598532 C20.4159409,19.8897131 20.9537291,19.9196766 21.4915173,19.9505214 C21.540869,19.9533726 21.5898578,19.9624446 21.6400907,19.968147 C21.7435634,19.9700132 21.8464658,19.9927191 21.9473983,19.9494846 C21.8437183,19.9561201 21.7400901,19.9626001 21.6364619,19.9690801 Z"></path>
                <path d="M1.35032839,19.9680433 C1.37469319,19.9633259 1.39890247,19.9556535 1.4234228,19.9542539 C2.3583054,19.9011697 3.29323985,19.8481374 4.22822614,19.7967639 C4.34932439,19.7901284 4.47145944,19.7787754 4.60935384,19.7917873 C4.596342,19.8438865 4.595046,19.8774788 4.5802716,19.9033988 C4.48752984,20.0660727 4.34222231,20.1530603 4.16021206,20.1796542 C4.1032399,20.1880004 4.04445333,20.1854084 3.98649621,20.1854084 C2.94212752,20.1857195 1.89770698,20.1866007 0.853338285,20.1840087 C0.75530884,20.1837495 0.653391395,20.1738999 0.56013123,20.1456471 C0.343232658,20.0800177 0.223119372,19.9086865 0.216898571,19.6818346 C0.215965451,19.6487607 0.213062411,19.614961 0.218039052,19.582561 C0.259251854,19.3148593 0.302071696,19.0473648 0.346239378,18.7682064 C1.86115978,18.4377264 3.36674898,18.1215542 4.87995866,17.7958953 C4.92521498,17.9413584 4.89276314,18.0647894 4.84745498,18.2039798 C3.37037778,18.5329047 1.88635402,18.8306218 0.412387222,19.1769649 C0.894965807,19.1341969 1.37080519,19.045706 1.8486145,18.9713156 C2.33969484,18.8949034 2.83061967,18.8174544 3.32138898,18.7389687 C3.80360468,18.6618826 4.28550935,18.5829303 4.77524185,18.5035632 C4.82941466,18.6347703 4.79022361,18.7517213 4.76186713,18.868776 C4.69266073,18.9296362 4.60753944,18.9302064 4.52734296,18.9431146 C3.51330067,19.1062033 2.49915469,19.2685661 1.48500872,19.4310327 C1.32969607,19.4559159 1.17386502,19.4779479 1.01948549,19.5076522 C0.996364853,19.5121105 0.979931572,19.5516126 0.959713971,19.5746814 C0.880709807,19.5664388 0.802431403,19.5584036 0.724152998,19.5503684 C0.723479078,19.5585073 0.722856998,19.5666462 0.722183078,19.5748369 C0.801083562,19.5748369 0.879984047,19.5748369 0.958884531,19.5748369 C1.13047494,19.552131 1.30165063,19.5258481 1.47365576,19.5073412 C2.16525323,19.4328471 2.85716175,19.3614116 3.54881107,19.2875914 C3.89463573,19.2506813 4.24014934,19.2109201 4.58592216,19.1732842 C4.61728536,19.1698628 4.64932249,19.1728177 4.69416409,19.1728177 C4.71992857,19.3011217 4.70453209,19.4181245 4.65647641,19.5428516 C4.58281176,19.5565892 4.51101336,19.5749924 4.43807448,19.5828721 C3.76296212,19.655811 3.0876424,19.7267281 2.41247821,19.7987338 C2.09138123,19.8330001 1.77049161,19.8688215 1.4493428,19.9026731 C1.40346439,19.9074942 1.37225671,19.9276599 1.35250567,19.9683543 C1.24773703,19.9634295 1.1439015,19.9588158 1.04001414,19.9542539 C1.04001414,19.9588158 1.04001414,19.9633777 1.04001414,19.9679915 C1.14348678,19.9680433 1.24690759,19.9680433 1.35032839,19.9680433 Z"></path>
                <path d="M21.8590629,14.1592155 C21.8999128,14.330754 21.9408664,14.4955016 21.9355269,14.6890203 C21.8881452,14.6658478 21.8578188,14.6552725 21.8322098,14.6378542 C19.0490756,12.7461607 16.2663042,10.8538969 13.4763271,8.95681199 C13.51557,8.81544431 13.5918266,8.71191982 13.6530497,8.60098222 C13.8855521,8.71710382 21.0938008,13.6017281 21.8590629,14.1592155 Z"></path>
                <path d="M9.31860337,8.59035502 C9.40854578,8.70797998 9.46230386,8.81668847 9.51305522,8.93732015 C9.4773893,8.96894256 9.44986226,8.99937264 9.41689202,9.02176752 C6.64625123,10.9042335 3.87524757,12.7860775 1.10351814,14.6669365 C1.09346118,14.6737793 1.07308806,14.6654331 1.04530182,14.6632558 C1.05312966,14.5157192 1.07764998,14.370308 1.11456006,14.2278516 C1.12580934,14.1844097 1.1623047,14.1438708 1.19594886,14.1108487 C1.23094087,14.0765307 1.27630087,14.0527361 1.31746183,14.0247425 C3.91609749,12.2577242 6.51478499,10.4907058 9.11357616,8.72389486 C9.17505841,8.68211182 9.23814769,8.64266158 9.31860337,8.59035502 Z"></path>
                <path d="M1.20813126,13.7659572 C1.19636358,13.5860724 1.24587079,13.4267162 1.27573063,13.2656493 C1.28236615,13.2299316 1.31761735,13.1959764 1.34680327,13.1688122 C1.38910471,13.1294657 1.4376788,13.0968583 1.4838164,13.0616589 C3.83066516,11.2716236 6.17746209,9.48148466 8.52477741,7.69196777 C8.59605742,7.6375876 8.66116846,7.57154344 8.76738862,7.53888424 C8.82767855,7.64956265 8.88610223,7.75687145 8.94125999,7.85816682 C8.89714415,7.9616913 8.81005295,8.00124522 8.7392395,8.05536619 C7.32929511,9.13249776 5.91836575,10.2082297 4.50754008,11.2841689 C3.47908626,12.0685082 2.45078797,12.8530548 1.4216084,13.6364609 C1.35862279,13.6844129 1.30336135,13.7495239 1.20813126,13.7659572 Z"></path>
                <path d="M14.0305486,7.88973738 C14.1032283,7.75666409 14.1619112,7.64925161 14.2193499,7.54412008 C14.3305467,7.5670852 14.3930139,7.63800232 14.4641902,7.69222697 C16.1393999,8.96837232 17.8137283,10.2456063 19.4881604,11.5226848 C20.1605771,12.0355379 20.8328901,12.5484947 21.5052031,13.0615034 C21.5513407,13.0967028 21.5998629,13.129362 21.6421643,13.1687085 C21.6714021,13.1958727 21.7065496,13.2295687 21.7136517,13.2653901 C21.745637,13.4261978 21.78742,13.5865908 21.7846725,13.7536711 C21.758597,13.7536711 21.7381202,13.760203 21.7282188,13.752738 C19.1641604,11.8119001 16.6124918,9.85478452 14.0305486,7.88973738 Z"></path>
                <path d="M21.6155186,12.7493484 C21.5337669,12.7506708 21.4990341,12.6982605 21.4562661,12.6628538 C19.7119537,11.2214425 14.7776149,7.00280677 14.615252,6.81374628 C14.6675585,6.69767651 14.7208501,6.57927395 14.8132289,6.46937314 C14.868283,6.51177827 14.9145243,6.54433379 14.957396,6.58077731 C17.1034166,8.40549357 19.2485559,10.2312985 21.3968575,12.0533709 C21.5000709,12.1409286 21.5565765,12.2363142 21.570677,12.3666919 C21.5804229,12.457049 21.6020402,12.5460583 21.614741,12.636208 C21.6198731,12.6731181 21.6155186,12.7113242 21.6155186,12.7493484 Z"></path>
                <path d="M8.17724203,6.46833634 C8.26806572,6.58471715 8.32737068,6.69964643 8.3809214,6.83847396 C6.05548256,8.81731055 3.73035476,10.7947993 1.37438215,12.797897 C1.37132359,12.5652391 1.41243271,12.3889312 1.45603016,12.2154227 C1.47018248,12.1591763 1.53249416,12.110343 1.5815348,12.068249 C1.97126794,11.7337254 2.36307469,11.4015865 2.75436303,11.0687737 C4.49613528,9.58739379 6.23790753,8.10596203 7.97993898,6.62494499 C8.04116203,6.57294947 8.10580651,6.52489379 8.17724203,6.46833634 Z"></path>
                <path d="M1.56847112,11.6632749 C1.55727368,11.4279731 1.61409033,11.2525465 1.64203209,11.0739059 C1.64892681,11.0296863 1.68723657,10.9868147 1.71958473,10.9509932 C1.76935113,10.8957836 1.82627146,10.8469503 1.8804961,10.7957843 C3.72371924,9.05535984 5.56694237,7.31488359 7.41052839,5.57477022 C7.46983336,5.51878301 7.53281896,5.46668381 7.60290664,5.40504605 C7.70083241,5.51349533 7.74650345,5.6350083 7.79989865,5.7446499 C7.77517097,5.84350879 7.69922537,5.88674335 7.64074984,5.94205663 C6.53329187,6.98958757 5.42490077,8.03602987 4.31656151,9.08262768 C3.47929362,9.87323956 2.64202574,10.6638514 1.8042913,11.4539968 C1.73964681,11.5149606 1.67142537,11.5721401 1.56847112,11.6632749 Z"></path>
                <path d="M15.1661038,5.77559839 C15.2401832,5.63822238 15.2983995,5.53023965 15.3597263,5.41650269 C15.4671906,5.43537245 15.5168533,5.51831645 15.5792687,5.57699934 C16.4062204,6.35454754 17.2310467,7.13432486 18.0563395,7.91358378 C19.0864522,8.88625775 20.1152171,9.86038324 21.1483365,10.829895 C21.2808914,10.954311 21.3807871,11.0804895 21.3846232,11.2723494 C21.3869042,11.3859827 21.4166085,11.4990457 21.4395736,11.6492262 C21.3690712,11.6045401 21.3254738,11.5855667 21.2927627,11.5549293 C20.9601054,11.2434745 20.6292107,10.9301535 20.2979012,10.6172991 C18.6593943,9.07003056 17.020991,7.522762 15.3823803,5.97559712 C15.3165435,5.91333727 15.2494107,5.85252895 15.1661038,5.77559839 Z"></path>
                <path d="M15.7363439,4.71261913 C15.8081423,4.5797532 15.8666696,4.47151128 15.9237973,4.36580951 C16.0273218,4.36067735 16.0622101,4.43750424 16.1102658,4.487478 C16.7998934,5.20442524 17.4877584,5.92313503 18.1759344,6.64148195 C19.1050109,7.61125288 20.0324286,8.58257901 20.9651858,9.54882483 C21.0742571,9.66178419 21.1439301,9.78091252 21.1628517,9.93503285 C21.1808402,10.0817401 21.2059826,10.2275141 21.2279627,10.3737029 C21.1393163,10.3949055 21.1160402,10.3290169 21.0802187,10.2917439 C20.2819345,9.46074866 19.4851018,8.62835374 18.6879581,7.79621801 C17.7703901,6.83842212 16.8527183,5.88067807 15.9352021,4.92283034 C15.8726831,4.85756378 15.8109416,4.79157145 15.7363439,4.71261913 Z"></path>
                <path d="M7.04293093,4.35067223 C7.12934822,4.45943256 7.18191398,4.5784572 7.23473894,4.68706201 C7.23147302,4.70670937 7.23111014,4.71521113 7.22851814,4.72298713 C7.22592614,4.73065945 7.2225047,4.73895385 7.21700966,4.74470809 C5.43511325,6.60752675 3.65300947,8.47013805 1.8706465,10.3324901 C1.85364298,10.3502713 1.83378826,10.3656159 1.8138817,10.3802348 C1.80838666,10.3842783 1.79801866,10.3816345 1.78987977,10.3820492 C1.78220745,10.3696076 1.76639625,10.3559218 1.76805513,10.3449317 C1.79713738,10.1568044 1.82984842,9.96919541 1.85851594,9.7810162 C1.8709057,9.69967923 1.92964042,9.65209011 1.98039178,9.59890227 C2.34674508,9.21523441 2.71408334,8.83244783 3.08111056,8.44935021 C4.33128407,7.1444855 5.58119838,5.83946527 6.83220132,4.53543 C6.89326885,4.47182232 6.94412389,4.39395863 7.04293093,4.35067223 Z"></path>
                <path d="M15.2540763,14.3529934 C15.203636,14.4528891 15.1679701,14.5268129 15.1290382,14.5989742 C15.1137973,14.6271752 15.0912987,14.6514881 15.075021,14.6736238 C14.9692674,14.6890203 14.8904187,14.6338107 14.8077339,14.6015662 C13.7899073,14.2046273 12.7733767,13.8043188 11.756224,13.405721 C11.4584032,13.2890292 11.5389107,13.285193 11.2409344,13.4020404 C10.2238335,13.8008455 9.20709553,14.2006356 8.18999467,14.5994926 C8.10622123,14.6323592 8.0207889,14.6610785 7.93717098,14.6913531 C7.83302442,14.5925979 7.80119465,14.4728475 7.73540969,14.3568814 C7.81171817,14.3211118 7.86894954,14.2904225 7.92892842,14.2667835 C9.06106224,13.8213223 10.1940255,13.3778829 11.325278,12.9300372 C11.4397926,12.8846772 11.5385997,12.8783008 11.6566912,12.925216 C12.7950976,13.3773645 13.9358369,13.8236033 15.0756949,14.2720712 C15.1288309,14.2930664 15.1799451,14.3191937 15.2540763,14.3529934 Z"></path>
                <path d="M20.9951493,9.01217712 C20.80246,8.83965359 16.4884905,3.88400853 16.3171074,3.64824019 C16.3443753,3.59126803 16.3738204,3.52491283 16.4074645,3.46078674 C16.4380502,3.40251858 16.4731977,3.3466869 16.511663,3.28074641 C16.6058044,3.31900434 16.6519938,3.39940818 16.7087586,3.46446738 C17.3791017,4.23325462 18.0478378,5.00344155 18.7169367,5.77331743 C19.3860356,6.54319331 20.0530091,7.31488359 20.7262552,8.08113067 C20.8353265,8.20523563 20.9018891,8.33670188 20.9208107,8.49870189 C20.938851,8.65365166 20.9651339,8.80772015 20.9951493,9.01217712 Z"></path>
                <path d="M2.00962955,8.97293424 C2.01616139,8.73675118 2.06115851,8.51751981 2.11398347,8.30170988 C2.13212747,8.227475 2.19822348,8.16163819 2.25161868,8.09989675 C2.78862927,7.47911272 3.3275061,6.85988388 3.86602004,6.24034401 C4.66560025,5.32044316 5.46518045,4.40049047 6.26517537,3.4809525 C6.32437666,3.41293842 6.38674018,3.3477237 6.45905698,3.26871953 C6.55786403,3.3897141 6.61115555,3.51703315 6.66859427,3.63792403 C6.66465443,3.65072851 6.66263267,3.65876371 6.65967779,3.66653971 C6.65677475,3.67426387 6.65423459,3.68266196 6.64925795,3.6889346 C6.61317731,3.73424276 6.57777059,3.78022484 6.53982371,3.82392596 C5.06036187,5.52609245 3.58064083,7.22805158 2.10076427,8.92985519 C2.08998155,8.94224495 2.07686603,8.95292399 2.06349131,8.96251439 C2.05784075,8.96650608 2.04871691,8.96572848 2.00962955,8.97293424 Z"></path>
                <path d="M14.8084597,15.2118267 C14.7430376,15.3359835 14.6899016,15.4368123 14.6291969,15.5520527 C14.5434536,15.5273768 14.4652788,15.5076258 14.3889185,15.4825352 C13.500018,15.190676 12.610288,14.9013569 11.7237721,14.6023957 C11.5661267,14.5492078 11.4290099,14.5468232 11.2700684,14.6005294 C10.3758802,14.9028085 9.47811506,15.1943566 8.58149037,15.4894299 C8.51891949,15.5100104 8.45593389,15.5293467 8.38615724,15.5515343 C8.28745388,15.4635099 8.25189164,15.3442261 8.18942443,15.2208469 C8.235251,15.1973634 8.27433836,15.1705102 8.31757292,15.1562024 C9.33145969,14.8203829 10.3460722,14.4866888 11.3596998,14.1499879 C11.4505235,14.1198171 11.5332601,14.1158254 11.6251206,14.146411 C12.6464205,14.4861185 13.6686017,14.8230267 14.69042,15.161179 C14.7209019,15.171236 14.7497249,15.1864251 14.8084597,15.2118267 Z"></path>
                <path d="M16.8825782,2.61175118 C16.9332259,2.46416269 17.0022249,2.34498252 17.0872943,2.21647116 C17.1758371,2.25498828 17.214406,2.33036364 17.263032,2.39179405 C17.9572214,3.26820113 18.6502704,4.14559318 19.3436823,5.02262235 C19.718641,5.49685469 20.0920446,5.97238304 20.4701656,6.44407522 C20.5608856,6.55729379 20.6232491,6.67351907 20.6364683,6.821937 C20.6496357,6.96973285 20.6877381,7.11524774 20.7110142,7.26231782 C20.7180126,7.30664103 20.7121029,7.35303783 20.7121029,7.41286119 C20.6786661,7.38948135 20.6549233,7.37973543 20.6410302,7.36221351 C19.3872279,5.77855327 18.1342032,4.1942191 16.8825782,2.61175118 Z"></path>
                <path d="M5.88591391,2.20014156 C5.99244512,2.34150924 6.0469808,2.46851725 6.11432096,2.60169422 C4.8608297,4.18680598 3.61324819,5.76450463 2.36509645,7.34178855 C2.34601932,7.36589415 2.32025484,7.38471207 2.2766574,7.42561383 C2.2766574,7.35158631 2.2706958,7.30539687 2.27774604,7.26133286 C2.30133324,7.11431462 2.33995404,6.96895525 2.3531214,6.82121124 C2.36634061,6.67279331 2.42891149,6.55713827 2.51932045,6.44360866 C3.10744528,5.70519966 3.6917858,4.96378394 4.27721495,4.2232495 C4.75481689,3.61915795 5.23205596,3.01475536 5.70996894,2.41087117 C5.76092767,2.34653772 5.81510047,2.28474444 5.88591391,2.20014156 Z"></path>
                <path d="M8.80668335,16.4089679 C8.7428683,16.2881807 8.68957678,16.1873001 8.63021998,16.0748073 C8.67967534,16.0510645 8.71373422,16.0277884 8.75131822,16.0176277 C9.62212659,15.7813928 10.4936607,15.5476463 11.3641062,15.3099599 C11.4557593,15.2849211 11.5389107,15.2849211 11.6305638,15.3100117 C12.5009056,15.548061 13.3722842,15.782326 14.2430926,16.0184572 C14.2738337,16.0268034 14.3024494,16.0432367 14.3438177,16.0609141 C14.3401889,16.1325052 14.3008424,16.1860041 14.271812,16.2421468 C14.2455809,16.2928463 14.2159284,16.3417833 14.1822324,16.4012956 C14.1299259,16.3916015 14.0822331,16.3861065 14.0364065,16.3738204 C13.2608282,16.1658901 12.4846279,15.9599298 11.7107085,15.7460898 C11.5606835,15.7046178 11.4235148,15.706173 11.2740083,15.7474376 C10.5079686,15.9589448 9.7398034,16.1625724 8.97226032,16.3687401 C8.92482671,16.3814927 8.87687471,16.3919644 8.80668335,16.4089679 Z"></path>
                <path d="M22.0068588,15.0052443 C22.0328824,15.1811893 22.0902693,15.330644 22.0687039,15.4966357 C22.0384812,15.4900002 22.0118872,15.4905704 21.9925509,15.4790101 C20.4433124,14.5489486 18.894696,13.6179022 17.3550998,12.6924026 C17.3068886,12.523145 17.2808649,12.3700615 17.2900924,12.2122605 C17.3153385,12.2107571 17.3351414,12.2031366 17.3463388,12.209824 C18.8965104,13.1386932 20.4460081,14.0685991 22.0068588,15.0052443 Z"></path>
                <path d="M5.71655262,12.1906432 C5.69265438,12.3687136 5.67305886,12.5147469 5.65667742,12.6365709 C5.63842974,12.6662752 5.63464542,12.6735847 5.62977246,12.6801165 C5.62484766,12.6867002 5.61987102,12.6942688 5.61307998,12.6983642 C4.09707094,13.6131847 2.58090638,14.5276942 1.0645863,15.4420482 C1.03628165,15.4591035 1.00657733,15.4739298 0.977080372,15.4888597 C0.970289331,15.4922811 0.961528371,15.4925922 0.953596851,15.4929032 C0.94540613,15.4932143 0.93711173,15.4917627 0.921507889,15.4905186 C0.896832048,15.331629 0.956707251,15.1830037 0.977806132,15.0345858 C1.15318086,14.8944104 5.48135453,12.2917312 5.71655262,12.1906432 Z"></path>
                <path d="M5.53604573,13.3377588 C5.56393565,13.4921383 5.50421597,13.6330394 5.49078941,13.772489 C5.3119414,13.8986158 1.04089542,16.1579586 0.798647082,16.254381 C0.75873028,16.1833602 0.804297643,16.1141538 0.802483243,16.0462953 C0.796988202,15.842253 0.913265328,15.7456751 1.08236742,15.6571842 C2.48422477,14.9235963 3.88152021,14.1813512 5.2810966,13.4434087 C5.3598934,13.4018849 5.43252125,13.3408173 5.53604573,13.3377588 Z"></path>
                <path d="M22.213182,16.2552623 C22.1692735,16.2470716 22.1424722,16.2482121 22.1219436,16.2374293 C20.5839025,15.4264962 19.046328,14.6146299 17.5065244,13.801675 C17.4800342,13.647762 17.4383548,13.5052538 17.4446793,13.3503041 C17.5245648,13.3245396 17.5754198,13.3740468 17.6288669,13.4021441 C18.3180797,13.7643502 19.0064631,14.1280596 19.6948983,14.4917172 C20.4346033,14.8824872 21.174101,15.2735682 21.9136504,15.6645455 C21.9356306,15.6761576 21.9564184,15.6909839 21.9795391,15.6991746 C22.1133381,15.7465045 22.1726431,15.840646 22.1761164,15.98191 C22.1783455,16.0700898 22.1992889,16.1578549 22.213182,16.2552623 Z"></path>
                <path d="M5.38197725,14.3591105 C5.41556957,14.5281089 5.35813084,14.6612859 5.34418588,14.8150952 C4.96316186,15.0080955 4.56788184,15.1759534 4.17923734,15.3574971 C3.79665812,15.5361896 3.41169426,15.70975 3.02771536,15.8855394 C2.63621966,16.0647503 2.24467212,16.2438575 1.85322826,16.4231721 C1.47023432,16.5986505 1.08734406,16.7743881 0.698440357,16.9527177 C0.648829474,16.8688406 0.676252836,16.7968866 0.686517156,16.7278358 C0.697403557,16.6544822 0.716999078,16.5823727 0.736750119,16.4916527 C1.49879816,16.1303797 2.27593164,15.7818594 3.04969552,15.4262888 C3.82278548,15.0709774 4.59509784,14.7135925 5.38197725,14.3591105 Z"></path>
                <path d="M5.32272412,1.12021062 C5.40826013,1.28034439 5.47404509,1.40351623 5.53640861,1.52031176 C5.45165021,1.67692041 2.84565327,5.32147996 2.64254414,5.56797918 C2.62839182,5.58513822 2.6043899,5.59415838 2.57204174,5.61546462 C2.57204174,5.5702083 2.56773902,5.53827485 2.5727675,5.50784477 C2.5958363,5.36912092 2.63404238,5.23169308 2.64363278,5.09224347 C2.66084366,4.8419081 2.76841167,4.63999129 2.91392655,4.44051096 C3.66524371,3.41055378 4.40748887,2.37401293 5.15341467,1.34006407 C5.20105564,1.27396807 5.25279196,1.2107751 5.32272412,1.12021062 Z"></path>
                <path d="M17.5956893,14.3790171 C17.6348803,14.3851342 17.6613187,14.3836827 17.6825731,14.3934286 C19.2030922,15.0891733 20.7231966,15.7857474 22.2480185,16.484447 C22.2846175,16.6331241 22.3231346,16.7746473 22.3211129,16.9167407 C22.3026578,16.9286639 22.2971628,16.934159 22.2906828,16.9358697 C22.2829068,16.9379433 22.273109,16.9394985 22.2661106,16.9365955 C22.1973708,16.9079798 22.1283199,16.8798825 22.0606687,16.8488822 C20.5935448,16.1757916 19.1266282,15.5023899 17.658623,14.8285736 C17.6212982,14.6763195 17.5851657,14.5343816 17.5956893,14.3790171 Z"></path>
                <path d="M20.4201918,5.61022878 C20.3912132,5.59809822 20.3706846,5.59623198 20.3627012,5.5852419 C19.3917898,4.24367446 18.4218115,2.90138127 17.4490339,1.55540744 C17.4955344,1.40590087 17.5799817,1.28428423 17.6555126,1.14789318 C17.7478397,1.1781159 17.7776477,1.26012679 17.822904,1.32274951 C18.5454499,2.32315788 19.2663889,3.3246549 19.9877425,4.32594455 C20.0409822,4.39986839 20.0899191,4.47747288 20.1485502,4.5468348 C20.2538372,4.67145817 20.3070251,4.8139145 20.3276574,4.97446298 C20.3487563,5.13853659 20.3822968,5.30095132 20.408476,5.46440285 C20.4157336,5.51007389 20.4160964,5.55693725 20.4201918,5.61022878 Z"></path>
                <path d="M17.792111,15.7692104 C17.7437443,15.6178376 17.7333245,15.4886005 17.7358128,15.3372277 C18.0164227,15.4060712 18.2589821,15.5281026 18.5113392,15.6212072 C18.7675325,15.7157116 19.0202525,15.8197544 19.2744759,15.9195464 C19.5364234,16.022397 19.798371,16.1251957 20.0603185,16.2279945 C20.3145937,16.3277865 20.5688689,16.4275266 20.8230923,16.5272668 C21.0773675,16.627007 21.3317464,16.7263842 21.5858143,16.8266428 C21.8394156,16.926694 22.0927058,17.0276265 22.3532018,17.1309955 C22.3719679,17.2048156 22.3939481,17.275318 22.4070117,17.3474275 C22.4185721,17.4112425 22.4201791,17.476872 22.4276959,17.5578461 C22.3222015,17.5742793 22.2439231,17.520936 22.1648153,17.4900393 C21.1009029,17.0744899 20.0380791,16.6562447 18.9749444,16.2386217 C18.6591351,16.1145685 18.3432739,15.9905154 18.0276202,15.8659439 C17.9510525,15.8356693 17.8753142,15.8034248 17.792111,15.7692104 Z"></path>
                <path d="M5.25559132,15.3165954 C5.2538806,15.4961691 5.2497334,15.6338043 5.19359068,15.7601903 C4.8794921,15.9159695 0.765936041,17.5196918 0.581333791,17.5569648 C0.547793309,17.4141456 0.595330592,17.2830422 0.633692194,17.1315657 C2.15607755,16.5305846 3.68654996,15.9307957 5.25559132,15.3165954 Z"></path>
                <path d="M17.9030486,16.635405 C17.8829865,16.4924303 17.8659312,16.371021 17.8470614,16.2366517 C17.9459203,16.2098505 18.0189629,16.2581653 18.0916944,16.2820117 C19.0124765,16.5841871 19.9322219,16.8896284 20.8524856,17.1935664 C21.3794911,17.3675932 21.9069112,17.540376 22.4393599,17.7154397 C22.5015161,17.8450397 22.5225113,17.980031 22.5199193,18.1333219 C22.4263481,18.1589827 22.3528908,18.1105123 22.2802629,18.0867696 C21.4221035,17.8063152 20.5650846,17.5223875 19.7078583,17.2390819 C19.1808529,17.0648995 18.6539511,16.8905097 18.1272048,16.7157052 C18.057169,16.6924809 17.9881181,16.6659906 17.9030486,16.635405 Z"></path>
                <path d="M5.14283931,16.2209961 C5.12334747,16.367133 5.10722523,16.488335 5.08959963,16.6203714 C5.03993691,16.6441142 4.99105178,16.674285 4.93801946,16.691807 C3.49095762,17.1698755 2.04353291,17.646648 0.596004512,18.123265 C0.56526339,18.1333738 0.532967068,18.1388688 0.487399706,18.1499107 C0.445098264,18.0006115 0.502018587,17.8718409 0.522806428,17.7475286 C0.721664678,17.6528169 4.84807706,16.287766 5.14283931,16.2209961 Z"></path>
                <path d="M18.0220214,17.4367478 C18.0108758,17.3765616 17.998175,17.3206262 17.9906582,17.2639651 C17.9821565,17.2000982 17.9782685,17.1356611 17.9720995,17.0681135 C18.0125866,17.0616854 18.0376253,17.0500214 18.0581021,17.0555164 C19.5508868,17.4557731 21.0432568,17.8574294 22.5407071,18.2603299 C22.5815052,18.4003498 22.6283167,18.5298979 22.6003231,18.6905501 C21.1128261,18.2892048 19.6376151,17.8913846 18.1627152,17.4925276 C18.1158,17.4799305 18.0717878,17.4568099 18.0220214,17.4367478 Z"></path>
                <path d="M0.38636354,18.6907575 C0.361169299,18.5317123 0.413735062,18.4154871 0.432864023,18.2807549 C0.499478426,18.2576342 0.56723331,18.2294333 0.637476514,18.210408 C2.00444555,17.8406333 3.37172562,17.4717916 4.73905753,17.1032092 C4.81821722,17.081903 4.89825818,17.06407 4.98353498,17.0432303 C5.04387675,17.1796214 4.97612186,17.2965206 4.9836905,17.4016003 C4.9108553,17.4853219 4.82537114,17.4907651 4.74683353,17.5120195 C3.52377235,17.8429661 2.30065932,18.1739126 1.07759814,18.5047037 C0.854064045,18.5651491 0.630374433,18.6250762 0.38636354,18.6907575 Z"></path>
                <path d="M13.9100724,16.9156003 C13.8868999,16.9694102 13.8729031,17.0079273 13.8541371,17.0440079 C13.8200263,17.1096892 13.7831163,17.173919 13.7424218,17.2476873 C13.6929665,17.2444214 13.6436666,17.2471689 13.5971143,17.2372675 C12.9656512,17.1030019 12.3341363,16.9688399 11.7036582,16.8299087 C11.5627571,16.7988566 11.4277139,16.7986492 11.2868128,16.8296495 C10.6563346,16.9684771 10.0247679,17.1024316 9.3934085,17.237423 C9.35364722,17.2459248 9.31253809,17.2482576 9.26437873,17.2544784 C9.17604337,17.1613219 9.14115504,17.0419343 9.0716376,16.9234281 C9.14053296,16.8991151 9.19211377,16.874543 9.24649393,16.8627753 C9.92590901,16.7152905 10.6060498,16.5709679 11.2852576,16.4224982 C11.4258476,16.391757 11.5622387,16.3927938 11.7024141,16.4233794 C12.3735866,16.5698274 13.0455367,16.7127503 13.7169684,16.8582652 C13.7795393,16.8717436 13.8400366,16.8945014 13.9100724,16.9156003 Z"></path>
                <path d="M16.5899932,11.7701689 C16.5558306,11.8868608 16.4932079,11.9913184 16.4206837,12.1047443 C16.3708655,12.0832826 16.3244169,12.0692339 16.2840853,12.0450246 C15.1982965,11.3928256 14.1131297,10.7395897 13.0280666,10.086302 C12.9930228,10.0652031 12.9596378,10.041253 12.9175437,10.0134149 C12.9442413,9.87811252 13.0126183,9.770389 13.0894452,9.66748659 C13.2744621,9.74358772 16.3972521,11.6195219 16.5899932,11.7701689 Z"></path>
                <path d="M6.57300131,12.1253248 C6.50218786,11.9919405 6.4485853,11.8909562 6.38813986,11.7770637 C6.4317373,11.7423827 6.46564066,11.7086867 6.50540194,11.6846848 C7.59010216,11.0306195 8.67532078,10.3774354 9.76095412,9.72487348 C9.80237428,9.69999027 9.84846004,9.68298675 9.89573812,9.66069555 C9.97681589,9.76670836 10.0309369,9.8756242 10.081118,9.99744821 C10.0419788,10.0277228 10.0125337,10.0555609 9.97863029,10.0759858 C8.85193967,10.7545196 7.72488617,11.4323795 6.57300131,12.1253248 Z"></path>
                <path d="M11.0451865,11.7827661 C11.0767052,11.8372499 11.1026252,11.8788774 11.1253311,11.9222157 C11.1558649,11.9805357 11.1839622,12.0400998 11.2176582,12.108425 C11.1722982,12.1364704 11.1332108,12.1656045 11.0901318,12.1865997 C9.91414133,12.7595354 7.69507817,13.7609806 7.46812264,13.8204411 C7.39440615,13.7252628 7.34044071,13.6175911 7.30119783,13.5034394 C7.47232168,13.3905837 10.7724563,11.8726566 11.0451865,11.7827661 Z"></path>
                <path d="M12.3362618,11.0492819 C12.3951002,10.9379295 12.4483399,10.8369971 12.5083187,10.7235193 C12.5635802,10.7423372 12.6107027,10.7517721 12.651449,10.7732857 C13.7799022,11.368046 14.9077851,11.9639987 16.0354607,12.5603143 C16.0707119,12.5789248 16.1024898,12.6041191 16.1445839,12.6320608 C16.0992757,12.756114 16.0369122,12.8602087 15.9768815,12.9632666 C15.7918645,12.9020954 12.6148499,11.2331065 12.3362618,11.0492819 Z"></path>
                <path d="M10.4607423,10.714551 C10.5418719,10.8331609 10.6111302,10.9323827 10.6352358,11.053118 C10.468622,11.1750457 7.26159206,12.8723911 7.02556453,12.9638368 C7.00773157,12.9408199 6.98440357,12.9178029 6.96952549,12.8901722 C6.92691301,12.8109088 6.88772196,12.7297274 6.85153764,12.6579808 C6.85915812,12.6372448 6.86086884,12.6287431 6.86517156,12.6218483 C6.86942244,12.6149536 6.87517668,12.6076442 6.8820714,12.6039635 C8.00824362,12.0063002 9.13457136,11.4088441 10.2611065,10.8118028 C10.3192709,10.780958 10.3794572,10.7540012 10.4607423,10.714551 Z"></path>
                <path d="M11.7680435,12.1040704 C11.8285408,11.9921478 11.8829209,11.8915264 11.9427443,11.7808998 C11.9980576,11.7982662 12.0451802,11.8076493 12.087689,11.8271411 C13.2383297,12.3538874 14.3886075,12.8815149 15.5385743,13.4097646 C15.5899995,13.4334036 15.6381589,13.4643002 15.692902,13.4946266 C15.6453647,13.618265 15.5965832,13.7291508 15.5178901,13.8212187 C15.3249416,13.7665793 11.998265,12.2451789 11.7680435,12.1040704 Z"></path>
                <path d="M9.70154547,18.1017514 C9.62679219,17.996568 9.56608755,17.8929917 9.53125106,17.7642211 C9.69356211,17.6922672 9.86256052,17.6947555 10.0232645,17.6658288 C10.4303641,17.5926307 10.8401593,17.5344662 11.2482956,17.4669705 C11.421856,17.4382512 11.592928,17.4409987 11.7663846,17.4699772 C12.2560134,17.5517289 12.7465754,17.6281411 13.2365153,17.7080784 C13.3084173,17.7197942 13.3790234,17.7393897 13.4605678,17.7576374 C13.4226727,17.8928361 13.3627457,17.9968272 13.2874221,18.1023734 C13.2268212,18.0978115 13.1692269,18.097656 13.1130842,18.088584 C12.655648,18.0149712 12.1982118,17.9412029 11.7412941,17.8642205 C11.5676301,17.8349309 11.3964544,17.8388707 11.2232051,17.8682121 C10.766391,17.9455574 10.3089029,18.0190666 9.85141492,18.0926794 C9.80346292,18.1004554 9.75390388,18.0988483 9.70154547,18.1017514 Z"></path>
                <path d="M2.89816719,3.58281811 C2.95918288,3.22569233 3.00874192,2.92465743 3.06389968,2.62471118 C3.07245328,2.57815886 3.102676,2.53368013 3.12958097,2.49267469 C3.62937043,1.73192265 4.13009302,0.971792691 4.63123033,0.211921931 C4.64864857,0.18548353 4.67280601,0.163451529 4.70256217,0.129288967 C4.85792666,0.198910091 4.9046345,0.339603858 4.96264346,0.465367705 C4.8680873,0.670187556 3.07737808,3.3889365 2.89816719,3.58281811 Z"></path>
                <path d="M20.0831799,3.54056851 C20.0501579,3.53222227 20.0269854,3.53351827 20.0205054,3.52372051 C19.3525469,2.51740237 18.6858327,1.5102548 18.0184445,0.502174107 C18.0689885,0.347742738 18.1260643,0.215343371 18.2788368,0.129133447 C18.3123255,0.166354569 18.34908,0.19808065 18.3748445,0.237116173 C18.8673245,0.983404852 19.3587677,1.73031561 19.8492779,2.47790029 C19.8806411,2.52574861 19.9164107,2.57722574 19.9265195,2.63139854 C19.9823511,2.9313448 20.0309252,3.23263889 20.0831799,3.54056851 Z"></path>
                <path d="M9.95950133,18.6046512 C10.0557682,18.5864554 10.1193759,18.5698147 10.1840204,18.56292 C10.5876985,18.5197373 10.9915321,18.4781616 11.3955212,18.4376227 C11.4527526,18.4318685 11.5114355,18.4287581 11.5684077,18.4344605 C11.9888819,18.4765027 12.409097,18.5205667 12.8292602,18.5656157 C12.8857658,18.571681 12.9412864,18.5868183 12.9933338,18.5970307 C13.0254746,18.6824631 12.9691764,18.7318148 12.9436711,18.788113 C12.920032,18.8403159 12.8864916,18.8880605 12.8569428,18.9383453 C12.7367776,18.9655613 12.6226259,18.9383972 12.5084224,18.9263184 C12.2777344,18.9019018 12.0462688,18.88241 11.8169805,18.8482992 C11.5343488,18.8063088 11.2558643,18.8392791 10.9761875,18.8703831 C10.7050642,18.900554 10.4337337,18.9291696 10.1532274,18.9594442 C10.1140882,18.8981693 10.0768671,18.8455517 10.0457113,18.7895645 C10.0180805,18.73985 9.99718901,18.6863511 9.95950133,18.6046512 Z"></path>
                <path d="M10.5794559,19.806458 C10.5165222,19.6865002 10.4636454,19.585827 10.4000377,19.4646769 C10.4728729,19.4457034 10.5235724,19.4256413 10.575879,19.4198353 C11.1588198,19.3551389 12.2254278,19.3749418 12.5530567,19.4544126 C12.5301952,19.5981649 12.5301952,19.5981649 12.4027207,19.7894026 C12.1037594,19.8151153 11.8004435,19.7501598 11.4961427,19.7548772 C11.1987366,19.759491 10.9016934,19.787329 10.5794559,19.806458 Z"></path>
                <path d="M4.01962197,0.0158112008 C3.95145237,0.206841611 3.47867154,0.997557173 3.32885394,1.17246534 C3.32304786,1.14618246 3.31190226,1.12466886 3.31496082,1.10538438 C3.34860498,0.892892207 3.38048658,0.679985316 3.42066258,0.468685465 C3.47219154,0.19782145 3.65523859,0.0311558417 3.92729493,0.000518400027 C3.95642901,-0.00274752015 3.98742933,0.0101088005 4.01962197,0.0158112008 Z"></path>
                <path d="M19.6678897,1.17018438 C19.6475684,1.15986822 19.6274026,1.15649862 19.6204042,1.14509382 C19.4128369,0.805904683 19.2062545,0.466093465 19.0006052,0.125763847 C18.9842237,0.0987033652 18.9756701,0.0668736035 18.9605328,0.0300672016 C18.9890967,0.0176256009 19.0098327,0.000362880019 19.0297392,0.00119232006 C19.3015364,0.0129081607 19.5036087,0.174700809 19.5614622,0.438203543 C19.5969207,0.599788832 19.6165681,0.764899241 19.6416586,0.928661809 C19.6537374,1.00751045 19.690803,1.08459654 19.6678897,1.17018438 Z"></path>
                <path d="M10.8662348,20.313868 C10.885934,20.2959832 10.8973907,20.2764395 10.908951,20.2763876 C11.2891974,20.2741585 11.6694957,20.2733291 12.0497939,20.2743659 C12.070167,20.2744177 12.0904883,20.2926136 12.1150605,20.3043812 C12.1129869,20.3858219 12.0538374,20.4223691 12.0070778,20.4646187 C11.7917344,20.6593297 11.2068236,20.663788 10.9788313,20.4627006 C10.9306719,20.4202436 10.8769657,20.3800676 10.8662348,20.313868 Z"></path>
                <path d="M21.6364619,20.0174414 C21.7400901,20.0012414 21.8436664,19.9850414 21.9472946,19.9688414 C21.8463621,20.0767982 21.7434597,20.0200334 21.6399871,20.0154974 C21.6388984,20.0166638 21.6364619,20.0174414 21.6364619,20.0174414 Z"></path>
                <path d="M22.0302904,19.6318479 C22.1090354,19.6113711 22.1877804,19.5908943 22.2664735,19.5705471 C22.2670437,19.5903759 22.2675621,19.6103343 22.2681324,19.6301631 C22.1899577,19.6301631 22.1117829,19.6301631 22.0325714,19.6309407 C22.0315346,19.6315887 22.0302904,19.6318479 22.0302904,19.6318479 Z"></path>
                <path d="M1.35032839,20.0168781 C1.24690759,20.0168781 1.14348678,20.0168781 1.04006598,20.0168781 C1.04006598,20.0054733 1.04006598,19.9940685 1.04006598,19.9825341 C1.14395334,19.9939389 1.24784071,20.0053437 1.35255751,20.0177853 C1.35338695,20.0186925 1.35032839,20.0168781 1.35032839,20.0168781 Z"></path>
                <path d="M0.958936371,19.6321158 C0.880035887,19.6321158 0.801135402,19.6321158 0.722234918,19.6321158 C0.722908838,19.6117686 0.723530918,19.5914214 0.724204838,19.5709446 C0.802483243,19.5910326 0.880761647,19.6111206 0.959765811,19.631727 C0.960439731,19.6322454 0.958936371,19.6321158 0.958936371,19.6321158 Z"></path>
            </g>
        </g>
    </g>
</svg>