<svg width="44" height="44" xmlns="http://www.w3.org/2000/svg" xmlns:xlink="http://www.w3.org/1999/xlink">
    <defs>
        <circle id="a" cx="22" cy="22" r="22"/>
    </defs>
    <g fill="none" fill-rule="evenodd">
        <mask id="b" fill="#fff">
            <use xlink:href="#a"/>
        </mask>
        <use fill="#F7F3ED" xlink:href="#a"/>
        <g mask="url(#b)" fill="#251617" fill-rule="nonzero">
            <path d="M32.636 30.97c-.018-.042-.05-.062-.095-.067l-1.458-.157-1.556-.166c-.065-.007-.129-.025-.194-.038a.748.748 0 01-.047-.36c.042-.004.08-.012.118-.008 1.037.11 2.075.22 3.113.333.172.019.343.045.516.067h.235l-.001-.024-.237.024c-.007-.047-.036-.067-.083-.074-.409-.065-.817-.133-1.226-.198l-2.307-.366c-.057-.009-.112-.025-.17-.039-.06-.122-.054-.243-.06-.382.233.003.44.06.65.089.205.027.408.064.613.097l.638.101.614.099.638.101c.204.033.408.068.613.098.21.03.416.082.632.06l-4.435-.952a.836.836 0 01-.06-.371c.065-.048.12-.02.174-.009l4.13.881c.08.017.159.042.243.064.012.045.025.084.032.124.03.17.062.34.087.511.013.09.02.182.019.272a.466.466 0 01-.341.466.919.919 0 01-.269.038c-1.07.002-2.138.001-3.208.001-.041 0-.083.001-.124-.005a.55.55 0 01-.42-.276c-.015-.026-.017-.06-.029-.107.08-.003.143-.01.206-.007.43.022.86.046 1.291.07l1.614.09c.049.003.098.012.148.018.104.002.206.025.307-.019l-.31.02zm-20.286-.002c.025-.005.049-.012.073-.014.935-.053 1.87-.106 2.805-.157.121-.007.243-.018.381-.005-.013.052-.014.085-.029.111a.548.548 0 01-.42.277c-.057.008-.116.005-.174.005-1.044 0-2.088.002-3.133-.001-.098 0-.2-.01-.293-.038a.468.468 0 01-.343-.464c-.001-.033-.004-.067.001-.1l.128-.814c1.515-.33 3.02-.646 4.534-.972.045.145.013.269-.033.408-1.477.329-2.96.627-4.435.973.483-.043.959-.131 1.437-.206.49-.076.982-.154 1.472-.232.483-.077.965-.156 1.454-.235.054.13.015.248-.013.365-.07.06-.154.061-.235.074l-3.042.488c-.155.025-.311.047-.466.077-.023.004-.04.044-.06.067a141.84 141.84 0 00-.235-.025l-.002.025h.237c.171-.023.343-.05.515-.068l2.075-.22c.346-.036.691-.076 1.037-.114.031-.003.063 0 .108 0a.639.639 0 01-.038.37c-.073.014-.145.032-.218.04-.675.073-1.35.144-2.026.216l-.963.104a.111.111 0 00-.096.065l-.313-.014v.014h.31zm20.51-5.808c.04.17.08.336.076.529-.048-.023-.078-.034-.104-.051l-8.356-5.681c.04-.142.116-.245.177-.356.233.116 7.44 5 8.206 5.558zm-12.541-5.57c.09.118.143.227.194.347-.036.032-.063.062-.096.085l-8.313 5.645c-.01.007-.03-.002-.059-.004a2.2 2.2 0 01.07-.435.283.283 0 01.08-.117c.036-.034.081-.058.122-.086l7.797-5.301c.061-.042.124-.081.205-.134zm-8.111 5.176c-.012-.18.038-.34.068-.5.006-.036.042-.07.07-.097.043-.04.092-.072.138-.107l7.04-5.37c.072-.054.137-.12.243-.153.06.11.12.218.174.32-.044.103-.13.142-.202.196l-4.231 3.23-3.086 2.351c-.063.048-.119.114-.214.13zM25.03 18.89l.19-.346c.11.023.173.094.244.148l5.024 3.83 2.017 1.54c.046.035.095.067.137.107.03.027.065.06.072.096.032.161.073.322.07.489-.025 0-.046.006-.056-.001-2.564-1.941-5.116-3.898-7.697-5.863zm7.586 4.86c-.082 0-.117-.052-.16-.087-1.744-1.442-6.678-5.66-6.84-5.85.052-.115.105-.234.197-.344.055.043.102.075.144.112 2.146 1.824 4.292 3.65 6.44 5.472.103.088.16.183.174.314.01.09.031.18.044.27.005.036 0 .074 0 .112zm-13.439-6.282c.091.117.15.232.204.37-2.326 1.98-4.65 3.957-7.007 5.96a2.12 2.12 0 01.082-.583c.014-.056.076-.105.126-.147l1.172-1 5.226-4.443c.061-.052.126-.1.197-.157zm-6.609 5.195c-.01-.235.046-.41.074-.59.007-.043.045-.086.078-.122.05-.055.106-.104.16-.155l5.53-5.221c.06-.056.123-.108.193-.17.098.108.144.23.197.34-.025.099-.1.142-.16.197a6032.513 6032.513 0 01-5.836 5.512c-.064.061-.133.118-.236.21zm13.598-5.887l.194-.36c.107.02.157.102.22.161.826.778 1.651 1.557 2.476 2.337 1.03.972 2.06 1.946 3.092 2.916.133.124.233.25.237.442.002.114.032.227.055.377-.07-.044-.115-.063-.147-.094-.333-.312-.664-.625-.995-.938l-4.916-4.641c-.065-.063-.133-.123-.216-.2zm.57-1.063l.188-.347c.103-.005.138.072.186.121.69.717 1.378 1.436 2.066 2.154.929.97 1.856 1.942 2.79 2.908a.658.658 0 01.197.386c.018.147.043.293.065.439-.089.02-.112-.045-.148-.082-.798-.831-1.595-1.664-2.392-2.496l-2.753-2.873-.199-.21zm-8.693-.363c.086.11.139.228.192.337l-.006.036a.059.059 0 01-.012.022l-5.346 5.587a.428.428 0 01-.057.048c-.006.004-.016.002-.024.002-.008-.012-.024-.026-.022-.037.03-.188.062-.376.09-.564.013-.081.072-.129.122-.182l1.101-1.15 3.751-3.914c.061-.063.112-.141.21-.184zm8.211 10.003c-.05.1-.086.174-.125.246-.015.028-.038.052-.054.075-.106.015-.185-.04-.267-.072-1.018-.397-2.035-.798-3.052-1.196-.298-.117-.217-.12-.515-.004l-3.051 1.197c-.084.033-.17.062-.253.092-.104-.098-.136-.218-.202-.334.077-.036.134-.067.194-.09 1.132-.446 2.265-.89 3.396-1.337a.414.414 0 01.332-.005c1.138.452 2.279.899 3.419 1.347.053.021.104.047.178.081zm5.741-5.341c-.193-.172-4.507-5.128-4.678-5.364.027-.057.057-.123.09-.187.031-.058.066-.114.105-.18.094.038.14.118.197.183l2.008 2.31c.669.77 1.336 1.54 2.01 2.307a.75.75 0 01.194.418c.018.155.044.309.074.513zm-18.985-.039c.006-.236.051-.455.104-.671.018-.075.084-.14.138-.202l1.614-1.86 2.4-2.759c.058-.068.12-.133.193-.212.099.12.152.248.21.369l-.01.029a.062.062 0 01-.01.022c-.036.045-.071.091-.11.135l-4.438 5.106a.215.215 0 01-.038.033c-.005.004-.014.003-.053.01z"/>
            <path d="M25.808 26.212l-.179.34c-.086-.025-.164-.044-.24-.07-.889-.291-1.779-.58-2.665-.88a.662.662 0 00-.454-.001c-.894.302-1.792.593-2.689.888l-.195.063c-.099-.088-.134-.208-.197-.331.046-.024.085-.05.129-.065l3.042-1.006a.398.398 0 01.265-.004c1.021.34 2.044.677 3.065 1.015.03.01.06.025.118.05zm2.075-12.6c.05-.148.12-.267.204-.396.089.039.127.114.176.176l2.08 2.63c.376.475.749.95 1.127 1.422.09.113.153.23.166.378.014.148.052.293.075.44.007.045.001.091.001.15-.033-.023-.057-.032-.071-.05-1.254-1.583-2.507-3.168-3.758-4.75zM16.886 13.2c.106.142.161.269.228.402-1.253 1.585-2.5 3.163-3.749 4.74-.019.024-.045.043-.088.084 0-.074-.006-.12 0-.165.024-.147.063-.292.076-.44a.686.686 0 01.166-.377c.588-.739 1.173-1.48 1.758-2.22.478-.605.955-1.21 1.433-1.813.05-.064.105-.126.176-.21z"/>
            <path d="M19.807 27.409l-.177-.334c.05-.024.084-.047.121-.057.871-.237 1.743-.47 2.613-.708a.482.482 0 01.267 0c.87.238 1.741.472 2.612.708.03.009.06.025.1.043-.003.072-.042.125-.071.181-.026.05-.056.1-.09.16-.052-.01-.1-.016-.146-.028-.775-.208-1.551-.414-2.325-.628a.784.784 0 00-.437.001c-.766.212-1.534.416-2.302.622l-.165.04zm13.2-1.404c.026.176.083.326.062.492-.03-.007-.057-.006-.076-.018-1.55-.93-3.098-1.861-4.638-2.787a1.422 1.422 0 01-.065-.48c.025-.001.045-.009.056-.002l4.66 2.795zm-16.29-2.815l-.06.447c-.019.03-.022.037-.027.043-.005.007-.01.014-.017.018l-4.548 2.744a1.485 1.485 0 01-.088.047.059.059 0 01-.023.004l-.032-.002c-.025-.16.035-.308.056-.456.175-.14 4.503-2.743 4.739-2.844zm-.181 1.148c.028.154-.032.295-.045.434-.18.127-4.45 2.386-4.692 2.482-.04-.07.005-.14.003-.208-.005-.204.111-.3.28-.389 1.402-.733 2.8-1.476 4.2-2.214.078-.041.15-.102.254-.105zm16.677 2.917c-.044-.008-.07-.007-.091-.018a4150.53 4150.53 0 01-4.615-2.435c-.027-.154-.069-.297-.062-.452.08-.025.13.024.184.052.69.362 1.377.726 2.066 1.09.74.39 1.48.782 2.219 1.173.022.011.042.026.066.034.133.048.193.142.196.283.002.088.023.176.037.273zM16.382 25.36c.034.168-.024.301-.038.455-.38.193-.776.361-1.165.542-.382.18-.767.353-1.151.529l-1.175.537-1.155.53c-.05-.084-.022-.156-.011-.225.01-.074.03-.146.05-.236.762-.362 1.539-.71 2.313-1.066.773-.355 1.545-.712 2.332-1.067zm-.059-13.24l.213.4c-.084.157-2.69 3.801-2.893 4.048-.015.017-.039.026-.071.047 0-.045-.004-.077 0-.107.024-.139.062-.276.072-.416.017-.25.124-.452.27-.651.751-1.03 1.493-2.067 2.24-3.1.047-.067.099-.13.169-.22zm12.273 13.259c.039.006.065.005.087.014l4.565 2.091c.037.15.075.29.073.433-.018.012-.024.017-.03.019a.043.043 0 01-.025 0c-.069-.028-.138-.056-.205-.087l-4.402-2.02c-.038-.153-.074-.295-.063-.45zm2.824-8.769c-.029-.012-.05-.014-.057-.025-.971-1.341-1.941-2.684-2.914-4.03.047-.15.131-.27.207-.407.092.03.122.112.167.175l2.165 3.003c.053.074.102.151.16.22a.796.796 0 01.18.428c.02.165.054.327.08.49.008.046.008.093.012.146zm-2.628 10.16a1.264 1.264 0 01-.056-.433c.28.07.523.191.775.284.257.095.51.199.763.299l.786.308.763.3c.254.099.509.198.763.299l.767.304c.019.074.04.144.054.216.012.064.013.13.02.21-.105.017-.183-.036-.262-.067-1.064-.416-2.127-.834-3.19-1.251l-.947-.373c-.077-.03-.153-.063-.236-.097zm-12.536-.453c-.002.18-.006.317-.062.443-.315.156-4.428 1.76-4.613 1.797-.033-.143.014-.274.053-.425 1.522-.601 3.053-1.201 4.622-1.815zm12.647 1.318l-.056-.398c.099-.027.172.021.245.045.92.302 1.84.608 2.76.912l1.587.521a.9.9 0 01.08.418c-.093.026-.166-.022-.239-.046-.858-.28-1.715-.565-2.572-.848l-1.58-.523-.225-.08zm-12.76-.414l-.053.4c-.05.023-.099.053-.152.07-1.447.479-2.894.956-4.342 1.432-.03.01-.063.016-.109.027-.042-.15.015-.278.036-.402.199-.095 4.325-1.46 4.62-1.527zm12.879 1.216c-.011-.06-.024-.116-.031-.173-.009-.064-.013-.128-.019-.196.04-.006.066-.018.086-.012l4.483 1.204c.04.14.087.27.06.43-1.488-.4-2.963-.799-4.438-1.197-.047-.013-.091-.036-.141-.056zM11.386 29.69c-.025-.158.028-.275.047-.41.066-.022.134-.05.204-.07 1.367-.37 2.735-.738 4.102-1.107.08-.021.16-.039.245-.06.06.137-.008.254 0 .359-.073.083-.159.089-.237.11l-3.67.993-.69.186z"/>
            <path d="M24.91 27.916c-.023.053-.037.092-.056.128-.034.066-.07.13-.112.204-.049-.004-.098 0-.145-.01-.631-.135-1.263-.27-1.893-.408a.945.945 0 00-.417 0c-.63.138-1.262.272-1.894.407-.04.009-.08.011-.129.017-.088-.093-.123-.212-.192-.33.069-.025.12-.05.174-.061.68-.148 1.36-.292 2.04-.44a.957.957 0 01.416 0c.672.147 1.344.29 2.015.435.063.014.123.037.193.058zm2.68-5.146a1.318 1.318 0 01-.17.335c-.05-.022-.096-.036-.136-.06-1.086-.652-2.17-1.305-3.256-1.959-.035-.02-.068-.045-.11-.073a.85.85 0 01.171-.346c.185.077 3.308 1.953 3.501 2.103zm-10.017.355l-.185-.348c.044-.035.078-.068.117-.092 1.085-.654 2.17-1.308 3.256-1.96.041-.025.087-.042.135-.064.08.106.135.215.185.336-.039.03-.068.059-.102.079l-3.406 2.05zm4.472-.342c.032.054.058.096.08.14l.093.185c-.046.028-.085.058-.128.079-1.176.573-3.395 1.574-3.622 1.633a1.095 1.095 0 01-.167-.317c.171-.112 3.471-1.63 3.744-1.72zm1.291-.733l.172-.326c.056.018.103.028.143.05 1.129.594 2.257 1.19 3.384 1.786.036.019.067.044.11.072-.046.124-.108.228-.168.331-.185-.06-3.362-1.73-3.64-1.914zm-1.876-.335c.082.118.151.217.175.338-.166.122-3.373 1.82-3.61 1.91-.017-.022-.04-.045-.055-.073-.043-.08-.082-.16-.118-.232.007-.02.009-.03.013-.036a.05.05 0 01.017-.018 6777.31 6777.31 0 013.38-1.792c.057-.031.117-.058.199-.097zm1.308 1.389l.175-.323c.055.017.102.027.145.046l3.45 1.583c.052.023.1.054.155.085a1.087 1.087 0 01-.175.326c-.193-.054-3.52-1.576-3.75-1.717zm-2.066 5.998a1.038 1.038 0 01-.17-.338c.162-.072.33-.07.491-.098.407-.073.817-.132 1.225-.199.174-.029.345-.026.518.003.49.082.98.158 1.47.238.072.012.143.031.225.05a1.07 1.07 0 01-.174.344c-.06-.004-.118-.004-.174-.013a188.92 188.92 0 01-1.372-.225 1.537 1.537 0 00-.518.004c-.457.078-.914.151-1.372.225-.048.007-.097.006-.15.009zm-6.804-14.519c.061-.357.11-.658.166-.958.008-.047.039-.091.066-.132l1.501-2.281c.018-.027.042-.049.072-.083.155.07.202.21.26.336-.095.205-1.886 2.924-2.065 3.118zm17.185-.043c-.033-.008-.056-.006-.062-.016l-2.003-3.022c.051-.154.108-.287.26-.373.034.037.071.07.097.108.492.746.984 1.493 1.474 2.24.032.049.067.1.078.154.055.3.104.602.156.91zM20.96 29.605c.096-.019.16-.035.224-.042.404-.043.808-.085 1.212-.125a.873.873 0 01.172-.004c.42.043.841.087 1.261.132.057.006.112.02.164.031.032.085-.024.135-.05.191-.023.052-.057.1-.086.15-.12.028-.234 0-.349-.012-.23-.024-.462-.044-.691-.078-.283-.042-.561-.009-.84.022l-.824.09c-.039-.062-.076-.114-.107-.17-.028-.05-.049-.104-.086-.185zm.62 1.201l-.18-.341c.073-.02.124-.04.176-.045.583-.065 1.65-.045 1.977.034-.023.144-.023.144-.15.335-.3.026-.603-.039-.907-.034-.297.004-.594.032-.917.051zm-6.56-19.79c-.069.19-.541.982-.691 1.156-.006-.026-.017-.047-.014-.067.034-.212.065-.425.106-.636a.548.548 0 01.506-.468c.03-.004.06.01.093.015zm15.648 1.154c-.02-.01-.04-.014-.048-.025-.207-.34-.414-.679-.62-1.02-.016-.026-.024-.058-.04-.095.03-.012.05-.03.07-.029a.54.54 0 01.531.437c.036.162.056.327.08.49.013.08.05.157.027.242zm-8.802 19.144c.02-.018.031-.038.043-.038.38-.002.76-.003 1.14-.002.021 0 .041.019.066.03-.002.082-.061.118-.108.16-.215.195-.8.2-1.028-.001-.048-.043-.102-.083-.113-.15zm10.77-.297l.311-.048c-.1.108-.204.051-.307.046-.001.002-.004.002-.004.002zm.394-.385l.236-.061.002.06h-.238zm-20.68.385h-.31v-.034c.104.01.208.022.313.035l-.003-.001zm-.391-.385h-.237l.002-.061.236.06-.001.001z"/>
        </g>
    </g>
</svg>
