<svg width="15" height="17" xmlns="http://www.w3.org/2000/svg">
    <g fill="none" fill-rule="evenodd">
        <path d="M-257-467h387V71h-387z"/>
        <path d="M14.743 15.047L1.861.797A.855.855 0 10.592 1.942l2.695 2.98H.893a.858.858 0 00-.628.266.858.858 0 00-.265.628v5.356c0 .242.088.451.265.628a.858.858 0 00.628.265h3.655l4.645 4.646a.859.859 0 00.628.264.86.86 0 00.628-.264.859.859 0 00.265-.628v-2.944l2.76 3.055a.853.853 0 001.209.06.855.855 0 00.06-1.207M10.749 9.22V.893a.859.859 0 00-.265-.628A.86.86 0 009.856 0a.858.858 0 00-.628.265L5.777 3.717l4.972 5.503z" fill="#FFF" fill-opacity=".3"/>
    </g>
</svg>
