<?xml version="1.0" encoding="UTF-8"?>
<svg width="66px" height="65px" viewBox="0 0 66 65" version="1.1" xmlns="http://www.w3.org/2000/svg" xmlns:xlink="http://www.w3.org/1999/xlink">
    <!-- Generator: Sketch 57.1 (83088) - https://sketch.com -->
    <title>Group</title>
    <desc>Created with Sketch.</desc>
    <g id="Page-1" stroke="none" stroke-width="1" fill="none" fill-rule="evenodd">
        <g id="下载管理-copy-2" transform="translate(-197.000000, -122.000000)">
            <g id="Group" transform="translate(192.000000, 116.000000)">
                <rect id="Rectangle" x="0" y="0" width="76" height="76"></rect>
                <path d="M30.3125,23.3730469 L30.3125,27.4746094 L25.2441406,27.4746094 C23.2519531,27.4746094 21.9335938,27.8847656 20.3808594,29.9355469 L20.3808594,29.9355469 L10.9765625,42.5039062 C10.0390625,43.7636719 10.2734375,44.4082031 11.796875,44.4082031 L11.796875,44.4082031 L28.7011719,44.4082031 C30.2539062,44.4082031 30.9863281,45.5507812 30.9863281,46.78125 L30.9863281,46.78125 L30.9863281,46.8984375 C30.9863281,50.2382812 33.59375,53.7832031 37.7539062,53.7832031 C41.8847656,53.7832031 44.4921875,50.2382812 44.4921875,46.8984375 L44.4921875,46.8984375 L44.4921875,46.78125 C44.4921875,45.5507812 45.2246094,44.4082031 46.8066406,44.4082031 L46.8066406,44.4082031 L63.7109375,44.4082031 C65.2050781,44.4082031 65.5273438,43.8515625 64.5019531,42.5039062 L64.5019531,42.5039062 L55.0683594,29.8476562 C53.5449219,27.8554688 52.2265625,27.4746094 50.234375,27.4746094 L50.234375,27.4746094 L45.1953125,27.4746094 L45.1953125,23.3730469 L49.9414062,23.3730469 C54.8925781,23.3730469 56.3574219,24.2519531 59.6972656,28.6757812 L59.6972656,28.6757812 L68.8964844,40.7460938 C70.1269531,42.4160156 70.4785156,43.6464844 70.4785156,46.2539062 L70.4785156,46.2539062 L70.4785156,61.4296875 C70.4785156,67.2304688 67.5195312,70.1601562 61.6308594,70.1601562 L61.6308594,70.1601562 L13.8476562,70.1601562 C8.01757812,70.1601562 5,67.2304688 5,61.4296875 L5,61.4296875 L5,46.2539062 C5,43.6464844 5.3515625,42.4160156 6.61132812,40.7460938 L6.61132812,40.7460938 L15.7519531,28.734375 C19.1796875,24.2519531 20.5859375,23.3730469 25.5664062,23.3730469 L25.5664062,23.3730469 L30.3125,23.3730469 Z M37.7539062,6 C39.0136719,6 40.0976562,7.0546875 40.0976562,8.28515625 L40.0976562,8.28515625 L40.0976562,35.2089844 L39.8925781,39.3398438 L41.7089844,37.3476562 L45.8105469,33.0117188 C46.2207031,32.5429688 46.8066406,32.3085938 47.3925781,32.3085938 C48.5644531,32.3085938 49.5019531,33.1582031 49.5019531,34.359375 C49.5019531,34.9746094 49.2675781,35.4433594 48.828125,35.8535156 L48.828125,35.8535156 L39.4824219,44.8769531 C38.8964844,45.4628906 38.3691406,45.6679688 37.7539062,45.6679688 C37.1386719,45.6679688 36.6113281,45.4628906 36.0253906,44.8769531 L36.0253906,44.8769531 L26.6796875,35.8535156 C26.2402344,35.4433594 26.0058594,34.9746094 26.0058594,34.359375 C26.0058594,33.1582031 26.8847656,32.3085938 28.0859375,32.3085938 C28.671875,32.3085938 29.2871094,32.5429688 29.6972656,33.0117188 L29.6972656,33.0117188 L33.7695312,37.3476562 L35.6152344,39.3398438 L35.4101562,35.2089844 L35.4101562,8.28515625 C35.4101562,7.0546875 36.4941406,6 37.7539062,6 Z" id="Combined-Shape" fill="#E8E8ED" fill-rule="nonzero"></path>
            </g>
        </g>
    </g>
</svg>