<?xml version="1.0" encoding="UTF-8"?>
<svg width="16px" height="16px" viewBox="0 0 16 16" version="1.1" xmlns="http://www.w3.org/2000/svg" xmlns:xlink="http://www.w3.org/1999/xlink">
    <!-- Generator: Sketch 58 (84663) - https://sketch.com -->
    <title>pin/active</title>
    <desc>Created with Sketch.</desc>
    <g id="pin/active" stroke="none" stroke-width="1" fill="none" fill-rule="evenodd">
        <circle id="椭圆形" fill="#FFFFFF" opacity="0.3" cx="8" cy="8" r="8"></circle>
        <path d="M12.7309128,6.60940414 C12.7191959,6.55271491 12.6797374,6.5055026 12.6259774,6.48413644 C12.1517866,6.29511491 11.6489928,6.19931183 11.1315528,6.19931183 C10.3249805,6.19931183 9.70260509,6.42985952 9.46223586,6.53393337 L6.8984697,4.35269029 C6.9880697,3.56558875 6.56350355,3.02729952 6.5445497,3.00386568 C6.51370662,2.96578568 6.4683897,2.94252414 6.41962662,2.93976721 C6.37103586,2.93873337 6.32296201,2.95544721 6.28850047,2.99008106 L3.66011893,5.6184626 C3.62531278,5.65309644 3.60704816,5.70099798 3.60997739,5.75027798 C3.61273432,5.79921337 3.63634047,5.84487491 3.67476509,5.87537337 C4.05056816,6.17346568 4.50925124,6.23618568 4.82767586,6.23618568 C4.89866662,6.23618568 4.95931893,6.23291183 5.0056697,6.22929337 L7.19776816,8.8059826 C7.04820509,9.19022875 6.59124509,10.5755826 7.1448697,11.9655888 C7.16623586,12.0195211 7.21327586,12.0588072 7.27013739,12.0705241 C7.28168201,12.0729364 7.29339893,12.0741426 7.30494355,12.0741426 C7.35026047,12.0741426 7.39419893,12.0562226 7.42676509,12.0236564 L9.93728816,9.51313337 L10.1809312,9.26949029 L12.6840451,6.76620414 C12.7250543,6.72519491 12.7426297,6.66626568 12.7309128,6.60940414 Z" id="路径" fill="#FFFFFF" fill-rule="nonzero" opacity="0.501139323" transform="translate(8.172074, 7.506893) rotate(-285.000000) translate(-8.172074, -7.506893) "></path>
        <path d="M5.33899973,10.0470497 L6.18192357,10.0470497 C6.27708648,10.0470497 6.35423126,10.1241945 6.35423126,10.2193574 C6.35423126,10.2223777 6.35415185,10.2253975 6.3539931,10.2284137 L6.19982306,13.1576444 C6.19500638,13.2491613 6.11939707,13.3208958 6.02775353,13.3208958 L5.49316977,13.3208958 C5.40152623,13.3208958 5.32591692,13.2491613 5.32110024,13.1576444 L5.1669302,10.2284137 C5.16192855,10.1333823 5.23491206,10.0522895 5.32994344,10.0472878 C5.3329596,10.0471291 5.3359794,10.0470497 5.33899973,10.0470497 Z" id="矩形" fill="#FFFFFF" opacity="0.501139323" transform="translate(5.760462, 11.683973) rotate(-330.000000) translate(-5.760462, -11.683973) "></path>
    </g>
</svg>