<svg width="14px" height="14px" viewBox="0 0 14 14" version="1.1" xmlns="http://www.w3.org/2000/svg" xmlns:xlink="http://www.w3.org/1999/xlink">
    <g id="2.0" stroke="none" stroke-width="1" fill="none" fill-rule="evenodd">
        <g id="各类图标的鼠标悬浮状态" transform="translate(-627.000000, -13.000000)" fill="#B8BACC" fill-rule="nonzero">
            <g id="browserArea" transform="translate(76.000000, 0.000000)">
                <g id="menuBar">
                    <g id="urlBar" transform="translate(114.000000, 0.000000)">
                        <g id="button" transform="translate(429.000000, 5.000000)">
                            <g id="icon" transform="translate(8.000000, 8.000000)">
                                <path d="M7.0256625,-3.55271368e-15 C8.46334264,0.00363212247 9.84358073,0.43360079 11.0211861,1.25103347 L11.5200201,0.581799064 C11.6159588,0.449237254 11.818906,0.475013145 11.8816351,0.625986327 L11.8816351,0.625986327 L13.040279,3.45028933 C13.0993182,3.59389795 12.9886197,3.74855338 12.8336419,3.73750657 L12.8336419,3.73750657 L9.7340849,3.5202525 C9.5680372,3.50920569 9.47947843,3.32140979 9.57910704,3.18884798 L9.57910704,3.18884798 L10.137,2.438 L9.97600289,2.33005594 C9.09172631,1.77053379 8.07360794,1.47659128 7.0182826,1.47659128 L6.95555347,1.47659128 C5.52385334,1.49132036 4.16595218,2.05839032 3.13645647,3.07101525 C2.10696075,4.08364017 1.52025891,5.42766964 1.48335942,6.85639137 C1.44276999,8.35875854 2.00364221,9.77643346 3.0552776,10.8553393 C4.10691302,11.9342451 5.51647345,12.527091 7.0182826,12.527091 C8.39463349,12.527091 9.71563517,12.0152551 10.737751,11.0910047 C11.7524869,10.1704366 12.3871581,8.92214623 12.5236862,7.57075224 C12.5605857,7.19516046 12.8779213,6.91162546 13.257986,6.91162546 C13.4683131,6.91162546 13.6675703,7 13.8077884,7.15465544 C13.9480064,7.30931089 14.0181154,7.52288269 13.9959758,7.73277221 C13.8188582,9.44502891 13.0107594,11.0247238 11.7266572,12.1883219 C10.4314852,13.3556023 8.75993842,14 7.01459266,14 C3.14752633,14 7.28306304e-14,10.8590216 7.28306304e-14,7 C7.28306304e-14,5.13677011 0.730609862,3.38032613 2.05899143,2.05470805 C3.38737299,0.729089954 5.14747857,-3.55271368e-15 7.01459266,-3.55271368e-15 L7.0256625,-3.55271368e-15 Z" id="icon--refresh"></path>
                            </g>
                        </g>
                    </g>
                </g>
            </g>
        </g>
    </g>
</svg>
