<svg width="30" height="30" xmlns="http://www.w3.org/2000/svg">
    <path d="M15.026 8a7 7 0 013.995 1.251l.499-.67a.208.208 0 01.362.045l1.158 2.824a.208.208 0 01-.206.288l-3.1-.218a.207.207 0 01-.155-.331l.558-.751-.161-.108a5.51 5.51 0 00-2.958-.853h-.062a5.509 5.509 0 00-3.82 1.594 5.486 5.486 0 00-1.653 3.785 5.473 5.473 0 001.572 4 5.494 5.494 0 003.963 1.671 5.54 5.54 0 003.72-1.436 5.494 5.494 0 001.786-3.52.741.741 0 011.472.162 6.977 6.977 0 01-2.27 4.455A7.025 7.025 0 0115.016 22C11.148 22 8 18.859 8 15c0-1.863.73-3.62 2.059-4.945A6.973 6.973 0 0115.015 8h.01z" fill="#CFD0DA"/>
</svg>
