<?xml version="1.0" encoding="UTF-8"?>
<svg width="24px" height="24px" viewBox="0 0 24 24" version="1.1" xmlns="http://www.w3.org/2000/svg" xmlns:xlink="http://www.w3.org/1999/xlink">
    <!-- Generator: Sketch 52.2 (67145) - http://www.bohemiancoding.com/sketch -->
    <desc>Created with Sketch.</desc>
    <g id="页面1" stroke="none" stroke-width="1" fill="none" fill-rule="evenodd" fill-opacity="1">
        <g id="browseing" transform="translate(-340.000000, -323.000000)" fill="#FFFFFF" fill-rule="nonzero">
            <g id="control-bar" transform="translate(238.000000, 300.000000)">
                <g id="icon-refresh" transform="translate(98.000000, 19.000000)">
                    <path d="M19.9275636,23.9920296 C20.3650254,23.4227245 20.2581454,22.6065787 19.6888403,22.1691168 C19.1195352,21.7316549 18.3033893,21.838535 17.8659275,22.4078401 C16.98761,23.5508667 16.3399248,24.4093268 15.9201976,24.9870317 C15.70106,25.2886488 15.5406853,25.5182327 15.433665,25.684841 C15.3602796,25.7990867 15.3053307,25.8928755 15.2591332,25.9907264 C15.2027547,26.105821 15.2027547,26.105821 15.1306023,26.4247782 C15.0986066,26.7012347 15.0986066,26.7012347 15.3087888,27.266275 C15.8834144,27.8466713 15.8834144,27.8466713 16.4822263,27.8963696 C22.760792,27.6355905 27.8,22.2689278 27.8,15.9070924 C27.8,12.4110703 26.2702442,9.16081599 23.6658784,6.9325943 C21.5446155,5.11770182 18.8489726,4.10249962 16,4.10249962 C9.48291266,4.10249962 4.2,9.38772305 4.2,15.9070924 C4.2,18.5715924 5.08653001,21.1044742 6.69120849,23.1623351 C7.83714485,24.631899 9.3164956,25.8144882 11.0052919,26.6047987 C11.6555786,26.9091151 12.4294372,26.6286508 12.7337536,25.9783642 C13.03807,25.3280775 12.7576057,24.5542189 12.107319,24.2499025 C10.7908372,23.633825 9.63608734,22.7107209 8.74153335,21.563533 C7.49000766,19.9585599 6.8,17.9871571 6.8,15.9070924 C6.8,10.8234089 10.9191076,6.70249962 16,6.70249962 C18.2232077,6.70249962 20.320979,7.49253827 21.9756109,8.90819441 C24.0085468,10.6475168 25.2,13.1789836 25.2,15.9070924 C25.2,19.7782293 22.8118095,23.1835609 19.4592128,24.603186 C19.6070218,24.4097288 19.7631448,24.2060013 19.9275636,23.9920296 Z" id="refresh" transform="translate(16.000000, 15.999435) rotate(-126.000000) translate(-16.000000, -15.999435) "></path>
                </g>
            </g>
        </g>
    </g>
</svg>
