<?xml version="1.0" encoding="utf-8"?>
<!-- Generator: Adobe Illustrator 19.0.0, SVG Export Plug-In . SVG Version: 6.00 Build 0)  -->
<svg version="1.1" id="图层_1" xmlns="http://www.w3.org/2000/svg" xmlns:xlink="http://www.w3.org/1999/xlink" x="0px" y="0px"
	 viewBox="-21 18 16 16" style="enable-background:new -21 18 16 16;" xml:space="preserve">
<desc>Created with Sketch.</desc>
<g id="unrefresh">
	<path d="M-6,25.1c0.4,2.3-0.3,4.6-1.8,6.2c-2.7,2.9-7.2,3-10,0.3c-2.8-2.8-2.9-7.4-0.3-10.3c2.7-2.9,7-3,9.9-0.4v-1.9
		c0-0.3,0.3-0.6,0.6-0.6c0.3,0,0.6,0.3,0.6,0.6v3.4c0,0.3-0.2,0.5-0.4,0.6l-3.3,1.1c0,0,0,0,0,0l0,0l0,0c0,0,0,0,0,0l0,0
		c-0.3,0.1-0.7-0.1-0.8-0.4c0,0,0,0,0,0c0,0,0,0,0,0c-0.1-0.3,0.1-0.7,0.4-0.8l2.3-0.8c-1.4-1.5-3.3-2.1-5.3-1.8
		c-3.2,0.6-5.4,3.7-4.8,7c0.5,3.3,3.6,5.5,6.8,5c3.2-0.6,5.4-3.7,4.8-7c0,0,0,0,0,0c-0.1-0.3,0.2-0.7,0.5-0.7
		C-6.4,24.5-6.1,24.8-6,25.1z"/>
</g>
</svg>
