<?xml version="1.0" encoding="UTF-8"?>
<svg width="84px" height="84px" viewBox="0 0 84 84" version="1.1" xmlns="http://www.w3.org/2000/svg" xmlns:xlink="http://www.w3.org/1999/xlink">
    <!-- Generator: Sketch 53.1 (72631) - https://sketchapp.com -->
    <defs>
        <radialGradient cx="50%" cy="65.549251%" fx="50%" fy="65.549251%" r="56.1486292%" gradientTransform="translate(0.500000,0.655493),scale(1.000000,0.848835),rotate(90.000000),translate(-0.500000,-0.655493)" id="radialGradient-1">
            <stop stop-color="#FFFFFF" stop-opacity="0.35" offset="0%"></stop>
            <stop stop-color="#FFFFFF" stop-opacity="0.36" offset="43.5256546%"></stop>
            <stop stop-color="#FFFFFF" stop-opacity="0.5" offset="100%"></stop>
        </radialGradient>
        <radialGradient cx="50%" cy="63.3385735%" fx="50%" fy="63.3385735%" r="59.3899687%" gradientTransform="translate(0.500000,0.633386),scale(1.000000,0.848835),rotate(90.000000),translate(-0.500000,-0.633386)" id="radialGradient-2">
            <stop stop-color="#FFFFFF" stop-opacity="0.45" offset="0%"></stop>
            <stop stop-color="#FFFFFF" stop-opacity="0.55" offset="61.2146326%"></stop>
            <stop stop-color="#FFFFFF" stop-opacity="0.7" offset="100%"></stop>
        </radialGradient>
    </defs>
    <g id="pause-default-icon" stroke="none" stroke-width="1" fill="none" fill-rule="evenodd">
        <path d="M16.5,7 L28.5,7 C30.709139,7 32.5,8.790861 32.5,11 L32.5,72.5070423 C32.5,74.7161813 30.709139,76.5070423 28.5,76.5070423 L16.5,76.5070423 C14.290861,76.5070423 12.5,74.7161813 12.5,72.5070423 L12.5,11 C12.5,8.790861 14.290861,7 16.5,7 Z M55.5,7 L67.5,7 C69.709139,7 71.5,8.790861 71.5,11 L71.5,72.4852941 C71.5,74.6944331 69.709139,76.4852941 67.5,76.4852941 L55.5,76.4852941 C53.290861,76.4852941 51.5,74.6944331 51.5,72.4852941 L51.5,11 C51.5,8.790861 53.290861,7 55.5,7 Z" id="Basis" fill="url(#radialGradient-1)"></path>
        <path d="M16.5,7 L28.5,7 C30.709139,7 32.5,8.790861 32.5,11 L32.5,72.5070423 C32.5,74.7161813 30.709139,76.5070423 28.5,76.5070423 L16.5,76.5070423 C14.290861,76.5070423 12.5,74.7161813 12.5,72.5070423 L12.5,11 C12.5,8.790861 14.290861,7 16.5,7 Z M55.5,7 L67.5,7 C69.709139,7 71.5,8.790861 71.5,11 L71.5,72.4852941 C71.5,74.6944331 69.709139,76.4852941 67.5,76.4852941 L55.5,76.4852941 C53.290861,76.4852941 51.5,74.6944331 51.5,72.4852941 L51.5,11 C51.5,8.790861 53.290861,7 55.5,7 Z" id="Border" stroke-opacity="0.437273551" stroke="#FFFFFF" stroke-width="1.2" fill="url(#radialGradient-2)"></path>
    </g>
</svg>