<svg width="16" height="16" xmlns="http://www.w3.org/2000/svg">
    <g fill="none" fill-rule="evenodd" opacity=".5">
        <circle stroke="#FFF" stroke-width=".615" cx="8" cy="8" r="7.692"/>
        <path d="M10.219 11.678a.172.172 0 00.094-.134 4.018 4.018 0 00-.112-1.517 4.323 4.323 0 00-.755-1.526l1.443-3.04a1.926 1.926 0 001.211-.692c.03-.04.04-.09.03-.137a.179.179 0 00-.083-.114L8.828 2.66a.171.171 0 00-.244.08c-.19.44-.133.9-.05 1.208a2 2 0 00.053.17L6.665 6.902c-.41-.045-1.866-.128-3.066.767a.172.172 0 00.017.287l3.075 1.775.298.172 3.066 1.77a.17.17 0 00.164.005z" fill="#FFF" fill-rule="nonzero"/>
        <path d="M6.214 10.056l.73.421a.172.172 0 01.058.243l-1.598 2.46a.172.172 0 01-.23.055l-.463-.267a.172.172 0 01-.068-.227l1.331-2.614a.172.172 0 01.24-.071z" fill="#FFF"/>
    </g>
</svg>
