<svg width="18px" height="14px" viewBox="0 0 18 14" version="1.1" xmlns="http://www.w3.org/2000/svg" xmlns:xlink="http://www.w3.org/1999/xlink">
    <g id="组件" stroke="none" stroke-width="1" fill="none" fill-rule="evenodd">
        <g id="menuBar/__button/--withMoreType" transform="translate(-11.000000, -13.000000)" fill="#6F7078" fill-rule="nonzero">
            <g id="icon" transform="translate(11.000000, 13.000000)">
                <path d="M16.542,0.25 C17.3472312,0.25 18,0.902768835 18,1.708 L18,12.292 C18,13.0972312 17.3472312,13.75 16.542,13.75 L1.458,13.75 C0.652768835,13.75 0,13.0972312 0,12.292 L0,1.708 C0,0.902768835 0.652768835,0.25 1.458,0.25 L16.542,0.25 Z M16.02,1.75 L1.98,1.75 C1.71490332,1.75 1.5,1.96490332 1.5,2.23 L1.5,11.77 C1.5,12.0350967 1.71490332,12.25 1.98,12.25 L16.02,12.25 C16.2850967,12.25 16.5,12.0350967 16.5,11.77 L16.5,2.23 C16.5,1.96490332 16.2850967,1.75 16.02,1.75 Z M13.6663035,5.4737013 C13.9347139,5.4737013 14.1523035,5.69129091 14.1523035,5.9597013 L14.1523035,9.7877013 C14.1523035,10.0561117 13.9347139,10.2737013 13.6663035,10.2737013 L7.20176158,10.2737013 C6.9333512,10.2737013 6.71576158,10.0561117 6.71576158,9.7877013 L6.71576158,5.9597013 C6.71576158,5.69129091 6.9333512,5.4737013 7.20176158,5.4737013 L13.6663035,5.4737013 Z" id="icon-pictureInPicture"></path>
            </g>
        </g>
    </g>
</svg>