<svg width="30" height="30" xmlns="http://www.w3.org/2000/svg">
    <path d="M22.542 8.25c.805 0 1.458.653 1.458 1.458v10.584c0 .805-.653 1.458-1.458 1.458H7.458A1.458 1.458 0 016 20.292V9.708c0-.805.653-1.458 1.458-1.458h15.084zm-.522 1.5H7.98a.48.48 0 00-.48.48v9.54c0 .265.215.48.48.48h14.04a.48.48 0 00.48-.48v-9.54a.48.48 0 00-.48-.48zm-2.354 3.724c.269 0 .486.217.486.486v3.828a.486.486 0 01-.486.486h-6.464a.486.486 0 01-.486-.486V13.96c0-.269.217-.486.486-.486h6.464z" fill="#7E808F"/>
</svg>
