<?xml version="1.0" encoding="UTF-8"?>
<svg width="30px" height="30px" viewBox="0 0 30 30" version="1.1" xmlns="http://www.w3.org/2000/svg" xmlns:xlink="http://www.w3.org/1999/xlink">
    <!-- Generator: Sketch 57.1 (83088) - https://sketch.com -->
    <title>menuBar/__icon/--pictureInPicture</title>
    <desc>Created with Sketch.</desc>
    <g id="menuBar/__icon/--pictureInPicture" stroke="none" stroke-width="1" fill="none" fill-rule="evenodd">
        <path d="M22.542,8.25 C23.3472312,8.25 24,8.90276883 24,9.708 L24,20.292 C24,21.0972312 23.3472312,21.75 22.542,21.75 L7.458,21.75 C6.65276883,21.75 6,21.0972312 6,20.292 L6,9.708 C6,8.90276883 6.65276883,8.25 7.458,8.25 L22.542,8.25 Z M22.02,9.75 L7.98,9.75 C7.71490332,9.75 7.5,9.96490332 7.5,10.23 L7.5,19.77 C7.5,20.0350967 7.71490332,20.25 7.98,20.25 L22.02,20.25 C22.2850967,20.25 22.5,20.0350967 22.5,19.77 L22.5,10.23 C22.5,9.96490332 22.2850967,9.75 22.02,9.75 Z M19.6663035,13.4737013 C19.9347139,13.4737013 20.1523035,13.6912909 20.1523035,13.9597013 L20.1523035,17.7877013 C20.1523035,18.0561117 19.9347139,18.2737013 19.6663035,18.2737013 L13.2017616,18.2737013 C12.9333512,18.2737013 12.7157616,18.0561117 12.7157616,17.7877013 L12.7157616,13.9597013 C12.7157616,13.6912909 12.9333512,13.4737013 13.2017616,13.4737013 L19.6663035,13.4737013 Z" id="icon-pictureInPicture" fill="#7E808F" fill-rule="nonzero"></path>
    </g>
</svg>