<?xml version="1.0" encoding="UTF-8"?>
<svg width="18px" height="14px" viewBox="0 0 18 14" version="1.1" xmlns="http://www.w3.org/2000/svg" xmlns:xlink="http://www.w3.org/1999/xlink">
    <!-- Generator: Sketch 52.2 (67145) - http://www.bohemiancoding.com/sketch -->
    <desc>Created with Sketch.</desc>
    <g id="页面1" stroke="none" stroke-width="1" fill="none" fill-rule="evenodd" fill-opacity="0.3">
        <g id="画中画" transform="translate(-327.000000, -11.000000)" fill="#FFFFFF" fill-rule="nonzero">
            <g id="picinpic-record" transform="translate(326.000000, 8.000000)">
                <path d="M15.625,7.49206361 C16.3255777,6.95074982 16.8812977,6.55050814 17.29216,6.29133856 C18.0651572,5.80373632 19,5.17518272 19,6.77894079 C19,8.38269887 19,10.9606897 19,12.3015729 C19,13.642456 18.7054819,14.0917238 17.29216,13.0517835 C16.6415615,12.5730649 16.0858415,12.1664295 15.625,11.8318774 L15.625,14.789375 C15.625,15.5442792 15.0946253,16.15625 14.440375,16.15625 L2.184625,16.15625 C1.53037468,16.15625 1,15.5442792 1,14.789375 L1,4.866875 C1,4.11197078 1.53037468,3.5 2.184625,3.5 L14.440375,3.5 C15.0946253,3.5 15.625,4.11197078 15.625,4.866875 L15.625,7.49206361 Z M2.40625,5.50625 L2.40625,14.15 C2.40625,14.4813708 2.67487915,14.75 3.00625,14.75 L13.61875,14.75 C13.9501208,14.75 14.21875,14.4813708 14.21875,14.15 L14.21875,5.50625 C14.21875,5.17487915 13.9501208,4.90625 13.61875,4.90625 L3.00625,4.90625 C2.67487915,4.90625 2.40625,5.17487915 2.40625,5.50625 Z" id="pictureInPicture"></path>
            </g>
        </g>
    </g>
</svg>
