<?xml version="1.0" encoding="UTF-8"?>
<svg width="170px" height="171px" viewBox="0 0 170 171" version="1.1" xmlns="http://www.w3.org/2000/svg" xmlns:xlink="http://www.w3.org/1999/xlink">
    <!-- Generator: Sketch 50.2 (55047) - http://www.bohemiancoding.com/sketch -->
    <title>player/icon/play</title>
    <desc>Created with Sketch.</desc>
    <defs>
        <filter x="-41.2%" y="-41.6%" width="182.3%" height="183.2%" filterUnits="objectBoundingBox" id="filter-1">
            <feGaussianBlur stdDeviation="22.4857955 0" in="SourceGraphic"></feGaussianBlur>
        </filter>
        <filter x="-4.8%" y="-4.8%" width="109.6%" height="109.7%" filterUnits="objectBoundingBox" id="filter-2">
            <feGaussianBlur stdDeviation="2.62073864 0" in="SourceGraphic"></feGaussianBlur>
        </filter>
        <linearGradient x1="74.8286995%" y1="-9.88210257%" x2="0%" y2="100%" id="linearGradient-3">
            <stop stop-color="#FFFFFF" offset="0%"></stop>
            <stop stop-color="#C2C2C2" offset="65.0888871%"></stop>
            <stop stop-color="#DBDBDB" stop-opacity="0.74535779" offset="80.8035714%"></stop>
            <stop stop-color="#FFFFFF" stop-opacity="0" offset="100%"></stop>
        </linearGradient>
    </defs>
    <g id="player/icon/play" stroke="none" stroke-width="1" fill="none" fill-rule="evenodd" opacity="0.9">
        <g id="icon-play">
            <path d="M160.159061,90.0837244 L8.94250171,165.744401 C4.00295356,168.215886 0,165.741401 0,160.21831 L0,11.0004396 C0,5.48260427 4.00369439,3.00323448 8.94250171,5.47434943 L160.159061,81.1350256 C165.098609,83.6065112 165.097868,87.6126095 160.159061,90.0837244 Z M122.148438,85.609375 L23.75,37.3515625 L23.75,133.867187 L122.148438,85.609375 Z" id="play--overlay" fill="#FFFFFF" opacity="0.366548295" style="mix-blend-mode: overlay;"></path>
            <path d="M160.159061,89.7477869 L8.94250171,165.408463 C4.00295356,167.879949 0,165.405463 0,159.882373 L0,10.6645021 C0,5.14666677 4.00369439,2.66729698 8.94250171,5.13841193 L160.159061,80.7990881 C165.098609,83.2705737 165.097868,87.276672 160.159061,89.7477869 Z M122.148438,85.2734375 L23.75,37.015625 L23.75,133.53125 L122.148438,85.2734375 Z" id="play--motion-blur-black" fill="#000000" opacity="0.0501019022" style="mix-blend-mode: overlay;" filter="url(#filter-1)"></path>
            <path d="M160.159061,89.7477869 L8.94250171,165.408463 C4.00295356,167.879949 0,165.405463 0,159.882373 L0,10.6645021 C0,5.14666677 4.00369439,2.66729698 8.94250171,5.13841193 L160.159061,80.7990881 C165.098609,83.2705737 165.097868,87.276672 160.159061,89.7477869 Z M122.148438,85.2734375 L23.75,37.015625 L23.75,133.53125 L122.148438,85.2734375 Z" id="play--motion-blur" fill="#FFFFFF" opacity="0.5" style="mix-blend-mode: overlay;" filter="url(#filter-2)"></path>
            <path d="M160.159061,89.7477869 L8.94250171,165.408463 C4.00295356,167.879949 0,165.405463 0,159.882373 L0,10.6645021 C0,5.14666677 4.00369439,2.66729698 8.94250171,5.13841193 L160.159061,80.7990881 C165.098609,83.2705737 165.097868,87.276672 160.159061,89.7477869 Z M122.148438,85.2734375 L23.75,37.015625 L23.75,133.53125 L122.148438,85.2734375 Z" id="play--bg-blur" fill-opacity="0.325407609" fill="#FFFFFF" opacity="0.54540308"></path>
            <path d="M160.382792,90.1949385 L9.16623245,165.855615 C3.89445015,168.493332 -0.5,165.777466 -0.5,159.882373 L-0.5,10.6645021 C-0.5,4.77320223 3.89649762,2.05456695 9.16623245,4.69126033 L160.382792,80.3519365 C165.690458,83.0076087 165.690199,87.5393959 160.382792,90.1949385 Z M121.012922,85.2734375 L24.25,37.8177355 L24.25,132.72914 L121.012922,85.2734375 Z" id="play--border" stroke="url(#linearGradient-3)" opacity="0.277513587"></path>
        </g>
    </g>
</svg>