<?xml version="1.0" encoding="UTF-8"?>
<svg width="84px" height="84px" viewBox="0 0 84 84" version="1.1" xmlns="http://www.w3.org/2000/svg" xmlns:xlink="http://www.w3.org/1999/xlink">
    <!-- Generator: Sketch 53.1 (72631) - https://sketchapp.com -->
    <defs>
        <radialGradient cx="50%" cy="65.549251%" fx="50%" fy="65.549251%" r="47.6609134%" gradientTransform="translate(0.500000,0.655493),scale(0.938879,1.000000),rotate(90.000000),translate(-0.500000,-0.655493)" id="radialGradient-1">
            <stop stop-color="#FFFFFF" stop-opacity="0.35" offset="0%"></stop>
            <stop stop-color="#FFFFFF" stop-opacity="0.36" offset="43.5256546%"></stop>
            <stop stop-color="#FFFFFF" stop-opacity="0.5" offset="100%"></stop>
        </radialGradient>
        <radialGradient cx="50%" cy="63.3385735%" fx="50%" fy="63.3385735%" r="50.4122753%" gradientTransform="translate(0.500000,0.633386),scale(0.938879,1.000000),rotate(90.000000),translate(-0.500000,-0.633386)" id="radialGradient-2">
            <stop stop-color="#FFFFFF" stop-opacity="0.45" offset="0%"></stop>
            <stop stop-color="#FFFFFF" stop-opacity="0.55" offset="61.2146326%"></stop>
            <stop stop-color="#FFFFFF" stop-opacity="0.7" offset="100%"></stop>
        </radialGradient>
    </defs>
    <g id="play-default-icon" stroke="none" stroke-width="1" fill="none" fill-rule="evenodd">
        <path d="M43.4105482,75.3501873 L14.0336954,75.3501873 C11.7769581,75.3501873 9.68250592,74.1769614 8.50375045,72.2525397 L8.50375045,72.2525397 C7.32770451,70.3325416 7.25249195,67.9343558 8.30591398,65.9444365 L23.3686264,37.4908997 L36.5943493,12.5074448 C37.9304787,9.98348993 40.5503595,8.40286907 43.4061544,8.39776131 L43.4061544,8.39776131 C46.2602933,8.39265653 48.8826048,9.96835338 50.2179594,12.4908448 L63.4524701,37.4908997 L78.0610135,65.0865091 C79.2032179,67.2441388 79.1559558,69.8374446 77.9358918,71.9520228 L77.9358918,71.9520228 C76.7226809,74.0547234 74.4795958,75.3501873 72.0519981,75.3501873 L43.4105482,75.3501873 Z" id="Basis" fill="url(#radialGradient-1)" transform="translate(43.225565, 41.869824) rotate(90.000000) translate(-43.225565, -41.869824) "></path>
        <path d="M43.4105482,75.3501873 L14.0336954,75.3501873 C11.7769581,75.3501873 9.68250592,74.1769614 8.50375045,72.2525397 L8.50375045,72.2525397 C7.32770451,70.3325416 7.25249195,67.9343558 8.30591398,65.9444365 L23.3686264,37.4908997 L36.5943493,12.5074448 C37.9304787,9.98348993 40.5503595,8.40286907 43.4061544,8.39776131 L43.4061544,8.39776131 C46.2602933,8.39265653 48.8826048,9.96835338 50.2179594,12.4908448 L63.4524701,37.4908997 L78.0610135,65.0865091 C79.2032179,67.2441388 79.1559558,69.8374446 77.9358918,71.9520228 L77.9358918,71.9520228 C76.7226809,74.0547234 74.4795958,75.3501873 72.0519981,75.3501873 L43.4105482,75.3501873 Z" id="Border" stroke-opacity="0.437273551" stroke="#FFFFFF" stroke-width="1.2" fill="url(#radialGradient-2)" transform="translate(43.225565, 41.869824) rotate(90.000000) translate(-43.225565, -41.869824) "></path>
    </g>
</svg>