<svg width="84" height="84" xmlns="http://www.w3.org/2000/svg" xmlns:xlink="http://www.w3.org/1999/xlink">
    <defs>
        <radialGradient cx="50%" cy="50.719%" fx="50%" fy="50.719%" r="49.281%" id="a">
            <stop stop-opacity=".052" offset="0%"/>
            <stop stop-opacity=".05" offset="36.949%"/>
            <stop stop-opacity="0" offset="100%"/>
        </radialGradient>
        <radialGradient cx="50%" cy="64.528%" fx="50%" fy="64.528%" r="48.682%" gradientTransform="matrix(0 1 -.93888 0 1.106 .145)" id="d">
            <stop stop-color="#FFF" stop-opacity=".11" offset="2.098%"/>
            <stop stop-color="#FFF" stop-opacity=".228" offset="53.877%"/>
            <stop stop-color="#FFF" stop-opacity=".54" offset="100%"/>
        </radialGradient>
        <radialGradient cx="52.149%" cy="50%" fx="52.149%" fy="50%" r="50.412%" gradientTransform="matrix(0 1 -.93888 0 .99 -.021)" id="e">
            <stop stop-color="#FFF" stop-opacity=".716" offset="0%"/>
            <stop stop-color="#FFF" stop-opacity=".788" offset="53.363%"/>
            <stop stop-color="#FFF" stop-opacity=".764" offset="100%"/>
        </radialGradient>
        <filter x="-12.6%" y="-13.4%" width="125.2%" height="126.9%" filterUnits="objectBoundingBox" id="b">
            <feOffset in="SourceAlpha" result="shadowOffsetOuter1"/>
            <feGaussianBlur stdDeviation="3" in="shadowOffsetOuter1" result="shadowBlurOuter1"/>
            <feColorMatrix values="0 0 0 0 0 0 0 0 0 0 0 0 0 0 0 0 0 0 0.08 0" in="shadowBlurOuter1"/>
        </filter>
        <path d="M34.31 69.45H4.935a6.485 6.485 0 01-5.53-3.097 6.37 6.37 0 01-.198-6.309L14.27 31.591 27.494 6.607a7.723 7.723 0 016.812-4.11 7.692 7.692 0 016.812 4.094l13.234 25 14.609 27.596a7.095 7.095 0 01-.125 6.865 6.793 6.793 0 01-5.884 3.398H34.311z" id="c"/>
    </defs>
    <g fill="none" fill-rule="evenodd">
        <circle fill="url(#a)" cx="42" cy="42" r="40"/>
        <g transform="rotate(90 35.726 43.47)">
            <use fill="#000" filter="url(#b)" xlink:href="#c"/>
            <use fill="url(#d)" xlink:href="#c"/>
        </g>
        <path d="M34.31 69.45H4.935a6.485 6.485 0 01-5.53-3.097 6.37 6.37 0 01-.198-6.309L14.27 31.591 27.494 6.607a7.723 7.723 0 016.812-4.11 7.692 7.692 0 016.812 4.094l13.234 25 14.609 27.596a7.095 7.095 0 01-.125 6.865 6.793 6.793 0 01-5.884 3.398H34.311z" fill="url(#d)" transform="rotate(90 35.726 43.47)"/>
        <path d="M34.31 69.45H4.935a6.485 6.485 0 01-5.53-3.097h0a6.37 6.37 0 01-.198-6.309L14.27 31.591 27.494 6.607a7.723 7.723 0 016.812-4.11h0a7.692 7.692 0 016.812 4.094l13.234 25 14.609 27.596a7.095 7.095 0 01-.125 6.865h0a6.793 6.793 0 01-5.884 3.398H34.311z" stroke-opacity=".437" stroke="#FFF" stroke-width="1.2" fill="url(#e)" transform="rotate(90 35.726 43.47)"/>
    </g>
</svg>
