<svg viewBox="0 0 12 12" xmlns="http://www.w3.org/2000/svg">
    <defs>
        <radialGradient cx="84.204%" cy="81.399%" fx="84.204%" fy="81.399%" r="114.307%" id="a">
            <stop stop-color="#FFF" stop-opacity=".85" offset="0%"/>
            <stop stop-color="#FFF" stop-opacity=".7" offset="100%"/>
        </radialGradient>
    </defs>
    <path d="M6.83 5.164h3.5a.25.25 0 01.25.25v1.2a.25.25 0 01-.25.25h-3.5v3.5a.25.25 0 01-.25.25h-1.2a.25.25 0 01-.25-.25v-3.5h-3.5a.25.25 0 01-.25-.25v-1.2a.25.25 0 01.25-.25h3.5v-3.5a.25.25 0 01.25-.25h1.2a.25.25 0 01.25.25v3.5z" fill="url(#a)" fill-rule="evenodd" opacity=".2"/>
</svg>
