<?xml version="1.0" encoding="UTF-8"?>
<svg width="8px" height="12px" viewBox="0 0 8 12" version="1.1" xmlns="http://www.w3.org/2000/svg" xmlns:xlink="http://www.w3.org/1999/xlink">
    <!-- Generator: Sketch 60.1 (88133) - https://sketch.com -->
    <desc>Created with Sketch.</desc>
    <g id="&gt;" stroke="none" stroke-width="1" fill="none" fill-rule="evenodd">
        <path d="M2.46875,2.52207 C2.59570312,2.52207 2.70800781,2.57089812 2.79589844,2.65878875 L2.79589844,2.65878875 L6.43359375,6.21347625 C6.53613281,6.30624969 6.58496094,6.43320281 6.58496094,6.56503875 C6.58496094,6.69687469 6.53125,6.81406219 6.43359375,6.91171844 L6.43359375,6.91171844 L2.79589844,10.4712887 C2.70800781,10.5542966 2.59570312,10.6031247 2.46875,10.6031247 C2.20507812,10.6031247 2,10.4029294 2,10.1392575 C2,10.0123044 2.05371094,9.89511687 2.14160156,9.80722625 L2.14160156,9.80722625 L5.45703125,6.56503875 L2.14160156,3.31796844 C2.05371094,3.23007781 2,3.11289031 2,2.98593719 C2,2.72714812 2.20507812,2.52207 2.46875,2.52207 Z" id="Combined-Shape" fill="#707281"></path>
    </g>
</svg>
