<svg width="44" height="44" xmlns="http://www.w3.org/2000/svg" xmlns:xlink="http://www.w3.org/1999/xlink">
    <defs>
        <linearGradient x1="0%" y1="0%" x2="0%" y2="100%" id="c">
            <stop stop-color="#55C7FF" offset="0%"/>
            <stop stop-color="#0083F5" offset="100%"/>
        </linearGradient>
        <linearGradient x1="0%" y1="0%" x2="0%" y2="100%" id="d">
            <stop stop-color="#FB0" offset="0%"/>
            <stop stop-color="#FF7405" offset="100%"/>
        </linearGradient>
        <linearGradient x1="0%" y1="0%" x2="0%" y2="100%" id="e">
            <stop stop-color="#AFFA23" offset="0%"/>
            <stop stop-color="#63BC0A" offset="100%"/>
        </linearGradient>
        <circle id="a" cx="22" cy="22" r="22"/>
    </defs>
    <g fill="none" fill-rule="evenodd">
        <mask id="b" fill="#fff">
            <use xlink:href="#a"/>
        </mask>
        <use fill="#FFF" xlink:href="#a"/>
        <g mask="url(#b)" fill-rule="nonzero">
            <path d="M20.032 8.057C14.34 3.992 9.24 1.774 6.283.887c-1.848-.591-3.252-.296-4.14.961C1.036 3.4.666 9.905.592 13.01c-.074 3.4.074 6.874.518 9.683.591 3.031 3.178 3.253 5.618 2.514 5.987-1.7 12.123-6.58 15.523-9.832 2.883-2.66 1.922-4.36-2.218-7.318z" fill="url(#c)" transform="translate(13.18 9.1)"/>
            <path d="M4.51 8.575c0-4.435.443-6.8.812-8.058-1.552-.37-2.957-.295-3.696.74C.74 2.513.148 7.392.148 9.83c.074 2.661.296 5.323.665 7.54.591 2.513 1.848 2.735 3.992 2.292-.222-1.7-.37-4.879-.296-11.088z" fill="url(#d)" transform="translate(9.484 12.057)"/>
            <path d="M15.154 6.431C6.874 1.478 1.478.296 1.552.296.74 3.105.444 7.762.444 10.053c0 3.179.147 6.8.59 9.536 0 0 7.615-.813 16.115-7.466 2.588-1.996 1.11-3.77-1.995-5.692z" fill="url(#e)" transform="translate(13.18 12.057)"/>
            <path d="M17.007 18.005s-.26.406-.26 3.977c0 3.579.26 4.015.26 4.015.088.443.273.583.746.472 0 0 .791-.125 3.97-1.751 3.178-1.634 3.71-2.24 3.71-2.24.34-.348.43-.578 0-.947 0 0-.872-.813-3.71-2.291-2.81-1.464-3.97-1.708-3.97-1.708-.392-.111-.643.014-.746.473z" fill="#FFF"/>
        </g>
    </g>
</svg>
