<?xml version="1.0" encoding="UTF-8"?>
<svg width="15px" height="15px" viewBox="0 0 15 15" version="1.1" xmlns="http://www.w3.org/2000/svg" xmlns:xlink="http://www.w3.org/1999/xlink">
    <!-- Generator: Sketch 52.2 (67145) - http://www.bohemiancoding.com/sketch -->
    <title> </title>
    <desc>Created with Sketch.</desc>
    <g id="-" stroke="none" stroke-width="1" fill="none" fill-rule="evenodd" opacity="0.8">
        <g id="Group" transform="translate(0.100000, 0.100000)" fill="#FFFFFF">
            <path d="M14.0907665,10.3585085 L14.0905653,10.36 L11.4031658,7.42665685 L13.3472386,6.79037951 C13.0756092,3.78388531 10.4878617,1.42615263 7.3356747,1.42615263 C6.0288154,1.42615263 4.81897384,1.83140754 3.83097598,2.52013475 L2.96,1.36863985 C4.18578078,0.507295614 5.68971547,0 7.31493548,0 C11.43836,0 14.781056,3.26552401 14.781056,7.29375201 C14.781056,8.38876183 14.5340515,9.42741257 14.0915044,10.3594304 Z" id="Combined-Shape"></path>
            <path d="M11.1307526,14.7984912 L11.1305653,14.8 L8.39552674,11.7612013 L10.3767494,11.1250592 C10.054943,8.16900518 7.49095948,5.86615263 4.3756747,5.86615263 C3.0688154,5.86615263 1.85897384,6.27140754 0.870975981,6.96013475 L-3.21434546e-11,5.80863985 C1.22578078,4.94729561 2.72971547,4.44 4.35493548,4.44 C8.47835998,4.44 11.821056,7.70552401 11.821056,11.733752 C11.821056,12.8287618 11.5740515,13.8674126 11.1315044,14.7994304 Z" id="Combined-Shape" transform="translate(5.910528, 9.620000) scale(-1, -1) translate(-5.910528, -9.620000) "></path>
        </g>
    </g>
</svg>
