<svg width="21px" height="22px" viewBox="0 0 21 22" version="1.1" xmlns="http://www.w3.org/2000/svg" xmlns:xlink="http://www.w3.org/1999/xlink">
    <g id="Playing-View" stroke="none" stroke-width="1" fill="none" fill-rule="evenodd" opacity="0.5">
        <g id="Playing-View-/-@p3---1920" transform="translate(-1821.000000, -670.000000)" fill="#FFFFFF">
            <g id="字幕列表" transform="translate(1582.000000, 647.000000)">
                <g id="刷新" transform="translate(239.000000, 21.000000)">
                    <g transform="translate(-0.000000, 0.000000)" id="Combined-Shape">
                        <path d="M19.9869352,16.7710071 L19.9866497,16.77312 L16.1734477,12.6176034 L18.9319294,11.716222 C18.5465092,7.45707601 14.8747053,4.11699719 10.4020076,4.11699719 C8.54768024,4.11699719 6.83101315,4.69110102 5.4291243,5.66678549 L4.19328,4.03552179 C5.93256354,2.81529965 8.06652492,2.09664 10.3725803,2.09664 C16.2233854,2.09664 20.9664,6.72274017 20.9664,12.4293239 C20.9664,13.9805681 20.6159207,15.4519713 19.9879822,16.7723131 L19.9869352,16.7710071 Z"></path>
                        <path d="M15.7936355,23.0609025 L15.7933697,23.06304 L11.9125717,18.75813 L14.723766,17.8569401 C14.2671489,13.6692501 10.6290641,10.4069172 6.20872762,10.4069172 C4.35440024,10.4069172 2.63773315,10.981021 1.2358443,11.9567055 L-4.55896432e-11,10.3254418 C1.73928354,9.10521965 3.87324492,8.38656 6.17930034,8.38656 C12.0301054,8.38656 16.77312,13.0126602 16.77312,18.7192439 C16.77312,20.2704881 16.4226407,21.7418913 15.7947022,23.0622331 L15.7936355,23.0609025 Z" transform="translate(8.386560, 15.724800) scale(-1, -1) translate(-8.386560, -15.724800) "></path>
                    </g>
                </g>
            </g>
        </g>
    </g>
</svg>
