<svg width="70" height="70" xmlns="http://www.w3.org/2000/svg">
    <path d="M66.688 48.893v.007L54.183 35.31l9.045-2.949c-1.264-13.93-13.304-24.853-27.97-24.853-6.08 0-11.71 1.877-16.307 5.068L14.9 7.241C20.603 3.251 27.6.9 35.162.9 54.347.9 69.9 16.03 69.9 34.693a32.9 32.9 0 01-3.208 14.204l-.004-.004zM4.112 21.907V21.9l12.726 14.08-9.218 2.947c1.497 13.696 13.427 24.365 27.92 24.365 6.08 0 11.71-1.877 16.307-5.068l4.052 5.335c-5.703 3.99-12.7 6.341-20.262 6.341C16.453 69.9.9 54.77.9 36.107a32.9 32.9 0 013.208-14.204l.004.004z" fill="#FFF" fill-rule="evenodd" opacity=".8"/>
</svg>
