<?xml version="1.0" encoding="UTF-8"?>
<svg width="70px" height="70px" viewBox="0 0 70 70" version="1.1" xmlns="http://www.w3.org/2000/svg" xmlns:xlink="http://www.w3.org/1999/xlink">
    <!-- Generator: Sketch 52.2 (67145) - http://www.bohemiancoding.com/sketch -->
    <desc>Created with Sketch.</desc>
    <g id="Playing-View" stroke="none" stroke-width="1" fill="none" fill-rule="evenodd" opacity="0.8">
        <g id="Playing-View-/-@p2---855" transform="translate(-115.000000, -240.000000)" fill="#FFFFFF">
            <g id="Group" transform="translate(115.000000, 240.000000)">
                <path d="M66.6882801,48.8930898 L66.6873438,48.9 L54.1836408,35.3092209 L63.228857,32.3612178 C61.9650426,18.4315149 49.924992,7.50765696 35.2587656,7.50765696 C29.1783223,7.50765696 23.5492747,9.38528591 18.9524027,12.5763 L14.9,7.2411885 C20.6032082,3.25040439 27.6005871,0.9 35.1622719,0.9 C54.3473894,0.9 69.9,16.029841 69.9,34.6934456 C69.9,39.7668502 68.7507587,44.5791316 66.6917134,48.8973611 L66.6882801,48.8930898 Z" id="Combined-Shape"></path>
                <path d="M52.6882154,69.8930093 L52.6873438,69.9 L39.96199,55.8206239 L49.1800535,52.8732474 C47.6827804,39.1772441 35.7532966,28.507657 21.2587656,28.507657 C15.1783223,28.507657 9.54927473,30.3852859 4.95240267,33.5763 L0.9,28.2411885 C6.60320816,24.2504044 13.6005871,21.9 21.1622719,21.9 C40.3473894,21.9 55.9,37.029841 55.9,55.6934456 C55.9,60.7668502 54.7507587,65.5791316 52.6917134,69.8973611 L52.6882154,69.8930093 Z" id="Combined-Shape" transform="translate(28.400000, 45.900000) scale(-1, -1) translate(-28.400000, -45.900000) "></path>
            </g>
        </g>
    </g>
</svg>
