<svg width="15" height="15" xmlns="http://www.w3.org/2000/svg">
    <path d="M14.19 10.459v.001l-2.687-2.933 1.944-.637c-.271-3.006-2.86-5.364-6.011-5.364A6.11 6.11 0 003.93 2.62l-.87-1.15A7.552 7.552 0 017.415.1c4.123 0 7.466 3.266 7.466 7.294a7.126 7.126 0 01-.69 3.065zM.79 4.542V4.54l2.736 3.039-1.982.636c.322 2.956 2.886 5.259 6.001 5.259a6.11 6.11 0 003.505-1.094l.871 1.151A7.552 7.552 0 017.566 14.9C3.443 14.9.1 11.634.1 7.606c0-1.095.247-2.133.69-3.065z" fill="#FFF" fill-rule="evenodd" opacity=".5"/>
</svg>
