<?xml version="1.0" encoding="UTF-8"?>
<svg width="13px" height="13px" viewBox="0 0 13 13" version="1.1" xmlns="http://www.w3.org/2000/svg" xmlns:xlink="http://www.w3.org/1999/xlink">
    <!-- Generator: Sketch 53.1 (72631) - https://sketchapp.com -->
    <title>Icons/reload-default-icon</title>
    <desc>Created with Sketch.</desc>
    <defs>
        <radialGradient cx="81.8460892%" cy="79.2345085%" fx="81.8460892%" fy="79.2345085%" r="114.598978%" gradientTransform="translate(0.818461,0.792345),scale(0.945892,1.000000),rotate(-139.029722),translate(-0.818461,-0.792345)" id="radialGradient-1">
            <stop stop-color="#FFFFFF" stop-opacity="0.775928442" offset="0%"></stop>
            <stop stop-color="#FFFFFF" stop-opacity="0.508378623" offset="100%"></stop>
        </radialGradient>
    </defs>
    <g id="Icons/reload-default-icon" stroke="none" stroke-width="1" fill="none" fill-rule="evenodd" fill-opacity="0.7" stroke-opacity="0.168081975">
        <path d="M11.563839,8.46077399 C11.4978019,8.25752322 11.2795046,8.14640867 11.0762229,8.21232198 L10.5730031,8.37582043 C10.8812693,7.73829721 11.0427245,7.03724458 11.0427245,6.32136223 C11.0427245,3.71798762 8.9247678,1.6 6.32136223,1.6 C3.71798762,1.6 1.6,3.71798762 1.6,6.32136223 C1.6,8.92473684 3.71798762,11.0427245 6.32136223,11.0427245 C6.5350774,11.0427245 6.70835913,10.8694427 6.70835913,10.6557276 C6.70835913,10.4420433 6.5350774,10.2687307 6.32136223,10.2687307 C4.1447678,10.2687307 2.37399381,8.49798762 2.37399381,6.32136223 C2.37399381,4.1447678 4.1447678,2.37399381 6.32136223,2.37399381 C8.49798762,2.37399381 10.2687307,4.1447678 10.2687307,6.32136223 C10.2687307,6.92111455 10.1334056,7.50826625 9.87482972,8.04173375 L9.70291022,7.51244582 C9.63687307,7.30922601 9.41851393,7.19801858 9.21529412,7.26399381 C9.01201238,7.33006192 8.90074303,7.54839009 8.96678019,7.75164087 L9.42312693,9.15622291 C9.47622291,9.31978328 9.6279257,9.42377709 9.79108359,9.42377709 C9.83068111,9.42377709 9.87102167,9.41764706 9.91074303,9.4047678 L11.315356,8.94848297 C11.5186068,8.88241486 11.6298762,8.66411765 11.563839,8.46077399 Z" id="路径" stroke="#FFFFFF" stroke-width="0.55" fill="url(#radialGradient-1)" transform="translate(6.591439, 6.321362) rotate(-60.000000) translate(-6.591439, -6.321362) "></path>
    </g>
</svg>