<?xml version="1.0" encoding="UTF-8"?>
<svg width="13px" height="13px" viewBox="0 0 13 13" version="1.1" xmlns="http://www.w3.org/2000/svg" xmlns:xlink="http://www.w3.org/1999/xlink">
    <!-- Generator: Sketch 53.1 (72631) - https://sketchapp.com -->
    <title>Icons/reload-active-icon</title>
    <desc>Created with Sketch.</desc>
    <defs>
        <radialGradient cx="84.2036702%" cy="81.3988863%" fx="84.2036702%" fy="81.3988863%" r="117.900008%" gradientTransform="translate(0.842037,0.813989),scale(0.945892,1.000000),rotate(-139.029722),translate(-0.842037,-0.813989)" id="radialGradient-1">
            <stop stop-color="#FFFFFF" stop-opacity="0.775928442" offset="0%"></stop>
            <stop stop-color="#FFFFFF" stop-opacity="0.508378623" offset="100%"></stop>
        </radialGradient>
    </defs>
    <g id="Icons/reload-active-icon" stroke="none" stroke-width="1" fill="none" fill-rule="evenodd" fill-opacity="0.2" stroke-opacity="0.04">
        <path d="M11.5569393,8.82280553 C11.4909022,8.61955476 11.272605,8.50844021 11.0693232,8.57435352 L10.5661034,8.73785197 C10.8743697,8.10032875 11.0358248,7.39927612 11.0358248,6.68339377 C11.0358248,4.08001916 8.91786812,1.96203154 6.31446254,1.96203154 C3.71108793,1.96203154 1.59310032,4.08001916 1.59310032,6.68339377 C1.59310032,9.28676838 3.71108793,11.404756 6.31446254,11.404756 C6.52817772,11.404756 6.70145945,11.2314743 6.70145945,11.0177591 C6.70145945,10.8040749 6.52817772,10.6307622 6.31446254,10.6307622 C4.13786812,10.6307622 2.36709412,8.86001916 2.36709412,6.68339377 C2.36709412,4.50679934 4.13786812,2.73602535 6.31446254,2.73602535 C8.49108793,2.73602535 10.261831,4.50679934 10.261831,6.68339377 C10.261831,7.28314609 10.1265059,7.87029779 9.86793004,8.40376529 L9.69601053,7.87447736 C9.62997338,7.67125755 9.41161425,7.56005012 9.20839443,7.62602535 C9.0051127,7.69209346 8.89384335,7.91042163 8.9598805,8.11367241 L9.41622725,9.51825445 C9.46932323,9.68181482 9.62102601,9.78580863 9.78418391,9.78580863 C9.82378143,9.78580863 9.86412199,9.7796786 9.90384335,9.76679934 L11.3084564,9.31051451 C11.5117071,9.2444464 11.6229765,9.02614919 11.5569393,8.82280553 Z" id="路径" stroke="#FFFFFF" stroke-width="0.5" fill="url(#radialGradient-1)" transform="translate(6.584539, 6.683394) rotate(-60.000000) translate(-6.584539, -6.683394) "></path>
    </g>
</svg>