<svg width="13" height="13" xmlns="http://www.w3.org/2000/svg">
    <defs>
        <radialGradient cx="84.204%" cy="81.399%" fx="84.204%" fy="81.399%" r="114.307%" id="a">
            <stop stop-color="#FFF" stop-opacity=".776" offset="0%"/>
            <stop stop-color="#FFF" stop-opacity=".508" offset="100%"/>
        </radialGradient>
    </defs>
    <path d="M3.358 7.401H4.85a.25.25 0 01.195.406C4.155 8.93 3.623 9.585 3.451 9.77c-.043.045-.133.17-.294.18-.162.01-.256-.1-.311-.167-.078-.095-.165-.192-.306-.406a7.408 7.408 0 01-.361-.681 4.022 4.022 0 01-.126-.262v-.002a4.864 4.864 0 01-.286-2.982 4.848 4.848 0 019.58 1.05A4.847 4.847 0 016.5 11.347a.485.485 0 01-.218-.061.321.321 0 01-.156-.287c.034-.427.06-.759.08-.995.018-.114.04-.236.294-.236a3.268 3.268 0 10-3.142-2.367z" stroke="#FFF" stroke-width=".5" fill="url(#a)" transform="rotate(-4 6.5 6.5)" fill-rule="evenodd" fill-opacity=".2" stroke-opacity=".04"/>
</svg>
