<?xml version="1.0" encoding="UTF-8"?>
<svg width="17px" height="17px" viewBox="0 0 17 17" version="1.1" xmlns="http://www.w3.org/2000/svg" xmlns:xlink="http://www.w3.org/1999/xlink">
    <!-- Generator: Sketch 57.1 (83088) - https://sketch.com -->
    <desc>Created with Sketch.</desc>
    <g id="Page-1" stroke="none" stroke-width="1" fill="none" fill-rule="evenodd">
        <g id="download-/-search-copy">
            <g id="编组-2-copy">
                <circle id="Background" fill="#ACADB7" cx="8.5" cy="8.5" r="8.5"></circle>
                <path d="M7.65,4.19333333 C9.61153846,4.19333333 11.22,5.79221488 11.22,7.73247924 C11.22,8.40228097 11.0282051,9.02886968 10.6969231,9.56471107 L10.6969231,9.56471107 L12.3271795,11.1808778 C12.5015385,11.3537299 12.58,11.5784376 12.58,11.8074665 C12.58,12.3044162 12.2007692,12.6933333 11.6907692,12.6933333 C11.4553846,12.6933333 11.22,12.6112286 11.05,12.4426978 L11.05,12.4426978 L9.40666667,10.8092459 C8.88358974,11.1030944 8.28641026,11.2716251 7.65,11.2716251 C5.68846154,11.2716251 4.08,9.6770649 4.08,7.73247924 C4.08,5.79221488 5.68846154,4.19333333 7.65,4.19333333 Z M7.65,5.43786816 C6.37282051,5.43786816 5.33538462,6.47065921 5.33538462,7.73247924 C5.33538462,8.99862057 6.37282051,10.0270903 7.65,10.0270903 C8.92717949,10.0270903 9.96461538,8.99862057 9.96461538,7.73247924 C9.96461538,6.47065921 8.92717949,5.43786816 7.65,5.43786816 Z" id="Combined-Shape" fill="#E8E8ED" fill-rule="nonzero"></path>
            </g>
        </g>
    </g>
</svg>
