<?xml version="1.0" encoding="UTF-8"?>
<svg width="18px" height="18px" viewBox="0 0 18 18" version="1.1" xmlns="http://www.w3.org/2000/svg" xmlns:xlink="http://www.w3.org/1999/xlink">
    <!-- Generator: Sketch 52.2 (67145) - http://www.bohemiancoding.com/sketch -->
    <desc>Created with Sketch.</desc>
    <g id="页面1" stroke="none" stroke-width="1" fill="none" fill-rule="evenodd" opacity="0.49749535">
        <g id="landing-view" transform="translate(-676.000000, -89.000000)" fill="#FFFFFF">
            <g id="&lt;" transform="translate(685.000000, 98.000000) scale(-1, 1) translate(-685.000000, -98.000000) translate(676.000000, 89.000000)">
                <path d="M9,18 C4.02943725,18 0,13.9705627 0,9 C0,4.02943725 4.02943725,0 9,0 C13.9705627,0 18,4.02943725 18,9 C18,13.9705627 13.9705627,18 9,18 Z M7.18229254,5.6039403 L10.5780179,8.99976119 L7.18229254,12.3960119 C7.06083582,12.5175642 7.00008358,12.6767045 7.00008358,12.8358448 C7.00008358,12.9949851 7.06083582,13.1542209 7.18229254,13.2756299 C7.42530149,13.5186866 7.81885373,13.5186866 8.06186269,13.2756299 L11.8973731,9.43949851 C12.1404299,9.19658507 12.1404299,8.80293731 11.8973731,8.55992836 L8.06186269,4.72432239 C7.81885373,4.48136119 7.42530149,4.48136119 7.18229254,4.72432239 C6.93923582,4.96728358 6.93923582,5.3609791 7.18229254,5.6039403 Z" id="形状结合"></path>
            </g>
        </g>
    </g>
</svg>
