<svg width="14px" height="12px" viewBox="0 0 14 12" version="1.1" xmlns="http://www.w3.org/2000/svg" xmlns:xlink="http://www.w3.org/1999/xlink">
    <g id="2.0" stroke="none" stroke-width="1" fill="none" fill-rule="evenodd">
        <g id="各类图标的鼠标悬浮状态" transform="translate(-92.000000, -14.000000)" fill="#B8BACC">
            <g id="browserArea" transform="translate(76.000000, 0.000000)">
                <g id="menuBar">
                    <g id="button--sidebar" transform="translate(8.000000, 5.000000)">
                        <g id="icon" transform="translate(8.000000, 9.000000)">
                            <path d="M13.1966203,10.15 C13.6384481,10.15 13.9966203,10.5081722 13.9966203,10.95 C13.9966203,11.3918278 13.6384481,11.75 13.1966203,11.75 L0.803379678,11.75 C0.361551878,11.75 0.00337967812,11.3918278 0.00337967812,10.95 C0.00337967812,10.5081722 0.361551878,10.15 0.803379678,10.15 L13.1966203,10.15 Z M13.1966203,5.2 C13.6384481,5.2 13.9966203,5.5581722 13.9966203,6 C13.9966203,6.4418278 13.6384481,6.8 13.1966203,6.8 L0.803379678,6.8 C0.361551878,6.8 0.00337967812,6.4418278 0.00337967812,6 C0.00337967812,5.5581722 0.361551878,5.2 0.803379678,5.2 L13.1966203,5.2 Z M13.1966203,0.25 C13.6384481,0.25 13.9966203,0.6081722 13.9966203,1.05 C13.9966203,1.4918278 13.6384481,1.85 13.1966203,1.85 L0.803379678,1.85 C0.361551878,1.85 0.00337967812,1.4918278 0.00337967812,1.05 C0.00337967812,0.6081722 0.361551878,0.25 0.803379678,0.25 L13.1966203,0.25 Z"></path>
                        </g>
                    </g>
                </g>
            </g>
        </g>
    </g>
</svg>
