<?xml version="1.0" encoding="UTF-8"?>
<svg width="44px" height="44px" viewBox="0 0 44 44" version="1.1" xmlns="http://www.w3.org/2000/svg" xmlns:xlink="http://www.w3.org/1999/xlink">
    <!-- Generator: Sketch 58 (84663) - https://sketch.com -->
    <desc>Created with Sketch.</desc>
    <defs>
        <circle id="path-1" cx="22" cy="22" r="22"></circle>
    </defs>
    <g id="sideBarItem/__logoWithColorBg/--qqsports" stroke="none" stroke-width="1" fill="none" fill-rule="evenodd">
        <mask id="mask-2" fill="white">
            <use xlink:href="#path-1"></use>
        </mask>
        <use id="colorBg" fill="#FFFFFF" xlink:href="#path-1"></use>
        <g id="qqsport_画板-1" mask="url(#mask-2)" fill-rule="nonzero">
            <g transform="translate(8.000000, 8.000000)" id="路径">
                <path d="M9.98213592,22.4144984 C10.1941748,22.2495793 10.3690615,22.1100324 10.5475728,21.9750162 C12.9660841,20.1455016 15.2350809,18.1483495 17.2974757,15.9219417 C17.6816828,15.5069256 18.0586408,15.083754 18.4274434,14.6551456 C18.5968932,14.4585113 18.7880906,14.3597411 19.0535922,14.3597411 C21.9297087,14.3624595 24.8058252,14.3597411 27.6819417,14.3506712 C27.9066667,14.3497735 27.9773463,14.4222654 27.9456311,14.638835 C27.9039482,14.9224595 27.8930744,15.2106149 27.8414239,15.491521 C27.8196764,15.6102265 27.7453722,15.7307443 27.6647249,15.82589 C25.6240777,18.2389644 23.154822,20.0458252 20.1455016,21.0616181 C19.0535922,21.4304207 17.9335922,21.7131392 16.8326214,22.0547573 C15.4262783,22.491521 14.0453074,22.996246 12.7785113,23.7628479 C12.4568285,23.9576699 12.2003883,23.9440777 11.89411,23.7184466 C11.3540453,23.3206472 10.7840777,22.9636246 10.2267961,22.588479 C10.1606472,22.5431715 10.0954045,22.4942395 9.98213592,22.4144984 Z" fill="#E20000"></path>
                <path d="M17.1579288,14.3660841 C17.0781877,14.4648544 17.0455663,14.5137864 17.0047896,14.5545631 C14.8608414,16.7012298 12.6833657,18.8134628 10.3491262,20.7553398 C10.0247249,21.0253722 9.68220065,21.2745631 9.35326861,21.5400647 C9.23184466,21.6379288 9.14394822,21.6469903 9.02796117,21.5219417 C8.45980583,20.9066667 7.88621359,20.2959223 7.30809061,19.6897087 C7.2020712,19.5782524 7.21022654,19.4976052 7.29721683,19.3798058 C8.06472492,18.34589 8.52323625,17.1706149 8.84673139,15.9364401 C8.9636246,15.491521 9.08414239,15.0475081 9.17928803,14.5980583 C9.22006472,14.4086731 9.30343042,14.3615534 9.48466019,14.3624468 C10.8511327,14.3688026 12.216699,14.3660841 13.5831715,14.3660841 C14.6623948,14.3660841 15.7416181,14.3660841 16.8208414,14.3660841 C16.9123625,14.3660841 17.001165,14.3660841 17.1579288,14.3660841 Z" fill="#E20000"></path>
                <path d="M13.5106796,24.512233 C13.8532039,24.3464078 14.1911974,24.1706149 14.5400647,24.0174757 C15.9654369,23.392233 17.4433657,22.9183172 18.9475728,22.5286731 C21.4693851,21.876246 23.7900324,20.8160518 25.8188997,19.1623301 C26.2393528,18.8198058 26.6380583,18.4491909 27.0476375,18.0921683 C27.0911327,18.05411 27.1391586,18.0214887 27.2324919,18.0088026 C27.1880906,18.1537864 27.1491262,18.3005825 27.0983819,18.4428479 C26.0753398,21.3089968 24.2267961,23.5100324 21.7394175,25.2344337 C20.9121036,25.8080259 20.0331392,25.8922977 19.0998058,25.8968285 C17.3001942,25.90589 15.5830421,25.5234951 13.9347573,24.8130744 C13.7906796,24.7514563 13.6583819,24.664466 13.5206472,24.5883495 C13.5170227,24.5638835 13.5143042,24.5376052 13.5106796,24.512233 Z" fill="#E20000"></path>
                <path d="M1.60841424,14.365178 C1.97087379,14.365178 2.33242718,14.3642718 2.69488673,14.365178 C3.06368932,14.3669903 3.05825243,14.3706149 3.19961165,14.7067961 C3.76957929,16.063301 4.39935275,17.3908091 5.21398058,18.6222654 C5.34718447,18.8234304 5.46860841,19.033657 5.61993528,19.2212298 C5.7631068,19.398835 5.70148867,19.4849191 5.53475728,19.5855016 C4.93398058,19.9461489 4.3223301,20.0086731 3.65177994,19.7685437 C2.63779935,19.4060841 1.79779935,18.8116505 1.0810356,18.0187702 C0.768414239,17.6735275 0.612556634,17.2630421 0.526472492,16.824466 C0.393268608,16.1448544 0.285436893,15.4598058 0.168543689,14.7765696 C0.156763754,14.7095146 0.161294498,14.6406472 0.149514563,14.5735922 C0.118705502,14.3968932 0.2002589,14.3515858 0.364271845,14.3552104 C0.779288026,14.3633657 1.19430421,14.3579288 1.60932039,14.3579288 C1.60841424,14.3606472 1.60841424,14.3633657 1.60841424,14.365178 Z" fill="#E20000"></path>
                <path d="M8.25048544,22.3492557 C8.16440129,22.4099676 8.10006472,22.4598058 8.03119741,22.5023948 C7.18394822,23.0243366 6.33307443,23.5408414 5.49126214,24.0718447 C5.29915858,24.1932686 5.16776699,24.1887379 4.99831715,24.0328803 C3.80582524,22.9364401 2.8,21.6950162 2.02433657,20.2705502 C2.00440129,20.2343042 1.99352751,20.1944337 1.95365696,20.0956634 C2.16750809,20.2143689 2.32245955,20.3194822 2.49100324,20.3901618 C2.91236246,20.567767 3.33009709,20.7707443 3.76867314,20.8894498 C4.63042071,21.1232362 5.42511327,20.8831068 6.1618123,20.4255016 C6.32673139,20.3231068 6.42459547,20.3203883 6.5605178,20.4735275 C7.0761165,21.0543689 7.60621359,21.6225243 8.12996764,22.1961165 C8.16530744,22.2341748 8.19430421,22.2776699 8.25048544,22.3492557 Z" fill="#E20000"></path>
                <path d="M6.1971521,24.9190939 C6.38653722,24.7976699 6.56323625,24.6862136 6.73812298,24.572945 C7.39598706,24.1452427 8.05203883,23.714822 8.71080906,23.2880259 C9.01527508,23.0904854 9.13669903,23.0922977 9.42576052,23.3052427 C10.0274434,23.7483495 10.6245955,24.1968932 11.2280906,24.6372816 C11.3612945,24.7342395 11.3875728,24.8085437 11.267055,24.9399353 C10.8112621,25.4383172 10.4959223,26.0173463 10.3246602,26.6724919 C10.2820712,26.8355987 10.2104854,26.9017476 10.0365049,26.8482848 C8.68634304,26.4269256 7.43223301,25.8116505 6.26783172,25.0106149 C6.25152104,24.998835 6.24064725,24.9761812 6.1971521,24.9190939 Z" fill="#E20000"></path>
                <path d="M6.54511327,18.6621359 C5.54200647,17.323754 4.78446602,15.9092557 4.13294498,14.389644 C5.4812945,14.389644 6.79883495,14.389644 8.15080906,14.389644 C7.80828479,15.8847896 7.43404531,17.335534 6.54511327,18.6621359 Z" fill="#E20000"></path>
                <path d="M18.1102913,26.8754693 C17.6436246,26.9878317 17.1787702,27.1137864 16.708479,27.208932 C15.3900324,27.4771521 14.0588997,27.5378641 12.7214239,27.3946926 C12.301877,27.3493851 11.8859547,27.2732686 11.4682201,27.2116505 C11.3286731,27.1908091 11.2888026,27.1038188 11.3359223,26.983301 C11.455534,26.6761165 11.5561165,26.3571521 11.7146926,26.0708091 C11.863301,25.802589 12.0689968,25.5642718 12.2665372,25.3268608 C12.3109385,25.2733981 12.4513916,25.236246 12.5075728,25.2661489 C14.2365049,26.2012945 16.0868608,26.6878964 18.0432362,26.7930097 C18.0631715,26.7939159 18.0822006,26.8084142 18.1021359,26.8165696 C18.1057605,26.8365049 18.1075728,26.8564401 18.1102913,26.8754693 Z" fill="#E20000"></path>
                <path d="M14.918835,2.45928803 C14.967767,2.51728155 15.0357282,2.58161812 15.0855663,2.65773463 C15.8512621,3.82394822 16.6142395,4.99197411 17.3772168,6.16 C17.6245955,6.53877023 17.8665372,6.92116505 18.1220712,7.29540453 C18.2036246,7.41501618 18.2072492,7.49838188 18.1130097,7.61346278 C16.8688673,9.12944984 15.6265372,10.6481553 14.3905502,12.1704854 C14.2718447,12.3163754 14.1658252,12.271068 14.0353398,12.216699 C12.4069903,11.5388997 10.7777346,10.8629126 9.14847896,10.1860194 C8.97449838,10.1135275 8.80414239,10.031068 8.62563107,9.97126214 C8.46796117,9.9187055 8.41993528,9.82718447 8.43624595,9.66588997 C8.51961165,8.81048544 8.59391586,7.95326861 8.67365696,7.09695793 C8.75702265,6.20349515 8.84491909,5.31003236 8.92375405,4.41566343 C8.94006472,4.22809061 8.9989644,4.13022654 9.2010356,4.07404531 C11.0522977,3.5584466 12.8999353,3.02834951 14.7493851,2.50278317 C14.7901618,2.49009709 14.8345631,2.48012945 14.918835,2.45928803 Z" fill="#0094FF"></path>
                <path d="M0.541877023,10.4306796 C0.67961165,9.62964401 0.911585761,8.91378641 1.23508091,8.22873786 C2.04608414,6.50705502 3.24582524,5.082589 4.65398058,3.82576052 C5.10886731,3.41980583 5.6018123,3.05553398 6.07482201,2.66860841 C6.19171521,2.57346278 6.28504854,2.562589 6.40919094,2.67042071 C6.83598706,3.04194175 7.2763754,3.39805825 7.69954693,3.77320388 C7.77475728,3.8402589 7.8363754,3.97980583 7.82640777,4.0776699 C7.65242718,5.84919094 7.46213592,7.61889968 7.28815534,9.39042071 C7.26187702,9.65773463 7.16673139,9.84349515 6.95197411,10.0120388 C5.73501618,10.9671197 4.52711974,11.9321683 3.32375405,12.9035599 C3.15249191,13.0422006 3.04556634,13.0440129 2.89061489,12.886343 C2.1620712,12.143301 1.42174757,11.4120388 0.690485437,10.6708091 C0.615275081,10.5983172 0.577216828,10.4895793 0.541877023,10.4306796 Z" fill="#0094FF"></path>
                <path d="M25.6612298,13.458123 C25.5189644,13.4653722 25.4301618,13.4735275 25.3422654,13.4735275 C22.1335922,13.4744337 18.9249191,13.4753398 15.716246,13.4689968 C15.5975405,13.4689968 15.4570874,13.4119094 15.363754,13.3357929 C15.1970227,13.1998706 15.2169579,13.0539806 15.3610356,12.8745631 C16.5725566,11.3594822 17.77411,9.8371521 18.9711327,8.31210356 C19.0998058,8.14899676 19.2194175,8.10459547 19.429644,8.13631068 C20.6012945,8.31210356 21.7756634,8.46705502 22.9491262,8.62925566 C23.1584466,8.65825243 23.3713916,8.67275081 23.5743689,8.72621359 C23.6568285,8.74796117 23.7474434,8.84220065 23.781877,8.92556634 C24.2521683,10.0446602 24.7143042,11.1682848 25.1773463,12.2900971 C25.3332039,12.6625243 25.4872492,13.0367638 25.6612298,13.458123 Z" fill="#0094FF"></path>
                <path d="M16.4928155,0.386925566 C17.1533981,0.577216828 17.7849838,0.729449838 18.3975405,0.939676375 C20.2071197,1.5612945 21.8662783,2.46200647 23.2925566,3.74692557 C23.8561812,4.25527508 24.3482201,4.84245955 24.8737864,5.39339806 C24.9852427,5.51029126 25.0078964,5.61902913 24.9154693,5.77307443 C24.572945,6.34122977 24.2431068,6.91754045 23.9141748,7.49385113 C23.8434951,7.61708738 23.7646602,7.65152104 23.6205825,7.62977346 C22.2550162,7.42860841 20.8885437,7.23378641 19.521165,7.04440129 C19.3181877,7.01631068 19.1804531,6.93928803 19.0662783,6.76168285 C18.0532039,5.18860841 17.0346926,3.61915858 16.0098382,2.05333333 C15.8911327,1.87210356 15.8539806,1.7207767 15.9518447,1.51326861 C16.0959223,1.20699029 16.1983172,0.880776699 16.3288026,0.56815534 C16.3559871,0.502912621 16.4302913,0.454886731 16.4928155,0.386925566 Z" fill="#0094FF"></path>
                <path d="M7.19119741,1.99352751 C8.33294498,0.842718447 13.7236246,-0.34433657 15.2640777,0.229255663 C15.1417476,0.581747573 15.0266667,0.937864078 14.8907443,1.28582524 C14.864466,1.35288026 14.7602589,1.40996764 14.6805178,1.43262136 C12.7087379,1.99533981 10.7369579,2.55443366 8.76245955,3.10899676 C8.69177994,3.12893204 8.58394822,3.12983819 8.53139159,3.08906149 C8.08828479,2.75016181 7.65423948,2.3994822 7.21838188,2.05152104 C7.20297735,2.0379288 7.19935275,2.01165049 7.19119741,1.99352751 Z" fill="#0094FF"></path>
                <path d="M4.40660194,13.4073786 C4.55883495,13.2859547 4.71106796,13.1645307 4.86330097,13.0431068 C5.74770227,12.3363107 6.63391586,11.6313269 7.51378641,10.9190939 C7.64789644,10.810356 7.75482201,10.7904207 7.9197411,10.8629126 C9.8036246,11.6956634 11.6920388,12.5184466 13.5786408,13.3457605 C13.6293851,13.3684142 13.6755987,13.4028479 13.7743689,13.4626537 C10.6191586,13.4626537 7.5228479,13.4626537 4.42744337,13.4626537 C4.42110032,13.4445307 4.41385113,13.4264078 4.40660194,13.4073786 Z" fill="#0094FF"></path>
                <path d="M25.6576052,6.48983819 C25.8560518,6.82420712 26.0436246,7.1223301 26.2130744,7.42951456 C26.8836246,8.64375405 27.4028479,9.91508091 27.6765049,11.2824595 C27.7326861,11.5642718 27.7000647,11.7609061 27.458123,11.9457605 C27.1835599,12.1550809 26.9461489,12.4124272 26.691521,12.648932 C26.6444013,12.6933333 26.5927508,12.7332039 26.5175405,12.7975405 C26.3190939,12.3344984 26.1306149,11.9004531 25.9457605,11.4655016 C25.5280259,10.4805178 25.108479,9.49553398 24.6988997,8.50692557 C24.6599353,8.41268608 24.6436246,8.27132686 24.6862136,8.18886731 C24.9662136,7.65423948 25.2643366,7.13048544 25.5579288,6.60401294 C25.5742395,6.57773463 25.5977994,6.55779935 25.6576052,6.48983819 Z" fill="#0094FF"></path>
                <path d="M0.272750809,11.7889968 C0.715857605,12.3254369 1.15805825,12.861877 1.62291262,13.4245955 C1.54498382,13.4454369 1.49967638,13.4671845 1.45346278,13.4671845 C1.05385113,13.4699029 0.653333333,13.4753398 0.253721683,13.4617476 C0.182135922,13.4590291 0.0516504854,13.3684142 0.054368932,13.3258252 C0.0869902913,12.8183819 0.140453074,12.3127508 0.187572816,11.8071197 C0.216569579,11.8016828 0.244660194,11.7953398 0.272750809,11.7889968 Z" fill="#0094FF"></path>
                <path d="M27.2796117,13.4635599 C27.5061489,13.2415534 27.6937217,13.056699 27.9030421,12.8510032 C27.9030421,13.0222654 27.9102913,13.1835599 27.8976052,13.3430421 C27.8939806,13.3856311 27.8314563,13.4544984 27.7924919,13.458123 C27.6330097,13.4708091 27.4717152,13.4635599 27.2796117,13.4635599 Z" fill="#0094FF"></path>
            </g>
        </g>
    </g>
</svg>
