<svg width="44" height="44" xmlns="http://www.w3.org/2000/svg" xmlns:xlink="http://www.w3.org/1999/xlink">
    <defs>
        <circle id="a" cx="22" cy="22" r="22"/>
    </defs>
    <g fill="none" fill-rule="evenodd">
        <mask id="b" fill="#fff">
            <use xlink:href="#a"/>
        </mask>
        <use fill="#FFF" xlink:href="#a"/>
        <g mask="url(#b)" fill-rule="nonzero">
            <path d="M17.982 30.414c.212-.164.387-.304.566-.439 2.418-1.83 4.687-3.827 6.75-6.053a46.76 46.76 0 001.13-1.267.771.771 0 01.626-.295c2.876.002 5.752 0 8.628-.01.225 0 .295.072.264.289-.042.283-.053.572-.105.853a.767.767 0 01-.176.334c-2.04 2.413-4.51 4.22-7.52 5.236-1.091.368-2.211.651-3.312.993-1.407.437-2.788.941-4.054 1.708-.322.195-.579.181-.885-.045-.54-.397-1.11-.754-1.667-1.13-.066-.045-.132-.094-.245-.174zm7.176-8.048c-.08.099-.112.148-.153.189-2.144 2.146-4.322 4.258-6.656 6.2-.324.27-.667.52-.996.785-.121.098-.21.107-.325-.018a156.287 156.287 0 00-1.72-1.832c-.106-.112-.098-.192-.01-.31.767-1.034 1.225-2.21 1.549-3.444.117-.444.237-.888.332-1.338.041-.19.124-.236.306-.236 1.366.007 2.732.004 4.098.004h3.575zM21.51 32.512c.343-.166.681-.341 1.03-.495 1.425-.625 2.903-1.099 4.408-1.488 2.521-.653 4.842-1.713 6.87-3.367.421-.342.82-.713 1.23-1.07a.317.317 0 01.184-.083c-.044.145-.083.292-.134.434-1.023 2.866-2.871 5.067-5.359 6.791-.827.574-1.706.658-2.64.663-1.799.009-3.516-.374-5.164-1.084-.144-.062-.277-.149-.414-.225l-.01-.076zM9.608 22.365h1.087c.369.002.363.006.505.342.57 1.356 1.2 2.684 2.014 3.915.133.201.255.412.406.6.143.177.081.263-.085.364-.601.36-1.213.423-1.883.183-1.014-.363-1.854-.957-2.571-1.75-.313-.345-.468-.756-.555-1.195-.133-.68-.24-1.364-.357-2.047-.012-.067-.008-.136-.02-.203-.03-.177.051-.222.215-.219.415.008.83.003 1.245.003v.007zm6.642 7.985c-.086.06-.15.11-.219.152-.847.522-1.698 1.039-2.54 1.57-.192.121-.323.117-.493-.04-1.192-1.096-2.198-2.337-2.974-3.761-.02-.037-.03-.077-.07-.175.214.118.368.223.537.294.421.178.84.38 1.278.5.861.233 1.656-.007 2.393-.464.165-.103.263-.106.399.048.515.58 1.045 1.149 1.569 1.722.035.038.064.082.12.153zm-2.053 2.57l.541-.347c.658-.428 1.314-.858 1.973-1.285.304-.198.426-.196.715.017.601.443 1.199.892 1.802 1.332.133.097.16.172.04.303a4.052 4.052 0 00-.943 1.732c-.043.164-.115.23-.288.176a13.943 13.943 0 01-3.77-1.837c-.015-.012-.026-.035-.07-.092zm.348-6.258c-1.003-1.338-1.76-2.753-2.412-4.272h4.018c-.343 1.495-.717 2.946-1.606 4.272zm11.565 8.213c-.466.113-.931.239-1.402.334-1.318.268-2.65.329-3.987.186-.42-.046-.835-.122-1.253-.183-.14-.021-.18-.108-.132-.229.12-.307.22-.626.379-.912.148-.268.354-.507.552-.744.044-.054.184-.09.24-.06 1.73.934 3.58 1.42 5.536 1.526.02 0 .04.015.06.024l.007.058z" fill="#E20000"/>
            <path d="M22.919 10.46c.049.057.117.122.167.198a1787.27 1787.27 0 012.291 3.502c.248.379.49.761.745 1.135.082.12.085.203-.009.318a1117.37 1117.37 0 00-3.722 4.557c-.12.146-.225.101-.356.047-1.628-.678-3.257-1.354-4.887-2.031-.174-.072-.344-.155-.522-.215-.158-.052-.206-.144-.19-.305.084-.856.158-1.713.238-2.569.083-.894.17-1.787.25-2.681.016-.188.075-.286.277-.342 1.851-.516 3.699-1.046 5.548-1.571.041-.013.086-.023.17-.044zM8.542 18.43c.138-.8.37-1.516.693-2.201.811-1.722 2.01-3.146 3.419-4.403.455-.406.948-.77 1.42-1.157.118-.096.211-.106.335.001.427.372.867.728 1.29 1.103a.418.418 0 01.127.305c-.174 1.771-.364 3.54-.538 5.312a.822.822 0 01-.336.622 338.02 338.02 0 00-3.628 2.892c-.172.138-.278.14-.433-.018-.729-.743-1.47-1.474-2.2-2.215-.076-.073-.114-.181-.15-.24zm25.119 3.028c-.142.007-.23.016-.319.016-3.208 0-6.417.001-9.626-.005a.605.605 0 01-.352-.133c-.167-.136-.147-.282-.003-.461a642.739 642.739 0 003.61-4.563c.129-.163.248-.207.459-.176 1.171.176 2.346.331 3.52.493.208.03.421.044.624.097.083.022.173.116.208.2.47 1.119.932 2.242 1.395 3.364.156.373.31.747.484 1.168zM24.493 8.387c.66.19 1.292.342 1.905.553 1.81.621 3.468 1.522 4.895 2.807.563.508 1.055 1.095 1.58 1.646.112.117.135.226.042.38a83.362 83.362 0 00-1 1.72c-.072.124-.15.159-.294.137a479.616 479.616 0 00-4.1-.586.583.583 0 01-.455-.282 759.593 759.593 0 00-3.056-4.709c-.119-.18-.156-.332-.058-.54.144-.306.246-.632.377-.945.027-.065.101-.113.164-.181zm-9.302 1.607c1.142-1.151 6.533-2.338 8.073-1.765-.122.353-.237.709-.373 1.057-.027.067-.13.124-.21.147-1.972.562-3.944 1.121-5.919 1.676-.07.02-.178.02-.23-.02-.444-.339-.878-.69-1.314-1.037-.015-.014-.019-.04-.027-.058zm-2.784 11.413l.456-.364c.885-.707 1.77-1.412 2.65-2.124.135-.109.242-.129.407-.056 1.884.833 3.772 1.655 5.659 2.483.05.022.097.057.195.117h-9.347l-.02-.056zm21.251-6.917c.198.334.386.632.555.94.67 1.214 1.19 2.485 1.464 3.852.056.282.023.479-.219.664-.274.21-.512.466-.766.703-.048.044-.1.084-.174.149-.199-.464-.387-.898-.572-1.332-.418-.985-.838-1.97-1.247-2.96-.04-.093-.055-.235-.013-.317.28-.535.578-1.059.872-1.585.016-.026.04-.046.1-.114zM8.273 19.789l1.35 1.636c-.078.02-.123.042-.17.042-.4.003-.8.008-1.2-.005-.07-.003-.201-.094-.199-.136.033-.508.086-1.013.134-1.519.029-.005.057-.012.085-.018zm27.007 1.675l.623-.613c0 .171.007.333-.005.492-.004.043-.067.111-.106.115-.159.013-.32.006-.512.006z" fill="#0094FF"/>
        </g>
    </g>
</svg>
