<svg width="16" height="19" viewBox="-7 -5 30 30" fill="none" xmlns="http://www.w3.org/2000/svg">
    <path fill="#FFFFFF" opacity="0.7" d="M6.31885 18.0498H13.0601C13.7244 18.0498 14.2217 17.8848 14.5518 17.5547C14.8861 17.2288 15.0532 16.738 15.0532 16.082V9.75342C15.0532 9.09749 14.8861 8.60661 14.5518 8.28076C14.2217 7.95068 13.7244 7.78564 13.0601 7.78564H12.749V13.2383C12.749 13.8392 12.6453 14.3428 12.438 14.749C12.2306 15.1553 11.9217 15.4621 11.5112 15.6694C11.1007 15.8768 10.5929 15.9805 9.98779 15.9805H4.32568V16.0439C4.32568 16.7083 4.48649 17.2077 4.80811 17.542C5.13395 17.8805 5.63753 18.0498 6.31885 18.0498ZM2.61182 15.1108H9.89258C10.557 15.1108 11.0542 14.9458 11.3843 14.6157C11.7186 14.2899 11.8857 13.799 11.8857 13.1431V6.94141C11.8857 6.28548 11.7186 5.7946 11.3843 5.46875C11.0542 5.13867 10.557 4.97363 9.89258 4.97363H6.90283V9.65186C6.90283 9.82113 6.83724 9.96924 6.70605 10.0962C6.5791 10.2231 6.42887 10.2866 6.25537 10.2866C6.07764 10.2866 5.92318 10.2231 5.79199 10.0962C5.66504 9.96924 5.60156 9.82113 5.60156 9.65186V4.97363H2.61182C1.94743 4.97363 1.44808 5.13867 1.11377 5.46875C0.783691 5.7946 0.618652 6.28548 0.618652 6.94141V13.1431C0.618652 13.799 0.783691 14.2899 1.11377 14.6157C1.44808 14.9458 1.94743 15.1108 2.61182 15.1108ZM6.25537 5.46875C6.39079 5.46875 6.50716 5.42008 6.60449 5.32275C6.70605 5.22542 6.75684 5.11117 6.75684 4.97998V3.12646L6.71875 2.18066L7.14404 2.63135L8.10889 3.65332C8.19775 3.75488 8.31201 3.80566 8.45166 3.80566C8.58285 3.80566 8.69287 3.76335 8.78174 3.67871C8.87061 3.59408 8.91504 3.48828 8.91504 3.36133C8.91504 3.29362 8.90234 3.23438 8.87695 3.18359C8.85156 3.12858 8.81348 3.07568 8.7627 3.0249L6.61719 0.955566C6.55371 0.89209 6.49235 0.849772 6.43311 0.828613C6.37809 0.803223 6.31885 0.790527 6.25537 0.790527C6.18766 0.790527 6.12419 0.803223 6.06494 0.828613C6.00993 0.849772 5.95068 0.89209 5.88721 0.955566L3.7417 3.0249C3.69092 3.07568 3.65283 3.12858 3.62744 3.18359C3.60205 3.23438 3.58936 3.29362 3.58936 3.36133C3.58936 3.48828 3.63167 3.59408 3.71631 3.67871C3.80518 3.76335 3.9152 3.80566 4.04639 3.80566C4.19027 3.80566 4.30664 3.75488 4.39551 3.65332L5.36035 2.63135L5.78564 2.18066L5.74756 3.12646V4.97998C5.74756 5.11117 5.79622 5.22542 5.89355 5.32275C5.99512 5.42008 6.11572 5.46875 6.25537 5.46875Z" />
</svg>
