<svg xmlns="http://www.w3.org/2000/svg" width="235" height="235" viewBox="-103 -103 440 440">
    <g id="Group_38" data-name="Group 38" transform="translate(9417 -10325)">
        <path fill="#B4B5C4" d="M-280.5,305a118.365,118.365,0,0,1-23.68-2.387,116.9,116.9,0,0,1-22.056-6.847A117.505,117.505,0,0,1-346.2,284.933a118.347,118.347,0,0,1-17.39-14.348,118.343,118.343,0,0,1-14.348-17.39,117.514,117.514,0,0,1-10.833-19.959,116.906,116.906,0,0,1-6.846-22.056A118.366,118.366,0,0,1-398,187.5a118.366,118.366,0,0,1,2.387-23.68,116.9,116.9,0,0,1,6.846-22.056A117.509,117.509,0,0,1-377.933,121.8a118.344,118.344,0,0,1,14.348-17.39A118.343,118.343,0,0,1-346.2,90.067a117.505,117.505,0,0,1,19.959-10.833,116.9,116.9,0,0,1,22.056-6.846A118.367,118.367,0,0,1-280.5,70a118.367,118.367,0,0,1,23.68,2.387,116.906,116.906,0,0,1,22.056,6.846A117.506,117.506,0,0,1-214.8,90.067a118.34,118.34,0,0,1,17.39,14.348,118.343,118.343,0,0,1,14.348,17.39,117.506,117.506,0,0,1,10.833,19.959,116.907,116.907,0,0,1,6.847,22.056A118.367,118.367,0,0,1-163,187.5a118.366,118.366,0,0,1-2.387,23.68,116.909,116.909,0,0,1-6.847,22.056A117.51,117.51,0,0,1-183.067,253.2a118.342,118.342,0,0,1-14.348,17.39,118.346,118.346,0,0,1-17.39,14.348,117.51,117.51,0,0,1-19.959,10.833,116.906,116.906,0,0,1-22.056,6.847A118.365,118.365,0,0,1-280.5,305Zm1.034-137.365a14.534,14.534,0,0,0-7.588,2.05,15.511,15.511,0,0,0-5.434,5.469,14.72,14.72,0,0,0-2.017,7.588,14.72,14.72,0,0,0,2.017,7.588,15.216,15.216,0,0,0,5.434,5.434c.089.053.181.106.274.158v59.213a8.565,8.565,0,0,0,2.051,5.913,6.775,6.775,0,0,0,5.263,2.29,6.713,6.713,0,0,0,5.3-2.222,8.791,8.791,0,0,0,1.948-5.981V195.922c.084-.047.173-.1.273-.157a15.487,15.487,0,0,0,5.469-5.434,14.534,14.534,0,0,0,2.05-7.588,14.719,14.719,0,0,0-2.016-7.588,15.507,15.507,0,0,0-5.435-5.469A14.53,14.53,0,0,0-279.466,167.635Zm55.136-36.168c-.091,0-.184,0-.277.006a7.4,7.4,0,0,0-5.639,2.8,6.269,6.269,0,0,0-1.538,5.3,11.285,11.285,0,0,0,2.7,5.367,50.365,50.365,0,0,1,10.049,17.022,61.694,61.694,0,0,1,3.486,20.781,61.987,61.987,0,0,1-3.486,20.815,50.314,50.314,0,0,1-10.049,17.056,10.888,10.888,0,0,0-2.7,5.332,6.321,6.321,0,0,0,1.538,5.333,7.291,7.291,0,0,0,5.639,2.768q.107,0,.213,0a8.77,8.77,0,0,0,6.315-3.114,57.824,57.824,0,0,0,7.622-9.964,63.366,63.366,0,0,0,5.5-11.706,77.141,77.141,0,0,0,3.333-12.92,82.592,82.592,0,0,0,1.111-13.6,78.848,78.848,0,0,0-2.084-18.115,74.473,74.473,0,0,0-5.981-16.509,55.531,55.531,0,0,0-9.5-13.5C-220.039,132.527-222.142,131.467-224.33,131.467Zm-110.3,0c-2.17,0-4.285,1.06-6.288,3.15a57.315,57.315,0,0,0-9.468,13.5,73.437,73.437,0,0,0-6.016,16.509,78.848,78.848,0,0,0-2.084,18.115,81.973,81.973,0,0,0,1.119,13.6,76.679,76.679,0,0,0,3.358,12.92,64.494,64.494,0,0,0,5.511,11.706,58.469,58.469,0,0,0,7.579,9.964c2.022,2.066,4.159,3.113,6.352,3.114.07,0,.141,0,.211,0a7.258,7.258,0,0,0,5.605-2.768,6.227,6.227,0,0,0,1.607-5.333,10.65,10.65,0,0,0-2.768-5.332,49.864,49.864,0,0,1-10.015-17.056,62.536,62.536,0,0,1-3.451-20.815,62.24,62.24,0,0,1,3.451-20.781,49.911,49.911,0,0,1,10.015-17.022,11.032,11.032,0,0,0,2.768-5.367,6.178,6.178,0,0,0-1.607-5.3,7.362,7.362,0,0,0-5.605-2.8C-334.45,131.469-334.542,131.467-334.633,131.467Zm88.4,20.684h-.077a7,7,0,0,0-5.674,2.7,6.7,6.7,0,0,0-1.5,5.23,12.411,12.411,0,0,0,2.256,5.366,25.943,25.943,0,0,1,3.9,7.9,31.16,31.16,0,0,1,1.5,9.4,31.7,31.7,0,0,1-1.47,9.434,24.516,24.516,0,0,1-3.93,7.861,12.42,12.42,0,0,0-2.256,5.367,6.693,6.693,0,0,0,1.5,5.229,7,7,0,0,0,5.674,2.7h.077a8.361,8.361,0,0,0,6.28-3.042,34.762,34.762,0,0,0,6.8-12.3,49.177,49.177,0,0,0,2.358-15.244,49.167,49.167,0,0,0-2.358-15.244,34.756,34.756,0,0,0-6.8-12.3A8.359,8.359,0,0,0-246.234,152.151Zm-66.5,0a8.187,8.187,0,0,0-6.244,3.042,35.164,35.164,0,0,0-6.836,12.3,48.531,48.531,0,0,0-2.392,15.244,48.54,48.54,0,0,0,2.392,15.244,35.17,35.17,0,0,0,6.836,12.3,8.19,8.19,0,0,0,6.245,3.042h.078a7.036,7.036,0,0,0,5.709-2.7,6.824,6.824,0,0,0,1.435-5.229,12.42,12.42,0,0,0-2.256-5.367,25.418,25.418,0,0,1-3.862-7.861,31.7,31.7,0,0,1-1.47-9.434,31.161,31.161,0,0,1,1.5-9.4,26.966,26.966,0,0,1,3.828-7.9,12.411,12.411,0,0,0,2.256-5.366,6.827,6.827,0,0,0-1.435-5.23,7.033,7.033,0,0,0-5.709-2.7h-.078Z" transform="translate(-9019 10255)" />
    </g>
</svg>
