<?xml version="1.0" encoding="UTF-8"?>
<svg viewBox="0 0 46 36" version="1.1" xmlns="http://www.w3.org/2000/svg" xmlns:xlink="http://www.w3.org/1999/xlink">
    <defs>
        <filter x="-9.8%" y="-9.7%" width="119.6%" height="125.0%" filterUnits="objectBoundingBox" id="filter-1">
            <feOffset dx="0" dy="1" in="SourceAlpha" result="shadowOffsetOuter1"></feOffset>
            <feGaussianBlur stdDeviation="1" in="shadowOffsetOuter1" result="shadowBlurOuter1"></feGaussianBlur>
            <feColorMatrix values="0 0 0 0 0   0 0 0 0 0   0 0 0 0 0  0 0 0 0.1 0" type="matrix" in="shadowBlurOuter1" result="shadowMatrixOuter1"></feColorMatrix>
            <feMerge>
                <feMergeNode in="shadowMatrixOuter1"></feMergeNode>
                <feMergeNode in="SourceGraphic"></feMergeNode>
            </feMerge>
        </filter>
    </defs>
    <g id="Playing-View-/-Button---Subtitle-V2" stroke="none" stroke-width="1" fill="none" fill-rule="evenodd">
        <g id="Subtitle" filter="url(#filter-1)">
            <path d="M1,0 L45,0 C45.5522847,-1.01453063e-16 46,0.44771525 46,1 L46,35 C46,35.5522847 45.5522847,36 45,36 L1,36 C0.44771525,36 6.76353751e-17,35.5522847 0,35 L0,1 C-6.76353751e-17,0.44771525 0.44771525,1.01453063e-16 1,0 Z M6,5 C5.44771525,5 5,5.44771525 5,6 L5,30 C5,30.5522847 5.44771525,31 6,31 L40,31 C40.5522847,31 41,30.5522847 41,30 L41,6 C41,5.44771525 40.5522847,5 40,5 L6,5 Z M10,20 L15,20 L15,25 L10,25 L10,20 Z M19,20 L36,20 L36,25 L19,25 L19,20 Z" id="Combined-Shape" fill-opacity="0.9" fill="#FFFFFF"></path>
            <path d="M1,0 L45,0 C45.5522847,-1.01453063e-16 46,0.44771525 46,1 L46,35 C46,35.5522847 45.5522847,36 45,36 L1,36 C0.44771525,36 6.76353751e-17,35.5522847 0,35 L0,1 C-6.76353751e-17,0.44771525 0.44771525,1.01453063e-16 1,0 Z M6,5 C5.44771525,5 5,5.44771525 5,6 L5,30 C5,30.5522847 5.44771525,31 6,31 L40,31 C40.5522847,31 41,30.5522847 41,30 L41,6 C41,5.44771525 40.5522847,5 40,5 L6,5 Z M10,20 L15,20 L15,25 L10,25 L10,20 Z M19,20 L36,20 L36,25 L19,25 L19,20 Z" id="Combined-Shape" stroke-opacity="0.3" stroke="#000000" stroke-width="0.5" opacity="0.28"></path>
        </g>
    </g>
</svg>
