<?xml version="1.0" encoding="UTF-8"?>
<svg width="68px" height="64px" viewBox="0 0 68 64" version="1.1" xmlns="http://www.w3.org/2000/svg" xmlns:xlink="http://www.w3.org/1999/xlink">
    <!-- Generator: Sketch 53.1 (72631) - https://sketchapp.com -->
    <title>Combined Shape</title>
    <desc>Created with Sketch.</desc>
    <defs>
        <radialGradient cx="84.2036702%" cy="81.3988863%" fx="84.2036702%" fy="81.3988863%" r="118.887005%" gradientTransform="translate(0.842037,0.813989),scale(0.932245,1.000000),rotate(-139.441500),translate(-0.842037,-0.813989)" id="radialGradient-1">
            <stop stop-color="#FFFFFF" stop-opacity="0.775928442" offset="0%"></stop>
            <stop stop-color="#FFFFFF" stop-opacity="0.508378623" offset="100%"></stop>
        </radialGradient>
    </defs>
    <g id="Page-1" stroke="none" stroke-width="1" fill="none" fill-rule="evenodd" opacity="0.7" stroke-opacity="0.168081975">
        <g id="撤销" transform="translate(-28.000000, -197.000000)" fill="url(#radialGradient-1)" stroke="#FFFFFF" stroke-width="0.5">
            <path d="M35,254 L57,254 C58.6568542,254 60,255.343146 60,257 C60,258.656854 58.6568542,260 57,260 L32,260 C30.3431458,260 29,258.656854 29,257 L29,201 C29,199.343146 30.3431458,198 32,198 L57,198 C58.6568542,198 60,199.343146 60,201 C60,202.656854 58.6568542,204 57,204 L35,204 L35,254 Z M94.3605894,226.646506 C95.0546894,227.195982 95.5,228.045987 95.5,229 C95.5,229.015234 95.4998865,229.030441 95.4996602,229.045621 C95.5540871,229.877652 95.2633393,230.728039 94.627417,231.363961 L84.0208153,241.970563 C82.8492424,243.142136 80.9497475,243.142136 79.7781746,241.970563 C78.6066017,240.79899 78.6066017,238.899495 79.7781746,237.727922 L85.5060967,232 L47.5,232 C45.8431458,232 44.5,230.656854 44.5,229 C44.5,227.343146 45.8431458,226 47.5,226 L85.2573593,226 L79.2781746,220.020815 C78.1066017,218.849242 78.1066017,216.949747 79.2781746,215.778175 C80.4497475,214.606602 82.3492424,214.606602 83.5208153,215.778175 L94.127417,226.384776 C94.2111215,226.468481 94.2888457,226.555901 94.3605894,226.646506 Z" id="Combined-Shape"></path>
        </g>
    </g>
</svg>