<svg width="13" height="13" xmlns="http://www.w3.org/2000/svg">
    <defs>
        <radialGradient cx="84.204%" cy="81.399%" fx="84.204%" fy="81.399%" r="117.705%" gradientTransform="matrix(-.71538 -.65675 .69874 -.6724 .876 1.914)" id="a">
            <stop stop-color="#FFF" stop-opacity=".776" offset="0%"/>
            <stop stop-color="#FFF" stop-opacity=".508" offset="100%"/>
        </radialGradient>
    </defs>
    <path d="M9.8 10.695a.437.437 0 00.438-.438V4.925a.437.437 0 00-.438-.437h-.484a.198.198 0 01-.198-.198v-.38c0-.109.089-.197.198-.197h.788a.875.875 0 01.875.877l-.014 5.968a.875.875 0 01-.875.873H2.91a.875.875 0 01-.875-.873L2.021 4.59v-.002c0-.484.392-.875.875-.875h.788c.11 0 .198.088.198.198v.379a.198.198 0 01-.198.198H3.2a.437.437 0 00-.438.437v5.332c0 .242.196.438.438.438h6.6zM7.753 6.716a.198.198 0 01.293.265L6.7 8.788a.297.297 0 01-.47.01L4.786 7.012a.198.198 0 01.277-.28l1.045.828V2.118c0-.12.097-.218.218-.218h.292c.12 0 .218.098.218.218V7.56l.918-.844z" stroke="#FFF" stroke-width=".5" fill="url(#a)" fill-rule="evenodd" fill-opacity=".2" stroke-opacity=".04"/>
</svg>
