<?xml version="1.0" encoding="UTF-8"?>
<svg viewBox="0 0 60 50" version="1.1" xmlns="http://www.w3.org/2000/svg" xmlns:xlink="http://www.w3.org/1999/xlink">
    <!-- Generator: Sketch 52.1 (67048) - http://www.bohemiancoding.com/sketch -->
    <title>Playing View Button / Subtitle</title>
    <desc>Created with Sketch.</desc>
    <defs>
        <filter x="-15.0%" y="-15.1%" width="130.0%" height="132.6%" filterUnits="objectBoundingBox" id="filter-1">
            <feOffset dx="0" dy="1" in="SourceAlpha" result="shadowOffsetOuter1"></feOffset>
            <feGaussianBlur stdDeviation="1" in="shadowOffsetOuter1" result="shadowBlurOuter1"></feGaussianBlur>
            <feColorMatrix values="0 0 0 0 0   0 0 0 0 0   0 0 0 0 0  0 0 0 0.1 0" type="matrix" in="shadowBlurOuter1" result="shadowMatrixOuter1"></feColorMatrix>
            <feMerge>
                <feMergeNode in="shadowMatrixOuter1"></feMergeNode>
                <feMergeNode in="SourceGraphic"></feMergeNode>
            </feMerge>
        </filter>
    </defs>
    <g id="Playing-View-Button-/-Subtitle" stroke="none" stroke-width="1" fill="none" fill-rule="evenodd">
        <g id="Icon---Subtitle" filter="url(#filter-1)" transform="translate(5.000000, 6.000000)">
            <path d="M23.504021,34.9728605 L14.1305197,42.5314326 C13.8978011,42.7190914 13.607855,42.8214305 13.3089005,42.8214305 C12.5860147,42.8214305 12,42.2354158 12,41.51253 L12,34.9728605 L1,34.9728605 C0.44771525,34.9728605 6.76353751e-17,34.5251452 0,33.9728605 L0,1.97286048 C-6.76353751e-17,1.42057573 0.44771525,0.972860483 1,0.972860483 L49,0.972860483 C49.5522847,0.972860483 50,1.42057573 50,1.97286048 L50,33.9728605 C50,34.5251452 49.5522847,34.9728605 49,34.9728605 L23.504021,34.9728605 Z M7.2,6.47286048 C6.5372583,6.47286048 6,7.01011878 6,7.67286048 L6,28.2728605 C6,28.9356022 6.5372583,29.4728605 7.2,29.4728605 L42.8,29.4728605 C43.4627417,29.4728605 44,28.9356022 44,28.2728605 L44,7.67286048 C44,7.01011878 43.4627417,6.47286048 42.8,6.47286048 L7.2,6.47286048 Z M12.8438819,17.5 L37.1561181,17.5 C37.6221812,17.5 38,17.8778188 38,18.3438819 L38,22.1561181 C38,22.6221812 37.6221812,23 37.1561181,23 L12.8438819,23 C12.3778188,23 12,22.6221812 12,22.1561181 L12,18.3438819 C12,17.8778188 12.3778188,17.5 12.8438819,17.5 Z" id="Combined-Shape" fill-opacity="0.9" fill="#FFFFFF"></path>
            <path d="M23.504021,34.9728605 L14.1305197,42.5314326 C13.8978011,42.7190914 13.607855,42.8214305 13.3089005,42.8214305 C12.5860147,42.8214305 12,42.2354158 12,41.51253 L12,34.9728605 L1,34.9728605 C0.44771525,34.9728605 6.76353751e-17,34.5251452 0,33.9728605 L0,1.97286048 C-6.76353751e-17,1.42057573 0.44771525,0.972860483 1,0.972860483 L49,0.972860483 C49.5522847,0.972860483 50,1.42057573 50,1.97286048 L50,33.9728605 C50,34.5251452 49.5522847,34.9728605 49,34.9728605 L23.504021,34.9728605 Z M7.2,6.47286048 C6.5372583,6.47286048 6,7.01011878 6,7.67286048 L6,28.2728605 C6,28.9356022 6.5372583,29.4728605 7.2,29.4728605 L42.8,29.4728605 C43.4627417,29.4728605 44,28.9356022 44,28.2728605 L44,7.67286048 C44,7.01011878 43.4627417,6.47286048 42.8,6.47286048 L7.2,6.47286048 Z M12.8438819,17.5 L37.1561181,17.5 C37.6221812,17.5 38,17.8778188 38,18.3438819 L38,22.1561181 C38,22.6221812 37.6221812,23 37.1561181,23 L12.8438819,23 C12.3778188,23 12,22.6221812 12,22.1561181 L12,18.3438819 C12,17.8778188 12.3778188,17.5 12.8438819,17.5 Z" id="Combined-Shape" stroke-opacity="0.3" stroke="#000000" stroke-width="0.5" opacity="0.28"></path>
        </g>
    </g>
</svg>