<?xml version="1.0" encoding="UTF-8"?>
<svg width="13px" height="13px" viewBox="0 0 13 13" version="1.1" xmlns="http://www.w3.org/2000/svg" xmlns:xlink="http://www.w3.org/1999/xlink">
    <defs>
        <radialGradient cx="81.8460892%" cy="79.2345085%" fx="81.8460892%" fy="79.2345085%" r="117.024386%" gradientTransform="translate(0.818461,0.792345),scale(0.912285,1.000000),rotate(-140.053032),translate(-0.818461,-0.792345)" id="radialGradient-1">
            <stop stop-color="#FFFFFF" stop-opacity="0.775928442" offset="0%"></stop>
            <stop stop-color="#FFFFFF" stop-opacity="0.508378623" offset="100%"></stop>
        </radialGradient>
    </defs>
    <g id="Icons/edit-default-icon" stroke="none" stroke-width="1" fill="none" fill-rule="evenodd" fill-opacity="0.7" stroke-opacity="0.168081975">
        <path d="M1.50694362,6.05922857 C1.50694362,5.93802968 1.60519473,5.83977857 1.72639362,5.83977857 L5.51332392,5.83977857 C5.6345228,5.83977857 5.73277392,5.93802968 5.73277392,6.05922857 L5.73277392,6.42032857 C5.73277392,6.54152746 5.6345228,6.63977857 5.51332392,6.63977857 L1.72639362,6.63977857 C1.60519473,6.63977857 1.50694362,6.54152746 1.50694362,6.42032857 L1.50694362,6.05922857 Z M1.50694362,3.76599085 C1.50694362,3.64479196 1.60519473,3.54654085 1.72639362,3.54654085 L6.28055,3.54654085 C6.40174889,3.54654085 6.5,3.64479196 6.5,3.76599085 L6.5,4.12709085 C6.5,4.24828974 6.40174889,4.34654085 6.28055,4.34654085 L1.72639362,4.34654085 C1.60519473,4.34654085 1.50694362,4.24828974 1.50694362,4.12709085 L1.50694362,3.76599085 Z M7.29974148,6.08948916 C7.21404092,6.0037886 7.21404092,5.86484055 7.29974148,5.77913999 L11.2671202,1.81176128 C11.3528207,1.72606073 11.4917688,1.72606073 11.5774694,1.81176128 L11.8328056,2.06709754 C11.9185062,2.1527981 11.9185062,2.29174615 11.8328056,2.37744671 L7.8654269,6.34482542 C7.77972635,6.43052597 7.64077829,6.43052597 7.55507774,6.34482542 L7.29974148,6.08948916 Z M1.50694362,8.35246629 C1.50694362,8.2312674 1.60519473,8.13301629 1.72639362,8.13301629 L8.5423402,8.13301629 C8.66353909,8.13301629 8.7617902,8.2312674 8.7617902,8.35246629 L8.7617902,8.71356629 C8.7617902,8.83476518 8.66353909,8.93301629 8.5423402,8.93301629 L1.72639362,8.93301629 C1.60519473,8.93301629 1.50694362,8.83476518 1.50694362,8.71356629 L1.50694362,8.35246629 Z M1.50694362,10.645704 C1.50694362,10.5245051 1.60519473,10.426254 1.72639362,10.426254 L10.649595,10.426254 C10.7707939,10.426254 10.869045,10.5245051 10.869045,10.645704 L10.869045,11.006804 C10.869045,11.1280029 10.7707939,11.226254 10.649595,11.226254 L1.72639362,11.226254 C1.60519473,11.226254 1.50694362,11.1280029 1.50694362,11.006804 L1.50694362,10.645704 Z" id="Combined-Shape" stroke="#FFFFFF" stroke-width="0.5" fill="url(#radialGradient-1)"></path>
    </g>
</svg>