<svg width="44" height="44" xmlns="http://www.w3.org/2000/svg" xmlns:xlink="http://www.w3.org/1999/xlink">
    <defs>
        <circle id="a" cx="22" cy="22" r="22"/>
    </defs>
    <g fill="none" fill-rule="evenodd">
        <mask id="b" fill="#fff">
            <use xlink:href="#a"/>
        </mask>
        <use fill="#E92818" xlink:href="#a"/>
        <g mask="url(#b)" fill="#FFF">
            <path d="M26.037 26.96l.001-9.826c0-.035.009-.07.012-.101.08-.047.162-.03.238-.03l2.498-.001c.747 0 1.493-.002 2.24.001.387.002.774.029 1.155.106 1.341.27 2.3 1.022 2.872 2.265.256.56.394 1.15.465 1.76.046.394.051.788.037 1.182a6.009 6.009 0 01-.295 1.713c-.431 1.282-1.287 2.148-2.562 2.597-.51.18-1.039.282-1.577.311a18.8 18.8 0 01-.99.028c-1.27.003-2.541.002-3.812.001-.085 0-.17-.003-.282-.007zm3.088-2.562c.049.005.083.012.12.012.373.001.745.007 1.118-.002.186-.006.374-.023.555-.061.54-.112.962-.401 1.232-.89.073-.13.13-.271.18-.413a3.41 3.41 0 00.156-1.338 2.692 2.692 0 00-.236-.956 1.912 1.912 0 00-1.07-1.005 2.347 2.347 0 00-.796-.172c-.395-.012-.788-.008-1.184-.01-.026 0-.053.012-.08.017-.008.028-.016.048-.016.069-.002 1.556-.002 3.114 0 4.672 0 .02.01.04.021.077zm-8.911-4.818c-.03.17-.035.958-.01 1.198.047.008.094.018.142.02.063.005.13.003.194.003h4.693c.085 0 .171.002.262.004.01.046.023.08.023.113.002.717.002 1.435 0 2.153 0 .02-.006.041-.01.075-.037.01-.077.025-.116.028-.064.004-.13.001-.194.001a6666 6666 0 00-4.736.001c-.083 0-.17-.015-.248.02-.033.18-.034.991-.002 1.195.036.007.077.017.118.02.064.003.128 0 .193 0 1.572 0 3.143 0 4.715.002.084 0 .17.004.265.007.006.046.017.08.017.112v2.304c0 .034-.008.069-.013.112-.04.006-.074.016-.107.018-.537.023-8.068.007-8.257-.02-.006-.035-.014-.076-.017-.117-.003-.05-.001-.1-.001-.15V17.03c.054-.01.094-.022.136-.026.049-.004.1-.001.15-.001h7.836c.085 0 .172-.013.25.021.034.19.044 1.274.023 2.369-.001.048-.008.097-.012.15-.096.028-.182.018-.266.018h-4.78c-.083 0-.17-.013-.248.018zm-9.422-.01c-.257-.016-.486-.008-.713-.009H8.027c-.011-.043-.027-.077-.027-.11 0-.789 0-1.577.002-2.367 0-.012.005-.028.01-.053.036-.01.075-.023.115-.027.057-.005.115-.002.172-.002l8.05.001c.092 0 .185-.012.287.02.029.208.01.415.013.62.004.215 0 .43 0 .646 0 .208.004.416 0 .623-.003.207.014.414-.012.622-.08.04-.16.025-.238.025l-2.282.001c-.077 0-.154.004-.242.006-.007.06-.017.108-.018.156v7.199c-.083.067-.166.042-.242.042-.695.002-1.391.001-2.087.001h-.56c-.049 0-.097-.005-.159-.01-.005-.05-.014-.09-.015-.131-.002-.064 0-.128 0-.194V19.85c-.002-.083-.002-.169-.002-.28z"/>
        </g>
    </g>
</svg>
