<?xml version="1.0" encoding="UTF-8"?>
<svg width="44px" height="44px" viewBox="0 0 44 44" version="1.1" xmlns="http://www.w3.org/2000/svg" xmlns:xlink="http://www.w3.org/1999/xlink">
    <!-- Generator: Sketch 58 (84663) - https://sketch.com -->
    <desc>Created with Sketch.</desc>
    <defs>
        <circle id="path-1" cx="22" cy="22" r="22"></circle>
    </defs>
    <g id="sideBarItem/__logoWithColorBg/--ted" stroke="none" stroke-width="1" fill="none" fill-rule="evenodd">
        <mask id="mask-2" fill="white">
            <use xlink:href="#path-1"></use>
        </mask>
        <use id="colorBg" fill="#E92818" xlink:href="#path-1"></use>
        <g id="编组" mask="url(#mask-2)" fill="#FFFFFF">
            <g transform="translate(8.000000, 17.000000)">
                <path d="M18.0372149,9.9593005 C18.0372149,6.66413576 18.0372149,3.39869761 18.0383367,0.133820345 C18.0383367,0.09904584 18.0467498,0.0637104564 18.0501151,0.0328621057 C18.1308817,-0.0142517391 18.2116483,0.00313551312 18.2879279,0.00313551312 C19.1208333,0.00201375491 19.9531779,0.00201375491 20.7860834,0.00201375491 C21.5326135,0.00201375491 22.2791436,-0.00022976151 23.0251128,0.00313551312 C23.4126802,0.00537902954 23.7996868,0.0317403475 24.1810846,0.108580785 C25.5221466,0.378924513 26.4812498,1.13050251 27.0527856,2.37397149 C27.3091074,2.93372884 27.4470836,3.52433453 27.5177544,4.134571 C27.5637465,4.52774725 27.5693553,4.92204526 27.5547724,5.31634327 C27.5345808,5.90021842 27.4459619,6.47287599 27.25975,7.02870718 C26.8289949,8.31143769 25.9725325,9.17687415 24.6982151,9.62613831 C24.1878152,9.80674138 23.659467,9.90769962 23.1210231,9.93742622 C22.7912262,9.95481347 22.4614293,9.96490929 22.1305106,9.96490929 C20.8601194,9.96827457 19.5897283,9.96715281 18.3193371,9.96603105 C18.2335226,9.96603105 18.1493907,9.96266578 18.0372149,9.9593005 Z M21.1254152,7.39832651 C21.1736509,7.40281354 21.2078645,7.41010497 21.2443216,7.41010497 C21.6178671,7.41122673 21.9897299,7.41683552 22.3632754,7.40786145 C22.5494873,7.40225266 22.7368209,7.38486541 22.9179849,7.34672563 C23.4586723,7.23511069 23.8804534,6.94569707 24.1502363,6.45717137 C24.2231505,6.32704742 24.2809211,6.18570588 24.3291567,6.04436435 C24.4749853,5.60968304 24.5187338,5.16041888 24.4862028,4.70554593 C24.4626459,4.37462726 24.3908534,4.05380441 24.2495119,3.75036881 C24.0268429,3.27249981 23.6701237,2.93765499 23.1799154,2.74471258 C22.9241545,2.64375434 22.6582978,2.580375 22.384028,2.57252269 C21.9891691,2.56130511 21.5959928,2.56467038 21.2000122,2.56354863 C21.1742117,2.56354863 21.1472895,2.57476621 21.1203673,2.57981412 C21.1119541,2.60841895 21.103541,2.62804972 21.103541,2.64880225 C21.1024192,4.20524177 21.1024192,5.76336392 21.103541,7.32092519 C21.1041018,7.34111684 21.1136368,7.36074761 21.1254152,7.39832651 Z" id="形状"></path>
                <path d="M12.2136072,2.57925324 C12.1844414,2.74919961 12.1788326,3.53779563 12.2046331,3.77785189 C12.2506252,3.7857042 12.297739,3.7963609 12.3459746,3.79860441 C12.409354,3.80309145 12.4755377,3.80084793 12.5400388,3.80084793 C14.1037697,3.80084793 15.6680616,3.80084793 17.2334751,3.80084793 C17.3181679,3.80084793 17.4039824,3.80309145 17.4948448,3.80533496 C17.5049406,3.85132705 17.5184017,3.88554068 17.5184017,3.91807166 C17.5195235,4.63543604 17.5195235,5.35336129 17.5184017,6.07072567 C17.5184017,6.0914782 17.5122321,6.11223072 17.507745,6.14644435 C17.4712879,6.15541841 17.4314655,6.17056215 17.3922039,6.17392742 C17.3277028,6.17841446 17.2626409,6.17504918 17.1981398,6.17504918 C15.619826,6.17504918 14.0409513,6.17504918 12.4620766,6.17617094 C12.3785056,6.17617094 12.2915693,6.1610272 12.2136072,6.19580171 C12.1810762,6.37528302 12.1799544,7.18743597 12.2124854,7.39103508 C12.2478208,7.39776563 12.288765,7.40842233 12.33027,7.41066585 C12.3942102,7.41403112 12.4581504,7.41178761 12.5232124,7.41178761 C14.0953565,7.41178761 15.6663789,7.41178761 17.2379622,7.41290937 C17.3215332,7.41290937 17.4073477,7.4173964 17.5026971,7.41963992 C17.5094277,7.465632 17.5195235,7.49984563 17.5195235,7.53237662 C17.5206452,8.30022011 17.5206452,9.0680636 17.5206452,9.8359071 C17.5206452,9.87012072 17.5122321,9.90489523 17.5071841,9.94752204 C17.4679226,9.95425259 17.4331481,9.96378753 17.4000562,9.96603105 C16.8627341,9.98902709 9.33237119,9.9727616 9.14279405,9.94640028 C9.13718526,9.91050402 9.12877208,9.86955984 9.12596768,9.82917655 C9.12260241,9.77981919 9.12484592,9.72934007 9.12484592,9.67886095 C9.12484592,6.5502773 9.12484592,3.42169366 9.12484592,0.29311001 C9.12484592,0.207856386 9.12484592,0.122041883 9.12484592,0.0300577101 C9.1792512,0.0199618863 9.21907361,0.00818342506 9.26057867,0.00369639222 C9.30993603,0.000331117595 9.36041515,0.00257463401 9.41089427,0.00257463401 C12.0234691,0.00257463401 14.6349222,0.00257463401 17.2474971,0.00369639222 C17.331629,0.00369639222 17.4191261,-0.0103255854 17.4976492,0.0244489191 C17.5312594,0.214026057 17.5413978,1.29820537 17.5200844,2.39304138 C17.5189626,2.44127698 17.5116712,2.48951258 17.507745,2.54335698 C17.4123956,2.57084005 17.3260202,2.56074423 17.2418883,2.56074423 C15.6495525,2.56186599 14.056095,2.56074423 12.4626375,2.56186599 C12.3785056,2.56186599 12.2921302,2.54840489 12.2136072,2.57925324 Z" id="路径"></path>
                <path d="M2.79195995,2.57027918 C2.53507732,2.55401368 2.30623865,2.56242687 2.07908261,2.56130511 C1.84912218,2.56018335 1.61916174,2.56130511 1.39032307,2.56130511 C1.16765406,2.56130511 0.94498506,2.56130511 0.722316055,2.56130511 C0.493477381,2.56130511 0.265199585,2.56130511 0.0273868445,2.56130511 C0.0156083833,2.51755654 0.000464647464,2.48446467 0.000464647464,2.45193368 C-0.000657110745,1.6622159 0.000464647464,0.873619884 0.00158640567,0.0844629833 C0.00158640567,0.0715627639 0.00719519672,0.055858149 0.0128039878,0.0306185893 C0.0475784923,0.0216445236 0.0868400296,0.00762254596 0.127223325,0.00425727133 C0.184432994,-0.00135151972 0.241642663,0.00201375491 0.298852331,0.00201375491 C2.98209797,0.00201375491 5.66590448,0.00201375491 8.34858924,0.00313551312 C8.44057342,0.00313551312 8.53367935,-0.00864294808 8.63575934,0.0227662818 C8.66492506,0.23085243 8.64585517,0.437816819 8.64865956,0.643659451 C8.65258572,0.858476148 8.64978132,1.07329284 8.64978132,1.28867042 C8.64978132,1.49675657 8.65258572,1.70484272 8.64865956,1.91180711 C8.64641605,2.1187715 8.66324242,2.32573589 8.6368811,2.53382203 C8.55611451,2.57420533 8.47646968,2.55906159 8.39906836,2.55906159 C7.63907717,2.56018335 6.87852511,2.55906159 6.11741216,2.56018335 C6.04001085,2.56018335 5.96317041,2.56354863 5.87511239,2.56579214 C5.86838184,2.62580621 5.85828602,2.67404181 5.85716426,2.72227741 C5.8560425,2.96569894 5.85716426,3.20968135 5.85716426,3.45422464 C5.85716426,5.52667294 5.85716426,7.60080387 5.85716426,9.67437392 C5.85716426,9.75962754 5.85716426,9.84544204 5.85716426,9.92059984 C5.77359327,9.98846621 5.69114404,9.96322666 5.61486449,9.96322666 C4.91993528,9.96547017 4.22388431,9.96434841 3.52839422,9.96434841 C3.3410606,9.96434841 3.15484873,9.96547017 2.96751511,9.96434841 C2.91927951,9.96434841 2.87104391,9.95873962 2.8093472,9.95425259 C2.80373841,9.90377347 2.79532523,9.86339017 2.79420347,9.82300688 C2.79195995,9.75850578 2.79308171,9.69456556 2.79308171,9.62894271 C2.79308171,7.37028255 2.79308171,5.108818 2.79308171,2.85015785 C2.79195995,2.76658686 2.79195995,2.68133324 2.79195995,2.57027918 Z" id="路径"></path>
            </g>
        </g>
    </g>
</svg>
