<svg width="32" height="23" xmlns="http://www.w3.org/2000/svg">
    <path d="M26 7.097c1.245-.962 2.233-1.674 2.964-2.135C30.338 4.096 32 2.978 32 5.83v9.818c0 2.384-.524 3.183-3.036 1.334A585.046 585.046 0 0026 14.812v5.258c0 1.342-.943 2.43-2.106 2.43H2.106C.943 22.5 0 21.412 0 20.07V2.43C0 1.088.943 0 2.106 0h21.788C25.057 0 26 1.088 26 2.43v4.667zM2.5 3.3v15.9a.8.8 0 00.8.8h19.4a.8.8 0 00.8-.8V3.3a.8.8 0 00-.8-.8H3.3a.8.8 0 00-.8.8z" fill="#FFF" fill-rule="evenodd" fill-opacity=".15"/>
</svg>
