<?xml version="1.0" encoding="UTF-8"?>
<svg width="32px" height="23px" viewBox="0 0 32 23" version="1.1" xmlns="http://www.w3.org/2000/svg" xmlns:xlink="http://www.w3.org/1999/xlink">
    <!-- Generator: Sketch 52.2 (67145) - http://www.bohemiancoding.com/sketch -->
    <desc>Created with Sketch.</desc>
    <g id="页面1" stroke="none" stroke-width="1" fill="none" fill-rule="evenodd" fill-opacity="0.9">
        <g id="icon-record" transform="translate(0.000000, -5.000000)" fill="#FFFFFF" fill-rule="nonzero">
            <path d="M26,12.097002 C27.2454715,11.1346664 28.2334182,10.4231256 28.96384,9.96237966 C30.3380572,9.09553124 32,7.97810261 32,10.8292281 C32,13.6803535 32,18.2634484 32,20.6472407 C32,23.031033 31.4764123,23.8297311 28.96384,21.9809484 C27.8072204,21.1298931 26.8192738,20.4069857 26,19.8122265 L26,25.07 C26,26.4120519 25.0571117,27.5 23.894,27.5 L2.106,27.5 C0.942888317,27.5 1.424401e-16,26.4120519 0,25.07 L3.84877315e-16,7.43 C2.42437215e-16,6.08794806 0.942888317,5 2.106,5 L23.894,5 C25.0571117,5 26,6.08794806 26,7.43 L26,12.097002 Z M2.5,8.3 L2.5,24.2 C2.5,24.6418278 2.8581722,25 3.3,25 L22.7,25 C23.1418278,25 23.5,24.6418278 23.5,24.2 L23.5,8.3 C23.5,7.8581722 23.1418278,7.5 22.7,7.5 L3.3,7.5 C2.8581722,7.5 2.5,7.8581722 2.5,8.3 Z" id="pictureInPicture"></path>
        </g>
    </g>
</svg>
