<svg width="16" height="17" xmlns="http://www.w3.org/2000/svg">
    <g fill="none" fill-rule="evenodd">
        <path d="M-122-467h387V71h-387z"/>
        <path d="M9.752 0a.851.851 0 00-.623.263l-4.61 4.61H.893a.852.852 0 00-.623.263.852.852 0 00-.263.623v5.315c0 .24.087.448.263.623a.852.852 0 00.623.263h3.626l4.61 4.61a.852.852 0 00.623.263c.24 0 .448-.088.623-.263a.852.852 0 00.263-.623V.887a.852.852 0 00-.263-.624A.853.853 0 009.752 0zm5.613 6.45a3.179 3.179 0 00-1.557-1.287.77.77 0 00-.346-.07.863.863 0 00-.623.257.845.845 0 00-.263.63c0 .194.055.357.166.491.11.134.244.25.402.346.156.097.313.203.47.319.157.115.29.279.402.491.11.212.166.475.166.79 0 .313-.056.576-.166.788a1.4 1.4 0 01-.402.492 7.222 7.222 0 01-.47.318 1.629 1.629 0 00-.402.346.745.745 0 00-.166.492c0 .25.088.459.263.63.175.17.383.256.623.256a.772.772 0 00.346-.07 3.27 3.27 0 001.557-1.293 3.569 3.569 0 000-3.925z" fill="#FFF" fill-opacity=".7"/>
    </g>
</svg>
