<?xml version="1.0" encoding="UTF-8"?>
<svg viewBox="0 0 46 36" version="1.1" xmlns="http://www.w3.org/2000/svg" xmlns:xlink="http://www.w3.org/1999/xlink">
    <defs>
        <filter x="-23.7%" y="-17.5%" width="147.4%" height="145.0%" filterUnits="objectBoundingBox" id="filter-1">
            <feOffset dx="0" dy="1" in="SourceAlpha" result="shadowOffsetOuter1"></feOffset>
            <feGaussianBlur stdDeviation="1" in="shadowOffsetOuter1" result="shadowBlurOuter1"></feGaussianBlur>
            <feColorMatrix values="0 0 0 0 0   0 0 0 0 0   0 0 0 0 0  0 0 0 0.1 0" type="matrix" in="shadowBlurOuter1" result="shadowMatrixOuter1"></feColorMatrix>
            <feMerge>
                <feMergeNode in="shadowMatrixOuter1"></feMergeNode>
                <feMergeNode in="SourceGraphic"></feMergeNode>
            </feMerge>
        </filter>
        <filter x="-22.5%" y="-9.7%" width="145.0%" height="125.0%" filterUnits="objectBoundingBox" id="filter-2">
            <feOffset dx="0" dy="1" in="SourceAlpha" result="shadowOffsetOuter1"></feOffset>
            <feGaussianBlur stdDeviation="1" in="shadowOffsetOuter1" result="shadowBlurOuter1"></feGaussianBlur>
            <feColorMatrix values="0 0 0 0 0   0 0 0 0 0   0 0 0 0 0  0 0 0 0.1 0" type="matrix" in="shadowBlurOuter1" result="shadowMatrixOuter1"></feColorMatrix>
            <feMerge>
                <feMergeNode in="shadowMatrixOuter1"></feMergeNode>
                <feMergeNode in="SourceGraphic"></feMergeNode>
            </feMerge>
        </filter>
    </defs>
    <g id="Playing-View-/-Button---Volume-V2---Level-2" stroke="none" stroke-width="1" fill="none" fill-rule="evenodd">
        <g id="Volume" filter="url(#filter-1)" transform="translate(0.000000, 8.000000)">
            <path d="M1,4 L5,4 C5.55228475,4 6,4.44771525 6,5 L6,15 C6,15.5522847 5.55228475,16 5,16 L1,16 C0.44771525,16 6.76353751e-17,15.5522847 0,15 L0,5 C-6.76353751e-17,4.44771525 0.44771525,4 1,4 Z M14,0 L18,0 C18.5522847,-1.01453063e-16 19,0.44771525 19,1 L19,19 C19,19.5522847 18.5522847,20 18,20 L14,20 C13.4477153,20 13,19.5522847 13,19 L13,1 C13,0.44771525 13.4477153,1.01453063e-16 14,0 Z" id="Combined-Shape" fill-opacity="0.9" fill="#FFFFFF"></path>
            <path d="M1,4 L5,4 C5.55228475,4 6,4.44771525 6,5 L6,15 C6,15.5522847 5.55228475,16 5,16 L1,16 C0.44771525,16 6.76353751e-17,15.5522847 0,15 L0,5 C-6.76353751e-17,4.44771525 0.44771525,4 1,4 Z M14,0 L18,0 C18.5522847,-1.01453063e-16 19,0.44771525 19,1 L19,19 C19,19.5522847 18.5522847,20 18,20 L14,20 C13.4477153,20 13,19.5522847 13,19 L13,1 C13,0.44771525 13.4477153,1.01453063e-16 14,0 Z" id="Combined-Shape" stroke-opacity="0.3" stroke="#000000" stroke-width="0.5" opacity="0.28"></path>
        </g>
        <g id="Volume---level-2" filter="url(#filter-2)" transform="translate(26.000000, 0.000000)">
            <rect id="Rectangle-5-Copy-2" fill-opacity="0.5" fill="#FFFFFF" x="0" y="4" width="6" height="28" rx="1"></rect>
            <rect id="Rectangle-5-Copy-2" stroke-opacity="0.3" stroke="#000000" stroke-width="0.5" opacity="0.28" x="0" y="4" width="6" height="28" rx="1"></rect>
            <rect id="Rectangle-5-Copy-4" fill-opacity="0.5" fill="#FFFFFF" x="14" y="0" width="6" height="36" rx="1"></rect>
            <rect id="Rectangle-5-Copy-4" stroke-opacity="0.3" stroke="#000000" stroke-width="0.5" opacity="0.28" x="14" y="0" width="6" height="36" rx="1"></rect>
        </g>
    </g>
</svg>