<?xml version="1.0" encoding="UTF-8"?>
<svg viewBox="0 0 46 36" version="1.1" xmlns="http://www.w3.org/2000/svg" xmlns:xlink="http://www.w3.org/1999/xlink">
    <defs>
        <filter x="-9.8%" y="-9.7%" width="119.6%" height="125.0%" filterUnits="objectBoundingBox" id="filter-1">
            <feOffset dx="0" dy="1" in="SourceAlpha" result="shadowOffsetOuter1"></feOffset>
            <feGaussianBlur stdDeviation="1" in="shadowOffsetOuter1" result="shadowBlurOuter1"></feGaussianBlur>
            <feColorMatrix values="0 0 0 0 0   0 0 0 0 0   0 0 0 0 0  0 0 0 0.1 0" type="matrix" in="shadowBlurOuter1" result="shadowMatrixOuter1"></feColorMatrix>
            <feMerge>
                <feMergeNode in="shadowMatrixOuter1"></feMergeNode>
                <feMergeNode in="SourceGraphic"></feMergeNode>
            </feMerge>
        </filter>
    </defs>
    <g id="Playing-View-/-Button---Volume-V2---Level-0" stroke="none" stroke-width="1" fill="none" fill-rule="evenodd">
        <g id="Volume---level-0" filter="url(#filter-1)">
            <rect id="Combined-Shape" fill-opacity="0.5" fill="#FFFFFF" x="0" y="12" width="6" height="12" rx="1"></rect>
            <rect id="Combined-Shape" stroke-opacity="0.3" stroke="#000000" stroke-width="0.5" opacity="0.28" x="0" y="12" width="6" height="12" rx="1"></rect>
            <path d="M14,8 L18,8 C18.5522847,8 19,8.44771525 19,9 L19,27 C19,27.5522847 18.5522847,28 18,28 L14,28 C13.4477153,28 13,27.5522847 13,27 L13,9 C13,8.44771525 13.4477153,8 14,8 Z" id="Rectangle-5-Copy" fill-opacity="0.5" fill="#FFFFFF"></path>
            <path d="M14,8 L18,8 C18.5522847,8 19,8.44771525 19,9 L19,27 C19,27.5522847 18.5522847,28 18,28 L14,28 C13.4477153,28 13,27.5522847 13,27 L13,9 C13,8.44771525 13.4477153,8 14,8 Z" id="Rectangle-5-Copy" stroke-opacity="0.3" stroke="#000000" stroke-width="0.5" opacity="0.28"></path>
            <rect id="Rectangle-5-Copy-2" fill-opacity="0.5" fill="#FFFFFF" x="26" y="4" width="6" height="28" rx="1"></rect>
            <rect id="Rectangle-5-Copy-2" stroke-opacity="0.3" stroke="#000000" stroke-width="0.5" opacity="0.28" x="26" y="4" width="6" height="28" rx="1"></rect>
            <rect id="Rectangle-5-Copy-4" fill-opacity="0.5" fill="#FFFFFF" x="40" y="0" width="6" height="36" rx="1"></rect>
            <rect id="Rectangle-5-Copy-4" stroke-opacity="0.3" stroke="#000000" stroke-width="0.5" opacity="0.28" x="40" y="0" width="6" height="36" rx="1"></rect>
        </g>
    </g>
</svg>