<svg width="201" height="177" xmlns="http://www.w3.org/2000/svg">
    <path d="M72.857 111.905c-.857.572-2 .857-3.143.857-2.571 0-4.571-1.428-5.714-3.428l-.571-.857-18.286-40c-.286-.572-.286-.858-.286-1.429 0-1.714 1.429-3.429 3.429-3.429.857 0 1.428.286 2 .572l21.428 15.428c1.429 1.143 3.429 1.715 5.429 1.715 1.143 0 2.286-.286 3.428-.572L181.714 35.62C163.43 14.191 133.714.191 100 .191 44.857.19 0 37.619 0 83.619c0 25.143 13.429 47.715 34.571 62.858 1.715 1.142 2.858 3.142 2.858 5.428 0 .857-.286 1.429-.286 2-1.714 6.286-4.286 16.286-4.572 16.857-.285.857-.571 1.715-.571 2.572 0 1.714 1.429 3.428 3.429 3.428.857 0 1.428-.285 2-.571l22-12.572c1.714-.857 3.428-1.428 5.428-1.428 1.143 0 2 .286 2.857.571 10.286 2.857 21.143 4.572 32.572 4.572 55.143 0 100-37.429 100-83.429 0-14-4-27.143-11.429-38.571l-115.428 66-.572.571z" fill="#1EAA37"/>
</svg>
