<?xml version="1.0" encoding="UTF-8"?>
<svg width="18px" height="18px" viewBox="0 0 18 18" version="1.1" xmlns="http://www.w3.org/2000/svg" xmlns:xlink="http://www.w3.org/1999/xlink">
    <!-- Generator: Sketch 52.2 (67145) - http://www.bohemiancoding.com/sketch -->
    <title>编组 7</title>
    <desc>Created with Sketch.</desc>
    <g id="页面1" stroke="none" stroke-width="1" fill="none" fill-rule="evenodd" opacity="0.9">
        <g id="展开标签" transform="translate(-413.000000, -12.000000)" fill="#FFFFFF" fill-rule="nonzero">
            <g id="youku" transform="translate(402.000000, 8.000000)">
                <g id="编组-7" transform="translate(10.000000, 3.000000)">
                    <g id="youku复制" transform="translate(1.500000, 1.500000)">
                        <path d="M12.3268973,9.25095982 C12.327846,9.24944196 12.3287946,9.24792411 12.3297433,9.24659598 C12.3380915,9.23274554 12.3458705,9.21851563 12.3536496,9.20447545 C12.3574442,9.19783482 12.3612388,9.19100446 12.3648437,9.18436384 C12.3678795,9.17867188 12.3705357,9.17279018 12.3735714,9.16709821 C12.4671445,8.98389122 12.5172643,8.78159406 12.5200446,8.57589286 C12.5202344,8.56887277 12.5204241,8.56185268 12.5204241,8.55502232 C12.5204241,8.54800223 12.5200446,8.54098214 12.5200446,8.53415179 C12.5172643,8.32845059 12.4671445,8.12615342 12.3735714,7.94294643 C12.3707254,7.93725446 12.3678795,7.93137277 12.3648438,7.9256808 C12.3612388,7.91885045 12.3574442,7.91220982 12.3536496,7.9055692 C12.3458705,7.89133929 12.3380915,7.87729911 12.3297433,7.86344866 C12.3287946,7.8619308 12.327846,7.86041295 12.3268973,7.85908482 C12.3013323,7.81656736 12.2733976,7.77552047 12.2432254,7.73613839 C12.2430357,7.73575893 12.242846,7.7355692 12.2426563,7.73518973 C12.2013386,7.68117888 12.1559894,7.63037509 12.1069978,7.58321429 C12.1056696,7.58207589 12.1045313,7.58074777 12.1032031,7.57960937 C12.0757453,7.55343727 12.0471969,7.5284337 12.0176339,7.50466518 C12.0115625,7.49973214 12.0053013,7.49479911 11.9990402,7.4900558 C11.9789273,7.47440998 11.9583643,7.45935155 11.9373772,7.44489955 C11.9326339,7.44167411 11.9280804,7.43825893 11.9233371,7.43503348 L7.73386161,4.62377232 C7.43465402,4.42303571 7.07530134,4.3509375 6.72164062,4.42037946 C6.36816964,4.49001116 6.06289062,4.69321429 5.86215402,4.99242187 C5.44777902,5.61 5.61322545,6.44975446 6.23080357,6.86412946 L8.75101562,8.55502232 L6.23080357,10.2459152 C5.61322545,10.6602902 5.44777902,11.4998549 5.86215402,12.1176228 C6.06289062,12.4168304 6.36816964,12.6200335 6.72164062,12.6896652 C7.07511161,12.7592969 7.43465402,12.6870089 7.73386161,12.4862723 L11.9233371,9.67558036 C11.9280804,9.67235491 11.9326339,9.66893973 11.9373772,9.66571429 L11.9624219,9.6480692 C11.9749442,9.63915179 11.9870871,9.62985491 11.9990402,9.62055804 C12.0053013,9.61581473 12.0113728,9.6108817 12.0176339,9.60594866 C12.0474219,9.58204241 12.0758817,9.55699777 12.1032031,9.53100446 C12.1045313,9.52986607 12.1056696,9.52853795 12.1069978,9.52739955 C12.1565179,9.47977679 12.2018638,9.42892857 12.2426562,9.37542411 C12.242846,9.37504464 12.2430357,9.37485491 12.2432254,9.37447545 C12.2735826,9.33444196 12.3014732,9.29345982 12.3268973,9.25095982 Z" id="路径"></path>
                        <path d="M16.3198103,5.19600446 C15.8923437,4.18511161 15.2804576,3.27762277 14.5014174,2.49858259 C13.7223772,1.71954241 12.8148884,1.10784598 11.8039955,0.680189732 C10.7568638,0.237165179 9.64522321,0.0127120536 8.5,0.0127120536 C7.06277902,0.0127120536 5.64206473,0.378895089 4.39154018,1.07198661 C3.18104911,1.74268973 2.1415067,2.71070312 1.38523438,3.87110491 C0.487232143,5.24875 0.0127120536,6.84933036 0.0127120536,8.5 C0.0127120536,9.64522321 0.237354911,10.7568638 0.680189732,11.8039955 C1.10765625,12.8148884 1.71954241,13.7223772 2.49858259,14.5014174 C3.27762277,15.2804576 4.18511161,15.892154 5.19600446,16.3198103 C6.24313616,16.7626451 7.35496652,16.9872879 8.5,16.9872879 C9.88409598,16.9872879 11.2583259,16.6463393 12.4739397,16.0010603 C13.6495201,15.377221 14.6767299,14.4710603 15.4441964,13.3808594 C16.4537612,11.9468638 16.9872879,10.2590067 16.9872879,8.5 C16.9872879,7.35477679 16.7628348,6.24313616 16.3198103,5.19600446 Z M8.5,14.2993527 C5.30225446,14.2993527 2.70064732,11.6977455 2.70064732,8.5 C2.70064732,7.37185268 3.02452009,6.27861607 3.63697545,5.33868304 C4.71351563,3.68668527 6.53152902,2.70064732 8.5,2.70064732 C11.6977455,2.70064732 14.2993527,5.30225446 14.2993527,8.5 C14.2993527,9.70214286 13.9352567,10.8549554 13.2461496,11.8335937 C12.1593638,13.3776339 10.3849888,14.2993527 8.5,14.2993527 Z" id="形状"></path>
                        <path d="M15.1188058,11.5082031 C14.5118527,11.0809263 13.6734263,11.2266406 13.2461496,11.8335937 C12.8188728,12.4405469 12.9645871,13.2789732 13.5715402,13.70625 C13.806808,13.8718862 14.0766071,13.9513839 14.3439397,13.9513839 C14.7664732,13.9513839 15.1823661,13.7527344 15.4440067,13.3808594 C15.8714732,12.7739062 15.7257589,11.9354799 15.1188058,11.5082031 Z M1.77722098,5.73085937 C2.39897321,6.13612723 3.23170759,5.960625 3.63697545,5.33868304 C4.0422433,4.7169308 3.86674107,3.88419643 3.24479911,3.47892857 C2.62304687,3.07366071 1.7903125,3.24916295 1.38504464,3.87110491 C0.979776786,4.49285714 1.15546875,5.32559152 1.77722098,5.73085937 Z" id="形状"></path>
                        <path d="M12.5198549,8.53396205 C12.5164167,8.32834619 12.4663331,8.12619537 12.3733817,7.9427567 C12.3705357,7.93706473 12.3676897,7.93118304 12.364654,7.92549107 C12.3610491,7.91866071 12.3572545,7.91202009 12.3534598,7.90537946 C12.3456808,7.89133929 12.3379018,7.87710937 12.3295536,7.86325893 C12.3286049,7.86174107 12.3276562,7.86022321 12.3267076,7.85889509 C12.3155134,7.84030134 12.3039397,7.82189732 12.2917969,7.80387277 C12.2762388,7.78072545 12.2599219,7.75795759 12.2430357,7.73594866 C12.242846,7.7355692 12.2426562,7.73537946 12.2424665,7.735 C12.2007254,7.68054687 12.1553795,7.62988839 12.106808,7.58302455 C12.1054799,7.58188616 12.1043415,7.58055804 12.1030134,7.57941964 C12.0755022,7.55323661 12.0468527,7.52819196 12.0174442,7.50447545 C12.0113728,7.49954241 12.0051116,7.49460937 11.9988504,7.48986607 C11.9867076,7.4805692 11.9745647,7.47127232 11.9622321,7.46235491 C11.9538839,7.45647321 11.9457254,7.45040179 11.9371875,7.44470982 C11.7117221,7.28931259 11.44431,7.20619715 11.1704799,7.20640625 C10.9027679,7.20640625 10.643404,7.28552455 10.420279,7.43522321 L8.75101562,8.55502232 L10.420279,9.67482143 C10.643404,9.82452009 10.9029576,9.90363839 11.1704799,9.90363839 C11.4490067,9.90363839 11.7152009,9.81844866 11.9371875,9.66533482 L11.9622321,9.64768973 C11.9745647,9.63877232 11.9868973,9.62947545 11.9988504,9.62017857 C12.0051116,9.61543527 12.0113728,9.61050223 12.0174442,9.6055692 C12.0468527,9.58185268 12.0755022,9.55680804 12.1030134,9.530625 C12.1043415,9.52948661 12.1054799,9.52815848 12.106808,9.52702009 C12.1555692,9.48015625 12.2009152,9.42949777 12.2424665,9.37504464 C12.2426562,9.37466518 12.242846,9.37447545 12.2430357,9.37409598 C12.2599219,9.35208705 12.2760491,9.3293192 12.2917969,9.30617187 C12.3039397,9.28795759 12.3155134,9.26955357 12.3267076,9.25114955 C12.3276562,9.2496317 12.3286049,9.24811384 12.3295536,9.24678571 C12.3379018,9.23293527 12.3456808,9.21870536 12.3534598,9.20466518 C12.3570647,9.19802455 12.3610491,9.19138393 12.364654,9.18455357 C12.3676897,9.17886161 12.370346,9.17297991 12.3733817,9.16728795 C12.4663549,8.98385739 12.5164397,8.78170147 12.5198549,8.57608259 C12.5200446,8.5690625 12.5202344,8.56204241 12.5202344,8.55521205 C12.5202344,8.5478125 12.5198549,8.54098214 12.5198549,8.53396205 Z" id="路径"></path>
                    </g>
                </g>
            </g>
        </g>
    </g>
</svg>