
<svg width="42px" height="42px" viewBox="0 0 42 42" version="1.1" xmlns="http://www.w3.org/2000/svg" xmlns:xlink="http://www.w3.org/1999/xlink">
    <defs>
        <circle id="path-1" cx="20" cy="20" r="20"></circle>
    </defs>
    <g id="页面-1" stroke="none" stroke-width="1" fill="none" fill-rule="evenodd" opacity="0.4">
        <g id="2" transform="translate(-17.000000, -157.000000)">
            <g id="sideBarItems" transform="translate(18.000000, 46.000000)">
                <g id="sideBarItem--youtube" transform="translate(0.000000, 112.000000)">
                    <mask id="mask-2" fill="white">
                        <use xlink:href="#path-1"></use>
                    </mask>
                    <circle stroke="#EBECF0" fill="#FF0000" stroke-width="1" cx="20" cy="20" r="20.5"></circle>
                    <g id="logo--youtube" stroke-width="1" fill-rule="evenodd" mask="url(#mask-2)">
                        <g transform="translate(-2.376364, 4.000000)" fill-rule="nonzero" id="路径">
                            <path d="M44.7636364,4.99636364 C44.24,3.03272727 42.6909091,1.48363636 40.72,0.952727273 C37.1563636,-1.0658141e-14 22.8581818,-1.0658141e-14 22.8581818,-1.0658141e-14 C22.8581818,-1.0658141e-14 8.56727273,-1.0658141e-14 4.99636364,0.952727273 C3.03272727,1.47636364 1.48363636,3.02545455 0.952727273,4.99636364 C1.42108547e-14,8.56 1.42108547e-14,16 1.42108547e-14,16 C1.42108547e-14,16 1.42108547e-14,23.44 0.952727273,27.0036364 C1.47636364,28.9672727 3.02545455,30.5163636 4.99636364,31.0472727 C8.56727273,32 22.8581818,32 22.8581818,32 C22.8581818,32 37.1563636,32 40.72,31.0472727 C42.6836364,30.5236364 44.2327273,28.9745455 44.7636364,27.0036364 C45.7163636,23.44 45.7163636,16 45.7163636,16 C45.7163636,16 45.7163636,8.56 44.7636364,4.99636364 Z" fill="#FF0000"></path>
                            <polygon fill="#FFFFFF" points="18.2909091 22.8581818 30.1672727 16 18.2909091 9.14181818"></polygon>
                        </g>
                    </g>
                </g>
            </g>
        </g>
    </g>
</svg>