<?xml version="1.0" encoding="UTF-8"?>
<svg width="20px" height="14px" viewBox="0 0 20 14" version="1.1" xmlns="http://www.w3.org/2000/svg" xmlns:xlink="http://www.w3.org/1999/xlink">
    <!-- Generator: Sketch 52.2 (67145) - http://www.bohemiancoding.com/sketch -->
    <desc>Created with Sketch.</desc>
    <g id="页面1" stroke="none" stroke-width="1" fill="none" fill-rule="evenodd" opacity="0.9">
        <g id="browseing" transform="translate(-568.000000, -7.000000)" fill="#FFFFFF" fill-rule="nonzero">
            <g id="YouTube" transform="translate(568.000000, 4.000000)">
                <g id="youtube复制-8" transform="translate(0.700000, 3.500000)">
                    <path d="M18.2278554,2.06332229 L18.2278554,2.06391854 L18.2045811,1.9100861 C18.4751449,3.39534425 18.6165364,4.92770613 18.6165364,6.493458 L18.6159545,6.67829542 L18.6159545,6.66935168 L18.6165364,6.84643786 C18.6165364,8.41218972 18.4751449,9.9445516 18.2278554,11.2759773 L18.2237824,11.2926723 C17.9985744,12.0898131 17.3875504,12.7112157 16.6079637,12.9359366 C15.1416823,13.3348277 9.31845069,13.3348277 9.31845069,13.3348277 C9.31845069,13.3348277 3.47834519,13.3348277 2.02893772,12.9359366 L2.0126457,12.9317629 C1.23474604,12.7009844 0.628342662,12.0748469 0.409045946,11.2759773 L0.432902111,11.4310023 C0.151282996,9.91593162 0.00407300373,8.35256475 0.00407300373,6.75342289 L0.00407300373,6.67829542 L0.00407300373,6.68306542 L0.00407300373,6.58587671 C0.00407300373,4.98673486 0.151282996,3.42336799 0.409045946,2.06332229 L0.41311895,2.0466273 C0.638326964,1.24948651 1.24935098,0.628083918 2.02893772,0.403362962 C3.4946372,-0.00268312392 9.31845069,0.00506812295 9.31845069,0.00506812295 C9.31845069,0.00506812295 15.1573925,0.00506812295 16.6079637,0.403362962 L16.6242557,0.40753671 C17.4021553,0.638315179 18.0085587,1.2644527 18.2278554,2.06332229 Z M7.34096375,9.67826437 L12.4538887,6.6746476 L7.34096375,3.661621 L7.34096375,9.67826437 Z" id="形状"></path>
                </g>
            </g>
        </g>
    </g>
</svg>
